<svg xmlns="http://www.w3.org/2000/svg" width="40" height="40" viewBox="0 0 40 40" fill="none">
<mask id="path-1-inside-1_528_7684" fill="white">
<path fill-rule="evenodd" clip-rule="evenodd" d="M17.2414 32.4103V30.2223L17.2414 30.2207V26.1284C17.2427 26.1039 17.2427 26.0794 17.2414 26.055V22.6801C17.2427 22.6556 17.2427 22.6311 17.2414 22.6068V15.297C17.246 15.2509 17.2461 15.2044 17.2414 15.1582V11.873C17.2423 11.8519 17.2423 11.8308 17.2414 11.8097V8.4247C17.2423 8.40365 17.2423 8.38254 17.2414 8.36145V4.24827L17.2414 4.24606V2.06897C17.2414 1.88606 17.314 1.71064 17.4434 1.58131C17.5727 1.45197 17.7481 1.37931 17.931 1.37931C18.023 1.37901 18.114 1.39759 18.1984 1.43389C18.2829 1.47019 18.359 1.52344 18.4221 1.59034C18.4858 1.6526 18.5362 1.72709 18.5703 1.80935C18.6045 1.8916 18.6216 1.97991 18.6207 2.06897V3.51572L18.6207 3.51723V10.9798L18.6186 10.9906C18.6034 11.0753 18.6041 11.162 18.6207 11.2464V14.8339C18.6195 14.8572 18.6195 14.8806 18.6207 14.904V19.5973C18.6204 19.6083 18.6204 19.6193 18.6207 19.6303V26.8207L18.6207 26.8277V30.9448V30.9454V32.4138C18.6207 32.5967 18.548 32.7721 18.4187 32.9015C18.2894 33.0308 18.1139 33.1034 17.931 33.1034C17.7481 33.1034 17.5727 33.0308 17.4434 32.9015C17.314 32.7721 17.2414 32.5967 17.2414 32.4138M29.3525 30.8522C27.2568 31.0649 25.1448 31.0644 23.0492 30.8509C22.0276 30.7467 21.01 30.5918 20 30.3862V27.6729C22.0441 28.0726 24.1227 28.2747 26.2069 28.2758C28.2912 28.2737 30.3697 28.0706 32.4138 27.6699V30.3862C31.3998 30.5926 30.3781 30.748 29.3525 30.8522ZM33.7931 30.942V26.8207V23.4995L33.7945 23.4921C33.8095 23.4086 33.8091 23.3231 33.7931 23.2399V19.6306C33.7934 19.6194 33.7934 19.6082 33.7931 19.597V14.9084L33.7932 14.9073C33.7946 14.8813 33.7946 14.8553 33.7931 14.8295V3.51723V2.06897C33.7931 1.88606 33.8658 1.71064 33.9951 1.58131C34.1244 1.45197 34.2999 1.37931 34.4828 1.37931C34.5747 1.37901 34.6657 1.39759 34.7502 1.43389C34.8346 1.47019 34.9107 1.52344 34.9738 1.59034C35.0375 1.6526 35.0879 1.72709 35.122 1.80935C35.1562 1.8916 35.1733 1.97991 35.1724 2.06897V4.24816V4.24826V15.1955C35.1714 15.2169 35.1714 15.2383 35.1724 15.2597V22.5851C35.1693 22.6228 35.1693 22.661 35.1724 22.699V26.0334C35.1693 26.0711 35.1693 26.1092 35.1724 26.1473V30.2207V32.399C35.1724 32.4037 35.1724 32.4084 35.1724 32.4131M36.5517 32.2434V30.7238C37.2803 30.4861 37.9972 30.2296 38.6897 29.9593C39.0758 29.8061 39.4071 29.5406 39.6407 29.197C39.8743 28.8535 39.9995 28.4478 40 28.0324V24.9211C40.0047 24.8883 40.0071 24.8551 40.007 24.8218C40.007 24.7893 40.0046 24.7569 40 24.7248V21.4728C40.0047 21.44 40.0071 21.4068 40.007 21.3735C40.007 21.341 40.0046 21.3086 40 21.2766V18.655C40.0011 18.6321 40.0011 18.6092 40 18.5864V15.8736C40.0001 15.8659 40.0001 15.8582 40 15.8505V13.183C40.0062 13.1299 40.0061 13.0766 40 13.024V9.7347C40.0062 9.68166 40.0061 9.62831 40 9.57571V6.44619C39.9996 6.03311 39.8761 5.62952 39.6453 5.28693C39.4145 4.94434 39.0868 4.6783 38.7041 4.52274C37.9982 4.2434 37.276 3.98161 36.5517 3.74454V2.06897C36.549 1.52108 36.3302 0.996409 35.9427 0.60899C35.5553 0.221572 35.0306 0.00271909 34.4828 0C33.934 0 33.4078 0.21798 33.0198 0.605986C32.6318 0.993992 32.4138 1.52024 32.4138 2.06897V2.66804C28.3149 1.86479 24.0989 1.86479 20 2.66804V2.06897C19.9973 1.52108 19.7784 0.996409 19.391 0.60899C19.0036 0.221572 18.4789 0.00271909 17.931 0C17.3823 0 16.8561 0.21798 16.4681 0.605986C16.08 0.993992 15.8621 1.52024 15.8621 2.06897V3.74459C15.138 3.98202 14.4162 4.24281 13.711 4.52206C13.328 4.67732 13.0001 4.94326 12.769 5.28588C12.5379 5.6285 12.4142 6.03225 12.4138 6.44551V10.4152C11.7567 10.55 11.1477 10.8746 10.6664 11.356C10.3589 11.6635 10.1154 12.023 9.94448 12.4138H5.51724V9.65517H6.89655C7.07946 9.65517 7.25488 9.58251 7.38421 9.45318C7.51355 9.32384 7.58621 9.14843 7.58621 8.96552C7.58621 8.78261 7.51355 8.60719 7.38421 8.47786C7.25488 8.34852 7.07946 8.27586 6.89655 8.27586H4.82759H2.75862C2.57571 8.27586 2.4003 8.34852 2.27096 8.47786C2.14163 8.60719 2.06897 8.78261 2.06897 8.96552C2.06897 9.14843 2.14163 9.32384 2.27096 9.45318C2.4003 9.58251 2.57571 9.65517 2.75862 9.65517H4.13793V12.4842C3.48083 12.619 2.87189 12.9436 2.3905 13.425C1.74406 14.0714 1.38041 14.9479 1.37931 15.8621V20.6897H0.689655C0.506747 20.6897 0.331331 20.7623 0.201995 20.8916C0.0726599 21.021 0 21.1964 0 21.3793C0 21.5622 0.0726599 21.7376 0.201995 21.867C0.331331 21.9963 0.506747 22.069 0.689655 22.069H2.06897H4.82759H6.2069C6.3898 22.069 6.56522 21.9963 6.69456 21.867C6.82389 21.7376 6.89655 21.5622 6.89655 21.3793C6.89655 21.1964 6.82389 21.021 6.69456 20.8916C6.56522 20.7623 6.3898 20.6897 6.2069 20.6897H5.51724V16.5517H9.65517V20.6897C9.65627 21.6039 10.0199 22.4803 10.6664 23.1267C11.1477 23.6081 11.7567 23.9327 12.4138 24.0675V24.717C12.4083 24.7521 12.4055 24.7876 12.4054 24.8232C12.4053 24.8596 12.4082 24.8958 12.4138 24.9316V28.0317C12.414 28.4467 12.5385 28.852 12.7714 29.1955C13.0042 29.539 13.3346 29.8048 13.72 29.9586C14.4138 30.2295 15.1318 30.4864 15.8621 30.7245V32.2503L14.0562 35.8621H13.1034C12.9205 35.8621 12.7451 35.9347 12.6158 36.0641C12.4865 36.1934 12.4138 36.3688 12.4138 36.5517V39.3103C12.4138 39.4933 12.4865 39.6687 12.6158 39.798C12.7451 39.9273 12.9205 40 13.1034 40H39.3103C39.4933 40 39.6687 39.9273 39.798 39.798C39.9273 39.6687 40 39.4933 40 39.3103V36.5517C40 36.3688 39.9273 36.1934 39.798 36.0641C39.6687 35.9347 39.4933 35.8621 39.3103 35.8621H38.361L36.5517 32.2434ZM32.4138 32.4138C32.4138 32.9625 32.6318 33.4888 33.0198 33.8768C33.4078 34.2648 33.934 34.4828 34.4828 34.4828C34.9931 34.4828 35.484 34.2942 35.8623 33.9557L36.8152 35.8621H15.5986L16.5515 33.9557C16.9298 34.2942 17.4207 34.4828 17.931 34.4828C18.4798 34.4828 19.006 34.2648 19.394 33.8768C19.7783 33.4925 19.9958 32.9726 19.9999 32.4296C20 32.4243 20 32.4191 20 32.4138L20 31.7931C24.0994 32.5917 28.3144 32.5917 32.4138 31.7931L32.4138 32.4138ZM37.9378 37.2414C37.9358 37.2414 37.9338 37.2414 37.9318 37.2414C37.9316 37.2414 37.9313 37.2414 37.931 37.2414H14.4828L13.7931 37.2414V38.6207H38.6207V37.2414H37.9378ZM33.7931 30.942C33.7931 30.9429 33.7931 30.9439 33.7931 30.9448L33.7931 32.4138C33.7931 32.5967 33.8658 32.7721 33.9951 32.9015C34.1244 33.0308 34.2999 33.1034 34.4828 33.1034C34.4942 33.1034 34.5056 33.1032 34.517 33.1026C34.6874 33.0941 34.8492 33.0227 34.9704 32.9015C34.9866 32.8853 35.0019 32.8684 35.0162 32.8509C35.1168 32.7281 35.1724 32.5738 35.1724 32.4138M32.4138 26.2633V24.2212C30.3696 24.6209 28.2911 24.823 26.2069 24.8242C24.1227 24.823 22.0441 24.6209 20 24.2212V26.2633C24.0954 27.1022 28.3184 27.1022 32.4138 26.2633ZM32.4138 22.815V20.3806C30.3514 20.5865 28.2799 20.6897 26.2069 20.6896C24.1339 20.6897 22.0624 20.5865 20 20.3806V22.815C24.0954 23.6539 28.3184 23.6539 32.4138 22.815ZM32.4138 18.9939V15.4889C28.2866 15.0674 24.1272 15.0674 20 15.4888V18.9939C24.1272 19.4153 28.2866 19.4153 32.4138 18.9939ZM32.4138 14.1022V11.6679C28.3184 10.8289 24.0954 10.8288 20 11.6677V14.1021C24.1277 13.6905 28.2861 13.6906 32.4138 14.1022ZM32.4138 10.2613V8.21966C28.3184 7.38066 24.0954 7.38057 20 8.21938V10.261C24.0989 9.45785 28.3149 9.45794 32.4138 10.2613ZM32.4138 6.81301V4.07585C28.3185 3.23585 24.0953 3.23585 20 4.07585V6.81274C24.0989 6.00958 28.3149 6.00967 32.4138 6.81301ZM36.5517 29.2689C37.1097 29.08 37.6552 28.8807 38.1924 28.6724C38.3195 28.6204 38.4281 28.5316 38.5044 28.4175C38.5807 28.3033 38.6212 28.169 38.6207 28.0317V25.8474C37.9333 26.1152 37.2414 26.3645 36.5517 26.5909V29.2689ZM36.5517 25.1382C37.2429 24.9022 37.935 24.6437 38.6207 24.3649V22.3991C37.9333 22.6669 37.2414 22.9162 36.5517 23.1426V25.1382ZM36.5517 21.6899C37.2429 21.454 37.935 21.1954 38.6207 20.9166V19.4652C37.9177 19.6042 37.2257 19.7305 36.5517 19.8426V21.6899ZM36.5517 18.4438C37.2263 18.329 37.9182 18.2 38.6207 18.0584V16.4247C37.9182 16.283 37.2263 16.154 36.5517 16.0392V18.4438ZM36.5517 14.6404C37.2257 14.7525 37.9177 14.8788 38.6207 15.0178V13.565C37.935 13.2868 37.2429 13.0284 36.5517 12.792V14.6404ZM36.5517 11.3363C37.2423 11.5623 37.9337 11.8107 38.6207 12.0787V10.1167C37.935 9.83851 37.2429 9.58009 36.5517 9.34376V11.3363ZM36.5517 7.888C37.2423 8.11406 37.9337 8.36242 38.6207 8.63042V6.4455C38.6215 6.3086 38.5815 6.17457 38.5058 6.06047C38.4302 5.94638 38.3223 5.85738 38.1959 5.80481C37.6552 5.59102 37.1034 5.38895 36.5517 5.19998V7.888ZM15.8621 26.5932V29.271C15.3041 29.0821 14.7552 28.8814 14.2214 28.6745C14.0941 28.6224 13.9853 28.5334 13.909 28.419C13.8327 28.3046 13.7923 28.1699 13.7931 28.0324V25.8507C14.4801 26.1187 15.1715 26.3671 15.8621 26.5932ZM15.8621 23.1449V25.1392C15.1709 24.9029 14.4788 24.6445 13.7931 24.3664V23.4483V22.4024C14.4801 22.6704 15.1715 22.9188 15.8621 23.1449ZM15.8621 19.8426V21.691C15.1709 21.4547 14.4788 21.1962 13.7931 20.9181V19.4652C14.4961 19.6042 15.1881 19.7305 15.8621 19.8426ZM15.8621 16.0397V18.4438C15.1875 18.329 14.4956 18.2 13.7931 18.0584V16.4252C14.4956 16.2835 15.1875 16.1545 15.8621 16.0397ZM15.8621 12.793V14.6408C15.1881 14.753 14.496 14.8793 13.7931 15.0183V13.5664C14.4788 13.2876 15.1709 13.029 15.8621 12.793ZM15.8621 9.34478V11.3385C15.1724 11.5649 14.4805 11.8142 13.7931 12.0819V11.0345V10.1181C14.4788 9.83931 15.1709 9.58073 15.8621 9.34478ZM15.8621 5.19999V7.89021C15.1724 8.11663 14.4805 8.3659 13.7931 8.63367V6.4462C13.7922 6.3091 13.8323 6.17487 13.9081 6.06062C13.9839 5.94638 14.092 5.85732 14.2186 5.80482C14.7586 5.59103 15.3103 5.38827 15.8621 5.19999ZM12.4138 21.2688V18.6549C12.4127 18.6322 12.4127 18.6093 12.4138 18.5864V11.8421C12.0107 11.9852 11.6617 12.2496 11.4148 12.5989C11.1678 12.9482 11.035 13.3653 11.0345 13.7931V15.8621V20.6897C11.035 21.1174 11.1678 21.5346 11.4148 21.8839C11.6617 22.2332 12.0107 22.4975 12.4138 22.6407V21.4834C12.4082 21.4476 12.4053 21.4113 12.4054 21.3749C12.4055 21.3393 12.4083 21.3038 12.4138 21.2688ZM4.82759 13.7931C4.27886 13.7931 3.75261 14.0111 3.36461 14.3991C2.9766 14.7871 2.75862 15.3133 2.75862 15.8621V20.6897H4.13793V16.5517C4.13793 16.1859 4.28325 15.8351 4.54192 15.5764C4.80059 15.3177 5.15143 15.1724 5.51724 15.1724H9.65517V13.7931H4.82759Z"/>
</mask>
<path d="M33.7931 30.942L33.8843 30.8565L33.7019 31.0275L33.7931 30.942ZM17.3664 32.4138V32.4103H17.1164V32.4138H17.3664ZM35.2636 32.3276L33.8843 30.8565L33.7019 31.0275L35.0812 32.4986L35.2636 32.3276ZM35.2636 32.3283L33.8843 30.8565L33.7019 31.0275L35.0812 32.4993L35.2636 32.3283ZM17.2414 30.2223L16.9914 30.222V30.2223H17.2414ZM17.2414 30.2207L17.4914 30.221V30.2207H17.2414ZM17.2414 26.1284L16.9914 26.1151V26.1284H17.2414ZM17.2414 26.055H16.991L16.9917 26.0683L17.2414 26.055ZM17.2414 22.6801L16.9914 22.6668V22.6801H17.2414ZM17.2414 22.6068H16.991L16.9917 22.6201L17.2414 22.6068ZM17.2414 15.297L16.9926 15.2718L16.9914 15.2844V15.297H17.2414ZM17.2414 15.1582H16.9914V15.1708L16.9927 15.1833L17.2414 15.1582ZM17.2414 11.873L16.9914 11.8615V11.873H17.2414ZM17.2414 11.8097H16.9911L16.9916 11.8212L17.2414 11.8097ZM17.2414 8.4247L16.9914 8.41322V8.4247H17.2414ZM17.2414 8.36145H16.9911L16.9916 8.37292L17.2414 8.36145ZM17.2414 4.24827L17.4914 4.24827L17.4914 4.24805L17.2414 4.24827ZM17.2414 4.24606L16.9914 4.24606L16.9914 4.24627L17.2414 4.24606ZM17.4434 1.58131L17.6202 1.75808L17.6202 1.75808L17.4434 1.58131ZM17.931 1.37931L17.931 1.62931L17.9318 1.62931L17.931 1.37931ZM18.1984 1.43389L18.2972 1.2042L18.2972 1.2042L18.1984 1.43389ZM18.4221 1.59034L18.24 1.76195L18.2473 1.76912L18.4221 1.59034ZM18.5703 1.80935L18.3394 1.90517L18.3394 1.90517L18.5703 1.80935ZM18.6207 2.06897L18.3707 2.06645V2.06897H18.6207ZM18.6207 3.51572L18.8707 3.51603V3.51572H18.6207ZM18.6207 3.51723L18.3707 3.51691V3.51723H18.6207ZM18.6207 10.9798L18.8664 11.0261L18.8707 11.0032V10.9798H18.6207ZM18.6186 10.9906L18.373 10.9443L18.3726 10.9462L18.6186 10.9906ZM18.6207 11.2464H18.8707V11.222L18.866 11.198L18.6207 11.2464ZM18.6207 14.8339L18.8707 14.8466V14.8339H18.6207ZM18.6207 14.904H18.871L18.8704 14.8913L18.6207 14.904ZM18.6207 19.5973L18.8707 19.6033V19.5973H18.6207ZM18.6207 19.6303H18.8708L18.8706 19.6244L18.6207 19.6303ZM18.6207 26.8207L18.3707 26.8207L18.3707 26.8207L18.6207 26.8207ZM18.6207 26.8277L18.8707 26.8277L18.8707 26.8276L18.6207 26.8277ZM18.4187 32.9015L18.2419 32.7247L18.2419 32.7247L18.4187 32.9015ZM17.4434 32.9015L17.6202 32.7247L17.6202 32.7247L17.4434 32.9015ZM23.0492 30.8509L23.0238 31.0996L23.0238 31.0996L23.0492 30.8509ZM29.3525 30.8522L29.3777 31.1009L29.3778 31.1009L29.3525 30.8522ZM20 30.3862H19.75V30.5905L19.9501 30.6312L20 30.3862ZM20 27.6729L20.048 27.4276L19.75 27.3693V27.6729H20ZM26.2069 28.2758L26.2068 28.5258L26.2072 28.5258L26.2069 28.2758ZM32.4138 27.6699H32.6638V27.3661L32.3657 27.4246L32.4138 27.6699ZM32.4138 30.3862L32.4637 30.6312L32.6638 30.5905V30.3862H32.4138ZM33.7931 23.4995L33.5473 23.4538L33.5431 23.4764V23.4995H33.7931ZM33.7945 23.4921L34.0403 23.5379L34.0405 23.5365L33.7945 23.4921ZM33.7931 23.2399H33.5431V23.2636L33.5476 23.2869L33.7931 23.2399ZM33.7931 19.6306L33.5431 19.6246V19.6306H33.7931ZM33.7931 19.597H33.543L33.5432 19.6031L33.7931 19.597ZM33.7931 14.9084L33.5431 14.8943V14.9084H33.7931ZM33.7932 14.9073L34.0428 14.9214L34.0428 14.9212L33.7932 14.9073ZM33.7931 14.8295H33.5431V14.8367L33.5435 14.8438L33.7931 14.8295ZM33.9951 1.58131L34.1719 1.75808L34.1719 1.75808L33.9951 1.58131ZM34.4828 1.37931L34.4828 1.62931L34.4836 1.62931L34.4828 1.37931ZM34.7502 1.43389L34.8489 1.2042L34.8489 1.2042L34.7502 1.43389ZM34.9738 1.59034L34.7917 1.76195L34.799 1.76912L34.9738 1.59034ZM35.122 1.80935L34.8911 1.90517L34.8911 1.90517L35.122 1.80935ZM35.1724 2.06897L34.9224 2.06645V2.06897H35.1724ZM35.1724 15.1955L35.4224 15.2071V15.1955H35.1724ZM35.1724 15.2597L35.4227 15.2597L35.4221 15.248L35.1724 15.2597ZM35.1724 22.5851L35.4216 22.6057L35.4224 22.5954V22.5851H35.1724ZM35.1724 22.699H35.4224V22.6887L35.4216 22.6784L35.1724 22.699ZM35.1724 26.0334L35.4216 26.054L35.4224 26.0437V26.0334H35.1724ZM35.1724 26.1473H35.4224V26.137L35.4216 26.1266L35.1724 26.1473ZM35.1724 32.399L35.4224 32.4016V32.399H35.1724ZM36.5517 32.2434H36.3017V32.3024L36.3281 32.3552L36.5517 32.2434ZM36.5517 30.7238L36.4742 30.4861L36.3017 30.5424V30.7238H36.5517ZM38.6897 29.9593L38.7806 30.1922L38.7818 30.1917L38.6897 29.9593ZM39.6407 29.197L39.8474 29.3376L39.8474 29.3376L39.6407 29.197ZM40 28.0324L40.25 28.0327V28.0324H40ZM40 24.9211L39.7525 24.8855L39.75 24.9032V24.9211H40ZM40.007 24.8218L39.757 24.8222L39.757 24.8222L40.007 24.8218ZM40 24.7248H39.75V24.7427L39.7525 24.7604L40 24.7248ZM40 21.4728L39.7525 21.4372L39.75 21.4549V21.4728H40ZM40.007 21.3735L39.757 21.3739L39.757 21.374L40.007 21.3735ZM40 21.2766H39.75V21.2944L39.7525 21.3121L40 21.2766ZM40 18.655L39.75 18.6426V18.655H40ZM40 18.5864H39.7497L39.7503 18.5988L40 18.5864ZM40 15.8736L39.75 15.8694V15.8736H40ZM40 15.8505L39.75 15.8505L39.75 15.8547L40 15.8505ZM40 13.183L39.7517 13.1541L39.75 13.1685V13.183H40ZM40 13.024H39.75V13.0384L39.7517 13.0528L40 13.024ZM40 9.7347L39.7517 9.70587L39.75 9.72024V9.7347H40ZM40 9.57571H39.75V9.59016L39.7517 9.60452L40 9.57571ZM40 6.44619L40.25 6.44619L40.25 6.44593L40 6.44619ZM39.6453 5.28693L39.8526 5.14725L39.8526 5.14725L39.6453 5.28693ZM38.7041 4.52274L38.7983 4.29113L38.7961 4.29028L38.7041 4.52274ZM36.5517 3.74454H36.3017V3.92576L36.474 3.98214L36.5517 3.74454ZM36.5517 2.06897H36.8017L36.8017 2.06772L36.5517 2.06897ZM35.9427 0.60899L35.766 0.785767L35.766 0.785767L35.9427 0.60899ZM34.4828 0L34.484 -0.25H34.4828V0ZM33.0198 0.605986L33.1966 0.782763L33.1966 0.782762L33.0198 0.605986ZM32.4138 2.66804L32.3657 2.91337L32.6638 2.97178V2.66804H32.4138ZM20 2.66804H19.75V2.97178L20.0481 2.91337L20 2.66804ZM20 2.06897H20.25L20.25 2.06772L20 2.06897ZM19.391 0.60899L19.2142 0.785767L19.2142 0.785767L19.391 0.60899ZM17.931 0L17.9323 -0.25H17.931V0ZM16.4681 0.605986L16.6448 0.782763L16.6448 0.782763L16.4681 0.605986ZM15.8621 3.74459L15.94 3.98215L16.1121 3.92571V3.74459H15.8621ZM13.711 4.52206L13.619 4.28961L13.6171 4.29038L13.711 4.52206ZM12.769 5.28588L12.5617 5.1461L12.5617 5.1461L12.769 5.28588ZM12.4138 6.44551L12.1638 6.44524V6.44551H12.4138ZM12.4138 10.4152L12.464 10.6601L12.6638 10.6192V10.4152H12.4138ZM10.6664 11.356L10.8431 11.5328L10.8431 11.5328L10.6664 11.356ZM9.94448 12.4138V12.6638H10.108L10.1735 12.514L9.94448 12.4138ZM5.51724 12.4138H5.26724V12.6638H5.51724V12.4138ZM5.51724 9.65517V9.40517H5.26724V9.65517H5.51724ZM4.13793 9.65517H4.38793V9.40517H4.13793V9.65517ZM4.13793 12.4842L4.18817 12.7291L4.38793 12.6881V12.4842H4.13793ZM2.3905 13.425L2.56727 13.6018L2.56727 13.6018L2.3905 13.425ZM1.37931 15.8621L1.12931 15.8618V15.8621H1.37931ZM1.37931 20.6897V20.9397H1.62931V20.6897H1.37931ZM0.201995 20.8916L0.378772 21.0684L0.378772 21.0684L0.201995 20.8916ZM0.201995 21.867L0.378772 21.6902L0.378772 21.6902L0.201995 21.867ZM5.51724 20.6897H5.26724V20.9397H5.51724V20.6897ZM5.51724 16.5517V16.3017H5.26724V16.5517H5.51724ZM9.65517 16.5517H9.90517V16.3017H9.65517V16.5517ZM9.65517 20.6897H9.40517L9.40517 20.69L9.65517 20.6897ZM12.4138 24.0675H12.6638V23.8636L12.464 23.8226L12.4138 24.0675ZM12.4138 24.717L12.6607 24.7559L12.6638 24.7366V24.717H12.4138ZM12.4054 24.8232L12.6554 24.8236L12.6554 24.8236L12.4054 24.8232ZM12.4138 24.9316H12.6638V24.9121L12.6607 24.8927L12.4138 24.9316ZM12.4138 28.0317L12.1638 28.0317L12.1638 28.0318L12.4138 28.0317ZM12.7714 29.1955L12.5644 29.3358L12.5644 29.3358L12.7714 29.1955ZM13.72 29.9586L13.6273 30.1908L13.6291 30.1915L13.72 29.9586ZM15.8621 30.7245H16.1121V30.5431L15.9396 30.4868L15.8621 30.7245ZM15.8621 32.2503L16.0857 32.3622L16.1121 32.3094V32.2503H15.8621ZM14.0562 35.8621V36.1121H14.2107L14.2798 35.9739L14.0562 35.8621ZM12.6158 36.0641L12.7926 36.2408L12.7926 36.2408L12.6158 36.0641ZM39.798 39.798L39.9748 39.9748L39.9748 39.9748L39.798 39.798ZM38.361 35.8621L38.1374 35.9739L38.2065 36.1121H38.361V35.8621ZM32.4138 32.4138L32.1638 32.4138V32.4138H32.4138ZM35.8623 33.9557L36.086 33.8439L35.9396 33.5511L35.6956 33.7694L35.8623 33.9557ZM36.8152 35.8621V36.1121H37.2196L37.0388 35.7503L36.8152 35.8621ZM15.5986 35.8621L15.375 35.7503L15.1942 36.1121H15.5986V35.8621ZM16.5515 33.9557L16.7182 33.7694L16.4742 33.5511L16.3278 33.8439L16.5515 33.9557ZM19.394 33.8768L19.5708 34.0535L19.5708 34.0535L19.394 33.8768ZM19.9999 32.4296L20.2499 32.4315L20.2499 32.4315L19.9999 32.4296ZM20 32.4138L19.75 32.4138V32.4138H20ZM20 31.7931L20.0478 31.5477L19.75 31.4897L19.75 31.7931L20 31.7931ZM32.4138 31.7931L32.6638 31.7931L32.6638 31.4897L32.366 31.5477L32.4138 31.7931ZM37.9378 37.2414V36.9914L37.9369 36.9914L37.9378 37.2414ZM37.9318 37.2414L37.9328 36.9914H37.9318V37.2414ZM14.4828 37.2414L14.4828 36.9914L14.4828 36.9914L14.4828 37.2414ZM13.7931 37.2414L13.7931 36.9914L13.5431 36.9914V37.2414H13.7931ZM13.7931 38.6207H13.5431V38.8707H13.7931V38.6207ZM38.6207 38.6207V38.8707H38.8707V38.6207H38.6207ZM38.6207 37.2414H38.8707V36.9914H38.6207V37.2414ZM33.7931 30.9448L34.0431 30.9448V30.9448H33.7931ZM33.7931 32.4138L33.5431 32.4138V32.4138H33.7931ZM33.9951 32.9015L34.1719 32.7247L34.1719 32.7247L33.9951 32.9015ZM34.517 33.1026L34.5046 32.8529L34.5046 32.8529L34.517 33.1026ZM34.9704 32.9015L34.7936 32.7247L34.7936 32.7247L34.9704 32.9015ZM35.0162 32.8509L35.2096 33.0093L35.2096 33.0093L35.0162 32.8509ZM32.4138 24.2212H32.6638V23.9176L32.3658 23.9759L32.4138 24.2212ZM32.4138 26.2633L32.464 26.5082L32.6638 26.4672V26.2633H32.4138ZM26.2069 24.8242L26.2068 25.0742L26.207 25.0742L26.2069 24.8242ZM20 24.2212L20.048 23.9759L19.75 23.9176V24.2212H20ZM20 26.2633H19.75V26.4672L19.9498 26.5082L20 26.2633ZM32.4138 20.3806H32.6638V20.1044L32.389 20.1319L32.4138 20.3806ZM32.4138 22.815L32.464 23.0599L32.6638 23.019V22.815H32.4138ZM26.2069 20.6896L26.2069 20.4396L26.2069 20.4396L26.2069 20.6896ZM20 20.3806L20.0248 20.1319L19.75 20.1044V20.3806H20ZM20 22.815H19.75V23.019L19.9498 23.0599L20 22.815ZM32.4138 15.4889H32.6638V15.2631L32.4392 15.2402L32.4138 15.4889ZM32.4138 18.9939L32.4392 19.2426L32.6638 19.2197V18.9939H32.4138ZM20 15.4888L19.9746 15.24L19.75 15.263V15.4888H20ZM20 18.9939H19.75V19.2197L19.9746 19.2426L20 18.9939ZM32.4138 11.6679H32.6638V11.464L32.464 11.423L32.4138 11.6679ZM32.4138 14.1022L32.389 14.351L32.6638 14.3784V14.1022H32.4138ZM20 11.6677L19.9498 11.4227L19.75 11.4637V11.6677H20ZM20 14.1021H19.75V14.3783L20.0248 14.3509L20 14.1021ZM32.4138 8.21966H32.6638V8.01568L32.464 7.97475L32.4138 8.21966ZM32.4138 10.2613L32.3657 10.5066L32.6638 10.565V10.2613H32.4138ZM20 8.21938L19.9498 7.97446L19.75 8.01539V8.21938H20ZM20 10.261H19.75V10.5648L20.0481 10.5063L20 10.261ZM32.4138 4.07585H32.6638V3.87192L32.464 3.83095L32.4138 4.07585ZM32.4138 6.81301L32.3657 7.05834L32.6638 7.11676V6.81301H32.4138ZM20 4.07585L19.9498 3.83095L19.75 3.87192V4.07585H20ZM20 6.81274H19.75V7.11648L20.0481 7.05807L20 6.81274ZM38.1924 28.6724L38.2828 28.9055L38.2872 28.9037L38.1924 28.6724ZM36.5517 29.2689H36.3017V29.6176L36.6319 29.5057L36.5517 29.2689ZM38.6207 28.0317L38.3707 28.0317L38.3707 28.0326L38.6207 28.0317ZM38.6207 25.8474H38.8707V25.4817L38.5299 25.6145L38.6207 25.8474ZM36.5517 26.5909L36.4737 26.3534L36.3017 26.4099V26.5909H36.5517ZM38.6207 24.3649L38.7149 24.5965L38.8707 24.5331V24.3649H38.6207ZM36.5517 25.1382H36.3017V25.4877L36.6325 25.3748L36.5517 25.1382ZM38.6207 22.3991H38.8707V22.0334L38.5299 22.1662L38.6207 22.3991ZM36.5517 23.1426L36.4737 22.9051L36.3017 22.9616V23.1426H36.5517ZM38.6207 20.9166L38.7149 21.1482L38.8707 21.0848V20.9166H38.6207ZM36.5517 21.6899H36.3017V22.0394L36.6325 21.9265L36.5517 21.6899ZM38.6207 19.4652H38.8707V19.1609L38.5722 19.22L38.6207 19.4652ZM36.5517 19.8426L36.5107 19.596L36.3017 19.6307V19.8426H36.5517ZM38.6207 18.0584L38.6701 18.3034L38.8707 18.263V18.0584H38.6207ZM36.5517 18.4438H36.3017V18.7399L36.5937 18.6902L36.5517 18.4438ZM38.6207 16.4247H38.8707V16.2201L38.6701 16.1796L38.6207 16.4247ZM36.5517 16.0392L36.5937 15.7928L36.3017 15.7431V16.0392H36.5517ZM38.6207 15.0178L38.5722 15.263L38.8707 15.3221V15.0178H38.6207ZM36.5517 14.6404H36.3017V14.8522L36.5107 14.887L36.5517 14.6404ZM38.6207 13.565H38.8707V13.3966L38.7147 13.3333L38.6207 13.565ZM36.5517 12.792L36.6326 12.5555L36.3017 12.4424V12.792H36.5517ZM38.6207 12.0787L38.5298 12.3116L38.8707 12.4446V12.0787H38.6207ZM36.5517 11.3363H36.3017V11.5175L36.474 11.5739L36.5517 11.3363ZM38.6207 10.1167H38.8707V9.94832L38.7147 9.88503L38.6207 10.1167ZM36.5517 9.34376L36.6326 9.10721L36.3017 8.99407V9.34376H36.5517ZM38.6207 8.63042L38.5298 8.86333L38.8707 8.99629V8.63042H38.6207ZM36.5517 7.888H36.3017V8.06923L36.474 8.1256L36.5517 7.888ZM38.6207 6.4455L38.3707 6.44408V6.4455H38.6207ZM38.5058 6.06047L38.2975 6.19863L38.2975 6.19863L38.5058 6.06047ZM38.1959 5.80481L38.2919 5.57394L38.2878 5.57232L38.1959 5.80481ZM36.5517 5.19998L36.6327 4.96347L36.3017 4.8501V5.19998H36.5517ZM15.8621 29.271L15.7819 29.5078L16.1121 29.6197V29.271H15.8621ZM15.8621 26.5932H16.1121V26.4119L15.9398 26.3556L15.8621 26.5932ZM14.2214 28.6745L14.1266 28.9059L14.131 28.9076L14.2214 28.6745ZM13.909 28.419L14.117 28.2802L14.117 28.2802L13.909 28.419ZM13.7931 28.0324L14.0431 28.0338V28.0324H13.7931ZM13.7931 25.8507L13.884 25.6178L13.5431 25.4848V25.8507H13.7931ZM15.8621 25.1392L15.7812 25.3758L16.1121 25.4889V25.1392H15.8621ZM15.8621 23.1449H16.1121V22.9637L15.9398 22.9073L15.8621 23.1449ZM13.7931 24.3664H13.5431V24.5347L13.6991 24.598L13.7931 24.3664ZM13.7931 22.4024L13.884 22.1695L13.5431 22.0366V22.4024H13.7931ZM15.8621 21.691L15.7812 21.9275L16.1121 22.0406V21.691H15.8621ZM15.8621 19.8426H16.1121V19.6307L15.9031 19.596L15.8621 19.8426ZM13.7931 20.9181H13.5431V21.0865L13.6991 21.1497L13.7931 20.9181ZM13.7931 19.4652L13.8416 19.22L13.5431 19.1609V19.4652H13.7931ZM15.8621 18.4438L15.8201 18.6902L16.1121 18.7399V18.4438H15.8621ZM15.8621 16.0397H16.1121V15.7435L15.8201 15.7932L15.8621 16.0397ZM13.7931 18.0584H13.5431V18.263L13.7437 18.3034L13.7931 18.0584ZM13.7931 16.4252L13.7437 16.1802L13.5431 16.2206V16.4252H13.7931ZM15.8621 14.6408L15.9031 14.8875L16.1121 14.8527V14.6408H15.8621ZM15.8621 12.793H16.1121V12.4435L15.7813 12.5565L15.8621 12.793ZM13.7931 15.0183H13.5431V15.3226L13.8416 15.2636L13.7931 15.0183ZM13.7931 13.5664L13.6989 13.3348L13.5431 13.3982V13.5664H13.7931ZM15.8621 11.3385L15.94 11.576L16.1121 11.5195V11.3385H15.8621ZM15.8621 9.34478H16.1121V8.99527L15.7813 9.10818L15.8621 9.34478ZM13.7931 12.0819H13.5431V12.4476L13.8838 12.3149L13.7931 12.0819ZM13.7931 10.1181L13.6989 9.88656L13.5431 9.94993V10.1181H13.7931ZM15.8621 7.89021L15.94 8.12774L16.1121 8.07127V7.89021H15.8621ZM15.8621 5.19999H16.1121V4.85052L15.7813 4.96339L15.8621 5.19999ZM13.7931 8.63367H13.5431V8.99936L13.8838 8.86662L13.7931 8.63367ZM13.7931 6.4462L14.0431 6.4462L14.0431 6.44464L13.7931 6.4462ZM14.2186 5.80482L14.1266 5.57234L14.1229 5.57388L14.2186 5.80482ZM12.4138 18.6549L12.6641 18.6549L12.6635 18.6425L12.4138 18.6549ZM12.4138 21.2688L12.6607 21.3077L12.6638 21.2883V21.2688H12.4138ZM12.4138 18.5864L12.6638 18.5988V18.5864H12.4138ZM12.4138 11.8421H12.6638V11.488L12.3301 11.6065L12.4138 11.8421ZM11.4148 12.5989L11.6189 12.7432L11.6189 12.7432L11.4148 12.5989ZM11.0345 13.7931L10.7845 13.7928V13.7931H11.0345ZM11.0345 20.6897L10.7845 20.6897L10.7845 20.69L11.0345 20.6897ZM11.4148 21.8839L11.6189 21.7396L11.6189 21.7396L11.4148 21.8839ZM12.4138 22.6407L12.3301 22.8763L12.6638 22.9948V22.6407H12.4138ZM12.4138 21.4834H12.6638V21.4638L12.6607 21.4445L12.4138 21.4834ZM12.4054 21.3749L12.6554 21.3753L12.6554 21.3753L12.4054 21.3749ZM3.36461 14.3991L3.54138 14.5759L3.54138 14.5759L3.36461 14.3991ZM4.82759 13.7931L4.82759 13.5431L4.82759 13.5431L4.82759 13.7931ZM2.75862 20.6897H2.50862V20.9397H2.75862V20.6897ZM4.13793 20.6897V20.9397H4.38793V20.6897H4.13793ZM9.65517 15.1724V15.4224H9.90517V15.1724H9.65517ZM9.65517 13.7931H9.90517V13.5431H9.65517V13.7931ZM16.9914 30.2223V32.4103H17.4914V30.2223H16.9914ZM16.9914 30.2204L16.9914 30.222L17.4914 30.2226L17.4914 30.221L16.9914 30.2204ZM16.9914 26.1284V30.2207H17.4914V26.1284H16.9914ZM16.9917 26.0683C16.9926 26.0839 16.9926 26.0995 16.9917 26.1151L17.491 26.1417C17.4928 26.1083 17.4928 26.0749 17.491 26.0417L16.9917 26.0683ZM16.9914 22.6801V26.055H17.4914V22.6801H16.9914ZM16.9917 22.6201C16.9926 22.6356 16.9926 22.6512 16.9917 22.6668L17.491 22.6934C17.4928 22.66 17.4928 22.6267 17.491 22.5935L16.9917 22.6201ZM16.9914 15.297V22.6068H17.4914V15.297H16.9914ZM16.9927 15.1833C16.9956 15.2128 16.9956 15.2424 16.9926 15.2718L17.4901 15.3221C17.4965 15.2593 17.4965 15.196 17.4901 15.133L16.9927 15.1833ZM16.9914 11.873V15.1582H17.4914V11.873H16.9914ZM16.9916 11.8212C16.9923 11.8346 16.9923 11.8481 16.9916 11.8615L17.4911 11.8845C17.4924 11.8557 17.4924 11.8269 17.4911 11.7983L16.9916 11.8212ZM16.9914 8.4247V11.8097H17.4914V8.4247H16.9914ZM16.9916 8.37292C16.9923 8.38636 16.9923 8.39981 16.9916 8.41323L17.4911 8.43617C17.4924 8.40749 17.4924 8.37872 17.4911 8.34998L16.9916 8.37292ZM16.9914 4.24827V8.36145H17.4914V4.24827H16.9914ZM16.9914 4.24627L16.9914 4.24848L17.4914 4.24805L17.4914 4.24584L16.9914 4.24627ZM16.9914 2.06897V4.24606H17.4914V2.06897H16.9914ZM17.2666 1.40453C17.0904 1.58075 16.9914 1.81975 16.9914 2.06897H17.4914C17.4914 1.95236 17.5377 1.84053 17.6202 1.75808L17.2666 1.40453ZM17.931 1.12931C17.6818 1.12931 17.4428 1.22831 17.2666 1.40453L17.6202 1.75808C17.7026 1.67563 17.8144 1.62931 17.931 1.62931V1.12931ZM18.2972 1.2042C18.1813 1.15439 18.0564 1.1289 17.9302 1.12931L17.9318 1.62931C17.9896 1.62912 18.0467 1.64078 18.0997 1.66357L18.2972 1.2042ZM18.604 1.41889C18.5175 1.32708 18.4131 1.25401 18.2972 1.2042L18.0997 1.66357C18.1528 1.68636 18.2005 1.7198 18.2401 1.7618L18.604 1.41889ZM18.8012 1.71353C18.7542 1.60011 18.6846 1.4974 18.5968 1.41157L18.2473 1.76912C18.2869 1.80779 18.3182 1.85407 18.3394 1.90517L18.8012 1.71353ZM18.8707 2.07148C18.8719 1.9487 18.8483 1.82694 18.8012 1.71352L18.3394 1.90517C18.3606 1.95627 18.3713 2.01113 18.3707 2.06645L18.8707 2.07148ZM18.8707 3.51572V2.06897H18.3707V3.51572H18.8707ZM18.8707 3.51754L18.8707 3.51603L18.3707 3.5154L18.3707 3.51691L18.8707 3.51754ZM18.8707 10.9798V3.51723H18.3707V10.9798H18.8707ZM18.8643 11.037L18.8664 11.0261L18.375 10.9334L18.373 10.9443L18.8643 11.037ZM18.866 11.198C18.8554 11.1443 18.8549 11.089 18.8647 11.035L18.3726 10.9462C18.3518 11.0616 18.3528 11.1798 18.3754 11.2947L18.866 11.198ZM18.8707 14.8339V11.2464H18.3707V14.8339H18.8707ZM18.8704 14.8913C18.8696 14.8763 18.8696 14.8614 18.8704 14.8466L18.371 14.8211C18.3694 14.8529 18.3694 14.8848 18.371 14.9167L18.8704 14.8913ZM18.8707 19.5973V14.904H18.3707V19.5973H18.8707ZM18.8706 19.6244C18.8704 19.6173 18.8704 19.6103 18.8706 19.6033L18.3708 19.5913C18.3704 19.6063 18.3704 19.6214 18.3708 19.6363L18.8706 19.6244ZM18.8707 26.8207V19.6303H18.3707V26.8207H18.8707ZM18.8707 26.8276L18.8707 26.8206L18.3707 26.8207L18.3707 26.8278L18.8707 26.8276ZM18.8707 30.9448V26.8277H18.3707V30.9448H18.8707ZM18.8707 30.9454V30.9448H18.3707V30.9454H18.8707ZM18.8707 32.4138V30.9454H18.3707V32.4138H18.8707ZM18.5955 33.0782C18.7717 32.902 18.8707 32.663 18.8707 32.4138H18.3707C18.3707 32.5304 18.3244 32.6422 18.2419 32.7247L18.5955 33.0782ZM17.931 33.3534C18.1802 33.3534 18.4193 33.2545 18.5955 33.0782L18.2419 32.7247C18.1595 32.8071 18.0476 32.8534 17.931 32.8534V33.3534ZM17.2666 33.0782C17.4428 33.2544 17.6818 33.3534 17.931 33.3534V32.8534C17.8144 32.8534 17.7026 32.8071 17.6202 32.7247L17.2666 33.0782ZM16.9914 32.4138C16.9914 32.663 17.0904 32.902 17.2666 33.0782L17.6202 32.7247C17.5377 32.6422 17.4914 32.5304 17.4914 32.4138H16.9914ZM23.0238 31.0996C25.1363 31.3149 27.2652 31.3153 29.3777 31.1009L29.3273 30.6034C27.2484 30.8144 25.1533 30.814 23.0745 30.6022L23.0238 31.0996ZM23.0745 30.6022C22.0612 30.4989 21.0517 30.3452 20.0499 30.1412L19.9501 30.6312C20.9682 30.8385 21.9941 30.9946 23.0238 31.0996L23.0745 30.6022ZM20.25 30.3862V27.6729H19.75V30.3862H20.25ZM19.952 27.9183C22.0119 28.3211 24.1065 28.5247 26.2068 28.5258L26.207 28.0258C24.1389 28.0247 22.0764 27.8242 20.048 27.4276L19.952 27.9183ZM26.2072 28.5258C28.3075 28.5237 30.4021 28.319 32.4619 27.9152L32.3657 27.4246C30.3374 27.8222 28.2749 28.0237 26.2066 28.0258L26.2072 28.5258ZM32.1638 27.6699V30.3862H32.6638V27.6699H32.1638ZM32.3639 30.1412C31.3581 30.346 30.3446 30.5001 29.3272 30.6034L29.3778 31.1009C30.4116 30.9958 31.4415 30.8393 32.4637 30.6312L32.3639 30.1412ZM34.0431 30.942V26.8207H33.5431V30.942H34.0431ZM34.0431 26.8207V23.4995H33.5431V26.8207H34.0431ZM34.0389 23.5452L34.0403 23.5379L33.5487 23.4464L33.5473 23.4538L34.0389 23.5452ZM34.0405 23.5365C34.061 23.4227 34.0604 23.3062 34.0386 23.1928L33.5476 23.2869C33.5577 23.34 33.558 23.3945 33.5484 23.4477L34.0405 23.5365ZM34.0431 23.2399V19.6306H33.5431V23.2399H34.0431ZM34.043 19.6367C34.0434 19.6215 34.0434 19.6062 34.043 19.5909L33.5432 19.6031C33.5434 19.6102 33.5433 19.6174 33.5432 19.6246L34.043 19.6367ZM34.0431 19.597V14.9084H33.5431V19.597H34.0431ZM34.0427 14.9225L34.0428 14.9214L33.5436 14.8932L33.5435 14.8943L34.0427 14.9225ZM34.0428 14.9212C34.0448 14.8857 34.0447 14.8503 34.0427 14.8152L33.5435 14.8438C33.5445 14.8602 33.5445 14.8768 33.5436 14.8934L34.0428 14.9212ZM34.0431 14.8295V3.51723H33.5431V14.8295H34.0431ZM34.0431 3.51723V2.06897H33.5431V3.51723H34.0431ZM34.0431 2.06897C34.0431 1.95236 34.0894 1.84053 34.1719 1.75808L33.8183 1.40453C33.6421 1.58075 33.5431 1.81975 33.5431 2.06897H34.0431ZM34.1719 1.75808C34.2543 1.67563 34.3662 1.62931 34.4828 1.62931V1.12931C34.2335 1.12931 33.9945 1.22831 33.8183 1.40453L34.1719 1.75808ZM34.4836 1.62931C34.5413 1.62912 34.5984 1.64078 34.6515 1.66358L34.8489 1.2042C34.733 1.15439 34.6081 1.1289 34.4819 1.12931L34.4836 1.62931ZM34.6515 1.66357C34.7045 1.68636 34.7523 1.7198 34.7919 1.7618L35.1557 1.41889C35.0692 1.32708 34.9648 1.25401 34.8489 1.2042L34.6515 1.66357ZM34.799 1.76912C34.8386 1.80779 34.8699 1.85407 34.8911 1.90517L35.3529 1.71353C35.3059 1.60011 35.2364 1.4974 35.1485 1.41157L34.799 1.76912ZM34.8911 1.90517C34.9123 1.95627 34.923 2.01113 34.9224 2.06645L35.4224 2.07148C35.4236 1.9487 35.4 1.82693 35.3529 1.71353L34.8911 1.90517ZM34.9224 2.06897V4.24816H35.4224V2.06897H34.9224ZM34.9224 4.24816V4.24826H35.4224V4.24816H34.9224ZM34.9224 4.24826V15.1955H35.4224V4.24826H34.9224ZM34.9227 15.1839C34.9213 15.213 34.9213 15.2422 34.9227 15.2713L35.4221 15.248C35.4215 15.2344 35.4215 15.2208 35.4221 15.2071L34.9227 15.1839ZM34.9224 15.2597V22.5851H35.4224V15.2597H34.9224ZM34.9233 22.5644C34.919 22.6159 34.919 22.6678 34.9233 22.7197L35.4216 22.6784C35.4195 22.6541 35.4196 22.6298 35.4216 22.6057L34.9233 22.5644ZM34.9224 22.699V26.0334H35.4224V22.699H34.9224ZM34.9233 26.0127C34.919 26.0641 34.919 26.1161 34.9233 26.168L35.4216 26.1266C35.4195 26.1024 35.4196 26.0781 35.4216 26.054L34.9233 26.0127ZM34.9224 26.1473V30.2207H35.4224V26.1473H34.9224ZM34.9224 30.2207V32.399H35.4224V30.2207H34.9224ZM35.4224 32.4104C35.4224 32.4075 35.4224 32.4046 35.4224 32.4016L34.9224 32.3963C34.9224 32.4028 34.9224 32.4093 34.9224 32.4157L35.4224 32.4104ZM36.8017 32.2434V30.7238H36.3017V32.2434H36.8017ZM36.6293 30.9615C37.3622 30.7223 38.0836 30.4643 38.7806 30.1922L38.5987 29.7264C37.9108 29.995 37.1983 30.2498 36.4742 30.4861L36.6293 30.9615ZM38.7818 30.1917C39.2145 30.02 39.5857 29.7225 39.8474 29.3376L39.434 29.0565C39.2285 29.3586 38.9371 29.5922 38.5975 29.7269L38.7818 30.1917ZM39.8474 29.3376C40.1092 28.9527 40.2494 28.4982 40.25 28.0327L39.75 28.0321C39.7495 28.3975 39.6394 28.7543 39.434 29.0565L39.8474 29.3376ZM40.25 28.0324V24.9211H39.75V28.0324H40.25ZM40.2475 24.9566C40.2539 24.912 40.2571 24.8668 40.257 24.8214L39.757 24.8222C39.7571 24.8434 39.7556 24.8646 39.7525 24.8855L40.2475 24.9566ZM40.257 24.8214C40.2569 24.7771 40.2537 24.7329 40.2475 24.6892L39.7525 24.7604C39.7555 24.7808 39.757 24.8015 39.757 24.8222L40.257 24.8214ZM40.25 24.7248V21.4728H39.75V24.7248H40.25ZM40.2475 21.5084C40.2539 21.4637 40.2571 21.4185 40.257 21.3731L39.757 21.374C39.7571 21.3952 39.7556 21.4163 39.7525 21.4372L40.2475 21.5084ZM40.257 21.3731C40.2569 21.3288 40.2537 21.2846 40.2475 21.241L39.7525 21.3121C39.7555 21.3326 39.757 21.3532 39.757 21.3739L40.257 21.3731ZM40.25 21.2766V18.655H39.75V21.2766H40.25ZM40.2497 18.6675C40.2512 18.6363 40.2512 18.6051 40.2497 18.5739L39.7503 18.5988C39.751 18.6134 39.751 18.628 39.7503 18.6426L40.2497 18.6675ZM40.25 18.5864V15.8736H39.75V18.5864H40.25ZM40.25 15.8778C40.2501 15.8673 40.2501 15.8568 40.25 15.8463L39.75 15.8547C39.7501 15.8596 39.7501 15.8645 39.75 15.8694L40.25 15.8778ZM40.25 15.8505V13.183H39.75V15.8505H40.25ZM40.2483 13.2118C40.2567 13.1395 40.2566 13.0668 40.2483 12.9952L39.7517 13.0528C39.7556 13.0863 39.7556 13.1204 39.7517 13.1541L40.2483 13.2118ZM40.25 13.024V9.7347H39.75V13.024H40.25ZM40.2483 9.76353C40.2567 9.69125 40.2566 9.61856 40.2483 9.5469L39.7517 9.60452C39.7556 9.63807 39.7556 9.67208 39.7517 9.70587L40.2483 9.76353ZM40.25 9.57571V6.44619H39.75V9.57571H40.25ZM40.25 6.44593C40.2495 5.98316 40.1112 5.53104 39.8526 5.14725L39.4379 5.42662C39.641 5.728 39.7496 6.08305 39.75 6.44645L40.25 6.44593ZM39.8526 5.14725C39.594 4.76346 39.227 4.46541 38.7983 4.29114L38.61 4.75434C38.9466 4.89118 39.2349 5.12523 39.4379 5.42662L39.8526 5.14725ZM38.7961 4.29028C38.0856 4.00916 37.3588 3.74564 36.6295 3.50694L36.474 3.98214C37.1933 4.21757 37.9107 4.47764 38.6122 4.7552L38.7961 4.29028ZM36.8017 3.74454V2.06897H36.3017V3.74454H36.8017ZM36.8017 2.06772C36.7987 1.45397 36.5535 0.866212 36.1195 0.432213L35.766 0.785767C36.1068 1.12661 36.2993 1.58819 36.3017 2.07021L36.8017 2.06772ZM36.1195 0.432214C35.6855 -0.00178497 35.0978 -0.246951 34.484 -0.249997L34.4815 0.249997C34.9635 0.252389 35.4251 0.444929 35.766 0.785767L36.1195 0.432214ZM34.4828 -0.25C33.8677 -0.25 33.2779 -0.00568114 32.843 0.42921L33.1966 0.782762C33.5377 0.441641 34.0003 0.25 34.4828 0.25V-0.25ZM32.843 0.429209C32.4081 0.864099 32.1638 1.45394 32.1638 2.06897H32.6638C32.6638 1.58655 32.8554 1.12389 33.1966 0.782763L32.843 0.429209ZM32.1638 2.06897V2.66804H32.6638V2.06897H32.1638ZM32.4619 2.4227C28.3312 1.61323 24.0826 1.61323 19.9519 2.4227L20.0481 2.91337C24.1152 2.11634 28.2986 2.11634 32.3657 2.91337L32.4619 2.4227ZM20.25 2.66804V2.06897H19.75V2.66804H20.25ZM20.25 2.06772C20.247 1.45397 20.0018 0.866212 19.5678 0.432213L19.2142 0.785767C19.5551 1.1266 19.7476 1.58819 19.75 2.07021L20.25 2.06772ZM19.5678 0.432213C19.1338 -0.00178509 18.546 -0.246951 17.9323 -0.249997L17.9298 0.249997C18.4118 0.252389 18.8734 0.444929 19.2142 0.785767L19.5678 0.432213ZM17.931 -0.25C17.316 -0.25 16.7262 -0.00568099 16.2913 0.429209L16.6448 0.782763C16.986 0.44164 17.4486 0.25 17.931 0.25V-0.25ZM16.2913 0.429209C15.8564 0.8641 15.6121 1.45394 15.6121 2.06897H16.1121C16.1121 1.58655 16.3037 1.12388 16.6448 0.782763L16.2913 0.429209ZM15.6121 2.06897V3.74459H16.1121V2.06897H15.6121ZM15.7842 3.50704C15.0554 3.74601 14.3289 4.0085 13.619 4.28962L13.8031 4.7545C14.5035 4.47711 15.2206 4.21802 15.94 3.98215L15.7842 3.50704ZM13.6171 4.29038C13.188 4.46432 12.8206 4.76225 12.5617 5.1461L12.9762 5.42567C13.1795 5.12427 13.4681 4.89033 13.805 4.75375L13.6171 4.29038ZM12.5617 5.1461C12.3028 5.52994 12.1643 5.98226 12.1638 6.44524L12.6638 6.44578C12.6642 6.08224 12.773 5.72707 12.9762 5.42567L12.5617 5.1461ZM12.1638 6.44551V10.4152H12.6638V6.44551H12.1638ZM12.3636 10.1703C11.6589 10.3149 11.0058 10.663 10.4896 11.1792L10.8431 11.5328C11.2897 11.0863 11.8545 10.7852 12.464 10.6601L12.3636 10.1703ZM10.4896 11.1792C10.1599 11.509 9.89874 11.8945 9.71543 12.3136L10.1735 12.514C10.3321 12.1514 10.5579 11.818 10.8431 11.5328L10.4896 11.1792ZM9.94448 12.1638H5.51724V12.6638H9.94448V12.1638ZM5.76724 12.4138V9.65517H5.26724V12.4138H5.76724ZM5.51724 9.90517H6.89655V9.40517H5.51724V9.90517ZM6.89655 9.90517C7.14576 9.90517 7.38477 9.80617 7.56099 9.62995L7.20743 9.2764C7.12498 9.35885 7.01316 9.40517 6.89655 9.40517V9.90517ZM7.56099 9.62995C7.73721 9.45373 7.83621 9.21473 7.83621 8.96552H7.33621C7.33621 9.08212 7.28989 9.19395 7.20743 9.2764L7.56099 9.62995ZM7.83621 8.96552C7.83621 8.7163 7.73721 8.4773 7.56099 8.30108L7.20743 8.65463C7.28989 8.73709 7.33621 8.84891 7.33621 8.96552H7.83621ZM7.56099 8.30108C7.38477 8.12486 7.14576 8.02586 6.89655 8.02586V8.52586C7.01316 8.52586 7.12498 8.57218 7.20743 8.65463L7.56099 8.30108ZM6.89655 8.02586H4.82759V8.52586H6.89655V8.02586ZM4.82759 8.02586H2.75862V8.52586H4.82759V8.02586ZM2.75862 8.02586C2.50941 8.02586 2.2704 8.12486 2.09418 8.30108L2.44774 8.65463C2.53019 8.57218 2.64202 8.52586 2.75862 8.52586V8.02586ZM2.09418 8.30108C1.91796 8.4773 1.81897 8.7163 1.81897 8.96552H2.31897C2.31897 8.84891 2.36529 8.73709 2.44774 8.65463L2.09418 8.30108ZM1.81897 8.96552C1.81897 9.21473 1.91796 9.45373 2.09418 9.62995L2.44774 9.2764C2.36529 9.19395 2.31897 9.08212 2.31897 8.96552H1.81897ZM2.09418 9.62995C2.2704 9.80617 2.50941 9.90517 2.75862 9.90517V9.40517C2.64202 9.40517 2.53019 9.35885 2.44774 9.2764L2.09418 9.62995ZM2.75862 9.90517H4.13793V9.40517H2.75862V9.90517ZM3.88793 9.65517V12.4842H4.38793V9.65517H3.88793ZM4.08769 12.2393C3.38302 12.3839 2.72998 12.7319 2.21372 13.2482L2.56727 13.6018C3.0138 13.1552 3.57864 12.8542 4.18817 12.7291L4.08769 12.2393ZM2.21372 13.2482C1.52047 13.9415 1.13048 14.8814 1.12931 15.8618L1.62931 15.8624C1.63033 15.0144 1.96764 14.2014 2.56727 13.6018L2.21372 13.2482ZM1.12931 15.8621V20.6897H1.62931V15.8621H1.12931ZM1.37931 20.4397H0.689655V20.9397H1.37931V20.4397ZM0.689655 20.4397C0.440444 20.4397 0.201439 20.5387 0.0252186 20.7149L0.378772 21.0684C0.461222 20.986 0.57305 20.9397 0.689655 20.9397V20.4397ZM0.0252186 20.7149C-0.151001 20.8911 -0.25 21.1301 -0.25 21.3793H0.25C0.25 21.2627 0.296321 21.1509 0.378772 21.0684L0.0252186 20.7149ZM-0.25 21.3793C-0.25 21.6285 -0.151001 21.8675 0.0252186 22.0437L0.378772 21.6902C0.296321 21.6077 0.25 21.4959 0.25 21.3793H-0.25ZM0.0252186 22.0437C0.201438 22.22 0.440443 22.319 0.689655 22.319V21.819C0.573052 21.819 0.461224 21.7726 0.378772 21.6902L0.0252186 22.0437ZM0.689655 22.319H2.06897V21.819H0.689655V22.319ZM2.06897 22.319H4.82759V21.819H2.06897V22.319ZM4.82759 22.319H6.2069V21.819H4.82759V22.319ZM6.2069 22.319C6.45611 22.319 6.69511 22.22 6.87133 22.0437L6.51778 21.6902C6.43533 21.7726 6.3235 21.819 6.2069 21.819V22.319ZM6.87133 22.0437C7.04755 21.8675 7.14655 21.6285 7.14655 21.3793H6.64655C6.64655 21.4959 6.60023 21.6077 6.51778 21.6902L6.87133 22.0437ZM7.14655 21.3793C7.14655 21.1301 7.04755 20.8911 6.87133 20.7149L6.51778 21.0684C6.60023 21.1509 6.64655 21.2627 6.64655 21.3793H7.14655ZM6.87133 20.7149C6.69511 20.5387 6.45611 20.4397 6.2069 20.4397V20.9397C6.3235 20.9397 6.43533 20.986 6.51778 21.0684L6.87133 20.7149ZM6.2069 20.4397H5.51724V20.9397H6.2069V20.4397ZM5.76724 20.6897V16.5517H5.26724V20.6897H5.76724ZM5.51724 16.8017H9.65517V16.3017H5.51724V16.8017ZM9.40517 16.5517V20.6897H9.90517V16.5517H9.40517ZM9.40517 20.69C9.40635 21.6704 9.79633 22.6103 10.4896 23.3035L10.8431 22.95C10.2435 22.3503 9.90619 21.5374 9.90517 20.6894L9.40517 20.69ZM10.4896 23.3035C11.0058 23.8198 11.6589 24.1678 12.3636 24.3124L12.464 23.8226C11.8545 23.6976 11.2897 23.3965 10.8431 22.95L10.4896 23.3035ZM12.1638 24.0675V24.717H12.6638V24.0675H12.1638ZM12.1668 24.6781C12.1593 24.7259 12.1555 24.7742 12.1554 24.8228L12.6554 24.8236C12.6554 24.8009 12.6572 24.7783 12.6607 24.7559L12.1668 24.6781ZM12.1554 24.8228C12.1553 24.8724 12.1592 24.9218 12.1668 24.9705L12.6607 24.8927C12.6572 24.8699 12.6554 24.8468 12.6554 24.8236L12.1554 24.8228ZM12.1638 24.9316V28.0317H12.6638V24.9316H12.1638ZM12.1638 28.0318C12.164 28.4968 12.3036 28.9509 12.5644 29.3358L12.9783 29.0552C12.7735 28.7531 12.664 28.3966 12.6638 28.0316L12.1638 28.0318ZM12.5644 29.3358C12.8253 29.7206 13.1955 30.0184 13.6273 30.1908L13.8127 29.7264C13.4737 29.5911 13.1831 29.3573 12.9783 29.0552L12.5644 29.3358ZM13.6291 30.1915C14.3274 30.4641 15.0498 30.7227 15.7846 30.9622L15.9396 30.4868C15.2137 30.2502 14.5003 29.9948 13.8109 29.7257L13.6291 30.1915ZM15.6121 30.7245V32.2503H16.1121V30.7245H15.6121ZM14.2798 35.9739L16.0857 32.3622L15.6385 32.1385L13.8326 35.7503L14.2798 35.9739ZM14.0562 35.6121H13.1034V36.1121H14.0562V35.6121ZM13.1034 35.6121C12.8542 35.6121 12.6152 35.7111 12.439 35.8873L12.7926 36.2408C12.875 36.1584 12.9868 36.1121 13.1034 36.1121V35.6121ZM12.439 35.8873C12.2628 36.0635 12.1638 36.3025 12.1638 36.5517H12.6638C12.6638 36.4351 12.7101 36.3233 12.7926 36.2408L12.439 35.8873ZM12.1638 36.5517V39.3103H12.6638V36.5517H12.1638ZM12.1638 39.3103C12.1638 39.5596 12.2628 39.7986 12.439 39.9748L12.7926 39.6212C12.7101 39.5388 12.6638 39.4269 12.6638 39.3103H12.1638ZM12.439 39.9748C12.6152 40.151 12.8542 40.25 13.1034 40.25V39.75C12.9868 39.75 12.875 39.7037 12.7926 39.6212L12.439 39.9748ZM13.1034 40.25H39.3103V39.75H13.1034V40.25ZM39.3103 40.25C39.5596 40.25 39.7986 40.151 39.9748 39.9748L39.6212 39.6212C39.5388 39.7037 39.4269 39.75 39.3103 39.75V40.25ZM39.9748 39.9748C40.151 39.7986 40.25 39.5596 40.25 39.3103H39.75C39.75 39.4269 39.7037 39.5388 39.6212 39.6212L39.9748 39.9748ZM40.25 39.3103V36.5517H39.75V39.3103H40.25ZM40.25 36.5517C40.25 36.3025 40.151 36.0635 39.9748 35.8873L39.6212 36.2408C39.7037 36.3233 39.75 36.4351 39.75 36.5517H40.25ZM39.9748 35.8873C39.7986 35.7111 39.5596 35.6121 39.3103 35.6121V36.1121C39.4269 36.1121 39.5388 36.1584 39.6212 36.2408L39.9748 35.8873ZM39.3103 35.6121H38.361V36.1121H39.3103V35.6121ZM36.3281 32.3552L38.1374 35.9739L38.5847 35.7503L36.7753 32.1316L36.3281 32.3552ZM32.1638 32.4138C32.1638 33.0288 32.4081 33.6187 32.843 34.0535L33.1966 33.7C32.8554 33.3589 32.6638 32.8962 32.6638 32.4138H32.1638ZM32.843 34.0535C33.2779 34.4884 33.8677 34.7328 34.4828 34.7328V34.2328C34.0003 34.2328 33.5377 34.0411 33.1966 33.7L32.843 34.0535ZM34.4828 34.7328C35.0548 34.7328 35.605 34.5214 36.029 34.142L35.6956 33.7694C35.363 34.067 34.9314 34.2328 34.4828 34.2328V34.7328ZM37.0388 35.7503L36.086 33.8439L35.6387 34.0674L36.5916 35.9738L37.0388 35.7503ZM15.5986 36.1121H36.8152V35.6121H15.5986V36.1121ZM16.3278 33.8439L15.375 35.7503L15.8222 35.9738L16.7751 34.0675L16.3278 33.8439ZM16.3848 34.142C16.8088 34.5214 17.359 34.7328 17.931 34.7328V34.2328C17.4824 34.2328 17.0508 34.067 16.7182 33.7694L16.3848 34.142ZM17.931 34.7328C18.5461 34.7328 19.1359 34.4884 19.5708 34.0535L19.2172 33.7C18.8761 34.0411 18.4135 34.2328 17.931 34.2328V34.7328ZM19.5708 34.0535C20.0015 33.6228 20.2453 33.0401 20.2499 32.4315L19.7499 32.4277C19.7463 32.9051 19.5551 33.3621 19.2172 33.7L19.5708 34.0535ZM20.2499 32.4315C20.25 32.4256 20.25 32.4197 20.25 32.4138H19.75C19.75 32.4184 19.75 32.423 19.7499 32.4277L20.2499 32.4315ZM19.75 31.7931L19.75 32.4138L20.25 32.4138L20.25 31.7931L19.75 31.7931ZM32.366 31.5477C28.2982 32.3402 24.1156 32.3402 20.0478 31.5477L19.9522 32.0385C24.0832 32.8433 28.3306 32.8433 32.4616 32.0385L32.366 31.5477ZM32.6638 32.4138L32.6638 31.7931L32.1638 31.7931L32.1638 32.4138L32.6638 32.4138ZM37.9369 36.9914C37.9355 36.9914 37.9341 36.9914 37.9328 36.9914L37.9309 37.4914C37.9335 37.4914 37.9361 37.4914 37.9388 37.4914L37.9369 36.9914ZM37.9318 36.9914L37.931 36.9914V37.4914L37.9318 37.4914V36.9914ZM37.931 36.9914H14.4828V37.4914H37.931V36.9914ZM13.7931 37.4914L14.4828 37.4914L14.4828 36.9914L13.7931 36.9914L13.7931 37.4914ZM14.0431 38.6207V37.2414H13.5431V38.6207H14.0431ZM38.6207 38.3707H13.7931V38.8707H38.6207V38.3707ZM38.3707 37.2414V38.6207H38.8707V37.2414H38.3707ZM37.9378 37.4914H38.6207V36.9914H37.9378V37.4914ZM33.5431 30.942C33.5431 30.943 33.5431 30.944 33.5431 30.9444C33.5431 30.945 33.5431 30.9449 33.5431 30.9448H34.0431C34.0431 30.9438 34.0431 30.9428 34.0431 30.9424C34.0431 30.9418 34.0431 30.9419 34.0431 30.942H33.5431ZM33.5431 30.9448L33.5431 32.4138L34.0431 32.4138L34.0431 30.9448L33.5431 30.9448ZM34.1719 32.7247C34.0894 32.6422 34.0431 32.5304 34.0431 32.4138H33.5431C33.5431 32.663 33.6421 32.902 33.8183 33.0782L34.1719 32.7247ZM34.4828 32.8534C34.3662 32.8534 34.2543 32.8071 34.1719 32.7247L33.8183 33.0782C33.9945 33.2545 34.2335 33.3534 34.4828 33.3534V32.8534ZM34.5046 32.8529C34.4973 32.8533 34.4901 32.8534 34.4828 32.8534V33.3534C34.4983 33.3534 34.5138 33.3531 34.5294 33.3523L34.5046 32.8529ZM34.7936 32.7247C34.7163 32.802 34.6132 32.8475 34.5046 32.8529L34.5293 33.3523C34.7616 33.3408 34.982 33.2434 35.1472 33.0782L34.7936 32.7247ZM34.8229 32.6924C34.8137 32.7036 34.804 32.7144 34.7936 32.7247L35.1472 33.0782C35.1692 33.0562 35.19 33.0332 35.2096 33.0093L34.8229 32.6924ZM34.9224 32.4138C34.9224 32.5158 34.887 32.6142 34.8229 32.6924L35.2096 33.0093C35.3466 32.8421 35.4224 32.6319 35.4224 32.4138H34.9224ZM32.1638 24.2212V26.2633H32.6638V24.2212H32.1638ZM26.207 25.0742C28.3073 25.073 30.4019 24.8694 32.4618 24.4666L32.3658 23.9759C30.3374 24.3725 28.2749 24.573 26.2068 24.5742L26.207 25.0742ZM19.952 24.4666C22.0119 24.8694 24.1065 25.073 26.2068 25.0742L26.207 24.5742C24.1389 24.573 22.0764 24.3725 20.048 23.9759L19.952 24.4666ZM20.25 26.2633V24.2212H19.75V26.2633H20.25ZM32.3636 26.0183C28.3014 26.8505 24.1124 26.8505 20.0502 26.0183L19.9498 26.5082C24.0783 27.3538 28.3355 27.3538 32.464 26.5082L32.3636 26.0183ZM32.1638 20.3806V22.815H32.6638V20.3806H32.1638ZM26.2069 20.9396C28.2882 20.9397 30.368 20.8361 32.4386 20.6294L32.389 20.1319C30.3348 20.3369 28.2716 20.4397 26.2069 20.4396L26.2069 20.9396ZM19.9752 20.6294C22.0458 20.8361 24.1256 20.9397 26.2069 20.9396L26.2069 20.4396C24.1422 20.4397 22.079 20.3369 20.0248 20.1319L19.9752 20.6294ZM20.25 22.815V20.3806H19.75V22.815H20.25ZM32.3636 22.5701C28.3014 23.4022 24.1124 23.4022 20.0502 22.5701L19.9498 23.0599C24.0783 23.9056 28.3355 23.9056 32.464 23.0599L32.3636 22.5701ZM32.1638 15.4889V18.9939H32.6638V15.4889H32.1638ZM20.0254 15.7375C24.1357 15.3178 28.2781 15.3179 32.3884 15.7376L32.4392 15.2402C28.2951 14.817 24.1187 14.8169 19.9746 15.24L20.0254 15.7375ZM20.25 18.9939V15.4888H19.75V18.9939H20.25ZM32.3884 18.7452C28.2781 19.1649 24.1357 19.1649 20.0254 18.7452L19.9746 19.2426C24.1187 19.6658 28.2951 19.6658 32.4392 19.2426L32.3884 18.7452ZM32.1638 11.6679V14.1022H32.6638V11.6679H32.1638ZM20.0502 11.9126C24.1124 11.0805 28.3014 11.0806 32.3636 11.9128L32.464 11.423C28.3355 10.5772 24.0783 10.5771 19.9498 11.4227L20.0502 11.9126ZM20.25 14.1021V11.6677H19.75V14.1021H20.25ZM32.4386 13.8535C28.2944 13.4401 24.1194 13.4401 19.9752 13.8533L20.0248 14.3509C24.136 13.9409 28.2778 13.941 32.389 14.351L32.4386 13.8535ZM32.1638 8.21966V10.2613H32.6638V8.21966H32.1638ZM20.0502 8.46429C24.1124 7.63226 28.3014 7.63236 32.3636 8.46457L32.464 7.97475C28.3355 7.12897 24.0783 7.12887 19.9498 7.97446L20.0502 8.46429ZM20.25 10.261V8.21938H19.75V10.261H20.25ZM32.4619 10.0159C28.3312 9.20639 24.0826 9.2063 19.9519 10.0157L20.0481 10.5063C24.1152 9.70941 28.2986 9.7095 32.3657 10.5066L32.4619 10.0159ZM32.1638 4.07585V6.81301H32.6638V4.07585H32.1638ZM20.0502 4.32075C24.1124 3.48755 28.3014 3.48755 32.3636 4.32075L32.464 3.83095C28.3356 2.98415 24.0782 2.98415 19.9498 3.83095L20.0502 4.32075ZM20.25 6.81274V4.07585H19.75V6.81274H20.25ZM32.4619 6.56767C28.3312 5.75811 24.0826 5.75802 19.9519 6.5674L20.0481 7.05807C24.1152 6.26113 28.2986 6.26122 32.3657 7.05834L32.4619 6.56767ZM38.102 28.4393C37.5679 28.6464 37.0258 28.8444 36.4715 29.0322L36.6319 29.5057C37.1936 29.3155 37.7425 29.115 38.2828 28.9055L38.102 28.4393ZM38.2966 28.2785C38.2479 28.3513 38.1787 28.4079 38.0977 28.441L38.2872 28.9037C38.4603 28.8329 38.6083 28.7119 38.7122 28.5564L38.2966 28.2785ZM38.3707 28.0326C38.371 28.1201 38.3452 28.2058 38.2966 28.2785L38.7122 28.5564C38.8162 28.4009 38.8714 28.2179 38.8707 28.0308L38.3707 28.0326ZM38.3707 25.8474V28.0317H38.8707V25.8474H38.3707ZM36.6297 26.8284C37.3239 26.6005 38.0201 26.3497 38.7114 26.0804L38.5299 25.6145C37.8465 25.8807 37.1588 26.1285 36.4737 26.3534L36.6297 26.8284ZM36.8017 29.2689V26.5909H36.3017V29.2689H36.8017ZM38.5265 24.1333C37.8453 24.4103 37.1576 24.6672 36.471 24.9016L36.6325 25.3748C37.3282 25.1373 38.0248 24.8771 38.7149 24.5965L38.5265 24.1333ZM38.3707 22.3991V24.3649H38.8707V22.3991H38.3707ZM36.6297 23.3802C37.3239 23.1522 38.0201 22.9014 38.7114 22.6321L38.5299 22.1662C37.8465 22.4324 37.1588 22.6802 36.4737 22.9051L36.6297 23.3802ZM36.8017 25.1382V23.1426H36.3017V25.1382H36.8017ZM38.5265 20.685C37.8453 20.962 37.1576 21.2189 36.471 21.4533L36.6325 21.9265C37.3282 21.689 38.0248 21.4288 38.7149 21.1482L38.5265 20.685ZM38.3707 19.4652V20.9166H38.8707V19.4652H38.3707ZM36.5927 20.0892C37.2693 19.9767 37.9639 19.85 38.6692 19.7105L38.5722 19.22C37.8716 19.3585 37.182 19.4843 36.5107 19.596L36.5927 20.0892ZM36.8017 21.6899V19.8426H36.3017V21.6899H36.8017ZM38.5713 17.8133C37.8711 17.9545 37.1817 18.083 36.5098 18.1973L36.5937 18.6902C37.2708 18.575 37.9653 18.4456 38.6701 18.3034L38.5713 17.8133ZM38.3707 16.4247V18.0584H38.8707V16.4247H38.3707ZM36.5098 16.2857C37.1817 16.4 37.8711 16.5285 38.5713 16.6697L38.6701 16.1796C37.9653 16.0374 37.2709 15.908 36.5937 15.7928L36.5098 16.2857ZM36.8017 18.4438V16.0392H36.3017V18.4438H36.8017ZM38.6692 14.7725C37.9639 14.633 37.2693 14.5063 36.5927 14.3938L36.5107 14.887C37.182 14.9986 37.8716 15.1245 38.5722 15.263L38.6692 14.7725ZM38.3707 13.565V15.0178H38.8707V13.565H38.3707ZM36.4708 13.0286C37.1576 13.2634 37.8453 13.5202 38.5267 13.7966L38.7147 13.3333C38.0247 13.0534 37.3282 12.7933 36.6326 12.5555L36.4708 13.0286ZM36.8017 14.6404V12.792H36.3017V14.6404H36.8017ZM38.7115 11.8458C38.0204 11.5762 37.3247 11.3262 36.6295 11.0987L36.474 11.5739C37.16 11.7984 37.847 12.0452 38.5298 12.3116L38.7115 11.8458ZM38.3707 10.1167V12.0787H38.8707V10.1167H38.3707ZM36.4708 9.58032C37.1576 9.81513 37.8453 10.0719 38.5267 10.3483L38.7147 9.88503C38.0247 9.6051 37.3282 9.34505 36.6326 9.10721L36.4708 9.58032ZM36.8017 11.3363V9.34376H36.3017V11.3363H36.8017ZM38.7115 8.39751C38.0204 8.12789 37.3247 7.87795 36.6295 7.65041L36.474 8.1256C37.16 8.35016 37.847 8.59695 38.5298 8.86333L38.7115 8.39751ZM38.3707 6.4455V8.63042H38.8707V6.4455H38.3707ZM38.2975 6.19863C38.3457 6.27137 38.3712 6.35681 38.3707 6.44408L38.8707 6.44691C38.8717 6.26039 38.8173 6.07777 38.7142 5.92231L38.2975 6.19863ZM38.0999 6.03564C38.1804 6.06916 38.2492 6.12589 38.2975 6.19863L38.7142 5.92232C38.6111 5.76686 38.4641 5.6456 38.2919 5.57397L38.0999 6.03564ZM36.4707 5.43649C37.0191 5.62433 37.5672 5.82506 38.1039 6.03729L38.2878 5.57232C37.7432 5.35697 37.1878 5.15357 36.6327 4.96347L36.4707 5.43649ZM36.8017 7.888V5.19998H36.3017V7.888H36.8017ZM16.1121 29.271V26.5932H15.6121V29.271H16.1121ZM14.131 28.9076C14.6679 29.1156 15.2202 29.3176 15.7819 29.5078L15.9423 29.0342C15.3881 28.8465 14.8425 28.6471 14.3117 28.4414L14.131 28.9076ZM13.701 28.5577C13.805 28.7136 13.9532 28.8348 14.1266 28.9058L14.3161 28.4431C14.235 28.4099 14.1656 28.3532 14.117 28.2802L13.701 28.5577ZM13.5431 28.031C13.5421 28.2184 13.5971 28.4018 13.701 28.5577L14.117 28.2802C14.0683 28.2073 14.0426 28.1215 14.0431 28.0338L13.5431 28.031ZM13.5431 25.8507V28.0324H14.0431V25.8507H13.5431ZM15.9398 26.3556C15.2538 26.131 14.5668 25.8842 13.884 25.6178L13.7022 26.0836C14.3934 26.3532 15.0891 26.6032 15.7843 26.8308L15.9398 26.3556ZM16.1121 25.1392V23.1449H15.6121V25.1392H16.1121ZM13.6991 24.598C14.3891 24.8779 15.0856 25.138 15.7812 25.3758L15.9429 24.9027C15.2562 24.6679 14.5684 24.4111 13.8871 24.1347L13.6991 24.598ZM13.5431 23.4483V24.3664H14.0431V23.4483H13.5431ZM13.5431 22.4024V23.4483H14.0431V22.4024H13.5431ZM15.9398 22.9073C15.2538 22.6827 14.5668 22.4359 13.884 22.1695L13.7022 22.6353C14.3934 22.905 15.0891 23.1549 15.7843 23.3825L15.9398 22.9073ZM16.1121 21.691V19.8426H15.6121V21.691H16.1121ZM13.6991 21.1497C14.3891 21.4297 15.0856 21.6897 15.7812 21.9275L15.9429 21.4544C15.2562 21.2196 14.5684 20.9628 13.8871 20.6864L13.6991 21.1497ZM13.5431 19.4652V20.9181H14.0431V19.4652H13.5431ZM15.9031 19.596C15.2318 19.4843 14.5422 19.3585 13.8416 19.22L13.7446 19.7105C14.4499 19.85 15.1445 19.9767 15.8211 20.0892L15.9031 19.596ZM16.1121 18.4438V16.0397H15.6121V18.4438H16.1121ZM13.7437 18.3034C14.4485 18.4456 15.1429 18.575 15.8201 18.6902L15.904 18.1973C15.2321 18.083 14.5427 17.9545 13.8425 17.8133L13.7437 18.3034ZM13.5431 16.4252V18.0584H14.0431V16.4252H13.5431ZM15.8201 15.7932C15.1429 15.9085 14.4485 16.038 13.7437 16.1802L13.8425 16.6703C14.5427 16.529 15.2321 16.4005 15.904 16.2861L15.8201 15.7932ZM16.1121 14.6408V12.793H15.6121V14.6408H16.1121ZM13.8416 15.2636C14.5422 15.125 15.2318 14.9991 15.9031 14.8875L15.821 14.3942C15.1444 14.5068 14.4499 14.6336 13.7446 14.7731L13.8416 15.2636ZM13.5431 13.5664V15.0183H14.0431V13.5664H13.5431ZM15.7813 12.5565C15.0856 12.794 14.389 13.0542 13.6989 13.3348L13.8873 13.798C14.5685 13.521 15.2562 13.2641 15.9428 13.0296L15.7813 12.5565ZM16.1121 11.3385V9.34478H15.6121V11.3385H16.1121ZM13.8838 12.3149C14.5673 12.0487 15.2549 11.8009 15.94 11.576L15.7841 11.101C15.0899 11.3289 14.3937 11.5797 13.7024 11.849L13.8838 12.3149ZM13.5431 11.0345V12.0819H14.0431V11.0345H13.5431ZM13.5431 10.1181V11.0345H14.0431V10.1181H13.5431ZM15.7813 9.10818C15.0856 9.34569 14.389 9.60593 13.6989 9.88656L13.8873 10.3497C14.5685 10.0727 15.2562 9.81578 15.9428 9.58137L15.7813 9.10818ZM16.1121 7.89021V5.19999H15.6121V7.89021H16.1121ZM13.8838 8.86662C14.5673 8.60039 15.2549 8.35266 15.94 8.12774L15.7841 7.65269C15.0899 7.8806 14.3937 8.13141 13.7024 8.40072L13.8838 8.86662ZM13.5431 6.4462V8.63367H14.0431V6.4462H13.5431ZM13.6997 5.92242C13.5965 6.07807 13.5419 6.26097 13.5431 6.44776L14.0431 6.44464C14.0426 6.35724 14.0681 6.27166 14.1164 6.19883L13.6997 5.92242ZM14.1229 5.57388C13.9503 5.64542 13.803 5.76676 13.6997 5.92242L14.1164 6.19883C14.1647 6.12601 14.2336 6.06923 14.3144 6.03576L14.1229 5.57388ZM15.7813 4.96339C15.2259 5.15292 14.6704 5.35706 14.1266 5.57237L14.3106 6.03726C14.8468 5.825 15.3948 5.62362 15.9428 5.43659L15.7813 4.96339ZM12.1638 18.6549V21.2688H12.6638V18.6549H12.1638ZM12.1641 18.574C12.1626 18.6052 12.1626 18.6363 12.1641 18.6674L12.6635 18.6425C12.6628 18.628 12.6628 18.6134 12.6635 18.5988L12.1641 18.574ZM12.1638 11.8421V18.5864H12.6638V11.8421H12.1638ZM11.6189 12.7432C11.8361 12.436 12.143 12.2035 12.4975 12.0777L12.3301 11.6065C11.8784 11.7669 11.4874 12.0631 11.2107 12.4546L11.6189 12.7432ZM11.2845 13.7934C11.2849 13.4172 11.4018 13.0504 11.6189 12.7432L11.2107 12.4546C10.9339 12.846 10.7851 13.3134 10.7845 13.7928L11.2845 13.7934ZM11.2845 15.8621V13.7931H10.7845V15.8621H11.2845ZM11.2845 20.6897V15.8621H10.7845V20.6897H11.2845ZM11.6189 21.7396C11.4018 21.4324 11.2849 21.0655 11.2845 20.6894L10.7845 20.69C10.7851 21.1693 10.9339 21.6368 11.2107 22.0282L11.6189 21.7396ZM12.4975 22.4051C12.143 22.2792 11.8361 22.0467 11.6189 21.7396L11.2107 22.0282C11.4874 22.4196 11.8784 22.7158 12.3301 22.8763L12.4975 22.4051ZM12.1638 21.4834V22.6407H12.6638V21.4834H12.1638ZM12.1554 21.3745C12.1553 21.4241 12.1592 21.4735 12.1668 21.5223L12.6607 21.4445C12.6572 21.4216 12.6554 21.3985 12.6554 21.3753L12.1554 21.3745ZM12.1668 21.2299C12.1593 21.2776 12.1555 21.326 12.1554 21.3745L12.6554 21.3753C12.6554 21.3526 12.6572 21.33 12.6607 21.3077L12.1668 21.2299ZM3.54138 14.5759C3.88251 14.2347 4.34517 14.0431 4.82759 14.0431L4.82759 13.5431C4.21256 13.5431 3.62272 13.7874 3.18783 14.2223L3.54138 14.5759ZM3.00862 15.8621C3.00862 15.3797 3.20026 14.917 3.54138 14.5759L3.18783 14.2223C2.75294 14.6572 2.50862 15.247 2.50862 15.8621H3.00862ZM3.00862 20.6897V15.8621H2.50862V20.6897H3.00862ZM4.13793 20.4397H2.75862V20.9397H4.13793V20.4397ZM3.88793 16.5517V20.6897H4.38793V16.5517H3.88793ZM4.36515 15.3996C4.05959 15.7052 3.88793 16.1196 3.88793 16.5517H4.38793C4.38793 16.2522 4.50691 15.965 4.7187 15.7532L4.36515 15.3996ZM5.51724 14.9224C5.08512 14.9224 4.6707 15.0941 4.36515 15.3996L4.7187 15.7532C4.93049 15.5414 5.21773 15.4224 5.51724 15.4224V14.9224ZM9.65517 14.9224H5.51724V15.4224H9.65517V14.9224ZM9.40517 13.7931V15.1724H9.90517V13.7931H9.40517ZM4.82759 14.0431H9.65517V13.5431H4.82759V14.0431Z" fill="black" mask="url(#path-1-inside-1_528_7684)"/>
</svg>