<?xml version="1.0" encoding="UTF-8"?>
<svg xmlns="http://www.w3.org/2000/svg" viewBox="0 0 594.1 419.2">
  <defs>
    <style>
      .cls-1 {
        stroke-width: 0px;
      }

      .cls-1, .cls-2 {
        fill: none;
      }

      .cls-2 {
        stroke: #606060;
        stroke-linecap: round;
        stroke-linejoin: round;
        stroke-width: .7px;
      }
    </style>
  </defs>
  <g id="ET-606">
    <g id="LINE">
      <line class="cls-1" x1="92.6" y1="107.7" x2="112.1" y2="100.1"/>
    </g>
    <g id="LINE-2" data-name="LINE">
      <line class="cls-1" x1="22" y1="96.1" x2="22.4" y2="42.5"/>
    </g>
    <g id="LINE-3" data-name="LINE">
      <line class="cls-1" x1="22.4" y1="42.5" x2="55.6" y2="30.9"/>
    </g>
    <g id="LINE-4" data-name="LINE">
      <line class="cls-1" x1="79.3" y1="30.9" x2="112.1" y2="44.5"/>
    </g>
    <g id="LINE-5" data-name="LINE">
      <line class="cls-1" x1="92.6" y1="107.7" x2="86.8" y2="105.2"/>
    </g>
    <g id="LINE-6" data-name="LINE">
      <line class="cls-1" x1="86.8" y1="105.2" x2="79.3" y2="107.7"/>
    </g>
    <g id="LINE-7" data-name="LINE">
      <line class="cls-1" x1="79.3" y1="107.7" x2="57.5" y2="108.6"/>
    </g>
    <g id="LINE-8" data-name="LINE">
      <line class="cls-1" x1="57.5" y1="108.6" x2="22" y2="96.1"/>
    </g>
  </g>
  <g id="ET-608">
    <g id="LINE-9" data-name="LINE">
      <line class="cls-1" x1="112.1" y1="100.1" x2="132.6" y2="109.8"/>
    </g>
    <g id="LINE-10" data-name="LINE">
      <line class="cls-1" x1="132.6" y1="127.5" x2="121.6" y2="131.2"/>
    </g>
    <g id="LINE-11" data-name="LINE">
      <line class="cls-1" x1="121.6" y1="131.2" x2="92.6" y2="121"/>
    </g>
    <g id="LINE-12" data-name="LINE">
      <line class="cls-1" x1="112.1" y1="100.1" x2="92.6" y2="107.7"/>
    </g>
    <g id="LINE-13" data-name="LINE">
      <line class="cls-1" x1="92.6" y1="121" x2="92.6" y2="107.7"/>
    </g>
  </g>
  <g id="ET-616">
    <g id="LINE-14" data-name="LINE">
      <line class="cls-1" x1="132.6" y1="48.3" x2="393.5" y2="140.1"/>
    </g>
    <g id="LINE-15" data-name="LINE">
      <line class="cls-1" x1="393.5" y1="140.1" x2="263.4" y2="185.8"/>
    </g>
    <g id="LINE-16" data-name="LINE">
      <line class="cls-1" x1="263.4" y1="185.8" x2="132.6" y2="140.1"/>
    </g>
  </g>
  <g id="ET-615-B">
    <g id="LINE-17" data-name="LINE">
      <line class="cls-1" x1="337.1" y1="168.4" x2="394.7" y2="145.9"/>
    </g>
    <g id="LINE-18" data-name="LINE">
      <line class="cls-1" x1="394.7" y1="226.3" x2="337.1" y2="206.3"/>
    </g>
  </g>
  <g id="ET-615-A">
    <g id="LINE-19" data-name="LINE">
      <line class="cls-1" x1="456" y1="203.8" x2="395.9" y2="226.3"/>
    </g>
    <g id="LINE-20" data-name="LINE">
      <line class="cls-1" x1="395.9" y1="145.9" x2="456" y2="168.4"/>
    </g>
  </g>
  <g id="ETPLAN">
    <g id="LINE-21" data-name="LINE">
      <line class="cls-2" x1="6.5" y1="95.7" x2="6.5" y2="278.4"/>
    </g>
    <g id="LINE-22" data-name="LINE">
      <line class="cls-2" x1="1.6" y1="65.9" x2="1.6" y2="78.2"/>
    </g>
    <g id="LINE-23" data-name="LINE">
      <line class="cls-2" x1="1.6" y1="78.2" x2="4.6" y2="78.2"/>
    </g>
    <g id="LINE-24" data-name="LINE">
      <line class="cls-2" x1="4.6" y1="78.2" x2="4.6" y2="91.8"/>
    </g>
    <g id="LINE-25" data-name="LINE">
      <line class="cls-2" x1="4.6" y1="91.8" x2="20.6" y2="97.5"/>
    </g>
    <g id="LINE-26" data-name="LINE">
      <line class="cls-2" x1="6.5" y1="278.4" x2="124.9" y2="236.8"/>
    </g>
    <g id="LINE-27" data-name="LINE">
      <line class="cls-2" x1="67.6" y1="301.4" x2="67.6" y2="313.5"/>
    </g>
    <g id="LINE-28" data-name="LINE">
      <line class="cls-2" x1="21.3" y1="42.9" x2="21.3" y2="52"/>
    </g>
    <g id="LINE-29" data-name="LINE">
      <line class="cls-2" x1="21.3" y1="52" x2="22.4" y2="52"/>
    </g>
    <g id="LINE-30" data-name="LINE">
      <line class="cls-2" x1="22.4" y1="52" x2="22.4" y2="42.5"/>
    </g>
    <g id="LINE-31" data-name="LINE">
      <line class="cls-2" x1="78.7" y1="260.1" x2="88.4" y2="263.5"/>
    </g>
    <g id="LINE-32" data-name="LINE">
      <line class="cls-2" x1="263.4" y1="185.8" x2="294.2" y2="175"/>
    </g>
    <g id="LINE-33" data-name="LINE">
      <line class="cls-2" x1="55.6" y1="30.9" x2="79.3" y2="30.9"/>
    </g>
    <g id="LINE-34" data-name="LINE">
      <line class="cls-2" x1="79.3" y1="30.9" x2="112.1" y2="44.5"/>
    </g>
    <g id="LINE-35" data-name="LINE">
      <line class="cls-2" x1="112.1" y1="44.5" x2="112.1" y2="100.1"/>
    </g>
    <g id="LINE-36" data-name="LINE">
      <line class="cls-2" x1="112.1" y1="100.1" x2="132.6" y2="109.8"/>
    </g>
    <g id="LINE-37" data-name="LINE">
      <line class="cls-2" x1="506.6" y1="418.8" x2="484.2" y2="410.9"/>
    </g>
    <g id="LINE-38" data-name="LINE">
      <line class="cls-2" x1="22" y1="64.5" x2="22" y2="96.1"/>
    </g>
    <g id="LINE-39" data-name="LINE">
      <line class="cls-2" x1="31.9" y1="286.1" x2="38.5" y2="268.7"/>
    </g>
    <g id="LINE-40" data-name="LINE">
      <line class="cls-2" x1="38.5" y1="268.7" x2="73.4" y2="256.7"/>
    </g>
    <g id="LINE-41" data-name="LINE">
      <line class="cls-2" x1="73.4" y1="256.7" x2="73.4" y2="261.3"/>
    </g>
    <g id="LINE-42" data-name="LINE">
      <line class="cls-2" x1="73.4" y1="261.3" x2="78.7" y2="260.1"/>
    </g>
    <g id="LINE-43" data-name="LINE">
      <line class="cls-2" x1="132.6" y1="48.3" x2="132.6" y2="109.8"/>
    </g>
    <g id="LINE-44" data-name="LINE">
      <line class="cls-2" x1="67.6" y1="313.5" x2="77.1" y2="316.9"/>
    </g>
    <g id="LINE-45" data-name="LINE">
      <line class="cls-2" x1="77.1" y1="316.9" x2="77.1" y2="311.9"/>
    </g>
    <g id="LINE-46" data-name="LINE">
      <line class="cls-2" x1="77.1" y1="311.9" x2="90.1" y2="309.4"/>
    </g>
    <g id="LINE-47" data-name="LINE">
      <line class="cls-2" x1="6.5" y1="280" x2="67.6" y2="301.4"/>
    </g>
    <g id="LINE-48" data-name="LINE">
      <line class="cls-2" x1="176.5" y1="412.6" x2="329.5" y2="358.8"/>
    </g>
    <g id="LINE-49" data-name="LINE">
      <line class="cls-2" x1="1.6" y1="233" x2="1.6" y2="233"/>
    </g>
    <g id="LINE-50" data-name="LINE">
      <line class="cls-2" x1="20.6" y1="65.9" x2="20.6" y2="97.5"/>
    </g>
    <g id="LINE-51" data-name="LINE">
      <line class="cls-2" x1="110.8" y1="271.4" x2="132.6" y2="279"/>
    </g>
    <g id="LINE-52" data-name="LINE">
      <line class="cls-2" x1="88.4" y1="263.5" x2="132.6" y2="248"/>
    </g>
    <g id="LINE-53" data-name="LINE">
      <line class="cls-2" x1="394" y1="396.2" x2="394" y2="410.6"/>
    </g>
    <g id="LINE-54" data-name="LINE">
      <line class="cls-2" x1="370.9" y1="418.7" x2="394" y2="410.6"/>
    </g>
    <g id="LINE-55" data-name="LINE">
      <line class="cls-2" x1="124.9" y1="137.4" x2="124.9" y2="236.8"/>
    </g>
    <g id="LINE-56" data-name="LINE">
      <line class="cls-2" x1="90.1" y1="309.4" x2="111.7" y2="317"/>
    </g>
    <g id="LINE-57" data-name="LINE">
      <line class="cls-2" x1=".4" y1=".4" x2=".4" y2="372.1"/>
    </g>
    <g id="LINE-58" data-name="LINE">
      <line class="cls-2" x1=".4" y1="372.1" x2="132.6" y2="325.6"/>
    </g>
    <g id="LINE-59" data-name="LINE">
      <line class="cls-2" x1="92.6" y1="121" x2="92.6" y2="107.7"/>
    </g>
    <g id="LINE-60" data-name="LINE">
      <line class="cls-2" x1="92.6" y1="107.7" x2="86.8" y2="105.2"/>
    </g>
    <g id="LINE-61" data-name="LINE">
      <line class="cls-2" x1="86.8" y1="105.2" x2="79.3" y2="107.7"/>
    </g>
    <g id="LINE-62" data-name="LINE">
      <line class="cls-2" x1="79.3" y1="107.7" x2="57.5" y2="108.6"/>
    </g>
    <g id="LINE-63" data-name="LINE">
      <line class="cls-2" x1="67.6" y1="334.3" x2="80.6" y2="328.1"/>
    </g>
    <g id="LINE-64" data-name="LINE">
      <line class="cls-2" x1="80.6" y1="328.1" x2="80.6" y2="335.9"/>
    </g>
    <g id="LINE-65" data-name="LINE">
      <line class="cls-2" x1="80.6" y1="335.9" x2="88.8" y2="337.5"/>
    </g>
    <g id="LINE-66" data-name="LINE">
      <line class="cls-2" x1="3.4" y1="19.2" x2="21.1" y2="11.6"/>
    </g>
    <g id="LINE-67" data-name="LINE">
      <line class="cls-2" x1="21.1" y1="11.6" x2="41.3" y2="19.2"/>
    </g>
    <g id="LINE-68" data-name="LINE">
      <line class="cls-2" x1="41.3" y1="19.2" x2="41.3" y2="29.3"/>
    </g>
    <g id="LINE-69" data-name="LINE">
      <line class="cls-2" x1="41.3" y1="29.3" x2="38.8" y2="29.3"/>
    </g>
    <g id="LINE-70" data-name="LINE">
      <line class="cls-2" x1="38.8" y1="29.3" x2="38.8" y2="36.7"/>
    </g>
    <g id="LINE-71" data-name="LINE">
      <line class="cls-2" x1="26.9" y1="40.9" x2="26.9" y2="30.9"/>
    </g>
    <g id="LINE-72" data-name="LINE">
      <line class="cls-2" x1="110.8" y1="271.4" x2="111.6" y2="314.1"/>
    </g>
    <g id="LINE-73" data-name="LINE">
      <line class="cls-2" x1="132.6" y1="48.3" x2="393.5" y2="140.1"/>
    </g>
    <g id="LINE-74" data-name="LINE">
      <line class="cls-2" x1="132.6" y1="127.5" x2="121.6" y2="131.2"/>
    </g>
    <g id="LINE-75" data-name="LINE">
      <line class="cls-2" x1="6.5" y1="280" x2="6.5" y2="366.5"/>
    </g>
    <g id="LINE-76" data-name="LINE">
      <line class="cls-2" x1=".4" y1="417.8" x2="133.6" y2="417.8"/>
    </g>
    <g id="LINE-77" data-name="LINE">
      <line class="cls-2" x1="308.1" y1="170.1" x2="393.5" y2="140.1"/>
    </g>
    <g id="LINE-78" data-name="LINE">
      <line class="cls-2" x1="88.8" y1="337.5" x2="112" y2="329.4"/>
    </g>
    <g id="LINE-79" data-name="LINE">
      <line class="cls-2" x1="111.7" y1="317" x2="112" y2="329.4"/>
    </g>
    <g id="LINE-80" data-name="LINE">
      <line class="cls-2" x1="308.1" y1="170.1" x2="337.1" y2="181"/>
    </g>
    <g id="LINE-81" data-name="LINE">
      <line class="cls-2" x1="337.1" y1="181" x2="337.1" y2="168.4"/>
    </g>
    <g id="LINE-82" data-name="LINE">
      <line class="cls-2" x1="337.1" y1="168.4" x2="395.3" y2="145.6"/>
    </g>
    <g id="LINE-83" data-name="LINE">
      <line class="cls-2" x1="395.3" y1="145.6" x2="456" y2="168.4"/>
    </g>
    <g id="LINE-84" data-name="LINE">
      <line class="cls-2" x1="456" y1="168.4" x2="456" y2="178.5"/>
    </g>
    <g id="LINE-85" data-name="LINE">
      <line class="cls-2" x1="456" y1="178.5" x2="463.6" y2="181"/>
    </g>
    <g id="LINE-86" data-name="LINE">
      <line class="cls-2" x1="463.6" y1="181" x2="483.8" y2="173.4"/>
    </g>
    <g id="LINE-87" data-name="LINE">
      <line class="cls-2" x1="483.8" y1="173.4" x2="501.5" y2="181"/>
    </g>
    <g id="LINE-88" data-name="LINE">
      <line class="cls-2" x1="501.5" y1="181" x2="501.5" y2="191.1"/>
    </g>
    <g id="LINE-89" data-name="LINE">
      <line class="cls-2" x1="501.5" y1="191.1" x2="483.8" y2="198.7"/>
    </g>
    <g id="LINE-90" data-name="LINE">
      <line class="cls-2" x1="483.8" y1="198.7" x2="463.6" y2="191.1"/>
    </g>
    <g id="LINE-91" data-name="LINE">
      <line class="cls-2" x1="463.6" y1="191.1" x2="456" y2="193.7"/>
    </g>
    <g id="LINE-92" data-name="LINE">
      <line class="cls-2" x1="456" y1="193.7" x2="456" y2="203.8"/>
    </g>
    <g id="LINE-93" data-name="LINE">
      <line class="cls-2" x1="456" y1="203.8" x2="395.3" y2="226.5"/>
    </g>
    <g id="LINE-94" data-name="LINE">
      <line class="cls-2" x1="395.3" y1="226.5" x2="337.1" y2="206.3"/>
    </g>
    <g id="LINE-95" data-name="LINE">
      <line class="cls-2" x1="337.1" y1="206.3" x2="337.1" y2="191.1"/>
    </g>
    <g id="LINE-96" data-name="LINE">
      <line class="cls-2" x1="337.1" y1="191.1" x2="316.9" y2="198.7"/>
    </g>
    <g id="LINE-97" data-name="LINE">
      <line class="cls-2" x1="316.9" y1="198.7" x2="306.8" y2="193.7"/>
    </g>
    <g id="LINE-98" data-name="LINE">
      <line class="cls-2" x1="306.8" y1="193.7" x2="296.7" y2="193.7"/>
    </g>
    <g id="LINE-99" data-name="LINE">
      <line class="cls-2" x1="296.7" y1="193.7" x2="294.2" y2="175"/>
    </g>
    <g id="LINE-100" data-name="LINE">
      <line class="cls-2" x1="133.6" y1="417.8" x2="176.2" y2="402.8"/>
    </g>
    <g id="LINE-101" data-name="LINE">
      <line class="cls-2" x1="31.9" y1="286.1" x2="111.6" y2="314.1"/>
    </g>
    <g id="LINE-102" data-name="LINE">
      <line class="cls-2" x1="22" y1="96.1" x2="57.5" y2="108.6"/>
    </g>
    <g id="LINE-103" data-name="LINE">
      <line class="cls-2" x1="1.6" y1="65.9" x2="10.2" y2="65.9"/>
    </g>
    <g id="LINE-104" data-name="LINE">
      <line class="cls-2" x1="10.2" y1="65.9" x2="10.2" y2="64.5"/>
    </g>
    <g id="LINE-105" data-name="LINE">
      <line class="cls-2" x1="10.2" y1="64.5" x2="1.6" y2="64.5"/>
    </g>
    <g id="LINE-106" data-name="LINE">
      <line class="cls-2" x1="22" y1="64.5" x2="17.3" y2="64.5"/>
    </g>
    <g id="LINE-107" data-name="LINE">
      <line class="cls-2" x1="17.3" y1="64.5" x2="17.3" y2="65.9"/>
    </g>
    <g id="LINE-108" data-name="LINE">
      <line class="cls-2" x1="17.3" y1="65.9" x2="20.6" y2="65.9"/>
    </g>
    <g id="LINE-109" data-name="LINE">
      <line class="cls-2" x1="394" y1="417.8" x2="394" y2="418.7"/>
    </g>
    <g id="LINE-110" data-name="LINE">
      <line class="cls-2" x1="6.5" y1="366.5" x2="67.6" y2="345"/>
    </g>
    <g id="LINE-111" data-name="LINE">
      <line class="cls-2" x1="92.6" y1="121" x2="121.6" y2="131.2"/>
    </g>
    <g id="LINE-112" data-name="LINE">
      <line class="cls-2" x1="3.4" y1="19.2" x2="3.4" y2="29.2"/>
    </g>
    <g id="LINE-113" data-name="LINE">
      <line class="cls-2" x1="3.4" y1="29.2" x2="22.4" y2="35.7"/>
    </g>
    <g id="LINE-114" data-name="LINE">
      <line class="cls-2" x1="22.4" y1="35.7" x2="26.9" y2="30.9"/>
    </g>
    <g id="LINE-115" data-name="LINE">
      <line class="cls-2" x1="6.5" y1="95.7" x2="124.9" y2="137.4"/>
    </g>
    <g id="LINE-116" data-name="LINE">
      <line class="cls-2" x1="38.8" y1="36.7" x2="55.6" y2="30.9"/>
    </g>
    <g id="LINE-117" data-name="LINE">
      <line class="cls-2" x1="67.6" y1="334.3" x2="67.6" y2="345"/>
    </g>
    <g id="LINE-118" data-name="LINE">
      <line class="cls-2" x1="1.6" y1="49.8" x2="1.6" y2="64.5"/>
    </g>
    <g id="LINE-119" data-name="LINE">
      <line class="cls-2" x1="1.6" y1="49.8" x2="21.3" y2="42.9"/>
    </g>
    <g id="LINE-120" data-name="LINE">
      <line class="cls-2" x1="484.2" y1="380.3" x2="484.2" y2="410.9"/>
    </g>
    <g id="LINE-121" data-name="LINE">
      <line class="cls-2" x1="329.5" y1="358.8" x2="329.5" y2="418.9"/>
    </g>
    <g id="LINE-122" data-name="LINE">
      <line class="cls-2" x1="396.3" y1="232.8" x2="528.9" y2="186.2"/>
    </g>
    <g id="LINE-123" data-name="LINE">
      <line class="cls-2" x1="329.5" y1="418.9" x2="394" y2="396.2"/>
    </g>
    <g id="LINE-124" data-name="LINE">
      <line class="cls-2" x1="22.4" y1="42.5" x2="26.9" y2="40.9"/>
    </g>
    <g id="LINE-125" data-name="LINE">
      <line class="cls-2" x1="176.2" y1="402.8" x2="176.2" y2="412.7"/>
    </g>
    <g id="LINE-126" data-name="LINE">
      <line class="cls-2" x1=".4" y1=".4" x2="528.9" y2="186.2"/>
    </g>
    <g id="LINE-127" data-name="LINE">
      <line class="cls-2" x1="593.7" y1="418.8" x2="484.2" y2="380.3"/>
    </g>
    <g id="LINE-128" data-name="LINE">
      <line class="cls-2" x1="506.6" y1="418.8" x2="370.9" y2="418.7"/>
    </g>
    <g id="LINE-129" data-name="LINE">
      <line class="cls-2" x1="132.6" y1="140.1" x2="461.3" y2="255.7"/>
    </g>
    <g id="LINE-130" data-name="LINE">
      <line class="cls-2" x1="592.5" y1="209.5" x2="592.5" y2="418.8"/>
    </g>
    <g id="LINE-131" data-name="LINE">
      <line class="cls-2" x1="132.6" y1="127.5" x2="132.6" y2="370.8"/>
    </g>
    <g id="LINE-132" data-name="LINE">
      <line class="cls-2" x1=".4" y1="417.8" x2="592.5" y2="209.5"/>
    </g>
    <g id="LINE-133" data-name="LINE">
      <line class="cls-2" x1="394.7" y1="201.4" x2="395.9" y2="201.4"/>
    </g>
    <g id="LINE-134" data-name="LINE">
      <line class="cls-2" x1="395.9" y1="201.4" x2="395.9" y2="170.8"/>
    </g>
    <g id="LINE-135" data-name="LINE">
      <line class="cls-2" x1="395.9" y1="170.8" x2="394.7" y2="170.8"/>
    </g>
    <g id="LINE-136" data-name="LINE">
      <line class="cls-2" x1="394.7" y1="170.8" x2="394.7" y2="201.4"/>
    </g>
  </g>
</svg>