<?xml version="1.0" encoding="UTF-8"?>
<svg xmlns="http://www.w3.org/2000/svg" viewBox="0 0 1247.8 438.8">
  <defs>
    <style>
      .cls-1 {
        stroke-width: 0px;
      }

      .cls-1, .cls-2 {
        fill: none;
      }

      .cls-2 {
        stroke: #606060;
        stroke-linecap: round;
        stroke-linejoin: round;
        stroke-width: .7px;
      }
    </style>
  </defs>
  <g id="Make2D_Visible_Curves" data-name="Make2D$Visible$Curves">
    <g id="LINE">
      <line class="cls-2" x1="669.7" y1="97.2" x2="669.7" y2="271.3"/>
    </g>
    <g id="LINE-2" data-name="LINE">
      <line class="cls-2" x1="669.7" y1="275.7" x2="669.7" y2="286.7"/>
    </g>
    <g id="LINE-3" data-name="LINE">
      <line class="cls-2" x1="862" y1="408.2" x2="862" y2="341"/>
    </g>
    <g id="LINE-4" data-name="LINE">
      <line class="cls-2" x1="794.7" y1="382.8" x2="710.5" y2="422.7"/>
    </g>
    <g id="LINE-5" data-name="LINE">
      <line class="cls-2" x1="794.7" y1="382.8" x2="862" y2="408.2"/>
    </g>
    <g id="LINE-6" data-name="LINE">
      <line class="cls-2" x1="862" y1="315.8" x2="926" y2="291.6"/>
    </g>
    <g id="LINE-7" data-name="LINE">
      <line class="cls-2" x1="862" y1="318.6" x2="862" y2="315.8"/>
    </g>
    <g id="LINE-8" data-name="LINE">
      <line class="cls-2" x1="926" y1="243.7" x2="926" y2="287.5"/>
    </g>
    <g id="LINE-9" data-name="LINE">
      <line class="cls-2" x1="946.1" y1="272.1" x2="946.1" y2="251.3"/>
    </g>
    <g id="LINE-10" data-name="LINE">
      <line class="cls-2" x1="755.1" y1="260.2" x2="755.1" y2="275"/>
    </g>
    <g id="LINE-11" data-name="LINE">
      <line class="cls-2" x1="78.3" y1="225.1" x2="96.4" y2="225.1"/>
    </g>
    <g id="LINE-12" data-name="LINE">
      <line class="cls-2" x1="96.4" y1="225.1" x2="96.4" y2="204.1"/>
    </g>
    <g id="LINE-13" data-name="LINE">
      <line class="cls-2" x1="496.9" y1="248.5" x2="751.3" y2="344.7"/>
    </g>
    <g id="LINE-14" data-name="LINE">
      <line class="cls-2" x1="355.7" y1="369" x2="316.5" y2="354.7"/>
    </g>
    <g id="LINE-15" data-name="LINE">
      <line class="cls-2" x1="43.2" y1="185.6" x2="32.3" y2="185.6"/>
    </g>
    <g id="LINE-16" data-name="LINE">
      <line class="cls-2" x1="32.3" y1="215.5" x2="32.3" y2="204.1"/>
    </g>
    <g id="LINE-17" data-name="LINE">
      <line class="cls-2" x1="871.2" y1="217.9" x2="881.2" y2="217.9"/>
    </g>
    <g id="LINE-18" data-name="LINE">
      <line class="cls-2" x1="848.8" y1="158.6" x2="860.4" y2="154.9"/>
    </g>
    <g id="LINE-19" data-name="LINE">
      <line class="cls-2" x1="953.1" y1="190.9" x2="953.1" y2="198.6"/>
    </g>
    <g id="LINE-20" data-name="LINE">
      <line class="cls-2" x1="839.1" y1="224.4" x2="860.4" y2="232.4"/>
    </g>
    <g id="LINE-21" data-name="LINE">
      <line class="cls-2" x1="258.3" y1="416.7" x2="274.9" y2="406.4"/>
    </g>
    <g id="LINE-22" data-name="LINE">
      <line class="cls-2" x1="107" y1="204.1" x2="107" y2="229.8"/>
    </g>
    <g id="LINE-23" data-name="LINE">
      <line class="cls-2" x1="708.3" y1="359" x2="702.1" y2="359"/>
    </g>
    <g id="LINE-24" data-name="LINE">
      <line class="cls-2" x1="107" y1="183.4" x2="96.8" y2="183.4"/>
    </g>
    <g id="LINE-25" data-name="LINE">
      <line class="cls-2" x1="670.2" y1=".4" x2="659.4" y2=".4"/>
    </g>
    <g id="LINE-26" data-name="LINE">
      <line class="cls-2" x1="659.4" y1=".4" x2="659.4" y2="271.6"/>
    </g>
    <g id="LINE-27" data-name="LINE">
      <line class="cls-2" x1="717.2" y1="392.9" x2="702.1" y2="392.9"/>
    </g>
    <g id="LINE-28" data-name="LINE">
      <line class="cls-2" x1="702.1" y1="422.7" x2="702.1" y2="392.9"/>
    </g>
    <g id="LINE-29" data-name="LINE">
      <line class="cls-2" x1="125.4" y1="229.8" x2="195.1" y2="252.1"/>
    </g>
    <g id="LINE-30" data-name="LINE">
      <line class="cls-2" x1="96.8" y1="183.4" x2="96.8" y2="167.2"/>
    </g>
    <g id="LINE-31" data-name="LINE">
      <line class="cls-2" x1="208.3" y1="295.6" x2="181.5" y2="371.8"/>
    </g>
    <g id="LINE-32" data-name="LINE">
      <line class="cls-2" x1="220.4" y1="295" x2="193.6" y2="371.2"/>
    </g>
    <g id="LINE-33" data-name="LINE">
      <line class="cls-2" x1="427.2" y1="438.5" x2="483.5" y2="283.3"/>
    </g>
    <g id="LINE-34" data-name="LINE">
      <line class="cls-2" x1="94.3" y1="167.2" x2="94.3" y2="128.1"/>
    </g>
    <g id="LINE-35" data-name="LINE">
      <line class="cls-2" x1="94.3" y1="128.1" x2="83.8" y2="128.1"/>
    </g>
    <g id="LINE-36" data-name="LINE">
      <line class="cls-2" x1="862" y1="318.6" x2="912.2" y2="299.6"/>
    </g>
    <g id="LINE-37" data-name="LINE">
      <line class="cls-2" x1="708.3" y1="359" x2="764.8" y2="380.4"/>
    </g>
    <g id="LINE-38" data-name="LINE">
      <line class="cls-2" x1="58.3" y1="128.9" x2="47" y2="128.9"/>
    </g>
    <g id="LINE-39" data-name="LINE">
      <line class="cls-2" x1="107" y1="124.5" x2="107" y2="183.4"/>
    </g>
    <g id="LINE-40" data-name="LINE">
      <line class="cls-2" x1="669.7" y1="97.2" x2="792" y2="143.5"/>
    </g>
    <g id="LINE-41" data-name="LINE">
      <line class="cls-2" x1="688.1" y1="45" x2="688.1" y2="55.4"/>
    </g>
    <g id="LINE-42" data-name="LINE">
      <line class="cls-2" x1="796.1" y1="130.5" x2="796.1" y2="138.6"/>
    </g>
    <g id="LINE-43" data-name="LINE">
      <line class="cls-2" x1="694.5" y1="41.3" x2="694.4" y2="44.4"/>
    </g>
    <g id="LINE-44" data-name="LINE">
      <line class="cls-2" x1="884" y1="215.5" x2="900" y2="215.5"/>
    </g>
    <g id="LINE-45" data-name="LINE">
      <line class="cls-2" x1="950.3" y1="132.4" x2="950.3" y2="190.9"/>
    </g>
    <g id="LINE-46" data-name="LINE">
      <line class="cls-2" x1="807.2" y1="83.9" x2="809.7" y2="84.9"/>
    </g>
    <g id="LINE-47" data-name="LINE">
      <line class="cls-2" x1="732.3" y1="392.9" x2="725.9" y2="392.9"/>
    </g>
    <g id="LINE-48" data-name="LINE">
      <line class="cls-2" x1="1099" y1="172.2" x2="1104.6" y2="172.2"/>
    </g>
    <g id="LINE-49" data-name="LINE">
      <line class="cls-2" x1="928.8" y1="203.8" x2="928.8" y2="226.4"/>
    </g>
    <g id="LINE-50" data-name="LINE">
      <line class="cls-2" x1="947.5" y1="155.7" x2="947.5" y2="185.5"/>
    </g>
    <g id="LINE-51" data-name="LINE">
      <line class="cls-2" x1="926" y1="220.7" x2="926" y2="226.4"/>
    </g>
    <g id="LINE-52" data-name="LINE">
      <line class="cls-2" x1="816" y1="62.8" x2="812.4" y2="75.3"/>
    </g>
    <g id="LINE-53" data-name="LINE">
      <line class="cls-2" x1="669.7" y1="50.9" x2="688.1" y2="45"/>
    </g>
    <g id="LINE-54" data-name="LINE">
      <line class="cls-2" x1="997.5" y1="223.6" x2="997.5" y2="258.9"/>
    </g>
    <g id="LINE-55" data-name="LINE">
      <line class="cls-2" x1="759.6" y1="55.3" x2="762.2" y2="56.2"/>
    </g>
    <g id="LINE-56" data-name="LINE">
      <line class="cls-2" x1="721.1" y1="51.4" x2="723.7" y2="52.3"/>
    </g>
    <g id="LINE-57" data-name="LINE">
      <line class="cls-2" x1="669.7" y1="90.8" x2="688.1" y2="97.8"/>
    </g>
    <g id="LINE-58" data-name="LINE">
      <line class="cls-2" x1="669.7" y1="50.9" x2="669.7" y2="90.8"/>
    </g>
    <g id="LINE-59" data-name="LINE">
      <line class="cls-2" x1="672.9" y1="270.1" x2="678.7" y2="272.3"/>
    </g>
    <g id="LINE-60" data-name="LINE">
      <line class="cls-2" x1="674.9" y1="14.3" x2="674.9" y2="33.9"/>
    </g>
    <g id="LINE-61" data-name="LINE">
      <line class="cls-2" x1="691" y1="46.3" x2="691" y2="55.4"/>
    </g>
    <g id="LINE-62" data-name="LINE">
      <line class="cls-2" x1="720.2" y1="64.7" x2="755.1" y2="77.8"/>
    </g>
    <g id="LINE-63" data-name="LINE">
      <line class="cls-2" x1="755.1" y1="77.8" x2="771.5" y2="104.1"/>
    </g>
    <g id="LINE-64" data-name="LINE">
      <line class="cls-2" x1="688.1" y1="55.4" x2="691" y2="55.4"/>
    </g>
    <g id="LINE-65" data-name="LINE">
      <line class="cls-2" x1="896.3" y1="146.2" x2="907" y2="115.3"/>
    </g>
    <g id="LINE-66" data-name="LINE">
      <line class="cls-2" x1="839.1" y1="254.6" x2="926" y2="287.5"/>
    </g>
    <g id="LINE-67" data-name="LINE">
      <line class="cls-2" x1="214.9" y1="395.4" x2="258.3" y2="416.7"/>
    </g>
    <g id="LINE-68" data-name="LINE">
      <line class="cls-2" x1="903" y1="135.3" x2="947.5" y2="152.2"/>
    </g>
    <g id="LINE-69" data-name="LINE">
      <line class="cls-2" x1="912.2" y1="322" x2="912.2" y2="299.6"/>
    </g>
    <g id="LINE-70" data-name="LINE">
      <line class="cls-2" x1="1135.6" y1="206.1" x2="1123.1" y2="200.8"/>
    </g>
    <g id="LINE-71" data-name="LINE">
      <line class="cls-2" x1="1116.1" y1="176.5" x2="1104.6" y2="172.2"/>
    </g>
    <g id="LINE-72" data-name="LINE">
      <line class="cls-2" x1="997.5" y1="132.4" x2="950.3" y2="132.4"/>
    </g>
    <g id="LINE-73" data-name="LINE">
      <line class="cls-2" x1="374.3" y1="357.9" x2="360.6" y2="353"/>
    </g>
    <g id="LINE-74" data-name="LINE">
      <line class="cls-2" x1="860.4" y1="154.9" x2="860.4" y2="169.4"/>
    </g>
    <g id="LINE-75" data-name="LINE">
      <line class="cls-2" x1="691" y1="40" x2="691" y2="43.2"/>
    </g>
    <g id="LINE-76" data-name="LINE">
      <line class="cls-2" x1="809.7" y1="84.9" x2="801.8" y2="112.7"/>
    </g>
    <g id="LINE-77" data-name="LINE">
      <line class="cls-2" x1="674.9" y1="33.9" x2="691" y2="40"/>
    </g>
    <g id="LINE-78" data-name="LINE">
      <line class="cls-2" x1="723.9" y1="41.8" x2="721.1" y2="51.4"/>
    </g>
    <g id="LINE-79" data-name="LINE">
      <line class="cls-2" x1="720.9" y1="62.1" x2="720.2" y2="64.7"/>
    </g>
    <g id="LINE-80" data-name="LINE">
      <line class="cls-2" x1="730" y1="30.3" x2="723.7" y2="52.3"/>
    </g>
    <g id="LINE-81" data-name="LINE">
      <line class="cls-2" x1="725.9" y1="408.8" x2="717.2" y2="412.1"/>
    </g>
    <g id="LINE-82" data-name="LINE">
      <line class="cls-2" x1="813.4" y1="61.9" x2="809.9" y2="74.3"/>
    </g>
    <g id="LINE-83" data-name="LINE">
      <line class="cls-2" x1="357.7" y1="381.2" x2="321.4" y2="368"/>
    </g>
    <g id="LINE-84" data-name="LINE">
      <line class="cls-2" x1="347.1" y1="410.9" x2="427.2" y2="438.5"/>
    </g>
    <g id="LINE-85" data-name="LINE">
      <line class="cls-2" x1="78.3" y1="232.5" x2="78.3" y2="225.1"/>
    </g>
    <g id="LINE-86" data-name="LINE">
      <line class="cls-2" x1="43.2" y1="204.1" x2="43.2" y2="225.1"/>
    </g>
    <g id="LINE-87" data-name="LINE">
      <line class="cls-2" x1="862" y1="341" x2="912.2" y2="322"/>
    </g>
    <g id="LINE-88" data-name="LINE">
      <line class="cls-2" x1="262.7" y1="429.4" x2="275.6" y2="418.8"/>
    </g>
    <g id="LINE-89" data-name="LINE">
      <line class="cls-2" x1="358.3" y1="402.4" x2="374.3" y2="357.9"/>
    </g>
    <g id="LINE-90" data-name="LINE">
      <line class="cls-2" x1="275.6" y1="418.8" x2="300.2" y2="428"/>
    </g>
    <g id="LINE-91" data-name="LINE">
      <line class="cls-2" x1="107" y1="229.8" x2="125.4" y2="229.8"/>
    </g>
    <g id="LINE-92" data-name="LINE">
      <line class="cls-2" x1="776.7" y1="252.1" x2="794.7" y2="258.9"/>
    </g>
    <g id="LINE-93" data-name="LINE">
      <line class="cls-2" x1="871.2" y1="217.9" x2="871.2" y2="220.7"/>
    </g>
    <g id="LINE-94" data-name="LINE">
      <line class="cls-2" x1="669.7" y1="275.5" x2="669.7" y2="275.7"/>
    </g>
    <g id="LINE-95" data-name="LINE">
      <line class="cls-2" x1="83.8" y1="166.3" x2="58.3" y2="166.3"/>
    </g>
    <g id="LINE-96" data-name="LINE">
      <line class="cls-2" x1="926" y1="193.7" x2="947.5" y2="185.5"/>
    </g>
    <g id="LINE-97" data-name="LINE">
      <line class="cls-2" x1="96.4" y1="204.1" x2="107" y2="204.1"/>
    </g>
    <g id="LINE-98" data-name="LINE">
      <line class="cls-2" x1="776.7" y1="252.1" x2="794.7" y2="245.2"/>
    </g>
    <g id="LINE-99" data-name="LINE">
      <line class="cls-2" x1="320.3" y1="159.2" x2="430.1" y2="159.2"/>
    </g>
    <g id="LINE-100" data-name="LINE">
      <line class="cls-2" x1="63.4" y1="225.1" x2="63.4" y2="232.5"/>
    </g>
    <g id="LINE-101" data-name="LINE">
      <line class="cls-2" x1="483.5" y1="283.3" x2="665.4" y2="352.1"/>
    </g>
    <g id="LINE-102" data-name="LINE">
      <line class="cls-2" x1="496.9" y1="248.5" x2="496.9" y2="243.5"/>
    </g>
    <g id="LINE-103" data-name="LINE">
      <line class="cls-2" x1="873.8" y1="84.7" x2="863.3" y2="121.5"/>
    </g>
    <g id="LINE-104" data-name="LINE">
      <line class="cls-2" x1="946.1" y1="272.1" x2="962.7" y2="272.1"/>
    </g>
    <g id="LINE-105" data-name="LINE">
      <line class="cls-2" x1="208.3" y1="295.6" x2="207.4" y2="293.6"/>
    </g>
    <g id="LINE-106" data-name="LINE">
      <line class="cls-2" x1="207.4" y1="293.6" x2="206.6" y2="291.6"/>
    </g>
    <g id="LINE-107" data-name="LINE">
      <line class="cls-2" x1="206.6" y1="291.6" x2="205.9" y2="289.6"/>
    </g>
    <g id="LINE-108" data-name="LINE">
      <line class="cls-2" x1="205.9" y1="289.6" x2="205.2" y2="287.6"/>
    </g>
    <g id="LINE-109" data-name="LINE">
      <line class="cls-2" x1="205.2" y1="287.6" x2="204.6" y2="285.5"/>
    </g>
    <g id="LINE-110" data-name="LINE">
      <line class="cls-2" x1="204.6" y1="285.5" x2="204.1" y2="283.5"/>
    </g>
    <g id="LINE-111" data-name="LINE">
      <line class="cls-2" x1="204.1" y1="283.5" x2="204" y2="283.1"/>
    </g>
    <g id="LINE-112" data-name="LINE">
      <line class="cls-2" x1="204" y1="283.1" x2="204" y2="282.8"/>
    </g>
    <g id="LINE-113" data-name="LINE">
      <line class="cls-2" x1="204" y1="282.8" x2="204" y2="282.5"/>
    </g>
    <g id="LINE-114" data-name="LINE">
      <line class="cls-2" x1="204" y1="282.5" x2="204" y2="282.1"/>
    </g>
    <g id="LINE-115" data-name="LINE">
      <line class="cls-2" x1="204" y1="282.1" x2="204" y2="281.7"/>
    </g>
    <g id="LINE-116" data-name="LINE">
      <line class="cls-2" x1="204" y1="281.7" x2="204" y2="281.3"/>
    </g>
    <g id="LINE-117" data-name="LINE">
      <line class="cls-2" x1="204" y1="281.3" x2="204.1" y2="280.5"/>
    </g>
    <g id="LINE-118" data-name="LINE">
      <line class="cls-2" x1="204.1" y1="280.5" x2="204.2" y2="279.7"/>
    </g>
    <g id="LINE-119" data-name="LINE">
      <line class="cls-2" x1="204.2" y1="279.7" x2="204.3" y2="278.8"/>
    </g>
    <g id="LINE-120" data-name="LINE">
      <line class="cls-2" x1="204.3" y1="278.8" x2="204.4" y2="277.8"/>
    </g>
    <g id="LINE-121" data-name="LINE">
      <line class="cls-2" x1="204.4" y1="277.8" x2="204.6" y2="276.9"/>
    </g>
    <g id="LINE-122" data-name="LINE">
      <line class="cls-2" x1="204.6" y1="276.9" x2="204.8" y2="275.8"/>
    </g>
    <g id="LINE-123" data-name="LINE">
      <line class="cls-2" x1="204.8" y1="275.8" x2="205" y2="274.7"/>
    </g>
    <g id="LINE-124" data-name="LINE">
      <line class="cls-2" x1="205" y1="274.7" x2="205.5" y2="272.5"/>
    </g>
    <g id="LINE-125" data-name="LINE">
      <line class="cls-2" x1="205.5" y1="272.5" x2="206.2" y2="270"/>
    </g>
    <g id="LINE-126" data-name="LINE">
      <line class="cls-2" x1="206.2" y1="270" x2="207" y2="267.3"/>
    </g>
    <g id="LINE-127" data-name="LINE">
      <line class="cls-2" x1="680.7" y1="267.2" x2="687.5" y2="264.6"/>
    </g>
    <g id="LINE-128" data-name="LINE">
      <line class="cls-2" x1="316.5" y1="354.7" x2="294.9" y2="414.9"/>
    </g>
    <g id="LINE-129" data-name="LINE">
      <line class="cls-2" x1="9.2" y1="154.6" x2="9.2" y2="215.5"/>
    </g>
    <g id="LINE-130" data-name="LINE">
      <line class="cls-2" x1="47" y1="128.9" x2="47" y2="167.1"/>
    </g>
    <g id="LINE-131" data-name="LINE">
      <line class="cls-2" x1="774.3" y1="282.2" x2="794.7" y2="290"/>
    </g>
    <g id="LINE-132" data-name="LINE">
      <line class="cls-2" x1="967.1" y1="178.1" x2="997.5" y2="189.7"/>
    </g>
    <g id="LINE-133" data-name="LINE">
      <line class="cls-2" x1="881.2" y1="189.9" x2="881.2" y2="217.9"/>
    </g>
    <g id="LINE-134" data-name="LINE">
      <line class="cls-2" x1="688.1" y1="62.7" x2="691" y2="62.7"/>
    </g>
    <g id="LINE-135" data-name="LINE">
      <line class="cls-2" x1="686.5" y1="10.5" x2="701.4" y2="19.5"/>
    </g>
    <g id="LINE-136" data-name="LINE">
      <line class="cls-2" x1="701.4" y1="19.5" x2="709" y2="19.5"/>
    </g>
    <g id="LINE-137" data-name="LINE">
      <line class="cls-2" x1="709" y1="19.5" x2="709.4" y2="36.3"/>
    </g>
    <g id="LINE-138" data-name="LINE">
      <line class="cls-2" x1="907" y1="115.3" x2="909.6" y2="116.2"/>
    </g>
    <g id="LINE-139" data-name="LINE">
      <line class="cls-2" x1="876.3" y1="85.7" x2="865.9" y2="122.5"/>
    </g>
    <g id="LINE-140" data-name="LINE">
      <line class="cls-2" x1="688.1" y1="62.7" x2="688.1" y2="97.8"/>
    </g>
    <g id="LINE-141" data-name="LINE">
      <line class="cls-2" x1="809.9" y1="74.3" x2="812.4" y2="75.3"/>
    </g>
    <g id="LINE-142" data-name="LINE">
      <line class="cls-2" x1="725.9" y1="408.8" x2="725.9" y2="392.9"/>
    </g>
    <g id="LINE-143" data-name="LINE">
      <line class="cls-2" x1="1123.1" y1="200.8" x2="1116" y2="200.8"/>
    </g>
    <g id="LINE-144" data-name="LINE">
      <line class="cls-2" x1="1116" y1="200.8" x2="1116" y2="212.9"/>
    </g>
    <g id="LINE-145" data-name="LINE">
      <line class="cls-2" x1="1116" y1="212.9" x2="1108.7" y2="216.6"/>
    </g>
    <g id="LINE-146" data-name="LINE">
      <line class="cls-2" x1="1108.7" y1="216.6" x2="1099" y2="216.6"/>
    </g>
    <g id="LINE-147" data-name="LINE">
      <line class="cls-2" x1="1099" y1="216.6" x2="1087.3" y2="208.6"/>
    </g>
    <g id="LINE-148" data-name="LINE">
      <line class="cls-2" x1="710.5" y1="422.7" x2="702.1" y2="422.7"/>
    </g>
    <g id="LINE-149" data-name="LINE">
      <line class="cls-2" x1="776.6" y1="326.1" x2="792.5" y2="326.1"/>
    </g>
    <g id="LINE-150" data-name="LINE">
      <line class="cls-2" x1="792.5" y1="326.1" x2="792.5" y2="292.2"/>
    </g>
    <g id="LINE-151" data-name="LINE">
      <line class="cls-2" x1="792.5" y1="292.2" x2="776.6" y2="292.2"/>
    </g>
    <g id="LINE-152" data-name="LINE">
      <line class="cls-2" x1="776.6" y1="292.2" x2="776.6" y2="326.1"/>
    </g>
    <g id="LINE-153" data-name="LINE">
      <line class="cls-2" x1="717.2" y1="412.1" x2="717.2" y2="392.9"/>
    </g>
    <g id="LINE-154" data-name="LINE">
      <line class="cls-2" x1="1116.1" y1="176.5" x2="1116.1" y2="188.2"/>
    </g>
    <g id="LINE-155" data-name="LINE">
      <line class="cls-2" x1="1116.1" y1="188.2" x2="1123.1" y2="188.2"/>
    </g>
    <g id="LINE-156" data-name="LINE">
      <line class="cls-2" x1="1123.1" y1="188.2" x2="1134.4" y2="183.5"/>
    </g>
    <g id="LINE-157" data-name="LINE">
      <line class="cls-2" x1="1134.4" y1="183.5" x2="1145.6" y2="183.5"/>
    </g>
    <g id="LINE-158" data-name="LINE">
      <line class="cls-2" x1="1145.6" y1="183.5" x2="1158.4" y2="189.1"/>
    </g>
    <g id="LINE-159" data-name="LINE">
      <line class="cls-2" x1="1158.4" y1="189.1" x2="1158.4" y2="200.8"/>
    </g>
    <g id="LINE-160" data-name="LINE">
      <line class="cls-2" x1="1158.4" y1="200.8" x2="1147.3" y2="206.1"/>
    </g>
    <g id="LINE-161" data-name="LINE">
      <line class="cls-2" x1="1147.3" y1="206.1" x2="1135.6" y2="206.1"/>
    </g>
    <g id="LINE-162" data-name="LINE">
      <line class="cls-2" x1="702.1" y1="389.6" x2="702.1" y2="359"/>
    </g>
    <g id="LINE-163" data-name="LINE">
      <line class="cls-2" x1="193.6" y1="371.2" x2="214.9" y2="395.4"/>
    </g>
    <g id="LINE-164" data-name="LINE">
      <line class="cls-2" x1="687.5" y1="264.6" x2="693.2" y2="266.8"/>
    </g>
    <g id="LINE-165" data-name="LINE">
      <line class="cls-2" x1="796.1" y1="145" x2="860.4" y2="169.4"/>
    </g>
    <g id="LINE-166" data-name="LINE">
      <line class="cls-2" x1="725.9" y1="389.6" x2="725.9" y2="374.9"/>
    </g>
    <g id="LINE-167" data-name="LINE">
      <line class="cls-2" x1="709.4" y1="36.3" x2="723.9" y2="41.8"/>
    </g>
    <g id="LINE-168" data-name="LINE">
      <line class="cls-2" x1="763.2" y1="42.8" x2="759.6" y2="55.3"/>
    </g>
    <g id="LINE-169" data-name="LINE">
      <line class="cls-2" x1="796.1" y1="138.6" x2="848.8" y2="158.6"/>
    </g>
    <g id="LINE-170" data-name="LINE">
      <line class="cls-2" x1="900" y1="215.5" x2="900" y2="220.7"/>
    </g>
    <g id="LINE-171" data-name="LINE">
      <line class="cls-2" x1="847.8" y1="173.3" x2="847.8" y2="195.7"/>
    </g>
    <g id="LINE-172" data-name="LINE">
      <line class="cls-2" x1="915.4" y1="215.5" x2="926" y2="215.5"/>
    </g>
    <g id="LINE-173" data-name="LINE">
      <line class="cls-2" x1="881.2" y1="189.9" x2="895.4" y2="148.7"/>
    </g>
    <g id="LINE-174" data-name="LINE">
      <line class="cls-2" x1="1247.5" y1="218.8" x2="1247.5" y2="437.5"/>
    </g>
    <g id="LINE-175" data-name="LINE">
      <line class="cls-2" x1="792" y1="143.5" x2="792" y2="225.1"/>
    </g>
    <g id="LINE-176" data-name="LINE">
      <line class="cls-2" x1="759.4" y1="65.9" x2="756.7" y2="75.5"/>
    </g>
    <g id="LINE-177" data-name="LINE">
      <line class="cls-2" x1="774.3" y1="282.2" x2="774.3" y2="326.2"/>
    </g>
    <g id="LINE-178" data-name="LINE">
      <line class="cls-2" x1="997.5" y1="166.6" x2="1087.3" y2="166.6"/>
    </g>
    <g id="LINE-179" data-name="LINE">
      <line class="cls-2" x1="1087.3" y1="166.6" x2="1087.3" y2="176.7"/>
    </g>
    <g id="LINE-180" data-name="LINE">
      <line class="cls-2" x1="732.3" y1="406.3" x2="732.3" y2="392.9"/>
    </g>
    <g id="LINE-181" data-name="LINE">
      <line class="cls-2" x1="967.1" y1="178.1" x2="997.5" y2="166.6"/>
    </g>
    <g id="LINE-182" data-name="LINE">
      <line class="cls-2" x1="947.5" y1="112.6" x2="947.5" y2="152.2"/>
    </g>
    <g id="LINE-183" data-name="LINE">
      <line class="cls-2" x1="444.4" y1="190.3" x2="444.4" y2="97.1"/>
    </g>
    <g id="LINE-184" data-name="LINE">
      <line class="cls-2" x1="444.4" y1="97.1" x2=".4" y2="97.1"/>
    </g>
    <g id="LINE-185" data-name="LINE">
      <line class="cls-2" x1=".4" y1="97.1" x2=".4" y2="235.7"/>
    </g>
    <g id="LINE-186" data-name="LINE">
      <line class="cls-2" x1=".4" y1="235.7" x2="107.9" y2="235.7"/>
    </g>
    <g id="LINE-187" data-name="LINE">
      <line class="cls-2" x1="674.9" y1="14.3" x2="686.5" y2="10.5"/>
    </g>
    <g id="LINE-188" data-name="LINE">
      <line class="cls-2" x1="771.5" y1="104.1" x2="873.2" y2="142.6"/>
    </g>
    <g id="LINE-189" data-name="LINE">
      <line class="cls-2" x1="873.2" y1="142.6" x2="895.4" y2="148.7"/>
    </g>
    <g id="LINE-190" data-name="LINE">
      <line class="cls-2" x1="1087.3" y1="208.6" x2="1087.3" y2="223.6"/>
    </g>
    <g id="LINE-191" data-name="LINE">
      <line class="cls-2" x1="717.2" y1="389.6" x2="717.2" y2="371.7"/>
    </g>
    <g id="LINE-192" data-name="LINE">
      <line class="cls-2" x1="732.3" y1="377.4" x2="735.4" y2="378.5"/>
    </g>
    <g id="LINE-193" data-name="LINE">
      <line class="cls-2" x1="360.6" y1="353" x2="355.7" y2="369"/>
    </g>
    <g id="LINE-194" data-name="LINE">
      <line class="cls-2" x1="209.1" y1="403" x2="262.7" y2="429.4"/>
    </g>
    <g id="LINE-195" data-name="LINE">
      <line class="cls-2" x1="691" y1="43.2" x2="694.5" y2="41.3"/>
    </g>
    <g id="LINE-196" data-name="LINE">
      <line class="cls-2" x1="764.9" y1="88.4" x2="801.9" y2="102.4"/>
    </g>
    <g id="LINE-197" data-name="LINE">
      <line class="cls-2" x1="476.3" y1="262.3" x2="418.6" y2="423.1"/>
    </g>
    <g id="LINE-198" data-name="LINE">
      <line class="cls-2" x1="358.3" y1="402.4" x2="418.6" y2="423.1"/>
    </g>
    <g id="LINE-199" data-name="LINE">
      <line class="cls-2" x1="871.2" y1="220.7" x2="900" y2="220.7"/>
    </g>
    <g id="LINE-200" data-name="LINE">
      <line class="cls-2" x1="107.9" y1="235.7" x2="207" y2="267.3"/>
    </g>
    <g id="LINE-201" data-name="LINE">
      <line class="cls-2" x1="691" y1="98.9" x2="738.7" y2="116.9"/>
    </g>
    <g id="LINE-202" data-name="LINE">
      <line class="cls-2" x1="901.9" y1="138.4" x2="947.5" y2="155.7"/>
    </g>
    <g id="LINE-203" data-name="LINE">
      <line class="cls-2" x1="670.2" y1=".4" x2="1247.5" y2="218.8"/>
    </g>
    <g id="LINE-204" data-name="LINE">
      <line class="cls-2" x1="796.1" y1="223.5" x2="860.4" y2="199.2"/>
    </g>
    <g id="LINE-205" data-name="LINE">
      <line class="cls-2" x1="738.7" y1="116.9" x2="750.3" y2="113.2"/>
    </g>
    <g id="LINE-206" data-name="LINE">
      <line class="cls-2" x1="765.7" y1="43.8" x2="762.2" y2="56.2"/>
    </g>
    <g id="LINE-207" data-name="LINE">
      <line class="cls-2" x1="695.1" y1="261.7" x2="700.9" y2="263.9"/>
    </g>
    <g id="LINE-208" data-name="LINE">
      <line class="cls-2" x1="794.7" y1="290" x2="794.7" y2="338.7"/>
    </g>
    <g id="LINE-209" data-name="LINE">
      <line class="cls-2" x1="494.4" y1="258.6" x2="749" y2="355"/>
    </g>
    <g id="LINE-210" data-name="LINE">
      <line class="cls-2" x1="32.3" y1="185.6" x2="32.3" y2="154.6"/>
    </g>
    <g id="LINE-211" data-name="LINE">
      <line class="cls-2" x1="32.3" y1="154.6" x2="9.2" y2="154.6"/>
    </g>
    <g id="LINE-212" data-name="LINE">
      <line class="cls-2" x1="735.6" y1="267.6" x2="755.1" y2="275"/>
    </g>
    <g id="LINE-213" data-name="LINE">
      <line class="cls-2" x1="686.4" y1="269.4" x2="693.2" y2="266.8"/>
    </g>
    <g id="LINE-214" data-name="LINE">
      <line class="cls-2" x1="9.2" y1="215.5" x2="32.3" y2="215.5"/>
    </g>
    <g id="LINE-215" data-name="LINE">
      <line class="cls-2" x1="32.3" y1="204.1" x2="43.2" y2="204.1"/>
    </g>
    <g id="LINE-216" data-name="LINE">
      <line class="cls-2" x1="197.6" y1="244.2" x2="223.6" y2="252.5"/>
    </g>
    <g id="LINE-217" data-name="LINE">
      <line class="cls-2" x1="195.1" y1="252.1" x2="197.6" y2="244.2"/>
    </g>
    <g id="LINE-218" data-name="LINE">
      <line class="cls-2" x1="839.1" y1="211.6" x2="839.1" y2="224.4"/>
    </g>
    <g id="LINE-219" data-name="LINE">
      <line class="cls-2" x1="83.8" y1="128.1" x2="83.8" y2="166.3"/>
    </g>
    <g id="LINE-220" data-name="LINE">
      <line class="cls-2" x1="300.2" y1="428" x2="321.4" y2="368"/>
    </g>
    <g id="LINE-221" data-name="LINE">
      <line class="cls-2" x1="43.2" y1="167.1" x2="43.2" y2="185.6"/>
    </g>
    <g id="LINE-222" data-name="LINE">
      <line class="cls-2" x1="732.3" y1="389.6" x2="732.3" y2="377.4"/>
    </g>
    <g id="LINE-223" data-name="LINE">
      <line class="cls-2" x1="717.2" y1="371.7" x2="725.9" y2="374.9"/>
    </g>
    <g id="LINE-224" data-name="LINE">
      <line class="cls-2" x1="665.4" y1="437.5" x2="665.4" y2="352.1"/>
    </g>
    <g id="LINE-225" data-name="LINE">
      <line class="cls-2" x1="669.7" y1="286.7" x2="774.3" y2="326.2"/>
    </g>
    <g id="LINE-226" data-name="LINE">
      <line class="cls-2" x1="749" y1="355" x2="749" y2="350"/>
    </g>
    <g id="LINE-227" data-name="LINE">
      <line class="cls-2" x1="669.7" y1="271.3" x2="672.9" y2="270.1"/>
    </g>
    <g id="LINE-228" data-name="LINE">
      <line class="cls-2" x1="735.6" y1="267.6" x2="755.1" y2="260.2"/>
    </g>
    <g id="LINE-229" data-name="LINE">
      <line class="cls-2" x1="926" y1="243.7" x2="946.1" y2="251.3"/>
    </g>
    <g id="LINE-230" data-name="LINE">
      <line class="cls-2" x1="96.8" y1="167.2" x2="94.3" y2="167.2"/>
    </g>
    <g id="LINE-231" data-name="LINE">
      <line class="cls-2" x1="58.3" y1="166.3" x2="58.3" y2="128.9"/>
    </g>
    <g id="LINE-232" data-name="LINE">
      <line class="cls-2" x1="476.3" y1="262.3" x2="764.8" y2="371.4"/>
    </g>
    <g id="LINE-233" data-name="LINE">
      <line class="cls-2" x1="732.3" y1="389.6" x2="725.9" y2="389.6"/>
    </g>
    <g id="LINE-234" data-name="LINE">
      <line class="cls-2" x1="1247.5" y1="437.5" x2="665.4" y2="437.5"/>
    </g>
    <g id="LINE-235" data-name="LINE">
      <line class="cls-2" x1="860.4" y1="178.1" x2="860.4" y2="190.9"/>
    </g>
    <g id="LINE-236" data-name="LINE">
      <line class="cls-2" x1="807.2" y1="83.9" x2="801.9" y2="102.4"/>
    </g>
    <g id="LINE-237" data-name="LINE">
      <line class="cls-2" x1="884" y1="189.9" x2="884" y2="215.5"/>
    </g>
    <g id="LINE-238" data-name="LINE">
      <line class="cls-2" x1="962.7" y1="272.1" x2="997.5" y2="258.9"/>
    </g>
    <g id="LINE-239" data-name="LINE">
      <line class="cls-2" x1="847.8" y1="173.3" x2="860.4" y2="178.1"/>
    </g>
    <g id="LINE-240" data-name="LINE">
      <line class="cls-2" x1="1087.3" y1="223.6" x2="997.5" y2="223.6"/>
    </g>
    <g id="LINE-241" data-name="LINE">
      <line class="cls-2" x1="181.5" y1="371.8" x2="209.1" y2="403"/>
    </g>
    <g id="LINE-242" data-name="LINE">
      <line class="cls-2" x1="1087.3" y1="176.7" x2="1099" y2="172.2"/>
    </g>
    <g id="LINE-243" data-name="LINE">
      <line class="cls-2" x1="863.3" y1="121.5" x2="865.9" y2="122.5"/>
    </g>
    <g id="LINE-244" data-name="LINE">
      <line class="cls-2" x1="915.4" y1="215.5" x2="915.4" y2="220.7"/>
    </g>
    <g id="LINE-245" data-name="LINE">
      <line class="cls-2" x1="915.4" y1="220.7" x2="926" y2="220.7"/>
    </g>
    <g id="LINE-246" data-name="LINE">
      <line class="cls-2" x1="691" y1="62.7" x2="691" y2="98.9"/>
    </g>
    <g id="LINE-247" data-name="LINE">
      <line class="cls-2" x1="801.8" y1="112.7" x2="874" y2="140.1"/>
    </g>
    <g id="LINE-248" data-name="LINE">
      <line class="cls-2" x1="874" y1="140.1" x2="896.3" y2="146.2"/>
    </g>
    <g id="LINE-249" data-name="LINE">
      <line class="cls-2" x1="860.4" y1="199.2" x2="860.4" y2="232.4"/>
    </g>
    <g id="LINE-250" data-name="LINE">
      <line class="cls-2" x1="691" y1="46.3" x2="694.4" y2="44.4"/>
    </g>
    <g id="LINE-251" data-name="LINE">
      <line class="cls-2" x1="756.9" y1="64.9" x2="759.4" y2="65.9"/>
    </g>
    <g id="LINE-252" data-name="LINE">
      <line class="cls-2" x1="357.7" y1="381.2" x2="347.1" y2="410.9"/>
    </g>
    <g id="LINE-253" data-name="LINE">
      <line class="cls-2" x1="839.1" y1="258.7" x2="926" y2="291.6"/>
    </g>
    <g id="LINE-254" data-name="LINE">
      <line class="cls-2" x1="796.1" y1="145" x2="796.1" y2="223.5"/>
    </g>
    <g id="LINE-255" data-name="LINE">
      <line class="cls-2" x1="847.8" y1="195.7" x2="860.4" y2="190.9"/>
    </g>
    <g id="LINE-256" data-name="LINE">
      <line class="cls-2" x1="756.9" y1="64.9" x2="754.1" y2="74.6"/>
    </g>
    <g id="LINE-257" data-name="LINE">
      <line class="cls-2" x1="695.1" y1="261.7" x2="792" y2="225.1"/>
    </g>
    <g id="LINE-258" data-name="LINE">
      <line class="cls-2" x1="496.9" y1="243.5" x2="751.3" y2="339.8"/>
    </g>
    <g id="LINE-259" data-name="LINE">
      <line class="cls-2" x1="444.4" y1="190.3" x2="659.4" y2="271.6"/>
    </g>
    <g id="LINE-260" data-name="LINE">
      <line class="cls-2" x1="430.1" y1="124.5" x2="430.1" y2="159.2"/>
    </g>
    <g id="LINE-261" data-name="LINE">
      <line class="cls-2" x1="717.2" y1="389.6" x2="702.1" y2="389.6"/>
    </g>
    <g id="LINE-262" data-name="LINE">
      <line class="cls-2" x1="735.4" y1="405.2" x2="732.3" y2="406.3"/>
    </g>
    <g id="LINE-263" data-name="LINE">
      <line class="cls-2" x1="953.1" y1="190.9" x2="950.3" y2="190.9"/>
    </g>
    <g id="LINE-264" data-name="LINE">
      <line class="cls-2" x1="680.7" y1="267.2" x2="686.4" y2="269.4"/>
    </g>
    <g id="LINE-265" data-name="LINE">
      <line class="cls-2" x1="220.4" y1="295" x2="219.5" y2="293"/>
    </g>
    <g id="LINE-266" data-name="LINE">
      <line class="cls-2" x1="219.5" y1="293" x2="218.7" y2="291.1"/>
    </g>
    <g id="LINE-267" data-name="LINE">
      <line class="cls-2" x1="218.7" y1="291.1" x2="218" y2="289.1"/>
    </g>
    <g id="LINE-268" data-name="LINE">
      <line class="cls-2" x1="218" y1="289.1" x2="217.3" y2="287"/>
    </g>
    <g id="LINE-269" data-name="LINE">
      <line class="cls-2" x1="217.3" y1="287" x2="216.7" y2="285"/>
    </g>
    <g id="LINE-270" data-name="LINE">
      <line class="cls-2" x1="216.7" y1="285" x2="216.1" y2="282.9"/>
    </g>
    <g id="LINE-271" data-name="LINE">
      <line class="cls-2" x1="216.1" y1="282.9" x2="216.1" y2="282.6"/>
    </g>
    <g id="LINE-272" data-name="LINE">
      <line class="cls-2" x1="216.1" y1="282.6" x2="216.1" y2="282.2"/>
    </g>
    <g id="LINE-273" data-name="LINE">
      <line class="cls-2" x1="216.1" y1="282.2" x2="216.1" y2="281.8"/>
    </g>
    <g id="LINE-274" data-name="LINE">
      <line class="cls-2" x1="216.1" y1="281.8" x2="216.1" y2="281.5"/>
    </g>
    <g id="LINE-275" data-name="LINE">
      <line class="cls-2" x1="216.1" y1="281.5" x2="216.1" y2="281.1"/>
    </g>
    <g id="LINE-276" data-name="LINE">
      <line class="cls-2" x1="216.1" y1="281.1" x2="216.1" y2="280.7"/>
    </g>
    <g id="LINE-277" data-name="LINE">
      <line class="cls-2" x1="216.1" y1="280.7" x2="216.2" y2="279.8"/>
    </g>
    <g id="LINE-278" data-name="LINE">
      <line class="cls-2" x1="216.2" y1="279.8" x2="216.3" y2="278.9"/>
    </g>
    <g id="LINE-279" data-name="LINE">
      <line class="cls-2" x1="216.3" y1="278.9" x2="216.4" y2="278"/>
    </g>
    <g id="LINE-280" data-name="LINE">
      <line class="cls-2" x1="216.4" y1="278" x2="216.5" y2="277"/>
    </g>
    <g id="LINE-281" data-name="LINE">
      <line class="cls-2" x1="216.5" y1="277" x2="216.7" y2="276"/>
    </g>
    <g id="LINE-282" data-name="LINE">
      <line class="cls-2" x1="216.7" y1="276" x2="216.9" y2="274.9"/>
    </g>
    <g id="LINE-283" data-name="LINE">
      <line class="cls-2" x1="216.9" y1="274.9" x2="217.2" y2="273.7"/>
    </g>
    <g id="LINE-284" data-name="LINE">
      <line class="cls-2" x1="217.2" y1="273.7" x2="217.8" y2="271.3"/>
    </g>
    <g id="LINE-285" data-name="LINE">
      <line class="cls-2" x1="217.8" y1="271.3" x2="218.5" y2="268.7"/>
    </g>
    <g id="LINE-286" data-name="LINE">
      <line class="cls-2" x1="218.5" y1="268.7" x2="219.4" y2="265.9"/>
    </g>
    <g id="LINE-287" data-name="LINE">
      <line class="cls-2" x1="219.4" y1="265.9" x2="223.6" y2="252.5"/>
    </g>
    <g id="LINE-288" data-name="LINE">
      <line class="cls-2" x1="928.8" y1="203.8" x2="947" y2="203.8"/>
    </g>
    <g id="LINE-289" data-name="LINE">
      <line class="cls-2" x1="947" y1="203.8" x2="947" y2="198.6"/>
    </g>
    <g id="LINE-290" data-name="LINE">
      <line class="cls-2" x1="947" y1="198.6" x2="953.1" y2="198.6"/>
    </g>
    <g id="LINE-291" data-name="LINE">
      <line class="cls-2" x1="735.4" y1="405.2" x2="735.4" y2="378.5"/>
    </g>
    <g id="LINE-292" data-name="LINE">
      <line class="cls-2" x1="755.1" y1="243.4" x2="755.1" y2="243.9"/>
    </g>
    <g id="LINE-293" data-name="LINE">
      <line class="cls-2" x1="926" y1="226.4" x2="928.8" y2="226.4"/>
    </g>
    <g id="LINE-294" data-name="LINE">
      <line class="cls-2" x1="294.9" y1="414.9" x2="274.9" y2="406.4"/>
    </g>
    <g id="LINE-295" data-name="LINE">
      <line class="cls-2" x1="494.4" y1="258.6" x2="494.4" y2="253.7"/>
    </g>
    <g id="LINE-296" data-name="LINE">
      <line class="cls-2" x1="794.7" y1="245.2" x2="794.7" y2="258.9"/>
    </g>
    <g id="LINE-297" data-name="LINE">
      <line class="cls-2" x1="750.3" y1="113.2" x2="796.1" y2="130.5"/>
    </g>
    <g id="LINE-298" data-name="LINE">
      <line class="cls-2" x1="669.7" y1="275.7" x2="678.7" y2="272.3"/>
    </g>
    <g id="LINE-299" data-name="LINE">
      <line class="cls-2" x1="43.2" y1="225.1" x2="63.4" y2="225.1"/>
    </g>
    <g id="LINE-300" data-name="LINE">
      <line class="cls-2" x1="63.4" y1="232.5" x2="78.3" y2="232.5"/>
    </g>
    <g id="LINE-301" data-name="LINE">
      <line class="cls-2" x1="751.3" y1="344.7" x2="751.3" y2="339.8"/>
    </g>
    <g id="LINE-302" data-name="LINE">
      <line class="cls-2" x1="47" y1="167.1" x2="43.2" y2="167.1"/>
    </g>
    <g id="LINE-303" data-name="LINE">
      <line class="cls-2" x1="430.1" y1="124.5" x2="107" y2="124.5"/>
    </g>
    <g id="LINE-304" data-name="LINE">
      <line class="cls-2" x1="903" y1="135.3" x2="909.6" y2="116.2"/>
    </g>
    <g id="LINE-305" data-name="LINE">
      <line class="cls-2" x1="764.8" y1="380.4" x2="764.8" y2="371.4"/>
    </g>
    <g id="LINE-306" data-name="LINE">
      <line class="cls-2" x1="883.7" y1="190.8" x2="901.9" y2="138.4"/>
    </g>
    <g id="LINE-307" data-name="LINE">
      <line class="cls-2" x1="730" y1="30.3" x2="947.5" y2="112.6"/>
    </g>
    <g id="LINE-308" data-name="LINE">
      <line class="cls-2" x1="720.9" y1="62.1" x2="757" y2="75.6"/>
    </g>
    <g id="LINE-309" data-name="LINE">
      <line class="cls-2" x1="757" y1="75.6" x2="764.9" y2="88.4"/>
    </g>
    <g id="LINE-310" data-name="LINE">
      <line class="cls-2" x1="320.9" y1="159.5" x2="794.7" y2="338.7"/>
    </g>
    <g id="LINE-311" data-name="LINE">
      <line class="cls-2" x1="997.5" y1="132.4" x2="997.5" y2="189.7"/>
    </g>
    <g id="LINE-312" data-name="LINE">
      <line class="cls-2" x1="926" y1="193.7" x2="926" y2="217.9"/>
    </g>
    <g id="LINE-313" data-name="LINE">
      <line class="cls-2" x1="700.9" y1="263.9" x2="839.1" y2="211.6"/>
    </g>
    <g id="LINE-314" data-name="LINE">
      <line class="cls-2" x1="494.3" y1="253.6" x2="749" y2="350"/>
    </g>
    <g id="LINE-315" data-name="LINE">
      <line class="cls-2" x1="839.1" y1="258.7" x2="839.1" y2="254.6"/>
    </g>
  </g>
  <g id="EC-001">
    <g id="LINE-316" data-name="LINE">
      <line class="cls-1" x1="794.7" y1="228.4" x2="839.1" y2="211.6"/>
    </g>
    <g id="LINE-317" data-name="LINE">
      <line class="cls-1" x1="839.1" y1="258.7" x2="926" y2="291.6"/>
    </g>
    <g id="LINE-318" data-name="LINE">
      <line class="cls-1" x1="926" y1="291.6" x2="862" y2="315.8"/>
    </g>
    <g id="LINE-319" data-name="LINE">
      <line class="cls-1" x1="862" y1="315.8" x2="862" y2="318.6"/>
    </g>
    <g id="LINE-320" data-name="LINE">
      <line class="cls-1" x1="862" y1="318.6" x2="912.2" y2="299.6"/>
    </g>
    <g id="LINE-321" data-name="LINE">
      <line class="cls-1" x1="912.2" y1="322" x2="862" y2="341"/>
    </g>
    <g id="LINE-322" data-name="LINE">
      <line class="cls-1" x1="862" y1="408.2" x2="794.7" y2="382.8"/>
    </g>
  </g>
  <g id="CLA-110">
    <g id="LINE-323" data-name="LINE">
      <line class="cls-1" x1="490.2" y1="223.5" x2="794.7" y2="338.7"/>
    </g>
    <g id="LINE-324" data-name="LINE">
      <line class="cls-1" x1="794.7" y1="382.8" x2="476.3" y2="262.3"/>
    </g>
    <g id="LINE-325" data-name="LINE">
      <line class="cls-1" x1="476.3" y1="262.3" x2="490.2" y2="223.5"/>
    </g>
  </g>
</svg>