<?xml version="1.0" encoding="UTF-8"?>
<svg xmlns="http://www.w3.org/2000/svg" viewBox="0 0 594.1 419.2">
  <defs>
    <style>
      .cls-1 {
        stroke-width: 0px;
      }

      .cls-1, .cls-2 {
        fill: none;
      }

      .cls-2 {
        stroke: #606060;
        stroke-linecap: round;
        stroke-linejoin: round;
        stroke-width: .7px;
      }
    </style>
  </defs>
  <g id="EM-201">
    <line class="cls-1" x1="198.5" y1="365.3" x2="155.7" y2="379.9"/>
    <line class="cls-1" x1="155.7" y1="379.9" x2="132.6" y2="370.8"/>
    <line class="cls-1" x1="132.6" y1="327.1" x2="198.5" y2="303.9"/>
  </g>
  <g id="EM-203">
    <line class="cls-1" x1="67" y1="117" x2="132.6" y2="140.1"/>
    <line class="cls-1" x1="132.6" y1="95" x2="327.1" y2="163.5"/>
    <line class="cls-1" x1="327.1" y1="163.5" x2="67" y2="257.1"/>
    <line class="cls-1" x1="67" y1="257.1" x2="67" y2="117"/>
  </g>
  <g id="EM-214-A">
    <line class="cls-1" x1="127.6" y1="90.6" x2="93.6" y2="102.9"/>
  </g>
  <g id="EM-214-C">
    <line class="cls-1" x1="88.5" y1="34.7" x2="79.3" y2="30.9"/>
    <line class="cls-1" x1="61.8" y1="30.9" x2="51.2" y2="35.4"/>
  </g>
  <g id="EM-214-B">
    <line class="cls-1" x1="88.5" y1="105.9" x2="86.8" y2="105.2"/>
    <line class="cls-1" x1="86.8" y1="105.2" x2="79.3" y2="107.7"/>
    <line class="cls-1" x1="79.3" y1="107.7" x2="62.2" y2="108.4"/>
    <line class="cls-1" x1="62.2" y1="108.4" x2="50.9" y2="104.5"/>
    <line class="cls-1" x1="50.9" y1="104.5" x2="51.2" y2="64.4"/>
    <line class="cls-1" x1="51.2" y1="64.4" x2="88.5" y2="65"/>
  </g>
  <g id="EM-216">
    <line class="cls-1" x1="332.6" y1="192.8" x2="313.3" y2="200.1"/>
    <line class="cls-1" x1="313.3" y1="200.1" x2="286.9" y2="190.2"/>
    <line class="cls-1" x1="286.9" y1="190.2" x2="286.9" y2="177.9"/>
    <line class="cls-1" x1="286.9" y1="177.9" x2="308.3" y2="170.2"/>
    <line class="cls-1" x1="308.3" y1="170.2" x2="332.6" y2="179.3"/>
  </g>
  <g id="EM-217-C">
    <line class="cls-1" x1="337.1" y1="177.8" x2="338.9" y2="177.2"/>
    <line class="cls-1" x1="338.9" y1="163.3" x2="352" y2="158.5"/>
    <line class="cls-1" x1="352" y1="158.5" x2="370.3" y2="159"/>
    <line class="cls-1" x1="370.3" y1="159" x2="377" y2="161.5"/>
    <line class="cls-1" x1="377" y1="205.8" x2="366" y2="211.8"/>
    <line class="cls-1" x1="366" y1="211.8" x2="350.8" y2="211"/>
    <line class="cls-1" x1="350.8" y1="211" x2="337.1" y2="206.3"/>
  </g>
  <g id="EM-217-B">
    <line class="cls-1" x1="378.8" y1="151.6" x2="379.1" y2="220.9"/>
    <line class="cls-1" x1="379.1" y1="220.9" x2="395.3" y2="226.5"/>
    <line class="cls-1" x1="395.3" y1="226.5" x2="416.5" y2="218.6"/>
    <line class="cls-1" x1="416.5" y1="153.6" x2="411.1" y2="151.6"/>
  </g>
  <g id="EM-217-A">
    <line class="cls-1" x1="418.4" y1="166.8" x2="456" y2="166.8"/>
    <line class="cls-1" x1="456" y1="203.8" x2="441.1" y2="209.4"/>
  </g>
  <g id="EM_plan" data-name="EM plan">
    <g id="LINE">
      <line class="cls-2" x1="416.5" y1="218.6" x2="416.5" y2="209.4"/>
    </g>
    <g id="LINE-2" data-name="LINE">
      <line class="cls-2" x1="416.5" y1="218.6" x2="395.3" y2="226.5"/>
    </g>
    <g id="LINE-3" data-name="LINE">
      <line class="cls-2" x1="418.4" y1="181" x2="418.4" y2="166.8"/>
    </g>
    <g id="LINE-4" data-name="LINE">
      <line class="cls-2" x1="418.4" y1="209.4" x2="441.1" y2="209.4"/>
    </g>
    <g id="LINE-5" data-name="LINE">
      <line class="cls-2" x1="379.1" y1="220.9" x2="379" y2="204.7"/>
    </g>
    <g id="LINE-6" data-name="LINE">
      <line class="cls-2" x1="350.8" y1="211" x2="366" y2="211.8"/>
    </g>
    <g id="LINE-7" data-name="LINE">
      <line class="cls-2" x1="366" y1="211.8" x2="379" y2="204.7"/>
    </g>
    <g id="LINE-8" data-name="LINE">
      <line class="cls-2" x1="350.8" y1="211" x2="337.1" y2="206.3"/>
    </g>
    <g id="LINE-9" data-name="LINE">
      <line class="cls-2" x1="395.3" y1="226.5" x2="379.1" y2="220.9"/>
    </g>
    <g id="LINE-10" data-name="LINE">
      <line class="cls-2" x1="337.1" y1="206.3" x2="337.1" y2="191.1"/>
    </g>
    <g id="LINE-11" data-name="LINE">
      <line class="cls-2" x1="337.1" y1="191.1" x2="313.3" y2="200.1"/>
    </g>
    <g id="LINE-12" data-name="LINE">
      <line class="cls-2" x1="308.3" y1="170.2" x2="332.6" y2="179.3"/>
    </g>
    <g id="LINE-13" data-name="LINE">
      <line class="cls-2" x1="327.1" y1="163.5" x2="327.1" y2="163.5"/>
    </g>
    <g id="LINE-14" data-name="LINE">
      <line class="cls-2" x1="286.9" y1="190.2" x2="286.9" y2="177.9"/>
    </g>
    <g id="LINE-15" data-name="LINE">
      <line class="cls-2" x1="176.9" y1="217.5" x2="176.9" y2="311.5"/>
    </g>
    <g id="LINE-16" data-name="LINE">
      <line class="cls-2" x1="198.5" y1="209.8" x2="198.5" y2="332.8"/>
    </g>
    <g id="LINE-17" data-name="LINE">
      <line class="cls-2" x1="132.6" y1="238" x2="132.6" y2="370.8"/>
    </g>
    <g id="LINE-18" data-name="LINE">
      <line class="cls-2" x1="89.8" y1="65.5" x2="89.8" y2="49.5"/>
    </g>
    <g id="LINE-19" data-name="LINE">
      <line class="cls-2" x1="394" y1="396.2" x2="394" y2="410.6"/>
    </g>
    <g id="LINE-20" data-name="LINE">
      <line class="cls-2" x1="38.8" y1="36.7" x2="49.8" y2="36.7"/>
    </g>
    <g id="LINE-21" data-name="LINE">
      <line class="cls-2" x1="49.8" y1="36.7" x2="49.8" y2="88.2"/>
    </g>
    <g id="LINE-22" data-name="LINE">
      <line class="cls-2" x1="49.8" y1="88.2" x2="51.2" y2="88.2"/>
    </g>
    <g id="LINE-23" data-name="LINE">
      <line class="cls-2" x1="51.2" y1="88.2" x2="51.2" y2="35.4"/>
    </g>
    <g id="LINE-24" data-name="LINE">
      <line class="cls-2" x1="51.2" y1="35.4" x2="61.8" y2="30.9"/>
    </g>
    <g id="LINE-25" data-name="LINE">
      <line class="cls-2" x1="88.5" y1="74.8" x2="88.5" y2="105.9"/>
    </g>
    <g id="LINE-26" data-name="LINE">
      <line class="cls-2" x1="73.9" y1="286.8" x2="73.9" y2="303.7"/>
    </g>
    <g id="LINE-27" data-name="LINE">
      <line class="cls-2" x1="501.5" y1="191.1" x2="483.8" y2="198.7"/>
    </g>
    <g id="LINE-28" data-name="LINE">
      <line class="cls-2" x1="463.6" y1="191.1" x2="456" y2="193.7"/>
    </g>
    <g id="LINE-29" data-name="LINE">
      <line class="cls-2" x1="3.4" y1="19.2" x2="3.4" y2="29.2"/>
    </g>
    <g id="LINE-30" data-name="LINE">
      <line class="cls-2" x1="3.4" y1="29.2" x2="22.4" y2="35.7"/>
    </g>
    <g id="LINE-31" data-name="LINE">
      <line class="cls-2" x1="22.4" y1="35.7" x2="26.9" y2="30.9"/>
    </g>
    <g id="LINE-32" data-name="LINE">
      <line class="cls-2" x1="416.5" y1="181" x2="418.4" y2="181"/>
    </g>
    <g id="LINE-33" data-name="LINE">
      <line class="cls-2" x1="114.4" y1="288.9" x2="111.1" y2="288.9"/>
    </g>
    <g id="LINE-34" data-name="LINE">
      <line class="cls-2" x1="132.6" y1="95" x2="327.1" y2="163.5"/>
    </g>
    <g id="LINE-35" data-name="LINE">
      <line class="cls-2" x1="104.3" y1="100.5" x2="112.1" y2="97.7"/>
    </g>
    <g id="LINE-36" data-name="LINE">
      <line class="cls-2" x1="89.5" y1="249.2" x2="89.5" y2="275.5"/>
    </g>
    <g id="LINE-37" data-name="LINE">
      <line class="cls-2" x1="132.6" y1="95" x2="132.6" y2="109.8"/>
    </g>
    <g id="LINE-38" data-name="LINE">
      <line class="cls-2" x1="456" y1="178.5" x2="463.6" y2="181"/>
    </g>
    <g id="LINE-39" data-name="LINE">
      <line class="cls-2" x1="129.5" y1="265.2" x2="129.5" y2="280.9"/>
    </g>
    <g id="LINE-40" data-name="LINE">
      <line class="cls-2" x1="418.4" y1="166.8" x2="456" y2="166.8"/>
    </g>
    <g id="LINE-41" data-name="LINE">
      <line class="cls-2" x1="110.8" y1="259.7" x2="110.8" y2="241.7"/>
    </g>
    <g id="LINE-42" data-name="LINE">
      <line class="cls-2" x1="88.5" y1="74.8" x2="89.8" y2="74.8"/>
    </g>
    <g id="LINE-43" data-name="LINE">
      <line class="cls-2" x1="378.8" y1="165" x2="378.8" y2="151.6"/>
    </g>
    <g id="LINE-44" data-name="LINE">
      <line class="cls-2" x1="88.5" y1="65.5" x2="89.8" y2="65.5"/>
    </g>
    <g id="LINE-45" data-name="LINE">
      <line class="cls-2" x1="104.3" y1="99.1" x2="104.3" y2="100.5"/>
    </g>
    <g id="LINE-46" data-name="LINE">
      <line class="cls-2" x1="114.2" y1="133.6" x2="132.6" y2="140.1"/>
    </g>
    <g id="LINE-47" data-name="LINE">
      <line class="cls-2" x1="416.5" y1="209.4" x2="416.5" y2="195"/>
    </g>
    <g id="LINE-48" data-name="LINE">
      <line class="cls-2" x1="416.5" y1="195" x2="418.4" y2="195"/>
    </g>
    <g id="LINE-49" data-name="LINE">
      <line class="cls-2" x1="198.5" y1="329" x2="198.5" y2="329"/>
    </g>
    <g id="LINE-50" data-name="LINE">
      <line class="cls-2" x1="233" y1="340.3" x2="198.5" y2="352.5"/>
    </g>
    <g id="LINE-51" data-name="LINE">
      <line class="cls-2" x1="1.6" y1="49.8" x2="21.3" y2="42.9"/>
    </g>
    <g id="LINE-52" data-name="LINE">
      <line class="cls-2" x1="129.5" y1="283.1" x2="129.5" y2="313.9"/>
    </g>
    <g id="LINE-53" data-name="LINE">
      <line class="cls-2" x1="73.9" y1="260.6" x2="73.9" y2="282.2"/>
    </g>
    <g id="LINE-54" data-name="LINE">
      <line class="cls-2" x1="36.2" y1="282.2" x2="73.9" y2="282.2"/>
    </g>
    <g id="LINE-55" data-name="LINE">
      <line class="cls-2" x1="114.3" y1="283.1" x2="114.4" y2="288.9"/>
    </g>
    <g id="LINE-56" data-name="LINE">
      <line class="cls-2" x1=".4" y1=".4" x2="132.6" y2="46.8"/>
    </g>
    <g id="LINE-57" data-name="LINE">
      <line class="cls-2" x1="238.2" y1="351.7" x2="233" y2="340.3"/>
    </g>
    <g id="LINE-58" data-name="LINE">
      <line class="cls-2" x1="22.4" y1="96.3" x2="32.7" y2="99.9"/>
    </g>
    <g id="LINE-59" data-name="LINE">
      <line class="cls-2" x1="285.1" y1="317.6" x2="305" y2="325.4"/>
    </g>
    <g id="LINE-60" data-name="LINE">
      <line class="cls-2" x1="37.9" y1="280.5" x2="72.2" y2="280.5"/>
    </g>
    <g id="LINE-61" data-name="LINE">
      <line class="cls-2" x1="89.5" y1="286.8" x2="89.5" y2="309.1"/>
    </g>
    <g id="LINE-62" data-name="LINE">
      <line class="cls-2" x1="456" y1="193.7" x2="456" y2="203.8"/>
    </g>
    <g id="LINE-63" data-name="LINE">
      <line class="cls-2" x1="114.7" y1="304.7" x2="114.9" y2="313.9"/>
    </g>
    <g id="LINE-64" data-name="LINE">
      <line class="cls-2" x1="112.1" y1="97.7" x2="112.1" y2="100.1"/>
    </g>
    <g id="LINE-65" data-name="LINE">
      <line class="cls-2" x1="112.1" y1="100.1" x2="132.6" y2="109.8"/>
    </g>
    <g id="LINE-66" data-name="LINE">
      <line class="cls-2" x1="176.5" y1="412.6" x2="329.5" y2="358.8"/>
    </g>
    <g id="LINE-67" data-name="LINE">
      <line class="cls-2" x1="416.5" y1="181" x2="416.5" y2="153.6"/>
    </g>
    <g id="LINE-68" data-name="LINE">
      <line class="cls-2" x1="378.8" y1="151.6" x2="411.1" y2="151.6"/>
    </g>
    <g id="LINE-69" data-name="LINE">
      <line class="cls-2" x1="305" y1="325.4" x2="332.2" y2="314.2"/>
    </g>
    <g id="LINE-70" data-name="LINE">
      <line class="cls-2" x1="332.2" y1="314.2" x2="332.1" y2="301.1"/>
    </g>
    <g id="LINE-71" data-name="LINE">
      <line class="cls-2" x1="329.5" y1="358.8" x2="329.5" y2="418.9"/>
    </g>
    <g id="LINE-72" data-name="LINE">
      <line class="cls-2" x1=".4" y1="280.5" x2="131.5" y2="327.4"/>
    </g>
    <g id="LINE-73" data-name="LINE">
      <line class="cls-2" x1="131.5" y1="327.4" x2="131.5" y2="371.6"/>
    </g>
    <g id="LINE-74" data-name="LINE">
      <line class="cls-2" x1="1.6" y1="49.8" x2="1.6" y2="64.5"/>
    </g>
    <g id="LINE-75" data-name="LINE">
      <line class="cls-2" x1="198.5" y1="347.5" x2="198.5" y2="347.6"/>
    </g>
    <g id="LINE-76" data-name="LINE">
      <line class="cls-2" x1="133.6" y1="417.8" x2="176.2" y2="402.8"/>
    </g>
    <g id="LINE-77" data-name="LINE">
      <line class="cls-2" x1="392.7" y1="234.1" x2="528.9" y2="186.2"/>
    </g>
    <g id="LINE-78" data-name="LINE">
      <line class="cls-2" x1="37.9" y1="272.3" x2="37.9" y2="280.5"/>
    </g>
    <g id="LINE-79" data-name="LINE">
      <line class="cls-2" x1="456" y1="203.8" x2="441.1" y2="209.4"/>
    </g>
    <g id="LINE-80" data-name="LINE">
      <line class="cls-2" x1=".4" y1="417.8" x2="133.6" y2="417.8"/>
    </g>
    <g id="LINE-81" data-name="LINE">
      <line class="cls-2" x1="89.3" y1="124.9" x2="89.3" y2="106.3"/>
    </g>
    <g id="LINE-82" data-name="LINE">
      <line class="cls-2" x1="89.3" y1="106.3" x2="91.4" y2="105.1"/>
    </g>
    <g id="LINE-83" data-name="LINE">
      <line class="cls-2" x1="91.4" y1="105.1" x2="93.6" y2="105.1"/>
    </g>
    <g id="LINE-84" data-name="LINE">
      <line class="cls-2" x1="93.6" y1="105.1" x2="93.6" y2="102.9"/>
    </g>
    <g id="LINE-85" data-name="LINE">
      <line class="cls-2" x1="93.6" y1="102.9" x2="89.8" y2="102.9"/>
    </g>
    <g id="LINE-86" data-name="LINE">
      <line class="cls-2" x1="89.8" y1="102.9" x2="89.8" y2="74.8"/>
    </g>
    <g id="LINE-87" data-name="LINE">
      <line class="cls-2" x1="72.2" y1="286.8" x2="72.2" y2="303.1"/>
    </g>
    <g id="LINE-88" data-name="LINE">
      <line class="cls-2" x1="77.9" y1="286.8" x2="77.9" y2="293.5"/>
    </g>
    <g id="LINE-89" data-name="LINE">
      <line class="cls-2" x1="87.7" y1="293.5" x2="77.9" y2="293.5"/>
    </g>
    <g id="LINE-90" data-name="LINE">
      <line class="cls-2" x1="132.6" y1="46.8" x2="132.6" y2="93.1"/>
    </g>
    <g id="LINE-91" data-name="LINE">
      <line class="cls-2" x1="173.3" y1="223.6" x2="173.3" y2="309.1"/>
    </g>
    <g id="LINE-92" data-name="LINE">
      <line class="cls-2" x1="198.5" y1="348.1" x2="198.5" y2="352.5"/>
    </g>
    <g id="LINE-93" data-name="LINE">
      <line class="cls-2" x1="110.8" y1="275.5" x2="111.1" y2="288.9"/>
    </g>
    <g id="LINE-94" data-name="LINE">
      <line class="cls-2" x1="132.6" y1="327.1" x2="176.9" y2="311.5"/>
    </g>
    <g id="LINE-95" data-name="LINE">
      <line class="cls-2" x1="370.9" y1="418.7" x2="394" y2="410.6"/>
    </g>
    <g id="LINE-96" data-name="LINE">
      <line class="cls-2" x1="201.8" y1="213.6" x2="201.8" y2="327.8"/>
    </g>
    <g id="LINE-97" data-name="LINE">
      <line class="cls-2" x1=".4" y1="327.3" x2=".4" y2="372.1"/>
    </g>
    <g id="LINE-98" data-name="LINE">
      <line class="cls-2" x1="198.5" y1="332.8" x2="265" y2="309.4"/>
    </g>
    <g id="LINE-99" data-name="LINE">
      <line class="cls-2" x1="201.8" y1="213.6" x2="272.1" y2="188.9"/>
    </g>
    <g id="LINE-100" data-name="LINE">
      <line class="cls-2" x1="352" y1="158.5" x2="370.3" y2="159"/>
    </g>
    <g id="LINE-101" data-name="LINE">
      <line class="cls-2" x1="452" y1="195" x2="452" y2="195"/>
    </g>
    <g id="LINE-102" data-name="LINE">
      <line class="cls-2" x1="418.4" y1="209.4" x2="418.4" y2="195"/>
    </g>
    <g id="LINE-103" data-name="LINE">
      <line class="cls-2" x1="77.9" y1="273" x2="77.9" y2="275.5"/>
    </g>
    <g id="LINE-104" data-name="LINE">
      <line class="cls-2" x1="21.3" y1="42.9" x2="21.3" y2="52"/>
    </g>
    <g id="LINE-105" data-name="LINE">
      <line class="cls-2" x1="21.3" y1="52" x2="22.4" y2="52"/>
    </g>
    <g id="LINE-106" data-name="LINE">
      <line class="cls-2" x1="22.4" y1="52" x2="22.4" y2="42.5"/>
    </g>
    <g id="LINE-107" data-name="LINE">
      <line class="cls-2" x1="22.4" y1="64.5" x2="17.7" y2="64.5"/>
    </g>
    <g id="LINE-108" data-name="LINE">
      <line class="cls-2" x1="17.7" y1="64.5" x2="17.7" y2="65.9"/>
    </g>
    <g id="LINE-109" data-name="LINE">
      <line class="cls-2" x1="17.7" y1="65.9" x2="21" y2="65.9"/>
    </g>
    <g id="LINE-110" data-name="LINE">
      <line class="cls-2" x1="155.7" y1="379.9" x2="238.2" y2="351.7"/>
    </g>
    <g id="LINE-111" data-name="LINE">
      <line class="cls-2" x1=".4" y1="417.8" x2="131.5" y2="371.6"/>
    </g>
    <g id="LINE-112" data-name="LINE">
      <line class="cls-2" x1="88.5" y1="63" x2="58.3" y2="63"/>
    </g>
    <g id="LINE-113" data-name="LINE">
      <line class="cls-2" x1="58.3" y1="63" x2="58.3" y2="64.5"/>
    </g>
    <g id="LINE-114" data-name="LINE">
      <line class="cls-2" x1="58.3" y1="64.5" x2="88.5" y2="64.5"/>
    </g>
    <g id="LINE-115" data-name="LINE">
      <line class="cls-2" x1="88.5" y1="64.5" x2="88.5" y2="65.5"/>
    </g>
    <g id="LINE-116" data-name="LINE">
      <line class="cls-2" x1="506.6" y1="418.8" x2="484.2" y2="410.9"/>
    </g>
    <g id="LINE-117" data-name="LINE">
      <line class="cls-2" x1="67" y1="117" x2="67" y2="257.1"/>
    </g>
    <g id="LINE-118" data-name="LINE">
      <line class="cls-2" x1="22.4" y1="64.5" x2="22.4" y2="96.3"/>
    </g>
    <g id="LINE-119" data-name="LINE">
      <line class="cls-2" x1="456" y1="166.8" x2="456" y2="178.5"/>
    </g>
    <g id="LINE-120" data-name="LINE">
      <line class="cls-2" x1="377" y1="165" x2="377" y2="161.5"/>
    </g>
    <g id="LINE-121" data-name="LINE">
      <line class="cls-2" x1=".4" y1="93.6" x2="65.5" y2="116.5"/>
    </g>
    <g id="LINE-122" data-name="LINE">
      <line class="cls-2" x1="201.8" y1="327.8" x2="265" y2="305.6"/>
    </g>
    <g id="LINE-123" data-name="LINE">
      <line class="cls-2" x1="73.9" y1="286.8" x2="72.2" y2="286.8"/>
    </g>
    <g id="LINE-124" data-name="LINE">
      <line class="cls-2" x1="89.5" y1="309.1" x2="111.7" y2="317"/>
    </g>
    <g id="LINE-125" data-name="LINE">
      <line class="cls-2" x1="132.6" y1="127.5" x2="114.2" y2="133.6"/>
    </g>
    <g id="LINE-126" data-name="LINE">
      <line class="cls-2" x1="127.6" y1="90.6" x2="127.6" y2="49.5"/>
    </g>
    <g id="LINE-127" data-name="LINE">
      <line class="cls-2" x1="104.3" y1="99.1" x2="127.6" y2="90.6"/>
    </g>
    <g id="LINE-128" data-name="LINE">
      <line class="cls-2" x1="127.6" y1="49.5" x2="89.8" y2="49.5"/>
    </g>
    <g id="LINE-129" data-name="LINE">
      <line class="cls-2" x1="88.5" y1="105.9" x2="86.8" y2="105.2"/>
    </g>
    <g id="LINE-130" data-name="LINE">
      <line class="cls-2" x1="86.8" y1="105.2" x2="79.3" y2="107.7"/>
    </g>
    <g id="LINE-131" data-name="LINE">
      <line class="cls-2" x1="79.3" y1="107.7" x2="62.2" y2="108.4"/>
    </g>
    <g id="LINE-132" data-name="LINE">
      <line class="cls-2" x1="87.7" y1="264.6" x2="87.7" y2="273"/>
    </g>
    <g id="LINE-133" data-name="LINE">
      <line class="cls-2" x1="114.7" y1="304.7" x2="111.4" y2="304.7"/>
    </g>
    <g id="LINE-134" data-name="LINE">
      <line class="cls-2" x1="36.2" y1="272.9" x2="36.2" y2="282.2"/>
    </g>
    <g id="LINE-135" data-name="LINE">
      <line class="cls-2" x1="483.8" y1="173.4" x2="501.5" y2="181"/>
    </g>
    <g id="LINE-136" data-name="LINE">
      <line class="cls-2" x1="463.6" y1="181" x2="483.8" y2="173.4"/>
    </g>
    <g id="LINE-137" data-name="LINE">
      <line class="cls-2" x1="132.6" y1="93.1" x2="329.8" y2="162.5"/>
    </g>
    <g id="LINE-138" data-name="LINE">
      <line class="cls-2" x1="483.8" y1="198.7" x2="463.6" y2="191.1"/>
    </g>
    <g id="LINE-139" data-name="LINE">
      <line class="cls-2" x1="73.9" y1="254.7" x2="73.9" y2="254.7"/>
    </g>
    <g id="LINE-140" data-name="LINE">
      <line class="cls-2" x1="73.9" y1="260.6" x2="87.7" y2="264.6"/>
    </g>
    <g id="LINE-141" data-name="LINE">
      <line class="cls-2" x1="377" y1="199.2" x2="378.8" y2="199.2"/>
    </g>
    <g id="LINE-142" data-name="LINE">
      <line class="cls-2" x1="378.8" y1="199.2" x2="378.8" y2="176.6"/>
    </g>
    <g id="LINE-143" data-name="LINE">
      <line class="cls-2" x1="378.8" y1="176.6" x2="377" y2="176.6"/>
    </g>
    <g id="LINE-144" data-name="LINE">
      <line class="cls-2" x1="377" y1="176.6" x2="377" y2="199.2"/>
    </g>
    <g id="LINE-145" data-name="LINE">
      <line class="cls-2" x1="1.6" y1="233" x2="1.6" y2="233"/>
    </g>
    <g id="LINE-146" data-name="LINE">
      <line class="cls-2" x1="88.5" y1="63" x2="88.5" y2="34.7"/>
    </g>
    <g id="LINE-147" data-name="LINE">
      <line class="cls-2" x1=".4" y1=".4" x2=".4" y2="93.6"/>
    </g>
    <g id="LINE-148" data-name="LINE">
      <line class="cls-2" x1="21" y1="65.9" x2="21" y2="97.6"/>
    </g>
    <g id="LINE-149" data-name="LINE">
      <line class="cls-2" x1="110.8" y1="259.7" x2="129.5" y2="265.2"/>
    </g>
    <g id="LINE-150" data-name="LINE">
      <line class="cls-2" x1="1.6" y1="65.9" x2="1.6" y2="78.2"/>
    </g>
    <g id="LINE-151" data-name="LINE">
      <line class="cls-2" x1="1.6" y1="78.2" x2="4.6" y2="78.2"/>
    </g>
    <g id="LINE-152" data-name="LINE">
      <line class="cls-2" x1="4.6" y1="78.2" x2="4.6" y2="91.8"/>
    </g>
    <g id="LINE-153" data-name="LINE">
      <line class="cls-2" x1="4.6" y1="91.8" x2="21" y2="97.6"/>
    </g>
    <g id="LINE-154" data-name="LINE">
      <line class="cls-2" x1="132.6" y1="323.4" x2="173.3" y2="309.1"/>
    </g>
    <g id="LINE-155" data-name="LINE">
      <line class="cls-2" x1="132.6" y1="238" x2="173.3" y2="223.6"/>
    </g>
    <g id="LINE-156" data-name="LINE">
      <line class="cls-2" x1="418.4" y1="154.3" x2="418.5" y2="154.3"/>
    </g>
    <g id="LINE-157" data-name="LINE">
      <line class="cls-2" x1="286.9" y1="190.2" x2="313.3" y2="200.1"/>
    </g>
    <g id="LINE-158" data-name="LINE">
      <line class="cls-2" x1="501.5" y1="181" x2="501.5" y2="191.1"/>
    </g>
    <g id="LINE-159" data-name="LINE">
      <line class="cls-2" x1="87.7" y1="273" x2="77.9" y2="273"/>
    </g>
    <g id="LINE-160" data-name="LINE">
      <line class="cls-2" x1="338.9" y1="163.1" x2="352" y2="158.5"/>
    </g>
    <g id="LINE-161" data-name="LINE">
      <line class="cls-2" x1="329.8" y1="162.5" x2="395.6" y2="139.4"/>
    </g>
    <g id="LINE-162" data-name="LINE">
      <line class="cls-2" x1="129.5" y1="313.9" x2="114.9" y2="313.9"/>
    </g>
    <g id="LINE-163" data-name="LINE">
      <line class="cls-2" x1="77.9" y1="275.5" x2="89.5" y2="275.5"/>
    </g>
    <g id="LINE-164" data-name="LINE">
      <line class="cls-2" x1="32.7" y1="99.9" x2="41.9" y2="99.9"/>
    </g>
    <g id="LINE-165" data-name="LINE">
      <line class="cls-2" x1="41.9" y1="99.9" x2="51" y2="96.3"/>
    </g>
    <g id="LINE-166" data-name="LINE">
      <line class="cls-2" x1="51" y1="96.3" x2="51" y2="104.5"/>
    </g>
    <g id="LINE-167" data-name="LINE">
      <line class="cls-2" x1="51" y1="104.5" x2="62.2" y2="108.4"/>
    </g>
    <g id="LINE-168" data-name="LINE">
      <line class="cls-2" x1="370.3" y1="159" x2="377" y2="161.5"/>
    </g>
    <g id="LINE-169" data-name="LINE">
      <line class="cls-2" x1="377" y1="165" x2="378.8" y2="165"/>
    </g>
    <g id="LINE-170" data-name="LINE">
      <line class="cls-2" x1="73.9" y1="303.7" x2="87.7" y2="308.5"/>
    </g>
    <g id="LINE-171" data-name="LINE">
      <line class="cls-2" x1="329.5" y1="418.9" x2="394" y2="396.2"/>
    </g>
    <g id="LINE-172" data-name="LINE">
      <line class="cls-2" x1="26.9" y1="40.9" x2="26.9" y2="30.9"/>
    </g>
    <g id="LINE-173" data-name="LINE">
      <line class="cls-2" x1="484.2" y1="380.3" x2="484.2" y2="410.9"/>
    </g>
    <g id="LINE-174" data-name="LINE">
      <line class="cls-2" x1="22.6" y1="277.7" x2="22.6" y2="285.6"/>
    </g>
    <g id="LINE-175" data-name="LINE">
      <line class="cls-2" x1="338.9" y1="177.2" x2="338.9" y2="163.3"/>
    </g>
    <g id="LINE-176" data-name="LINE">
      <line class="cls-2" x1=".4" y1="327.3" x2="63.5" y2="349.9"/>
    </g>
    <g id="LINE-177" data-name="LINE">
      <line class="cls-2" x1="65.5" y1="116.5" x2="65.5" y2="257.6"/>
    </g>
    <g id="LINE-178" data-name="LINE">
      <line class="cls-2" x1="395.6" y1="139.4" x2="528.9" y2="186.2"/>
    </g>
    <g id="LINE-179" data-name="LINE">
      <line class="cls-2" x1="3.4" y1="19.2" x2="21.1" y2="11.6"/>
    </g>
    <g id="LINE-180" data-name="LINE">
      <line class="cls-2" x1="21.1" y1="11.6" x2="41.3" y2="19.2"/>
    </g>
    <g id="LINE-181" data-name="LINE">
      <line class="cls-2" x1="41.3" y1="19.2" x2="41.3" y2="29.3"/>
    </g>
    <g id="LINE-182" data-name="LINE">
      <line class="cls-2" x1="41.3" y1="29.3" x2="38.8" y2="29.3"/>
    </g>
    <g id="LINE-183" data-name="LINE">
      <line class="cls-2" x1="38.8" y1="29.3" x2="38.8" y2="36.7"/>
    </g>
    <g id="LINE-184" data-name="LINE">
      <line class="cls-2" x1="111.4" y1="304.7" x2="111.7" y2="317"/>
    </g>
    <g id="LINE-185" data-name="LINE">
      <line class="cls-2" x1="394" y1="417.8" x2="394" y2="418.7"/>
    </g>
    <g id="LINE-186" data-name="LINE">
      <line class="cls-2" x1="332.6" y1="179.3" x2="338.9" y2="177.2"/>
    </g>
    <g id="LINE-187" data-name="LINE">
      <line class="cls-2" x1="61.8" y1="30.9" x2="79.3" y2="30.9"/>
    </g>
    <g id="LINE-188" data-name="LINE">
      <line class="cls-2" x1="79.3" y1="30.9" x2="88.5" y2="34.7"/>
    </g>
    <g id="LINE-189" data-name="LINE">
      <line class="cls-2" x1="67" y1="117" x2="89.3" y2="124.9"/>
    </g>
    <g id="LINE-190" data-name="LINE">
      <line class="cls-2" x1="1.6" y1="65.9" x2="10.2" y2="65.9"/>
    </g>
    <g id="LINE-191" data-name="LINE">
      <line class="cls-2" x1="10.2" y1="65.9" x2="10.2" y2="64.5"/>
    </g>
    <g id="LINE-192" data-name="LINE">
      <line class="cls-2" x1="10.2" y1="64.5" x2="1.6" y2="64.5"/>
    </g>
    <g id="LINE-193" data-name="LINE">
      <line class="cls-2" x1="22.6" y1="285.6" x2="72.2" y2="303.1"/>
    </g>
    <g id="LINE-194" data-name="LINE">
      <line class="cls-2" x1="129.5" y1="283.1" x2="114.3" y2="283.1"/>
    </g>
    <g id="LINE-195" data-name="LINE">
      <line class="cls-2" x1="89.5" y1="286.8" x2="77.9" y2="286.8"/>
    </g>
    <g id="LINE-196" data-name="LINE">
      <line class="cls-2" x1="87.7" y1="293.5" x2="87.7" y2="308.5"/>
    </g>
    <g id="LINE-197" data-name="LINE">
      <line class="cls-2" x1=".4" y1="280.5" x2="65.5" y2="257.6"/>
    </g>
    <g id="LINE-198" data-name="LINE">
      <line class="cls-2" x1="22.6" y1="277.7" x2="36.2" y2="272.9"/>
    </g>
    <g id="LINE-199" data-name="LINE">
      <line class="cls-2" x1="176.2" y1="402.8" x2="176.2" y2="412.7"/>
    </g>
    <g id="LINE-200" data-name="LINE">
      <line class="cls-2" x1="132.6" y1="127.5" x2="132.6" y2="140.1"/>
    </g>
    <g id="LINE-201" data-name="LINE">
      <line class="cls-2" x1=".4" y1="372.1" x2="63.5" y2="349.9"/>
    </g>
    <g id="LINE-202" data-name="LINE">
      <line class="cls-2" x1="22.4" y1="42.5" x2="26.9" y2="40.9"/>
    </g>
    <g id="LINE-203" data-name="LINE">
      <line class="cls-2" x1="132.6" y1="370.8" x2="155.7" y2="379.9"/>
    </g>
    <g id="LINE-204" data-name="LINE">
      <line class="cls-2" x1="37.9" y1="272.3" x2="72.3" y2="260.1"/>
    </g>
    <g id="LINE-205" data-name="LINE">
      <line class="cls-2" x1="72.2" y1="260.1" x2="72.2" y2="280.5"/>
    </g>
    <g id="LINE-206" data-name="LINE">
      <line class="cls-2" x1="506.6" y1="418.8" x2="370.9" y2="418.7"/>
    </g>
    <g id="LINE-207" data-name="LINE">
      <line class="cls-2" x1="198.5" y1="348.1" x2="285.1" y2="317.6"/>
    </g>
    <g id="LINE-208" data-name="LINE">
      <line class="cls-2" x1="411.1" y1="151.6" x2="416.7" y2="153.6"/>
    </g>
    <g id="LINE-209" data-name="LINE">
      <line class="cls-2" x1="332.1" y1="301.1" x2="592.5" y2="209.5"/>
    </g>
    <g id="LINE-210" data-name="LINE">
      <line class="cls-2" x1="272.1" y1="188.9" x2="455.6" y2="257.7"/>
    </g>
    <g id="LINE-211" data-name="LINE">
      <line class="cls-2" x1="265" y1="305.6" x2="265" y2="324.7"/>
    </g>
    <g id="LINE-212" data-name="LINE">
      <line class="cls-2" x1="110.8" y1="275.4" x2="129.4" y2="280.9"/>
    </g>
    <g id="LINE-213" data-name="LINE">
      <line class="cls-2" x1="67" y1="257.1" x2="89.5" y2="249.2"/>
    </g>
    <g id="LINE-214" data-name="LINE">
      <line class="cls-2" x1="592.5" y1="209.5" x2="592.5" y2="418.8"/>
    </g>
    <g id="LINE-215" data-name="LINE">
      <line class="cls-2" x1="593.7" y1="418.8" x2="484.2" y2="380.3"/>
    </g>
    <g id="LINE-216" data-name="LINE">
      <line class="cls-2" x1="308.3" y1="170.2" x2="327.1" y2="163.5"/>
    </g>
    <g id="LINE-217" data-name="LINE">
      <line class="cls-2" x1="198.5" y1="209.8" x2="286.9" y2="177.9"/>
    </g>
    <g id="LINE-218" data-name="LINE">
      <line class="cls-2" x1="110.1" y1="241.6" x2="176.9" y2="217.5"/>
    </g>
    <g id="LINE-219" data-name="LINE">
      <line class="cls-2" x1="67" y1="257.1" x2="89.5" y2="249"/>
    </g>
  </g>
</svg>