<?xml version="1.0" encoding="utf-8"?>
<!-- Generator: Adobe Illustrator 28.0.0, SVG Export Plug-In . SVG Version: 6.00 Build 0)  -->
<svg version="1.1" xmlns="http://www.w3.org/2000/svg" xmlns:xlink="http://www.w3.org/1999/xlink" x="0px" y="0px"
	 viewBox="0 0 1261 437.5" style="enable-background:new 0 0 1261 437.5;" xml:space="preserve">
<style type="text/css">
	.st0{fill:#BCBCBC;}
	.st1{fill:#989898;}
	.st2{fill:none;stroke:#606060;stroke-width:0.7087;stroke-linecap:round;stroke-linejoin:round;stroke-miterlimit:10;}
	.st3{fill:none;}
</style>
<g id="Layer_3">
	<polygon class="st0" points="667.3,347.7 496.6,283.2 485.1,271.7 667.3,340.5 	"/>
	<polygon class="st1" points="1261,218.3 1261,437.5 1249.5,426 1249.5,207.2 	"/>
	<polygon class="st1" points="457.8,96.7 457.8,183.1 446.3,178.3 446.3,85.6 	"/>
	<polygon class="st0" points="1261,437.5 678.8,437.5 667.3,426 1249.5,426 	"/>
	<polygon class="st1" points="334.8,367.6 313.5,428 302,416.5 323.3,356.5 	"/>
	<polygon class="st1" points="289,418.8 276,429.3 264.5,417.8 277.4,407.2 	"/>
	<polygon class="st1" points="496.6,282.8 440.6,438.4 429.1,426.9 485.1,271.7 	"/>
	<polygon class="st0" points="276,429.4 218.6,401.9 211,391.5 264.5,417.8 	"/>
	<polygon class="st0" points="313.5,428 288.8,418.8 277.4,407.2 302,416.4 	"/>
	<polygon class="st0" points="357.4,375.8 334.8,367.6 323.3,356.5 359.6,369.7 	"/>
	<polygon class="st0" points="440.6,438.4 360.5,410.9 349,399.4 429.1,426.9 	"/>
	<polygon class="st0" points="117.2,234.6 9.9,234.6 2.2,224.2 109.6,224.2 	"/>
	<polygon class="st1" points="218.6,401.9 191,370.9 183.3,360.5 211,391.5 	"/>
	<polygon class="st1" points="206.6,264.3 117.2,234.6 109.6,224.2 208.9,255.8 	"/>
</g>
<g id="EC_plan">
	<g id="LINE">
		<line class="st2" x1="671.6" y1="85.7" x2="671.6" y2="259.8"/>
	</g>
	<g id="LINE_00000182517260307212738070000006813954595477432495_">
		<line class="st2" x1="671.6" y1="264.1" x2="671.6" y2="275.1"/>
	</g>
	<g id="LINE_00000015318750600649097360000013027331895527143820_">
		<line class="st2" x1="863.9" y1="396.7" x2="863.9" y2="329.5"/>
	</g>
	<g id="LINE_00000045581997340138618500000008284345696338754445_">
		<line class="st2" x1="796.6" y1="371.2" x2="712.3" y2="411.1"/>
	</g>
	<g id="LINE_00000101790024323950867780000004056777459399558551_">
		<line class="st2" x1="796.6" y1="371.2" x2="863.9" y2="396.7"/>
	</g>
	<g id="LINE_00000060016744233736184000000018275385435971635080_">
		<line class="st2" x1="863.9" y1="304.2" x2="927.8" y2="280"/>
	</g>
	<g id="LINE_00000121962444895820254030000012075951776369443007_">
		<line class="st2" x1="863.9" y1="307" x2="863.9" y2="304.2"/>
	</g>
	<g id="LINE_00000165206202393713676540000009304024079989988272_">
		<line class="st2" x1="927.8" y1="232.1" x2="927.8" y2="275.9"/>
	</g>
	<g id="LINE_00000065758113100004432160000018352883843410003329_">
		<line class="st2" x1="948" y1="260.5" x2="948" y2="239.8"/>
	</g>
	<g id="LINE_00000130606385035980697260000016338994076462785436_">
		<line class="st2" x1="757" y1="248.7" x2="757" y2="263.4"/>
	</g>
	<g id="LINE_00000080897590423378661990000002294455537786426812_">
		<line class="st2" x1="80.2" y1="213.5" x2="98.3" y2="213.5"/>
	</g>
	<g id="LINE_00000021086250282216477870000003830760513418479550_">
		<line class="st2" x1="98.3" y1="213.5" x2="98.3" y2="192.5"/>
	</g>
	<g id="LINE_00000047765173043290648580000009388934408526697116_">
		<line class="st2" x1="498.8" y1="236.9" x2="753.2" y2="333.2"/>
	</g>
	<g id="LINE_00000124141986596006817030000014880535907043853452_">
		<line class="st2" x1="357.6" y1="357.4" x2="318.3" y2="343.2"/>
	</g>
	<g id="LINE_00000137128700614756062710000005046723991889939641_">
		<line class="st2" x1="45.1" y1="174" x2="34.2" y2="174"/>
	</g>
	<g id="LINE_00000049920277279100223060000014688076935926865066_">
		<line class="st2" x1="34.2" y1="204" x2="34.2" y2="192.5"/>
	</g>
	<g id="LINE_00000173860666611809124700000010477176945651958458_">
		<line class="st2" x1="873" y1="206.4" x2="883" y2="206.4"/>
	</g>
	<g id="LINE_00000037672091766179881510000000948419496702857648_">
		<line class="st2" x1="850.7" y1="147" x2="862.3" y2="143.3"/>
	</g>
	<g id="LINE_00000151536224385451746850000006530687430382640256_">
		<line class="st2" x1="955" y1="179.4" x2="955" y2="187"/>
	</g>
	<g id="LINE_00000002379196623204897830000015591198995354344090_">
		<line class="st2" x1="840.9" y1="212.8" x2="862.3" y2="220.9"/>
	</g>
	<g id="LINE_00000157995773423847009790000015785284892798880388_">
		<line class="st2" x1="260.2" y1="405.2" x2="276.7" y2="394.8"/>
	</g>
	<g id="LINE_00000067212339108219111860000012021249987455811233_">
		<line class="st2" x1="108.8" y1="192.5" x2="108.8" y2="218.3"/>
	</g>
	<g id="LINE_00000091009244229953888750000011529170855774148265_">
		<line class="st2" x1="710.2" y1="347.5" x2="704" y2="347.5"/>
	</g>
	<g id="LINE_00000061468805238402958700000011833969418986576009_">
		<line class="st2" x1="108.8" y1="171.9" x2="98.7" y2="171.9"/>
	</g>
	<g id="LINE_00000132079118714194161760000015576583046718522787_">
		<line class="st2" x1="672" y1="-11.2" x2="661.2" y2="-11.2"/>
	</g>
	<g id="LINE_00000057826878926679389370000008785898564141672096_">
		<line class="st2" x1="661.2" y1="-11.2" x2="661.2" y2="260.1"/>
	</g>
	<g id="LINE_00000041278518617780013070000006739238612099339677_">
		<line class="st2" x1="719.1" y1="381.3" x2="704" y2="381.3"/>
	</g>
	<g id="LINE_00000041296975427252262400000014747266341768247197_">
		<line class="st2" x1="704" y1="411.1" x2="704" y2="381.3"/>
	</g>
	<g id="LINE_00000091695440368194805970000006047123786267959742_">
		<line class="st2" x1="127.3" y1="218.3" x2="196.9" y2="240.5"/>
	</g>
	<g id="LINE_00000072260930841012061650000008404800231762243732_">
		<line class="st2" x1="98.7" y1="171.9" x2="98.7" y2="155.7"/>
	</g>
	<g id="LINE_00000110432048637041804410000016331547819036651952_">
		<line class="st2" x1="210.2" y1="284" x2="183.3" y2="360.3"/>
	</g>
	<g id="LINE_00000170274323552847557160000002080181448438317246_">
		<line class="st2" x1="222.3" y1="283.5" x2="195.4" y2="359.7"/>
	</g>
	<g id="LINE_00000109750026365665489970000010190473101132637628_">
		<line class="st2" x1="429.1" y1="426.9" x2="485.4" y2="271.7"/>
	</g>
	<g id="LINE_00000024701707925095764780000008100611691747849117_">
		<line class="st2" x1="96.2" y1="155.7" x2="96.2" y2="116.6"/>
	</g>
	<g id="LINE_00000118395556292625577040000011747216564824118421_">
		<line class="st2" x1="96.2" y1="116.6" x2="85.7" y2="116.6"/>
	</g>
	<g id="LINE_00000073679941726193598010000018028951203868911277_">
		<line class="st2" x1="863.9" y1="307" x2="914.1" y2="288"/>
	</g>
	<g id="LINE_00000009557730180972899780000015596485055160247219_">
		<line class="st2" x1="710.2" y1="347.5" x2="766.6" y2="368.8"/>
	</g>
	<g id="LINE_00000127730231583855224650000007366631267485962635_">
		<line class="st2" x1="60.1" y1="117.3" x2="48.9" y2="117.3"/>
	</g>
	<g id="LINE_00000049900433471652079710000009751426319390214044_">
		<line class="st2" x1="108.8" y1="112.9" x2="108.8" y2="171.9"/>
	</g>
	<g id="LINE_00000128470096960688424880000007955563465863701145_">
		<line class="st2" x1="671.6" y1="85.7" x2="793.9" y2="131.9"/>
	</g>
	<g id="LINE_00000139285943552157115910000004124927041603751333_">
		<line class="st2" x1="690" y1="33.4" x2="690" y2="43.9"/>
	</g>
	<g id="LINE_00000098212307585975615010000005263857682014818195_">
		<line class="st2" x1="797.9" y1="119" x2="797.9" y2="127.1"/>
	</g>
	<g id="LINE_00000139975909122150079060000010951483849365470117_">
		<line class="st2" x1="696.4" y1="29.7" x2="696.3" y2="32.9"/>
	</g>
	<g id="LINE_00000170273692424413089140000005791508855973980046_">
		<line class="st2" x1="885.9" y1="203.9" x2="901.9" y2="203.9"/>
	</g>
	<g id="LINE_00000167357068444801662820000002640693876094964615_">
		<line class="st2" x1="952.1" y1="120.8" x2="952.1" y2="179.4"/>
	</g>
	<g id="LINE_00000023979302224865762730000002025732641082641808_">
		<line class="st2" x1="809" y1="72.4" x2="811.6" y2="73.3"/>
	</g>
	<g id="LINE_00000090268733522775669640000017758966050002388376_">
		<line class="st2" x1="734.2" y1="381.3" x2="727.7" y2="381.3"/>
	</g>
	<g id="LINE_00000006682506775413041210000018067660711534773165_">
		<line class="st2" x1="1100.9" y1="160.7" x2="1106.5" y2="160.7"/>
	</g>
	<g id="LINE_00000181810077608868429320000002884186614553747077_">
		<line class="st2" x1="930.7" y1="192.3" x2="930.7" y2="214.8"/>
	</g>
	<g id="LINE_00000129183178743862255580000006332801819485944989_">
		<line class="st2" x1="949.4" y1="144.1" x2="949.4" y2="174"/>
	</g>
	<g id="LINE_00000083808158685287346900000000793566833161728690_">
		<line class="st2" x1="927.8" y1="209.2" x2="927.8" y2="214.8"/>
	</g>
	<g id="LINE_00000172432844827698204330000011129445685066669479_">
		<line class="st2" x1="817.8" y1="51.3" x2="814.3" y2="63.7"/>
	</g>
	<g id="LINE_00000120543251834670650710000016149557297516433558_">
		<line class="st2" x1="671.6" y1="39.3" x2="690" y2="33.4"/>
	</g>
	<g id="LINE_00000078033951405870741940000013554686459660761231_">
		<line class="st2" x1="999.4" y1="212.1" x2="999.4" y2="247.3"/>
	</g>
	<g id="LINE_00000150808152867443412500000005529601570635697571_">
		<line class="st2" x1="761.5" y1="43.7" x2="764" y2="44.7"/>
	</g>
	<g id="LINE_00000112633360344070368980000010593544098562573239_">
		<line class="st2" x1="723" y1="39.8" x2="725.6" y2="40.8"/>
	</g>
	<g id="LINE_00000107567436350932659170000012384859362756117426_">
		<line class="st2" x1="671.6" y1="79.3" x2="690" y2="86.2"/>
	</g>
	<g id="LINE_00000052080679324109759910000015432738698215217289_">
		<line class="st2" x1="671.6" y1="39.3" x2="671.6" y2="79.3"/>
	</g>
	<g id="LINE_00000163783601918332845900000009920661444108933567_">
		<line class="st2" x1="674.8" y1="258.5" x2="680.6" y2="260.7"/>
	</g>
	<g id="LINE_00000100355636671614413560000007626953746057381773_">
		<line class="st2" x1="676.8" y1="2.7" x2="676.8" y2="22.3"/>
	</g>
	<g id="LINE_00000133496577987897001460000016439964311555320505_">
		<line class="st2" x1="692.9" y1="34.7" x2="692.9" y2="43.9"/>
	</g>
	<g id="LINE_00000134210077194937982780000003293378270898399376_">
		<line class="st2" x1="722" y1="53.2" x2="757" y2="66.3"/>
	</g>
	<g id="LINE_00000078026277971537515780000005031366912947717267_">
		<line class="st2" x1="757" y1="66.3" x2="773.3" y2="92.6"/>
	</g>
	<g id="LINE_00000030448394546541531710000003726141954957281203_">
		<line class="st2" x1="690" y1="43.9" x2="692.9" y2="43.9"/>
	</g>
	<g id="LINE_00000119080934419193483140000010630011841924012937_">
		<line class="st2" x1="898.2" y1="134.6" x2="908.9" y2="103.7"/>
	</g>
	<g id="LINE_00000138548110123860577300000012712209719064214451_">
		<line class="st2" x1="840.9" y1="243" x2="927.8" y2="275.9"/>
	</g>
	<g id="LINE_00000137847848685894738040000010499190856170837437_">
		<line class="st2" x1="216.8" y1="383.8" x2="260.2" y2="405.2"/>
	</g>
	<g id="LINE_00000072262886554443883780000010628115462984011407_">
		<line class="st2" x1="904.8" y1="123.7" x2="949.4" y2="140.6"/>
	</g>
	<g id="LINE_00000034781720590170707390000003132303708983614635_">
		<line class="st2" x1="914.1" y1="310.5" x2="914.1" y2="288"/>
	</g>
	<g id="LINE_00000083089437326886206110000003451410797370429067_">
		<line class="st2" x1="1137.5" y1="194.6" x2="1125" y2="189.2"/>
	</g>
	<g id="LINE_00000065777828538059260150000005395386707835204518_">
		<line class="st2" x1="1117.9" y1="165" x2="1106.5" y2="160.7"/>
	</g>
	<g id="LINE_00000111150707452886765250000017481047099076050057_">
		<line class="st2" x1="999.4" y1="120.8" x2="952.1" y2="120.8"/>
	</g>
	<g id="LINE_00000097484787894618245740000015791332542605857450_">
		<line class="st2" x1="376.2" y1="346.4" x2="362.5" y2="341.4"/>
	</g>
	<g id="LINE_00000012444027052593829970000004728081459807076752_">
		<line class="st2" x1="862.3" y1="143.3" x2="862.3" y2="157.8"/>
	</g>
	<g id="LINE_00000078040132723786706800000014590162011043477686_">
		<line class="st2" x1="692.9" y1="28.4" x2="692.9" y2="31.6"/>
	</g>
	<g id="LINE_00000173125936852778422410000011680759962463319226_">
		<line class="st2" x1="811.6" y1="73.3" x2="803.7" y2="101.2"/>
	</g>
	<g id="LINE_00000169558075373314486390000009276277224490509730_">
		<line class="st2" x1="676.8" y1="22.3" x2="692.9" y2="28.4"/>
	</g>
	<g id="LINE_00000152948183844968464300000012915276105793701006_">
		<line class="st2" x1="725.7" y1="30.2" x2="723" y2="39.8"/>
	</g>
	<g id="LINE_00000030445022119455164750000014203914254064599695_">
		<line class="st2" x1="722.8" y1="50.6" x2="722" y2="53.2"/>
	</g>
	<g id="LINE_00000177444025373983034310000002394054622600390309_">
		<line class="st2" x1="731.8" y1="18.7" x2="725.6" y2="40.8"/>
	</g>
	<g id="LINE_00000022553035646368384150000015008185238181784473_">
		<line class="st2" x1="727.7" y1="397.2" x2="719.1" y2="400.5"/>
	</g>
	<g id="LINE_00000156564224423762036720000007407723936660938659_">
		<line class="st2" x1="815.3" y1="50.3" x2="811.8" y2="62.7"/>
	</g>
	<g id="LINE_00000147898246496928405350000009450429939894313372_">
		<line class="st2" x1="359.6" y1="369.7" x2="323.3" y2="356.5"/>
	</g>
	<g id="LINE_00000036971003243971137120000016697082720499818165_">
		<line class="st2" x1="349" y1="399.4" x2="429.1" y2="426.9"/>
	</g>
	<g id="LINE_00000139273419414529565440000007046039589628740780_">
		<line class="st2" x1="80.2" y1="221" x2="80.2" y2="213.5"/>
	</g>
	<g id="LINE_00000026142034797796030490000000237229502292945799_">
		<line class="st2" x1="45.1" y1="192.5" x2="45.1" y2="213.5"/>
	</g>
	<g id="LINE_00000128456460949672946440000016151535582456451229_">
		<line class="st2" x1="863.9" y1="329.5" x2="914.1" y2="310.5"/>
	</g>
	<g id="LINE_00000140731466912643559910000014466284391576625586_">
		<line class="st2" x1="264.5" y1="417.8" x2="277.5" y2="407.2"/>
	</g>
	<g id="LINE_00000080899600144986032620000011653791987968166815_">
		<line class="st2" x1="360.2" y1="390.9" x2="376.2" y2="346.4"/>
	</g>
	<g id="LINE_00000080913268881784295590000009819345038813390232_">
		<line class="st2" x1="277.5" y1="407.2" x2="302" y2="416.5"/>
	</g>
	<g id="LINE_00000174573938106974024520000001108646074262379936_">
		<line class="st2" x1="108.8" y1="218.3" x2="127.3" y2="218.3"/>
	</g>
	<g id="LINE_00000115495311411038406100000000706516120113044922_">
		<line class="st2" x1="778.6" y1="240.5" x2="796.6" y2="247.3"/>
	</g>
	<g id="LINE_00000060022504837218090880000006625205904231590061_">
		<line class="st2" x1="873" y1="206.4" x2="873" y2="209.2"/>
	</g>
	<g id="LINE_00000111175427049965186950000011300962281465444752_">
		<line class="st2" x1="671.6" y1="264" x2="671.6" y2="264.1"/>
	</g>
	<g id="LINE_00000148619455518577798200000017343918489002168476_">
		<line class="st2" x1="85.7" y1="154.7" x2="60.1" y2="154.7"/>
	</g>
	<g id="LINE_00000099638894512842528380000005656841777769356965_">
		<line class="st2" x1="927.8" y1="182.1" x2="949.4" y2="174"/>
	</g>
	<g id="LINE_00000151523973727749151360000009379709396283836294_">
		<line class="st2" x1="98.3" y1="192.5" x2="108.8" y2="192.5"/>
	</g>
	<g id="LINE_00000002385237195582451550000000381001672578558861_">
		<line class="st2" x1="778.6" y1="240.5" x2="796.6" y2="233.7"/>
	</g>
	<g id="LINE_00000077311048992766405190000015376176278473680537_">
		<line class="st2" x1="322.2" y1="147.7" x2="432" y2="147.7"/>
	</g>
	<g id="LINE_00000073696928488962120370000017150483512600053134_">
		<line class="st2" x1="65.3" y1="213.5" x2="65.3" y2="221"/>
	</g>
	<g id="LINE_00000016756113227799126650000005314369282286533521_">
		<line class="st2" x1="485.4" y1="271.7" x2="667.3" y2="340.5"/>
	</g>
	<g id="LINE_00000080167458585029440620000005364678011299636642_">
		<line class="st2" x1="498.8" y1="236.9" x2="498.8" y2="232"/>
	</g>
	<g id="LINE_00000132069270358623794080000002532799477274386060_">
		<line class="st2" x1="875.6" y1="73.1" x2="865.2" y2="110"/>
	</g>
	<g id="LINE_00000007387558172308472080000002292238177339432600_">
		<line class="st2" x1="948" y1="260.5" x2="964.5" y2="260.5"/>
	</g>
	<g id="LINE_00000086669365079561123890000008481630803775698583_">
		<line class="st2" x1="210.2" y1="284" x2="209.3" y2="282.1"/>
	</g>
	<g id="LINE_00000123420174884634452420000017473155620634108583_">
		<line class="st2" x1="209.3" y1="282.1" x2="208.5" y2="280.1"/>
	</g>
	<g id="LINE_00000137849111985209717680000003454004891613347731_">
		<line class="st2" x1="208.5" y1="280.1" x2="207.8" y2="278.1"/>
	</g>
	<g id="LINE_00000044177461458623121220000008108553171294540468_">
		<line class="st2" x1="207.8" y1="278.1" x2="207.1" y2="276"/>
	</g>
	<g id="LINE_00000079480717591115004250000003965359345567572096_">
		<line class="st2" x1="207.1" y1="276" x2="206.5" y2="274"/>
	</g>
	<g id="LINE_00000034808981337250436000000011177933158285231525_">
		<line class="st2" x1="206.5" y1="274" x2="205.9" y2="271.9"/>
	</g>
	<g id="LINE_00000106140406478517431160000007691691828571665849_">
		<line class="st2" x1="205.9" y1="271.9" x2="205.9" y2="271.6"/>
	</g>
	<g id="LINE_00000182502388951539563490000018277825118180833684_">
		<line class="st2" x1="205.9" y1="271.6" x2="205.9" y2="271.3"/>
	</g>
	<g id="LINE_00000005982004495253027850000015822533856648428972_">
		<line class="st2" x1="205.9" y1="271.3" x2="205.9" y2="270.9"/>
	</g>
	<g id="LINE_00000005247215595620174500000004760434402713667993_">
		<line class="st2" x1="205.9" y1="270.9" x2="205.9" y2="270.5"/>
	</g>
	<g id="LINE_00000145768641899280665160000016387316502862541981_">
		<line class="st2" x1="205.9" y1="270.5" x2="205.9" y2="270.2"/>
	</g>
	<g id="LINE_00000112616046902294703100000005999515475471111555_">
		<line class="st2" x1="205.9" y1="270.2" x2="205.9" y2="269.8"/>
	</g>
	<g id="LINE_00000136411621096381778210000017647429462856745100_">
		<line class="st2" x1="205.9" y1="269.8" x2="206" y2="269"/>
	</g>
	<g id="LINE_00000124148333624711367250000011298372770582742711_">
		<line class="st2" x1="206" y1="269" x2="206" y2="268.1"/>
	</g>
	<g id="LINE_00000161628338541229249420000011987796801957695655_">
		<line class="st2" x1="206" y1="268.1" x2="206.1" y2="267.2"/>
	</g>
	<g id="LINE_00000144318985513977493100000017237843280808095143_">
		<line class="st2" x1="206.1" y1="267.2" x2="206.3" y2="266.3"/>
	</g>
	<g id="LINE_00000011020268784091392680000014706164644443765141_">
		<line class="st2" x1="206.3" y1="266.3" x2="206.4" y2="265.3"/>
	</g>
	<g id="LINE_00000018920584353277443490000016876595612788369599_">
		<line class="st2" x1="206.4" y1="265.3" x2="206.6" y2="264.3"/>
	</g>
	<g id="LINE_00000066516571899213302490000012321548431680448441_">
		<line class="st2" x1="206.6" y1="264.3" x2="206.9" y2="263.2"/>
	</g>
	<g id="LINE_00000144328985070028286870000018310808208414078141_">
		<line class="st2" x1="206.9" y1="263.2" x2="207.4" y2="260.9"/>
	</g>
	<g id="LINE_00000140725301216087566980000004199578895731961007_">
		<line class="st2" x1="207.4" y1="260.9" x2="208.1" y2="258.4"/>
	</g>
	<g id="LINE_00000111181061513122741410000011386828343753191327_">
		<line class="st2" x1="208.1" y1="258.4" x2="208.9" y2="255.8"/>
	</g>
	<g id="LINE_00000163072702117801243060000003935505861162050455_">
		<line class="st2" x1="682.5" y1="255.6" x2="689.3" y2="253"/>
	</g>
	<g id="LINE_00000109010275764497206720000008906053841392207005_">
		<line class="st2" x1="318.3" y1="343.2" x2="296.8" y2="403.4"/>
	</g>
	<g id="LINE_00000040573485322961071800000010707227041138504114_">
		<line class="st2" x1="11.1" y1="143.1" x2="11.1" y2="204"/>
	</g>
	<g id="LINE_00000086691503505342764420000012116642660696090501_">
		<line class="st2" x1="48.9" y1="117.3" x2="48.9" y2="155.5"/>
	</g>
	<g id="LINE_00000147193781056706960950000018221333529361116308_">
		<line class="st2" x1="776.1" y1="270.7" x2="796.6" y2="278.4"/>
	</g>
	<g id="LINE_00000133519995021820773770000012237366852161514678_">
		<line class="st2" x1="968.9" y1="166.6" x2="999.4" y2="178.1"/>
	</g>
	<g id="LINE_00000179613364444675508980000006945785933198584490_">
		<line class="st2" x1="883" y1="178.3" x2="883" y2="206.4"/>
	</g>
	<g id="LINE_00000172403150292121205850000014945561397533212093_">
		<line class="st2" x1="690" y1="51.2" x2="692.9" y2="51.2"/>
	</g>
	<g id="LINE_00000037686832909853956110000003180326371561199494_">
		<line class="st2" x1="688.4" y1="-1" x2="703.2" y2="7.9"/>
	</g>
	<g id="LINE_00000088094122274695962530000009128888218742314630_">
		<line class="st2" x1="703.2" y1="7.9" x2="710.9" y2="7.9"/>
	</g>
	<g id="LINE_00000041270855484787520460000001399227808198637965_">
		<line class="st2" x1="710.9" y1="7.9" x2="711.2" y2="24.7"/>
	</g>
	<g id="LINE_00000127743221991943534980000010774047464684092295_">
		<line class="st2" x1="908.9" y1="103.7" x2="911.5" y2="104.7"/>
	</g>
	<g id="LINE_00000118367559689329570140000001196869456115827890_">
		<line class="st2" x1="878.2" y1="74.1" x2="867.7" y2="111"/>
	</g>
	<g id="LINE_00000157274748678052342100000018095912525378759856_">
		<line class="st2" x1="690" y1="51.2" x2="690" y2="86.2"/>
	</g>
	<g id="LINE_00000009584018602191906470000015491085373222324865_">
		<line class="st2" x1="811.8" y1="62.7" x2="814.3" y2="63.7"/>
	</g>
	<g id="LINE_00000137830231780260877320000013453189784190370991_">
		<line class="st2" x1="727.7" y1="397.2" x2="727.7" y2="381.3"/>
	</g>
	<g id="LINE_00000127746784116079082240000003838188266052717202_">
		<line class="st2" x1="1125" y1="189.2" x2="1117.8" y2="189.2"/>
	</g>
	<g id="LINE_00000157989207117751886020000002959921841162935443_">
		<line class="st2" x1="1117.8" y1="189.2" x2="1117.8" y2="201.4"/>
	</g>
	<g id="LINE_00000088851743934411261160000008925249075576810638_">
		<line class="st2" x1="1117.8" y1="201.4" x2="1110.6" y2="205.1"/>
	</g>
	<g id="LINE_00000024688903542847591320000007938111481232001949_">
		<line class="st2" x1="1110.6" y1="205.1" x2="1100.9" y2="205.1"/>
	</g>
	<g id="LINE_00000047057640473309757730000010139793012325321865_">
		<line class="st2" x1="1100.9" y1="205.1" x2="1089.2" y2="197"/>
	</g>
	<g id="LINE_00000076561480245497168360000011639022775812424102_">
		<line class="st2" x1="712.3" y1="411.1" x2="704" y2="411.1"/>
	</g>
	<g id="LINE_00000182491714893289549250000001486859281799246501_">
		<line class="st2" x1="778.5" y1="314.6" x2="794.3" y2="314.6"/>
	</g>
	<g id="LINE_00000008867034191505732520000011575483035932255160_">
		<line class="st2" x1="794.3" y1="314.6" x2="794.3" y2="280.6"/>
	</g>
	<g id="LINE_00000054268321511975803690000008556242899586124718_">
		<line class="st2" x1="794.3" y1="280.6" x2="778.5" y2="280.6"/>
	</g>
	<g id="LINE_00000049916016925965742240000002516341437858645664_">
		<line class="st2" x1="778.5" y1="280.6" x2="778.5" y2="314.6"/>
	</g>
	<g id="LINE_00000042698832122262844290000015240017608987025800_">
		<line class="st2" x1="719.1" y1="400.5" x2="719.1" y2="381.3"/>
	</g>
	<g id="LINE_00000124847425825293346280000018267521303606492064_">
		<line class="st2" x1="1117.9" y1="165" x2="1117.9" y2="176.7"/>
	</g>
	<g id="LINE_00000083050821557749588320000002453944339344621452_">
		<line class="st2" x1="1117.9" y1="176.7" x2="1125" y2="176.7"/>
	</g>
	<g id="LINE_00000102544859036729779880000005177006387398379185_">
		<line class="st2" x1="1125" y1="176.7" x2="1136.3" y2="171.9"/>
	</g>
	<g id="LINE_00000176033227735635717240000013681066442183147916_">
		<line class="st2" x1="1136.3" y1="171.9" x2="1147.5" y2="171.9"/>
	</g>
	<g id="LINE_00000029024511471270180660000005911295520398798258_">
		<line class="st2" x1="1147.5" y1="171.9" x2="1160.3" y2="177.6"/>
	</g>
	<g id="LINE_00000001665349428339785500000007618352160923476110_">
		<line class="st2" x1="1160.3" y1="177.6" x2="1160.3" y2="189.2"/>
	</g>
	<g id="LINE_00000034797460498647979910000013126894756816044714_">
		<line class="st2" x1="1160.3" y1="189.2" x2="1149.2" y2="194.6"/>
	</g>
	<g id="LINE_00000032649009658296321080000011649254167144724144_">
		<line class="st2" x1="1149.2" y1="194.6" x2="1137.5" y2="194.6"/>
	</g>
	<g id="LINE_00000112608800171652029340000004192049023612410032_">
		<line class="st2" x1="704" y1="378.1" x2="704" y2="347.5"/>
	</g>
	<g id="LINE_00000012463750037905379610000002421792177842333375_">
		<line class="st2" x1="195.4" y1="359.7" x2="216.8" y2="383.8"/>
	</g>
	<g id="LINE_00000062898873064151760990000013495533764863629707_">
		<line class="st2" x1="689.3" y1="253" x2="695.1" y2="255.2"/>
	</g>
	<g id="LINE_00000017483195240347886140000003914632742911815080_">
		<line class="st2" x1="797.9" y1="133.5" x2="862.3" y2="157.8"/>
	</g>
	<g id="LINE_00000053502783079450526450000014014122523348423308_">
		<line class="st2" x1="727.7" y1="378.1" x2="727.7" y2="363.4"/>
	</g>
	<g id="LINE_00000137829779121425923260000002717817346228853948_">
		<line class="st2" x1="711.2" y1="24.7" x2="725.7" y2="30.2"/>
	</g>
	<g id="LINE_00000018221701492393326210000008965127274384519045_">
		<line class="st2" x1="765" y1="31.3" x2="761.5" y2="43.7"/>
	</g>
	<g id="LINE_00000133498349663059962860000001368485566814644146_">
		<line class="st2" x1="797.9" y1="127.1" x2="850.7" y2="147"/>
	</g>
	<g id="LINE_00000153672834101694467030000001975810348955533496_">
		<line class="st2" x1="901.9" y1="203.9" x2="901.9" y2="209.2"/>
	</g>
	<g id="LINE_00000021108280487187236270000002142026592046807462_">
		<line class="st2" x1="849.6" y1="161.8" x2="849.6" y2="184.1"/>
	</g>
	<g id="LINE_00000049200654551344668640000014000830914569165472_">
		<line class="st2" x1="917.3" y1="203.9" x2="927.8" y2="203.9"/>
	</g>
	<g id="LINE_00000018948879914005269980000016512289282068264590_">
		<line class="st2" x1="883" y1="178.3" x2="897.3" y2="137.2"/>
	</g>
	<g id="LINE_00000054242124110156782770000016562320516269607581_">
		<line class="st2" x1="1249.4" y1="207.2" x2="1249.4" y2="426"/>
	</g>
	<g id="LINE_00000052782698646160978090000011761069413383155632_">
		<line class="st2" x1="793.9" y1="131.9" x2="793.9" y2="213.5"/>
	</g>
	<g id="LINE_00000057834554879354278970000016599283192179666878_">
		<line class="st2" x1="761.3" y1="54.3" x2="758.6" y2="64"/>
	</g>
	<g id="LINE_00000119807852771385604500000001795444651560373138_">
		<line class="st2" x1="776.1" y1="270.7" x2="776.1" y2="314.7"/>
	</g>
	<g id="LINE_00000041268051454067903990000001019269254984798363_">
		<line class="st2" x1="999.4" y1="155.1" x2="1089.2" y2="155.1"/>
	</g>
	<g id="LINE_00000014604082031968008070000014916945458534457531_">
		<line class="st2" x1="1089.2" y1="155.1" x2="1089.2" y2="165.1"/>
	</g>
	<g id="LINE_00000144325872952564995140000005201847968631719582_">
		<line class="st2" x1="734.2" y1="394.8" x2="734.2" y2="381.3"/>
	</g>
	<g id="LINE_00000172411778908863293560000014820954034178439567_">
		<line class="st2" x1="968.9" y1="166.6" x2="999.4" y2="155.1"/>
	</g>
	<g id="LINE_00000121971074952720106280000014244881793874582954_">
		<line class="st2" x1="949.4" y1="101.1" x2="949.4" y2="140.6"/>
	</g>
	<g id="LINE_00000117663827441635491310000016435209215200300459_">
		<line class="st2" x1="446.3" y1="178.7" x2="446.3" y2="85.6"/>
	</g>
	<g id="LINE_00000062159868196458398950000002806782610788216493_">
		<line class="st2" x1="446.3" y1="85.6" x2="2.2" y2="85.6"/>
	</g>
	<g id="LINE_00000095323804704946215350000012426912943732758944_">
		<line class="st2" x1="2.2" y1="85.6" x2="2.2" y2="224.1"/>
	</g>
	<g id="LINE_00000072995312547527862070000002940667655397858235_">
		<line class="st2" x1="2.2" y1="224.1" x2="109.7" y2="224.1"/>
	</g>
	<g id="LINE_00000077318342720309786930000011402417131440863908_">
		<line class="st2" x1="676.8" y1="2.7" x2="688.4" y2="-1"/>
	</g>
	<g id="LINE_00000096055886477228207610000006611553560995973298_">
		<line class="st2" x1="773.3" y1="92.6" x2="875.1" y2="131.1"/>
	</g>
	<g id="LINE_00000103956988598871679050000013179987101011404986_">
		<line class="st2" x1="875.1" y1="131.1" x2="897.3" y2="137.2"/>
	</g>
	<g id="LINE_00000151533100845695721130000011997558946702108576_">
		<line class="st2" x1="1089.2" y1="197" x2="1089.2" y2="212.1"/>
	</g>
	<g id="LINE_00000176001270591232302550000009678935119873595814_">
		<line class="st2" x1="719.1" y1="378.1" x2="719.1" y2="360.1"/>
	</g>
	<g id="LINE_00000018933666763143505620000006395985261289545366_">
		<line class="st2" x1="734.2" y1="365.8" x2="737.3" y2="367"/>
	</g>
	<g id="LINE_00000080897694527484637050000014932192672049076885_">
		<line class="st2" x1="362.5" y1="341.4" x2="357.6" y2="357.4"/>
	</g>
	<g id="LINE_00000138551753680655565940000012979838062630586781_">
		<line class="st2" x1="211" y1="391.5" x2="264.5" y2="417.8"/>
	</g>
	<g id="LINE_00000016034276133015992680000008067237749048658110_">
		<line class="st2" x1="692.9" y1="31.6" x2="696.4" y2="29.7"/>
	</g>
	<g id="LINE_00000010285885602377832660000007188457531139102851_">
		<line class="st2" x1="766.7" y1="76.8" x2="803.8" y2="90.8"/>
	</g>
	<g id="LINE_00000004516974074836993300000013075661898055424444_">
		<line class="st2" x1="478.1" y1="250.7" x2="420.4" y2="411.6"/>
	</g>
	<g id="LINE_00000165201529417244878160000002469183844096251821_">
		<line class="st2" x1="360.2" y1="390.9" x2="420.4" y2="411.6"/>
	</g>
	<g id="LINE_00000105392079206413843510000001794656555425260701_">
		<line class="st2" x1="873" y1="209.2" x2="901.9" y2="209.2"/>
	</g>
	<g id="LINE_00000150077230327673707070000002411485091114538940_">
		<line class="st2" x1="109.7" y1="224.1" x2="208.9" y2="255.8"/>
	</g>
	<g id="LINE_00000104665425234811834980000010996146886559466418_">
		<line class="st2" x1="692.9" y1="87.3" x2="740.6" y2="105.4"/>
	</g>
	<g id="LINE_00000149343411939195179270000000199482529067665811_">
		<line class="st2" x1="903.8" y1="126.8" x2="949.4" y2="144.1"/>
	</g>
	<g id="LINE_00000059311856548117265630000016141341096308795278_">
		<line class="st2" x1="672" y1="-11.2" x2="1249.4" y2="207.2"/>
	</g>
	<g id="LINE_00000111169410639392120650000012019991721660192161_">
		<line class="st2" x1="797.9" y1="212" x2="862.3" y2="187.6"/>
	</g>
	<g id="LINE_00000072256094576182700870000005107931281130654090_">
		<line class="st2" x1="740.6" y1="105.4" x2="752.2" y2="101.7"/>
	</g>
	<g id="LINE_00000171699548244774370730000005760300943291865481_">
		<line class="st2" x1="767.6" y1="32.3" x2="764" y2="44.7"/>
	</g>
	<g id="LINE_00000114780616380453180430000012434686935462797444_">
		<line class="st2" x1="697" y1="250.2" x2="702.7" y2="252.3"/>
	</g>
	<g id="LINE_00000173152642002508558100000015781739357625599392_">
		<line class="st2" x1="796.6" y1="278.4" x2="796.6" y2="327.2"/>
	</g>
	<g id="LINE_00000065755129023844984890000005875396460343276928_">
		<line class="st2" x1="496.3" y1="247.1" x2="750.9" y2="343.4"/>
	</g>
	<g id="LINE_00000083064078030123079750000004837210800754190737_">
		<line class="st2" x1="34.2" y1="174" x2="34.2" y2="143.1"/>
	</g>
	<g id="LINE_00000051380278730563943970000018029977958346811269_">
		<line class="st2" x1="34.2" y1="143.1" x2="11.1" y2="143.1"/>
	</g>
	<g id="LINE_00000009552668078577199280000017051022293512663205_">
		<line class="st2" x1="737.5" y1="256.1" x2="757" y2="263.4"/>
	</g>
	<g id="LINE_00000167381113728006065870000001563773742166312843_">
		<line class="st2" x1="688.3" y1="257.8" x2="695.1" y2="255.2"/>
	</g>
	<g id="LINE_00000121257260457150209710000015689435319230330544_">
		<line class="st2" x1="11.1" y1="204" x2="34.2" y2="204"/>
	</g>
	<g id="LINE_00000130610203786594719740000002894380234905951110_">
		<line class="st2" x1="34.2" y1="192.5" x2="45.1" y2="192.5"/>
	</g>
	<g id="LINE_00000031196069212704116620000006954315477683190456_">
		<line class="st2" x1="199.4" y1="232.6" x2="225.5" y2="240.9"/>
	</g>
	<g id="LINE_00000111175040989664567680000017134145543669847485_">
		<line class="st2" x1="196.9" y1="240.5" x2="199.4" y2="232.6"/>
	</g>
	<g id="LINE_00000004544503304252490460000001973532156350907319_">
		<line class="st2" x1="840.9" y1="200.1" x2="840.9" y2="212.8"/>
	</g>
	<g id="LINE_00000144333648047032056350000002017575074102187157_">
		<line class="st2" x1="85.7" y1="116.6" x2="85.7" y2="154.7"/>
	</g>
	<g id="LINE_00000106843996242681338680000008223731205204171662_">
		<line class="st2" x1="302" y1="416.5" x2="323.3" y2="356.5"/>
	</g>
	<g id="LINE_00000131347374054336019160000007378720080840207535_">
		<line class="st2" x1="45.1" y1="155.5" x2="45.1" y2="174"/>
	</g>
	<g id="LINE_00000080911591937677406170000015964709432327768213_">
		<line class="st2" x1="734.2" y1="378.1" x2="734.2" y2="365.8"/>
	</g>
	<g id="LINE_00000037674137179125941470000008362443019725666188_">
		<line class="st2" x1="719.1" y1="360.1" x2="727.7" y2="363.4"/>
	</g>
	<g id="LINE_00000145740358177219309520000014505037803993711254_">
		<line class="st2" x1="667.3" y1="426" x2="667.3" y2="340.5"/>
	</g>
	<g id="LINE_00000120546309715554006100000006619865843532206482_">
		<line class="st2" x1="671.6" y1="275.1" x2="776.1" y2="314.7"/>
	</g>
	<g id="LINE_00000171688597304376843460000014986591353085156747_">
		<line class="st2" x1="750.9" y1="343.4" x2="750.9" y2="338.4"/>
	</g>
	<g id="LINE_00000038371207596642828280000000296476341902302351_">
		<line class="st2" x1="671.6" y1="259.8" x2="674.8" y2="258.5"/>
	</g>
	<g id="LINE_00000124159296325173201020000009659339705901145512_">
		<line class="st2" x1="737.5" y1="256.1" x2="757" y2="248.7"/>
	</g>
	<g id="LINE_00000155832707198570260540000010135803765758829996_">
		<line class="st2" x1="927.8" y1="232.1" x2="948" y2="239.8"/>
	</g>
	<g id="LINE_00000170255116158315598450000002489329200472232834_">
		<line class="st2" x1="98.7" y1="155.7" x2="96.2" y2="155.7"/>
	</g>
	<g id="LINE_00000002382618786566734620000013648200084359106983_">
		<line class="st2" x1="60.1" y1="154.7" x2="60.1" y2="117.3"/>
	</g>
	<g id="LINE_00000018204897300157430940000001556993375858645398_">
		<line class="st2" x1="478.1" y1="250.7" x2="766.6" y2="359.9"/>
	</g>
	<g id="LINE_00000058553992624331653790000012624809034739808929_">
		<line class="st2" x1="734.2" y1="378.1" x2="727.7" y2="378.1"/>
	</g>
	<g id="LINE_00000036224466137790683830000009075475477305014662_">
		<line class="st2" x1="1249.4" y1="426" x2="667.3" y2="426"/>
	</g>
	<g id="LINE_00000013894581158135433450000012608977692912050305_">
		<line class="st2" x1="862.3" y1="166.6" x2="862.3" y2="179.3"/>
	</g>
	<g id="LINE_00000038413446850728452070000013924514756977527172_">
		<line class="st2" x1="809" y1="72.4" x2="803.8" y2="90.8"/>
	</g>
	<g id="LINE_00000044162541205947742390000005513283600280354228_">
		<line class="st2" x1="885.9" y1="178.3" x2="885.9" y2="203.9"/>
	</g>
	<g id="LINE_00000142172765795785975520000001161514539487532177_">
		<line class="st2" x1="964.5" y1="260.5" x2="999.4" y2="247.3"/>
	</g>
	<g id="LINE_00000013902652082573110170000001939157290707848843_">
		<line class="st2" x1="849.6" y1="161.8" x2="862.3" y2="166.6"/>
	</g>
	<g id="LINE_00000083798187096342876470000011815516527281993877_">
		<line class="st2" x1="1089.2" y1="212.1" x2="999.4" y2="212.1"/>
	</g>
	<g id="LINE_00000083806702763624575310000005778020456824408717_">
		<line class="st2" x1="183.3" y1="360.3" x2="211" y2="391.5"/>
	</g>
	<g id="LINE_00000038385489900278471940000012335629624081851809_">
		<line class="st2" x1="1089.2" y1="165.1" x2="1100.9" y2="160.7"/>
	</g>
	<g id="LINE_00000176737771588860953450000008380264906818679430_">
		<line class="st2" x1="865.2" y1="110" x2="867.7" y2="111"/>
	</g>
	<g id="LINE_00000103964411378493445790000003935420685817196206_">
		<line class="st2" x1="917.3" y1="203.9" x2="917.3" y2="209.2"/>
	</g>
	<g id="LINE_00000175319892217803799420000002728962361514998959_">
		<line class="st2" x1="917.3" y1="209.2" x2="927.8" y2="209.2"/>
	</g>
	<g id="LINE_00000045591004781353764300000002353850806197666494_">
		<line class="st2" x1="692.9" y1="51.2" x2="692.9" y2="87.3"/>
	</g>
	<g id="LINE_00000039092398980267572950000011729347447678835389_">
		<line class="st2" x1="803.7" y1="101.2" x2="875.9" y2="128.5"/>
	</g>
	<g id="LINE_00000079443660562346879610000014229599500305512359_">
		<line class="st2" x1="875.9" y1="128.5" x2="898.2" y2="134.6"/>
	</g>
	<g id="LINE_00000075153188715886917630000006053742753606534550_">
		<line class="st2" x1="862.3" y1="187.6" x2="862.3" y2="220.9"/>
	</g>
	<g id="LINE_00000085227131087761174420000010812097244712686514_">
		<line class="st2" x1="692.9" y1="34.7" x2="696.3" y2="32.9"/>
	</g>
	<g id="LINE_00000137838096166975564600000015217461714460634283_">
		<line class="st2" x1="758.8" y1="53.3" x2="761.3" y2="54.3"/>
	</g>
	<g id="LINE_00000108268870566094222820000007275406115274608774_">
		<line class="st2" x1="359.6" y1="369.7" x2="349" y2="399.4"/>
	</g>
	<g id="LINE_00000072275156754187366160000011221195694558053766_">
		<line class="st2" x1="840.9" y1="247.2" x2="927.8" y2="280"/>
	</g>
	<g id="LINE_00000158031249171465778740000013078314494015066793_">
		<line class="st2" x1="797.9" y1="133.5" x2="797.9" y2="212"/>
	</g>
	<g id="LINE_00000010303802286642255470000002839086114101729921_">
		<line class="st2" x1="849.6" y1="184.1" x2="862.3" y2="179.3"/>
	</g>
	<g id="LINE_00000090282239306645679900000003283985703452639161_">
		<line class="st2" x1="758.8" y1="53.3" x2="756" y2="63"/>
	</g>
	<g id="LINE_00000127731324255796448910000017713713548153014916_">
		<line class="st2" x1="697" y1="250.2" x2="793.9" y2="213.5"/>
	</g>
	<g id="LINE_00000183250287932204771510000008887947529564307611_">
		<line class="st2" x1="498.8" y1="232" x2="753.2" y2="328.2"/>
	</g>
	<g id="LINE_00000183225077763862931700000013065170463818899385_">
		<line class="st2" x1="446.3" y1="178.7" x2="661.2" y2="260.1"/>
	</g>
	<g id="LINE_00000011720465228900800970000000588688871718367658_">
		<line class="st2" x1="432" y1="112.9" x2="432" y2="147.7"/>
	</g>
	<g id="LINE_00000023240075336205986310000015287943634316416686_">
		<line class="st2" x1="719.1" y1="378.1" x2="704" y2="378.1"/>
	</g>
	<g id="LINE_00000163766061896227650070000007606457727631771018_">
		<line class="st2" x1="737.3" y1="393.6" x2="734.2" y2="394.8"/>
	</g>
	<g id="LINE_00000026147570796786164950000009877456779898597795_">
		<line class="st2" x1="955" y1="179.4" x2="952.1" y2="179.4"/>
	</g>
	<g id="LINE_00000088098200662945051960000015191115365528559292_">
		<line class="st2" x1="682.5" y1="255.6" x2="688.3" y2="257.8"/>
	</g>
	<g id="LINE_00000045600832911683484590000008532124421340380588_">
		<line class="st2" x1="222.3" y1="283.5" x2="221.4" y2="281.5"/>
	</g>
	<g id="LINE_00000140004425780537167800000012986009661789492608_">
		<line class="st2" x1="221.4" y1="281.5" x2="220.6" y2="279.5"/>
	</g>
	<g id="LINE_00000063624779105248172440000017535290753051762346_">
		<line class="st2" x1="220.6" y1="279.5" x2="219.9" y2="277.5"/>
	</g>
	<g id="LINE_00000025402594246628022680000010061991721009574794_">
		<line class="st2" x1="219.9" y1="277.5" x2="219.2" y2="275.5"/>
	</g>
	<g id="LINE_00000132783724498968356400000000952808613456643501_">
		<line class="st2" x1="219.2" y1="275.5" x2="218.6" y2="273.4"/>
	</g>
	<g id="LINE_00000114042000939656652760000001111114465643146673_">
		<line class="st2" x1="218.6" y1="273.4" x2="218" y2="271.4"/>
	</g>
	<g id="LINE_00000173867563520423218410000008127501505342317735_">
		<line class="st2" x1="218" y1="271.4" x2="218" y2="271"/>
	</g>
	<g id="LINE_00000109742786222735208720000002537569355647480448_">
		<line class="st2" x1="218" y1="271" x2="218" y2="270.7"/>
	</g>
	<g id="LINE_00000005256835297326629750000013789512372362412991_">
		<line class="st2" x1="218" y1="270.7" x2="218" y2="270.3"/>
	</g>
	<g id="LINE_00000170237138697597363730000012158408038346326972_">
		<line class="st2" x1="218" y1="270.3" x2="218" y2="269.9"/>
	</g>
	<g id="LINE_00000183239312954149017560000016772870240696052652_">
		<line class="st2" x1="218" y1="269.9" x2="218" y2="269.5"/>
	</g>
	<g id="LINE_00000183928714678556774910000004317205024285007548_">
		<line class="st2" x1="218" y1="269.5" x2="218" y2="269.1"/>
	</g>
	<g id="LINE_00000040570999249925340260000005220348199978049946_">
		<line class="st2" x1="218" y1="269.1" x2="218.1" y2="268.3"/>
	</g>
	<g id="LINE_00000178176681749060814390000008243705327966037419_">
		<line class="st2" x1="218.1" y1="268.3" x2="218.1" y2="267.4"/>
	</g>
	<g id="LINE_00000088815762038399143840000010171889953583609480_">
		<line class="st2" x1="218.1" y1="267.4" x2="218.3" y2="266.4"/>
	</g>
	<g id="LINE_00000105412444064751880240000017264473477577878435_">
		<line class="st2" x1="218.3" y1="266.4" x2="218.4" y2="265.4"/>
	</g>
	<g id="LINE_00000173883713856409157040000004347185918244215728_">
		<line class="st2" x1="218.4" y1="265.4" x2="218.6" y2="264.4"/>
	</g>
	<g id="LINE_00000098201221426022804780000016903566505654740914_">
		<line class="st2" x1="218.6" y1="264.4" x2="218.8" y2="263.3"/>
	</g>
	<g id="LINE_00000100356909842795761520000006738610014623344304_">
		<line class="st2" x1="218.8" y1="263.3" x2="219.1" y2="262.2"/>
	</g>
	<g id="LINE_00000016066684604801962090000003182647967624795527_">
		<line class="st2" x1="219.1" y1="262.2" x2="219.7" y2="259.7"/>
	</g>
	<g id="LINE_00000034783538160420980170000004316597271336112314_">
		<line class="st2" x1="219.7" y1="259.7" x2="220.4" y2="257.1"/>
	</g>
	<g id="LINE_00000036232804808090981400000009681231216200247443_">
		<line class="st2" x1="220.4" y1="257.1" x2="221.2" y2="254.3"/>
	</g>
	<g id="LINE_00000169544754614787442050000001739846233538295200_">
		<line class="st2" x1="221.2" y1="254.3" x2="225.5" y2="240.9"/>
	</g>
	<g id="LINE_00000052099849310872508520000007651885573509718422_">
		<line class="st2" x1="930.7" y1="192.3" x2="948.9" y2="192.3"/>
	</g>
	<g id="LINE_00000041290642420726634500000003564871008377526449_">
		<line class="st2" x1="948.9" y1="192.3" x2="948.9" y2="187"/>
	</g>
	<g id="LINE_00000115508238148462534530000000440482433858356915_">
		<line class="st2" x1="948.9" y1="187" x2="955" y2="187"/>
	</g>
	<g id="LINE_00000052066718865998443670000016179004633234459314_">
		<line class="st2" x1="737.3" y1="393.6" x2="737.3" y2="367"/>
	</g>
	<g id="LINE_00000020380965671480048840000007900751927055241367_">
		<line class="st2" x1="757" y1="231.8" x2="757" y2="232.4"/>
	</g>
	<g id="LINE_00000101788842439512279730000014306078084977563031_">
		<line class="st2" x1="927.8" y1="214.8" x2="930.7" y2="214.8"/>
	</g>
	<g id="LINE_00000119104532432531774590000002141449718511010436_">
		<line class="st2" x1="296.8" y1="403.4" x2="276.7" y2="394.8"/>
	</g>
	<g id="LINE_00000096055674238793395200000003644246372860582584_">
		<line class="st2" x1="496.3" y1="247.1" x2="496.3" y2="242.1"/>
	</g>
	<g id="LINE_00000076598434339375268980000003959757857168932282_">
		<line class="st2" x1="796.6" y1="233.7" x2="796.6" y2="247.3"/>
	</g>
	<g id="LINE_00000148662281161526524770000009876745576927465876_">
		<line class="st2" x1="752.2" y1="101.7" x2="797.9" y2="119"/>
	</g>
	<g id="LINE_00000034790210407699838290000014857924829880317876_">
		<line class="st2" x1="671.6" y1="264.1" x2="680.6" y2="260.7"/>
	</g>
	<g id="LINE_00000050644912784070923850000012659197799255792286_">
		<line class="st2" x1="45.1" y1="213.5" x2="65.3" y2="213.5"/>
	</g>
	<g id="LINE_00000137103961416637960330000011696463285324163977_">
		<line class="st2" x1="65.3" y1="221" x2="80.2" y2="221"/>
	</g>
	<g id="LINE_00000101066670866151708750000009313195641364663724_">
		<line class="st2" x1="753.2" y1="333.2" x2="753.2" y2="328.2"/>
	</g>
	<g id="LINE_00000055685756514783151250000009676127689472192151_">
		<line class="st2" x1="48.9" y1="155.5" x2="45.1" y2="155.5"/>
	</g>
	<g id="LINE_00000109002047771662014550000015389211580240619396_">
		<line class="st2" x1="432" y1="112.9" x2="108.8" y2="112.9"/>
	</g>
	<g id="LINE_00000008145638378931375170000014711761525870271137_">
		<line class="st2" x1="904.8" y1="123.7" x2="911.5" y2="104.7"/>
	</g>
	<g id="LINE_00000070839785422440629180000007021265486219818893_">
		<line class="st2" x1="766.6" y1="368.8" x2="766.6" y2="359.9"/>
	</g>
	<g id="LINE_00000118365537683446002520000017091692860444570784_">
		<line class="st2" x1="885.6" y1="179.2" x2="903.8" y2="126.8"/>
	</g>
	<g id="LINE_00000181796802035893679040000005050566583579979927_">
		<line class="st2" x1="731.8" y1="18.7" x2="949.4" y2="101.1"/>
	</g>
	<g id="LINE_00000152956109312185758830000001765461093833576329_">
		<line class="st2" x1="722.8" y1="50.6" x2="758.8" y2="64.1"/>
	</g>
	<g id="LINE_00000143575979693700149810000007508349777088984980_">
		<line class="st2" x1="758.8" y1="64.1" x2="766.7" y2="76.8"/>
	</g>
	<g id="LINE_00000097475833939827340760000016663917346798760351_">
		<line class="st2" x1="322.8" y1="147.9" x2="796.6" y2="327.2"/>
	</g>
	<g id="LINE_00000088847981317335366130000011302035717385488032_">
		<line class="st2" x1="999.4" y1="120.8" x2="999.4" y2="178.1"/>
	</g>
	<g id="LINE_00000070815127351785868700000007777894487500954256_">
		<line class="st2" x1="927.8" y1="182.1" x2="927.8" y2="206.4"/>
	</g>
	<g id="LINE_00000017493124616735882490000010000805663188380607_">
		<line class="st2" x1="702.7" y1="252.3" x2="840.9" y2="200.1"/>
	</g>
	<g id="LINE_00000041289061976395611770000010151410273912235425_">
		<line class="st2" x1="496.2" y1="242.1" x2="750.9" y2="338.4"/>
	</g>
	<g id="LINE_00000070080592866276448380000007934894483829492907_">
		<line class="st2" x1="840.9" y1="247.2" x2="840.9" y2="243"/>
	</g>
</g>
<g id="EC-001">
	<g id="LINE_00000038388398753005980750000012072165406363465108_">
		<line class="st3" x1="796.6" y1="371.2" x2="796.6" y2="216.8"/>
	</g>
	<g id="LINE_00000020358919148566474560000013905863599872406708_">
		<line class="st3" x1="796.6" y1="216.8" x2="840.9" y2="200.1"/>
	</g>
	<g id="LINE_00000143596287858360567830000001012359009904473500_">
		<line class="st3" x1="840.9" y1="200.1" x2="840.9" y2="247.2"/>
	</g>
	<g id="LINE_00000173853588196534887730000012381187430387210643_">
		<line class="st3" x1="840.9" y1="247.2" x2="927.8" y2="280"/>
	</g>
	<g id="LINE_00000138557069246966101430000012157062318750242974_">
		<line class="st3" x1="927.8" y1="280" x2="863.9" y2="304.2"/>
	</g>
	<g id="LINE_00000174585235016416965230000005567897167291067321_">
		<line class="st3" x1="863.9" y1="304.2" x2="863.9" y2="307"/>
	</g>
	<g id="LINE_00000182525403928427506920000012324432515368070786_">
		<line class="st3" x1="863.9" y1="307" x2="914.1" y2="288"/>
	</g>
	<g id="LINE_00000181076743363382760510000010753642791934118312_">
		<line class="st3" x1="914.1" y1="288" x2="914.1" y2="310.5"/>
	</g>
	<g id="LINE_00000152245096708061700060000000097488210786495886_">
		<line class="st3" x1="914.1" y1="310.5" x2="863.9" y2="329.5"/>
	</g>
	<g id="LINE_00000175312656755490982860000017540391745428210351_">
		<line class="st3" x1="863.9" y1="329.5" x2="863.9" y2="396.7"/>
	</g>
	<g id="LINE_00000104707759500518427820000012966867387591431582_">
		<line class="st3" x1="863.9" y1="396.7" x2="796.6" y2="371.2"/>
	</g>
</g>
<g id="CLA-110">
	<g id="LINE_00000083061069703097730460000004058767064792328126_">
		<line class="st3" x1="492.1" y1="212" x2="796.6" y2="327.2"/>
	</g>
	<g id="LINE_00000058568269181647874020000011392218420841599651_">
		<line class="st3" x1="796.6" y1="327.2" x2="796.6" y2="371.2"/>
	</g>
	<g id="LINE_00000064353017657396647910000013377243855509979839_">
		<line class="st3" x1="796.6" y1="371.2" x2="478.1" y2="250.7"/>
	</g>
	<g id="LINE_00000035503514716101645710000002030562725265140358_">
		<line class="st3" x1="478.1" y1="250.7" x2="492.1" y2="212"/>
	</g>
</g>
<g id="EGplan">
</g>
<g id="ET-606">
</g>
<g id="ET-608">
</g>
<g id="ET-616">
</g>
<g id="ET-615-B">
</g>
<g id="ET-615-A">
</g>
<g id="ETPLAN">
</g>
</svg>
