<?xml version="1.0" encoding="UTF-8"?>
<svg xmlns="http://www.w3.org/2000/svg" viewBox="0 0 594.1 419.2">
  <defs>
    <style>
      .cls-1 {
        stroke-width: 0px;
      }

      .cls-1, .cls-2 {
        fill: none;
      }

      .cls-2 {
        stroke: #606060;
        stroke-linecap: round;
        stroke-linejoin: round;
        stroke-width: .7px;
      }
    </style>
  </defs>
  <g id="EU-416">
    <g id="LINE">
      <line class="cls-1" x1="286.7" y1="194.3" x2="307.2" y2="201.5"/>
    </g>
    <g id="LINE-2" data-name="LINE">
      <line class="cls-1" x1="307.2" y1="201.5" x2="307.2" y2="342.1"/>
    </g>
    <g id="LINE-3" data-name="LINE">
      <line class="cls-1" x1="307.2" y1="342.1" x2="286.4" y2="335.2"/>
    </g>
    <g id="LINE-4" data-name="LINE">
      <line class="cls-1" x1="286.4" y1="335.2" x2="286.7" y2="194.3"/>
    </g>
  </g>
  <g id="EU-415-A">
    <g id="LINE-5" data-name="LINE">
      <line class="cls-1" x1="418.7" y1="166.6" x2="456" y2="166.6"/>
    </g>
    <g id="LINE-6" data-name="LINE">
      <line class="cls-1" x1="456" y1="203.8" x2="446.1" y2="207.5"/>
    </g>
  </g>
  <g id="EU-415-C">
    <g id="LINE-7" data-name="LINE">
      <line class="cls-1" x1="374.8" y1="166.4" x2="374.5" y2="208"/>
    </g>
    <g id="LINE-8" data-name="LINE">
      <line class="cls-1" x1="374.5" y1="208" x2="369.8" y2="210"/>
    </g>
    <g id="LINE-9" data-name="LINE">
      <line class="cls-1" x1="347.8" y1="210" x2="337.1" y2="206.3"/>
    </g>
    <g id="LINE-10" data-name="LINE">
      <line class="cls-1" x1="370.7" y1="164.2" x2="374.8" y2="166.4"/>
    </g>
  </g>
  <g id="EU-407-A">
    <g id="LINE-11" data-name="LINE">
      <line class="cls-1" x1="307.5" y1="170.3" x2="286.2" y2="177.8"/>
    </g>
    <g id="LINE-12" data-name="LINE">
      <line class="cls-1" x1="286.2" y1="147.3" x2="268.8" y2="141.6"/>
    </g>
    <g id="LINE-13" data-name="LINE">
      <line class="cls-1" x1="268.8" y1="123.5" x2="287" y2="116.1"/>
    </g>
    <g id="LINE-14" data-name="LINE">
      <line class="cls-1" x1="287" y1="116.1" x2="309.7" y2="116.5"/>
    </g>
    <g id="LINE-15" data-name="LINE">
      <line class="cls-1" x1="309.7" y1="116.5" x2="326" y2="122.2"/>
    </g>
    <g id="LINE-16" data-name="LINE">
      <line class="cls-1" x1="326" y1="122.2" x2="326" y2="140.9"/>
    </g>
    <g id="LINE-17" data-name="LINE">
      <line class="cls-1" x1="326" y1="140.9" x2="307.5" y2="146.7"/>
    </g>
    <g id="LINE-18" data-name="LINE">
      <line class="cls-1" x1="307.5" y1="146.7" x2="307.5" y2="170.3"/>
    </g>
  </g>
  <g id="EU-407-B">
    <g id="LINE-19" data-name="LINE">
      <line class="cls-1" x1="204.5" y1="161" x2="204.5" y2="79.5"/>
    </g>
    <g id="LINE-20" data-name="LINE">
      <line class="cls-1" x1="204.5" y1="79.5" x2="267.8" y2="101.8"/>
    </g>
    <g id="LINE-21" data-name="LINE">
      <line class="cls-1" x1="267.8" y1="142.6" x2="285.1" y2="148.4"/>
    </g>
    <g id="LINE-22" data-name="LINE">
      <line class="cls-1" x1="285.1" y1="178.2" x2="269.3" y2="183.8"/>
    </g>
    <g id="LINE-23" data-name="LINE">
      <line class="cls-1" x1="269.3" y1="183.8" x2="204.5" y2="161"/>
    </g>
  </g>
  <g id="EU-403-B">
    <g id="LINE-24" data-name="LINE">
      <line class="cls-1" x1="7.8" y1="280" x2="18.7" y2="283.9"/>
    </g>
    <g id="LINE-25" data-name="LINE">
      <line class="cls-1" x1="18.7" y1="287.3" x2="11" y2="284.5"/>
    </g>
    <g id="LINE-26" data-name="LINE">
      <line class="cls-1" x1="11" y1="364.9" x2="57" y2="348.7"/>
    </g>
    <g id="LINE-27" data-name="LINE">
      <line class="cls-1" x1="57" y1="302" x2="53.8" y2="300.7"/>
    </g>
  </g>
  <g id="EU-406-D">
    <g id="LINE-28" data-name="LINE">
      <line class="cls-1" x1="22.4" y1="42.5" x2="38.8" y2="36.7"/>
    </g>
    <g id="LINE-29" data-name="LINE">
      <line class="cls-1" x1="38.8" y1="36.7" x2="49.4" y2="36.7"/>
    </g>
    <g id="LINE-30" data-name="LINE">
      <line class="cls-1" x1="24.7" y1="97.1" x2="22.4" y2="96.3"/>
    </g>
  </g>
  <g id="EU-406-B">
    <g id="LINE-31" data-name="LINE">
      <line class="cls-1" x1="51.1" y1="102.7" x2="63.6" y2="108.3"/>
    </g>
    <g id="LINE-32" data-name="LINE">
      <line class="cls-1" x1="63.6" y1="108.3" x2="79.3" y2="107.7"/>
    </g>
    <g id="LINE-33" data-name="LINE">
      <line class="cls-1" x1="79.3" y1="107.7" x2="87.2" y2="105.1"/>
    </g>
  </g>
  <g id="EU-406-C">
    <g id="LINE-34" data-name="LINE">
      <line class="cls-1" x1="87.2" y1="35.1" x2="77.5" y2="31.7"/>
    </g>
    <g id="LINE-35" data-name="LINE">
      <line class="cls-1" x1="61.6" y1="31.7" x2="51.1" y2="36.7"/>
    </g>
  </g>
  <g id="EU-406-A">
    <g id="LINE-36" data-name="LINE">
      <line class="cls-1" x1="123.9" y1="91.7" x2="88.9" y2="104.5"/>
    </g>
  </g>
  <g id="EU-405">
    <g id="LINE-37" data-name="LINE">
      <line class="cls-1" x1="78.1" y1="120.9" x2="126.4" y2="137.9"/>
    </g>
    <g id="LINE-38" data-name="LINE">
      <line class="cls-1" x1="126.4" y1="236.2" x2="78.1" y2="253.2"/>
    </g>
  </g>
  <g id="EU-407-D">
    <g id="LINE-39" data-name="LINE">
      <line class="cls-1" x1="134.5" y1="94.2" x2="146.8" y2="59.2"/>
    </g>
    <g id="LINE-40" data-name="LINE">
      <line class="cls-1" x1="146.8" y1="59.2" x2="204.5" y2="79.5"/>
    </g>
    <g id="LINE-41" data-name="LINE">
      <line class="cls-1" x1="197.4" y1="116.6" x2="134.5" y2="94.2"/>
    </g>
    <g id="LINE-42" data-name="LINE">
      <line class="cls-1" x1="204.5" y1="79.5" x2="204.5" y2="96.7"/>
    </g>
    <g id="LINE-43" data-name="LINE">
      <line class="cls-1" x1="204.5" y1="96.7" x2="197.4" y2="116.6"/>
    </g>
  </g>
  <g id="EU-407-C">
    <g id="LINE-44" data-name="LINE">
      <line class="cls-1" x1="134.4" y1="110" x2="138.7" y2="97.2"/>
    </g>
    <g id="LINE-45" data-name="LINE">
      <line class="cls-1" x1="138.7" y1="97.2" x2="203.9" y2="120.6"/>
    </g>
    <g id="LINE-46" data-name="LINE">
      <line class="cls-1" x1="203.9" y1="120.6" x2="191.2" y2="156.3"/>
    </g>
    <g id="LINE-47" data-name="LINE">
      <line class="cls-1" x1="191.2" y1="156.3" x2="132.6" y2="135.7"/>
    </g>
    <g id="LINE-48" data-name="LINE">
      <line class="cls-1" x1="132.6" y1="124.7" x2="134.4" y2="110"/>
    </g>
  </g>
  <g id="EUPLAN">
    <g id="LINE-49" data-name="LINE">
      <line class="cls-2" x1="22.4" y1="96.3" x2="24.7" y2="97.1"/>
    </g>
    <g id="LINE-50" data-name="LINE">
      <line class="cls-2" x1="326" y1="140.9" x2="307.5" y2="146.7"/>
    </g>
    <g id="LINE-51" data-name="LINE">
      <line class="cls-2" x1="307.5" y1="170.3" x2="330.8" y2="178.7"/>
    </g>
    <g id="LINE-52" data-name="LINE">
      <line class="cls-2" x1="307.5" y1="170.3" x2="337.1" y2="159.9"/>
    </g>
    <g id="LINE-53" data-name="LINE">
      <line class="cls-2" x1="340.9" y1="147.6" x2="340.9" y2="149.4"/>
    </g>
    <g id="LINE-54" data-name="LINE">
      <line class="cls-2" x1="340.9" y1="149.4" x2="345.2" y2="147.6"/>
    </g>
    <g id="LINE-55" data-name="LINE">
      <line class="cls-2" x1="345.2" y1="147.6" x2="345.2" y2="162.7"/>
    </g>
    <g id="LINE-56" data-name="LINE">
      <line class="cls-2" x1="345.2" y1="162.7" x2="342.8" y2="162.7"/>
    </g>
    <g id="LINE-57" data-name="LINE">
      <line class="cls-2" x1="342.8" y1="162.7" x2="342.8" y2="164.2"/>
    </g>
    <g id="LINE-58" data-name="LINE">
      <line class="cls-2" x1="342.8" y1="164.2" x2="370.7" y2="164.2"/>
    </g>
    <g id="LINE-59" data-name="LINE">
      <line class="cls-2" x1="370.7" y1="164.2" x2="374.8" y2="166.4"/>
    </g>
    <g id="LINE-60" data-name="LINE">
      <line class="cls-2" x1="374.8" y1="166.4" x2="374.8" y2="171.7"/>
    </g>
    <g id="LINE-61" data-name="LINE">
      <line class="cls-2" x1="374.8" y1="171.7" x2="376" y2="171.7"/>
    </g>
    <g id="LINE-62" data-name="LINE">
      <line class="cls-2" x1="376" y1="171.7" x2="376" y2="152"/>
    </g>
    <g id="LINE-63" data-name="LINE">
      <line class="cls-2" x1="376" y1="152" x2="417.3" y2="152"/>
    </g>
    <g id="LINE-64" data-name="LINE">
      <line class="cls-2" x1="417.3" y1="152" x2="417.3" y2="166.6"/>
    </g>
    <g id="LINE-65" data-name="LINE">
      <line class="cls-2" x1="417.3" y1="166.6" x2="456" y2="166.6"/>
    </g>
    <g id="LINE-66" data-name="LINE">
      <line class="cls-2" x1="456" y1="178.5" x2="463.6" y2="181"/>
    </g>
    <g id="LINE-67" data-name="LINE">
      <line class="cls-2" x1="20.6" y1="65.9" x2="20.6" y2="97.5"/>
    </g>
    <g id="LINE-68" data-name="LINE">
      <line class="cls-2" x1="37.4" y1="133" x2="37.4" y2="187.9"/>
    </g>
    <g id="LINE-69" data-name="LINE">
      <line class="cls-2" x1="37.4" y1="187.9" x2="31.5" y2="187.9"/>
    </g>
    <g id="LINE-70" data-name="LINE">
      <line class="cls-2" x1="1.6" y1="64.5" x2="10.2" y2="64.5"/>
    </g>
    <g id="LINE-71" data-name="LINE">
      <line class="cls-2" x1="11" y1="284.5" x2="11" y2="364.9"/>
    </g>
    <g id="LINE-72" data-name="LINE">
      <line class="cls-2" x1="69.6" y1="117.9" x2="72.3" y2="118.9"/>
    </g>
    <g id="LINE-73" data-name="LINE">
      <line class="cls-2" x1="127.2" y1="138.2" x2="127.2" y2="235.9"/>
    </g>
    <g id="LINE-74" data-name="LINE">
      <line class="cls-2" x1="78.1" y1="163.9" x2="78.1" y2="253.2"/>
    </g>
    <g id="LINE-75" data-name="LINE">
      <line class="cls-2" x1="57.7" y1="347.4" x2="67.6" y2="347.4"/>
    </g>
    <g id="LINE-76" data-name="LINE">
      <line class="cls-2" x1="11" y1="364.9" x2="57" y2="348.7"/>
    </g>
    <g id="LINE-77" data-name="LINE">
      <line class="cls-2" x1="37.4" y1="108.3" x2="37.4" y2="123.1"/>
    </g>
    <g id="LINE-78" data-name="LINE">
      <line class="cls-2" x1="93" y1="107" x2="87.6" y2="108.8"/>
    </g>
    <g id="LINE-79" data-name="LINE">
      <line class="cls-2" x1="88.9" y1="64.5" x2="88.9" y2="64.5"/>
    </g>
    <g id="LINE-80" data-name="LINE">
      <line class="cls-2" x1="93" y1="107" x2="93" y2="103.1"/>
    </g>
    <g id="LINE-81" data-name="LINE">
      <line class="cls-2" x1="42.3" y1="108.3" x2="42.3" y2="103.3"/>
    </g>
    <g id="LINE-82" data-name="LINE">
      <line class="cls-2" x1="286.2" y1="189.7" x2="314.5" y2="199.7"/>
    </g>
    <g id="LINE-83" data-name="LINE">
      <line class="cls-2" x1="176.2" y1="412.7" x2="329.5" y2="358.8"/>
    </g>
    <g id="LINE-84" data-name="LINE">
      <line class="cls-2" x1="330.8" y1="178.7" x2="335.4" y2="177.3"/>
    </g>
    <g id="LINE-85" data-name="LINE">
      <line class="cls-2" x1="335.4" y1="177.3" x2="335.4" y2="180.4"/>
    </g>
    <g id="LINE-86" data-name="LINE">
      <line class="cls-2" x1="11" y1="284.5" x2="18.7" y2="287.3"/>
    </g>
    <g id="LINE-87" data-name="LINE">
      <line class="cls-2" x1="51.1" y1="36.7" x2="51.1" y2="87.9"/>
    </g>
    <g id="LINE-88" data-name="LINE">
      <line class="cls-2" x1="51.1" y1="87.9" x2="49.4" y2="87.9"/>
    </g>
    <g id="LINE-89" data-name="LINE">
      <line class="cls-2" x1="49.4" y1="87.9" x2="49.4" y2="36.7"/>
    </g>
    <g id="LINE-90" data-name="LINE">
      <line class="cls-2" x1="87.2" y1="74.5" x2="88.9" y2="74.5"/>
    </g>
    <g id="LINE-91" data-name="LINE">
      <line class="cls-2" x1="72.3" y1="161.3" x2="78.1" y2="163.9"/>
    </g>
    <g id="LINE-92" data-name="LINE">
      <line class="cls-2" x1="335.2" y1="191.9" x2="314.5" y2="199.7"/>
    </g>
    <g id="LINE-93" data-name="LINE">
      <line class="cls-2" x1="24.7" y1="97.1" x2="50.4" y2="97.1"/>
    </g>
    <g id="LINE-94" data-name="LINE">
      <line class="cls-2" x1="50.4" y1="97.1" x2="50.4" y2="98.3"/>
    </g>
    <g id="LINE-95" data-name="LINE">
      <line class="cls-2" x1="50.4" y1="98.3" x2="25.4" y2="98.3"/>
    </g>
    <g id="LINE-96" data-name="LINE">
      <line class="cls-2" x1="267.8" y1="137.7" x2="268.8" y2="137.7"/>
    </g>
    <g id="LINE-97" data-name="LINE">
      <line class="cls-2" x1="337.1" y1="206.3" x2="337.1" y2="191.1"/>
    </g>
    <g id="LINE-98" data-name="LINE">
      <line class="cls-2" x1="37.4" y1="133" x2="39.7" y2="133"/>
    </g>
    <g id="LINE-99" data-name="LINE">
      <line class="cls-2" x1="357.3" y1="312.9" x2="357.3" y2="313.7"/>
    </g>
    <g id="LINE-100" data-name="LINE">
      <line class="cls-2" x1="332.3" y1="118.6" x2="392.3" y2="139.7"/>
    </g>
    <g id="LINE-101" data-name="LINE">
      <line class="cls-2" x1="21.3" y1="42.9" x2="21.3" y2="52"/>
    </g>
    <g id="LINE-102" data-name="LINE">
      <line class="cls-2" x1="21.3" y1="52" x2="22.4" y2="52"/>
    </g>
    <g id="LINE-103" data-name="LINE">
      <line class="cls-2" x1="22.4" y1="52" x2="22.4" y2="42.5"/>
    </g>
    <g id="LINE-104" data-name="LINE">
      <line class="cls-2" x1="358.9" y1="303.2" x2="358.9" y2="306.3"/>
    </g>
    <g id="LINE-105" data-name="LINE">
      <line class="cls-2" x1="335.4" y1="180.4" x2="337.1" y2="181"/>
    </g>
    <g id="LINE-106" data-name="LINE">
      <line class="cls-2" x1="347.8" y1="210" x2="337.1" y2="206.3"/>
    </g>
    <g id="LINE-107" data-name="LINE">
      <line class="cls-2" x1="175.5" y1="403" x2="175.5" y2="413.8"/>
    </g>
    <g id="LINE-108" data-name="LINE">
      <line class="cls-2" x1="267.8" y1="137.7" x2="267.8" y2="142.6"/>
    </g>
    <g id="LINE-109" data-name="LINE">
      <line class="cls-2" x1="133.6" y1="417.8" x2="175.5" y2="403"/>
    </g>
    <g id="LINE-110" data-name="LINE">
      <line class="cls-2" x1="353.5" y1="296.8" x2="374.5" y2="288.8"/>
    </g>
    <g id="LINE-111" data-name="LINE">
      <line class="cls-2" x1="374.5" y1="288.8" x2="374.5" y2="300"/>
    </g>
    <g id="LINE-112" data-name="LINE">
      <line class="cls-2" x1="397.4" y1="280" x2="397.4" y2="298.8"/>
    </g>
    <g id="LINE-113" data-name="LINE">
      <line class="cls-2" x1="312.3" y1="203.3" x2="312.3" y2="325.7"/>
    </g>
    <g id="LINE-114" data-name="LINE">
      <line class="cls-2" x1="204.5" y1="161" x2="269.3" y2="183.8"/>
    </g>
    <g id="LINE-115" data-name="LINE">
      <line class="cls-2" x1="132.6" y1="135.7" x2="191.2" y2="156.3"/>
    </g>
    <g id="LINE-116" data-name="LINE">
      <line class="cls-2" x1="314.2" y1="344.4" x2="312.3" y2="348.5"/>
    </g>
    <g id="LINE-117" data-name="LINE">
      <line class="cls-2" x1="17.3" y1="64.5" x2="17.3" y2="65.9"/>
    </g>
    <g id="LINE-118" data-name="LINE">
      <line class="cls-2" x1="17.3" y1="65.9" x2="20.6" y2="65.9"/>
    </g>
    <g id="LINE-119" data-name="LINE">
      <line class="cls-2" x1="131.7" y1="139.8" x2="131.7" y2="234.3"/>
    </g>
    <g id="LINE-120" data-name="LINE">
      <line class="cls-2" x1="25.4" y1="102.4" x2="25.4" y2="98.3"/>
    </g>
    <g id="LINE-121" data-name="LINE">
      <line class="cls-2" x1="57" y1="319.6" x2="57.7" y2="319.6"/>
    </g>
    <g id="LINE-122" data-name="LINE">
      <line class="cls-2" x1="18.7" y1="283.9" x2="18.7" y2="287.3"/>
    </g>
    <g id="LINE-123" data-name="LINE">
      <line class="cls-2" x1="268.8" y1="137.7" x2="268.8" y2="141.6"/>
    </g>
    <g id="LINE-124" data-name="LINE">
      <line class="cls-2" x1="67.6" y1="313.5" x2="77.1" y2="316.9"/>
    </g>
    <g id="LINE-125" data-name="LINE">
      <line class="cls-2" x1="77.1" y1="316.9" x2="77.1" y2="311.9"/>
    </g>
    <g id="LINE-126" data-name="LINE">
      <line class="cls-2" x1="77.1" y1="311.9" x2="87.2" y2="310"/>
    </g>
    <g id="LINE-127" data-name="LINE">
      <line class="cls-2" x1="330.9" y1="322.1" x2="357.3" y2="312.9"/>
    </g>
    <g id="LINE-128" data-name="LINE">
      <line class="cls-2" x1="463.6" y1="181" x2="483.8" y2="173.4"/>
    </g>
    <g id="LINE-129" data-name="LINE">
      <line class="cls-2" x1="483.8" y1="173.4" x2="501.5" y2="181"/>
    </g>
    <g id="LINE-130" data-name="LINE">
      <line class="cls-2" x1="501.5" y1="191.1" x2="483.8" y2="198.7"/>
    </g>
    <g id="LINE-131" data-name="LINE">
      <line class="cls-2" x1="358.4" y1="303.4" x2="358.4" y2="305.7"/>
    </g>
    <g id="LINE-132" data-name="LINE">
      <line class="cls-2" x1="204.5" y1="96.7" x2="197.4" y2="116.6"/>
    </g>
    <g id="LINE-133" data-name="LINE">
      <line class="cls-2" x1="267.8" y1="142.6" x2="285.1" y2="148.4"/>
    </g>
    <g id="LINE-134" data-name="LINE">
      <line class="cls-2" x1="285.1" y1="148.4" x2="285.1" y2="178.2"/>
    </g>
    <g id="LINE-135" data-name="LINE">
      <line class="cls-2" x1="57" y1="331.7" x2="57" y2="348.7"/>
    </g>
    <g id="LINE-136" data-name="LINE">
      <line class="cls-2" x1="309.7" y1="116.5" x2="326" y2="122.2"/>
    </g>
    <g id="LINE-137" data-name="LINE">
      <line class="cls-2" x1="134.5" y1="94.2" x2="146.8" y2="59.2"/>
    </g>
    <g id="LINE-138" data-name="LINE">
      <line class="cls-2" x1="286.4" y1="335.2" x2="314.2" y2="344.4"/>
    </g>
    <g id="LINE-139" data-name="LINE">
      <line class="cls-2" x1="396.3" y1="232.8" x2="528.9" y2="186.2"/>
    </g>
    <g id="LINE-140" data-name="LINE">
      <line class="cls-2" x1="112.1" y1="305.4" x2="112.1" y2="314"/>
    </g>
    <g id="LINE-141" data-name="LINE">
      <line class="cls-2" x1="112.1" y1="314" x2="130.9" y2="314"/>
    </g>
    <g id="LINE-142" data-name="LINE">
      <line class="cls-2" x1="130.9" y1="314" x2="130.9" y2="282.2"/>
    </g>
    <g id="LINE-143" data-name="LINE">
      <line class="cls-2" x1="352.9" y1="297" x2="352.9" y2="308.4"/>
    </g>
    <g id="LINE-144" data-name="LINE">
      <line class="cls-2" x1="368.7" y1="308.9" x2="397.4" y2="298.8"/>
    </g>
    <g id="LINE-145" data-name="LINE">
      <line class="cls-2" x1="31.5" y1="189.9" x2="72.3" y2="189.9"/>
    </g>
    <g id="LINE-146" data-name="LINE">
      <line class="cls-2" x1="196.9" y1="117.9" x2="196.9" y2="118"/>
    </g>
    <g id="LINE-147" data-name="LINE">
      <line class="cls-2" x1="88.8" y1="337.5" x2="112" y2="329.4"/>
    </g>
    <g id="LINE-148" data-name="LINE">
      <line class="cls-2" x1="142.9" y1="284.7" x2="142.9" y2="252.9"/>
    </g>
    <g id="LINE-149" data-name="LINE">
      <line class="cls-2" x1="6.5" y1="95.7" x2="6.5" y2="108.3"/>
    </g>
    <g id="LINE-150" data-name="LINE">
      <line class="cls-2" x1="12.8" y1="187.9" x2="6.5" y2="187.9"/>
    </g>
    <g id="LINE-151" data-name="LINE">
      <line class="cls-2" x1="1.6" y1="49.8" x2="21.3" y2="42.9"/>
    </g>
    <g id="LINE-152" data-name="LINE">
      <line class="cls-2" x1="483.8" y1="198.7" x2="463.6" y2="191.1"/>
    </g>
    <g id="LINE-153" data-name="LINE">
      <line class="cls-2" x1="375.4" y1="307.3" x2="375.4" y2="333.8"/>
    </g>
    <g id="LINE-154" data-name="LINE">
      <line class="cls-2" x1="176.2" y1="402.8" x2="176.2" y2="412.7"/>
    </g>
    <g id="LINE-155" data-name="LINE">
      <line class="cls-2" x1="353.5" y1="307.4" x2="358.4" y2="305.7"/>
    </g>
    <g id="LINE-156" data-name="LINE">
      <line class="cls-2" x1="368.8" y1="302.1" x2="374.5" y2="300"/>
    </g>
    <g id="LINE-157" data-name="LINE">
      <line class="cls-2" x1="204.5" y1="161" x2="204.5" y2="96.7"/>
    </g>
    <g id="LINE-158" data-name="LINE">
      <line class="cls-2" x1="57.7" y1="331.7" x2="57.7" y2="347.4"/>
    </g>
    <g id="LINE-159" data-name="LINE">
      <line class="cls-2" x1="329.5" y1="349.9" x2="375.4" y2="333.8"/>
    </g>
    <g id="LINE-160" data-name="LINE">
      <line class="cls-2" x1="368.7" y1="308.9" x2="368.7" y2="309.7"/>
    </g>
    <g id="LINE-161" data-name="LINE">
      <line class="cls-2" x1="72" y1="302.5" x2="72" y2="299"/>
    </g>
    <g id="LINE-162" data-name="LINE">
      <line class="cls-2" x1="72" y1="299" x2="78" y2="296.6"/>
    </g>
    <g id="LINE-163" data-name="LINE">
      <line class="cls-2" x1="78" y1="296.6" x2="87.4" y2="301.3"/>
    </g>
    <g id="LINE-164" data-name="LINE">
      <line class="cls-2" x1="87.4" y1="301.3" x2="87.4" y2="308.4"/>
    </g>
    <g id="LINE-165" data-name="LINE">
      <line class="cls-2" x1="353.5" y1="296.8" x2="353.5" y2="307.4"/>
    </g>
    <g id="LINE-166" data-name="LINE">
      <line class="cls-2" x1="375" y1="288.6" x2="375" y2="300.7"/>
    </g>
    <g id="LINE-167" data-name="LINE">
      <line class="cls-2" x1="176.2" y1="402.8" x2="194.4" y2="396.4"/>
    </g>
    <g id="LINE-168" data-name="LINE">
      <line class="cls-2" x1="286.7" y1="194.3" x2="286.7" y2="321.1"/>
    </g>
    <g id="LINE-169" data-name="LINE">
      <line class="cls-2" x1="461.3" y1="255.7" x2="592.5" y2="209.5"/>
    </g>
    <g id="LINE-170" data-name="LINE">
      <line class="cls-2" x1="368.3" y1="303" x2="375" y2="300.7"/>
    </g>
    <g id="LINE-171" data-name="LINE">
      <line class="cls-2" x1="175.5" y1="413.8" x2="329.5" y2="359.6"/>
    </g>
    <g id="LINE-172" data-name="LINE">
      <line class="cls-2" x1="158.8" y1="383.5" x2="284.6" y2="339.2"/>
    </g>
    <g id="LINE-173" data-name="LINE">
      <line class="cls-2" x1="126.4" y1="137.9" x2="126.4" y2="236.2"/>
    </g>
    <g id="LINE-174" data-name="LINE">
      <line class="cls-2" x1="72.3" y1="118.9" x2="72.3" y2="146.8"/>
    </g>
    <g id="LINE-175" data-name="LINE">
      <line class="cls-2" x1="21.3" y1="60.5" x2="22.4" y2="60.5"/>
    </g>
    <g id="LINE-176" data-name="LINE">
      <line class="cls-2" x1="110.8" y1="132.4" x2="132.6" y2="124.7"/>
    </g>
    <g id="LINE-177" data-name="LINE">
      <line class="cls-2" x1="39.7" y1="117.9" x2="39.7" y2="123.1"/>
    </g>
    <g id="LINE-178" data-name="LINE">
      <line class="cls-2" x1="329.5" y1="358.8" x2="329.5" y2="349.9"/>
    </g>
    <g id="LINE-179" data-name="LINE">
      <line class="cls-2" x1="39.7" y1="187.9" x2="72.3" y2="187.9"/>
    </g>
    <g id="LINE-180" data-name="LINE">
      <line class="cls-2" x1="39.7" y1="117.9" x2="69.6" y2="117.9"/>
    </g>
    <g id="LINE-181" data-name="LINE">
      <line class="cls-2" x1="329.3" y1="139.8" x2="327" y2="139.8"/>
    </g>
    <g id="LINE-182" data-name="LINE">
      <line class="cls-2" x1="327" y1="139.8" x2="327" y2="121.6"/>
    </g>
    <g id="LINE-183" data-name="LINE">
      <line class="cls-2" x1="6.5" y1="95.7" x2="25.4" y2="102.4"/>
    </g>
    <g id="LINE-184" data-name="LINE">
      <line class="cls-2" x1="370.9" y1="418.7" x2="394" y2="410.6"/>
    </g>
    <g id="LINE-185" data-name="LINE">
      <line class="cls-2" x1="12.8" y1="187.9" x2="12.8" y2="189.9"/>
    </g>
    <g id="LINE-186" data-name="LINE">
      <line class="cls-2" x1="93" y1="103.1" x2="88.9" y2="104.5"/>
    </g>
    <g id="LINE-187" data-name="LINE">
      <line class="cls-2" x1="78.1" y1="120.9" x2="78.1" y2="144.2"/>
    </g>
    <g id="LINE-188" data-name="LINE">
      <line class="cls-2" x1="327" y1="121.6" x2="332.3" y2="118.6"/>
    </g>
    <g id="LINE-189" data-name="LINE">
      <line class="cls-2" x1="110.8" y1="305.4" x2="110.8" y2="316.6"/>
    </g>
    <g id="LINE-190" data-name="LINE">
      <line class="cls-2" x1="281.6" y1="192.5" x2="281.6" y2="318.9"/>
    </g>
    <g id="LINE-191" data-name="LINE">
      <line class="cls-2" x1="368.3" y1="299.9" x2="368.8" y2="299.8"/>
    </g>
    <g id="LINE-192" data-name="LINE">
      <line class="cls-2" x1="112.1" y1="275.6" x2="130.9" y2="282.2"/>
    </g>
    <g id="LINE-193" data-name="LINE">
      <line class="cls-2" x1="110.8" y1="288.3" x2="112.1" y2="288.3"/>
    </g>
    <g id="LINE-194" data-name="LINE">
      <line class="cls-2" x1="31.5" y1="187.9" x2="31.5" y2="189.9"/>
    </g>
    <g id="LINE-195" data-name="LINE">
      <line class="cls-2" x1="87.2" y1="105.1" x2="79.3" y2="107.7"/>
    </g>
    <g id="LINE-196" data-name="LINE">
      <line class="cls-2" x1="78.1" y1="120.9" x2="87.6" y2="124.3"/>
    </g>
    <g id="LINE-197" data-name="LINE">
      <line class="cls-2" x1="127.2" y1="138.2" x2="131.7" y2="139.8"/>
    </g>
    <g id="LINE-198" data-name="LINE">
      <line class="cls-2" x1="87.6" y1="108.8" x2="87.6" y2="124.3"/>
    </g>
    <g id="LINE-199" data-name="LINE">
      <line class="cls-2" x1="1.6" y1="65.9" x2="10.2" y2="65.9"/>
    </g>
    <g id="LINE-200" data-name="LINE">
      <line class="cls-2" x1="10.2" y1="65.9" x2="10.2" y2="64.5"/>
    </g>
    <g id="LINE-201" data-name="LINE">
      <line class="cls-2" x1="1.6" y1="49.8" x2="1.6" y2="64.5"/>
    </g>
    <g id="LINE-202" data-name="LINE">
      <line class="cls-2" x1="148.4" y1="254.9" x2="148.5" y2="254.9"/>
    </g>
    <g id="LINE-203" data-name="LINE">
      <line class="cls-2" x1="329.5" y1="418.9" x2="394" y2="396.2"/>
    </g>
    <g id="LINE-204" data-name="LINE">
      <line class="cls-2" x1="329.3" y1="142.3" x2="329.3" y2="139.8"/>
    </g>
    <g id="LINE-205" data-name="LINE">
      <line class="cls-2" x1="394" y1="396.2" x2="394" y2="410.6"/>
    </g>
    <g id="LINE-206" data-name="LINE">
      <line class="cls-2" x1="329.5" y1="359.6" x2="329.5" y2="418.9"/>
    </g>
    <g id="LINE-207" data-name="LINE">
      <line class="cls-2" x1="463.6" y1="191.1" x2="456" y2="193.7"/>
    </g>
    <g id="LINE-208" data-name="LINE">
      <line class="cls-2" x1="72.3" y1="146.8" x2="78.1" y2="144.2"/>
    </g>
    <g id="LINE-209" data-name="LINE">
      <line class="cls-2" x1="37.4" y1="123.1" x2="39.7" y2="123.1"/>
    </g>
    <g id="LINE-210" data-name="LINE">
      <line class="cls-2" x1="127.2" y1="235.9" x2="131.7" y2="234.3"/>
    </g>
    <g id="LINE-211" data-name="LINE">
      <line class="cls-2" x1="42.3" y1="103.3" x2="50.4" y2="106.1"/>
    </g>
    <g id="LINE-212" data-name="LINE">
      <line class="cls-2" x1="21.3" y1="60.5" x2="21.3" y2="64.5"/>
    </g>
    <g id="LINE-213" data-name="LINE">
      <line class="cls-2" x1="57.1" y1="280" x2="57.1" y2="284.2"/>
    </g>
    <g id="LINE-214" data-name="LINE">
      <line class="cls-2" x1="57.1" y1="284.2" x2="53.8" y2="284.2"/>
    </g>
    <g id="LINE-215" data-name="LINE">
      <line class="cls-2" x1="53.8" y1="284.2" x2="53.8" y2="300.7"/>
    </g>
    <g id="LINE-216" data-name="LINE">
      <line class="cls-2" x1="53.8" y1="300.7" x2="57" y2="302"/>
    </g>
    <g id="LINE-217" data-name="LINE">
      <line class="cls-2" x1="57" y1="302" x2="57" y2="319.6"/>
    </g>
    <g id="LINE-218" data-name="LINE">
      <line class="cls-2" x1="39.7" y1="133" x2="39.7" y2="187.9"/>
    </g>
    <g id="LINE-219" data-name="LINE">
      <line class="cls-2" x1="79.3" y1="107.7" x2="63.6" y2="108.3"/>
    </g>
    <g id="LINE-220" data-name="LINE">
      <line class="cls-2" x1="72.3" y1="161.3" x2="72.3" y2="187.9"/>
    </g>
    <g id="LINE-221" data-name="LINE">
      <line class="cls-2" x1="57" y1="331.7" x2="57.7" y2="331.7"/>
    </g>
    <g id="LINE-222" data-name="LINE">
      <line class="cls-2" x1="1.6" y1="65.9" x2="1.6" y2="78.2"/>
    </g>
    <g id="LINE-223" data-name="LINE">
      <line class="cls-2" x1="1.6" y1="78.2" x2="4.6" y2="78.2"/>
    </g>
    <g id="LINE-224" data-name="LINE">
      <line class="cls-2" x1="4.6" y1="78.2" x2="4.6" y2="91.8"/>
    </g>
    <g id="LINE-225" data-name="LINE">
      <line class="cls-2" x1="4.6" y1="91.8" x2="20.6" y2="97.5"/>
    </g>
    <g id="LINE-226" data-name="LINE">
      <line class="cls-2" x1="330.9" y1="305.4" x2="352.9" y2="297"/>
    </g>
    <g id="LINE-227" data-name="LINE">
      <line class="cls-2" x1="32.9" y1="108.3" x2="6.5" y2="108.3"/>
    </g>
    <g id="LINE-228" data-name="LINE">
      <line class="cls-2" x1="484.2" y1="380.3" x2="484.2" y2="410.9"/>
    </g>
    <g id="LINE-229" data-name="LINE">
      <line class="cls-2" x1="268.8" y1="141.6" x2="286.2" y2="147.3"/>
    </g>
    <g id="LINE-230" data-name="LINE">
      <line class="cls-2" x1="286.2" y1="147.3" x2="286.2" y2="177.8"/>
    </g>
    <g id="LINE-231" data-name="LINE">
      <line class="cls-2" x1="286.2" y1="177.8" x2="286.2" y2="189.7"/>
    </g>
    <g id="LINE-232" data-name="LINE">
      <line class="cls-2" x1="326" y1="122.2" x2="326" y2="140.9"/>
    </g>
    <g id="LINE-233" data-name="LINE">
      <line class="cls-2" x1="310.3" y1="148.3" x2="329.3" y2="142.3"/>
    </g>
    <g id="LINE-234" data-name="LINE">
      <line class="cls-2" x1="456" y1="193.7" x2="456" y2="203.8"/>
    </g>
    <g id="LINE-235" data-name="LINE">
      <line class="cls-2" x1="368.3" y1="299.9" x2="368.3" y2="303"/>
    </g>
    <g id="LINE-236" data-name="LINE">
      <line class="cls-2" x1="284.6" y1="339.2" x2="312.3" y2="348.5"/>
    </g>
    <g id="LINE-237" data-name="LINE">
      <line class="cls-2" x1="67.6" y1="334.3" x2="67.6" y2="347.4"/>
    </g>
    <g id="LINE-238" data-name="LINE">
      <line class="cls-2" x1="329.3" y1="139.8" x2="329.3" y2="139.8"/>
    </g>
    <g id="LINE-239" data-name="LINE">
      <line class="cls-2" x1="352.9" y1="308.4" x2="358.9" y2="306.3"/>
    </g>
    <g id="LINE-240" data-name="LINE">
      <line class="cls-2" x1="368.8" y1="299.8" x2="368.8" y2="302.1"/>
    </g>
    <g id="LINE-241" data-name="LINE">
      <line class="cls-2" x1=".4" y1="417.8" x2="133.6" y2="417.8"/>
    </g>
    <g id="LINE-242" data-name="LINE">
      <line class="cls-2" x1="26.9" y1="40.9" x2="26.9" y2="30.9"/>
    </g>
    <g id="LINE-243" data-name="LINE">
      <line class="cls-2" x1="506.6" y1="418.8" x2="484.2" y2="410.9"/>
    </g>
    <g id="LINE-244" data-name="LINE">
      <line class="cls-2" x1="17.3" y1="64.5" x2="21.3" y2="64.5"/>
    </g>
    <g id="LINE-245" data-name="LINE">
      <line class="cls-2" x1="132.6" y1="124.7" x2="132.6" y2="135.7"/>
    </g>
    <g id="LINE-246" data-name="LINE">
      <line class="cls-2" x1="57.8" y1="279.1" x2="57.8" y2="284.9"/>
    </g>
    <g id="LINE-247" data-name="LINE">
      <line class="cls-2" x1="57.8" y1="284.9" x2="54.6" y2="284.9"/>
    </g>
    <g id="LINE-248" data-name="LINE">
      <line class="cls-2" x1="54.6" y1="284.9" x2="54.6" y2="300.2"/>
    </g>
    <g id="LINE-249" data-name="LINE">
      <line class="cls-2" x1="54.6" y1="300.2" x2="57.7" y2="301.4"/>
    </g>
    <g id="LINE-250" data-name="LINE">
      <line class="cls-2" x1="57.7" y1="301.4" x2="57.7" y2="319.3"/>
    </g>
    <g id="LINE-251" data-name="LINE">
      <line class="cls-2" x1="57.7" y1="319.3" x2="57.7" y2="319.6"/>
    </g>
    <g id="LINE-252" data-name="LINE">
      <line class="cls-2" x1="1.6" y1="233" x2="1.6" y2="233"/>
    </g>
    <g id="LINE-253" data-name="LINE">
      <line class="cls-2" x1="7.8" y1="280" x2="18.7" y2="283.9"/>
    </g>
    <g id="LINE-254" data-name="LINE">
      <line class="cls-2" x1="3.4" y1="19.2" x2="21.1" y2="11.6"/>
    </g>
    <g id="LINE-255" data-name="LINE">
      <line class="cls-2" x1="21.1" y1="11.6" x2="41.3" y2="19.2"/>
    </g>
    <g id="LINE-256" data-name="LINE">
      <line class="cls-2" x1="41.3" y1="19.2" x2="41.3" y2="29.3"/>
    </g>
    <g id="LINE-257" data-name="LINE">
      <line class="cls-2" x1="41.3" y1="29.3" x2="38.8" y2="29.3"/>
    </g>
    <g id="LINE-258" data-name="LINE">
      <line class="cls-2" x1="38.8" y1="29.3" x2="38.8" y2="36.7"/>
    </g>
    <g id="LINE-259" data-name="LINE">
      <line class="cls-2" x1="67.6" y1="301.4" x2="70" y2="302.5"/>
    </g>
    <g id="LINE-260" data-name="LINE">
      <line class="cls-2" x1="70" y1="302.5" x2="72" y2="302.5"/>
    </g>
    <g id="LINE-261" data-name="LINE">
      <line class="cls-2" x1="38.8" y1="36.7" x2="49.4" y2="36.7"/>
    </g>
    <g id="LINE-262" data-name="LINE">
      <line class="cls-2" x1="87.2" y1="105.1" x2="87.2" y2="74.5"/>
    </g>
    <g id="LINE-263" data-name="LINE">
      <line class="cls-2" x1="87.2" y1="64.5" x2="87.2" y2="64.5"/>
    </g>
    <g id="LINE-264" data-name="LINE">
      <line class="cls-2" x1="42.3" y1="108.3" x2="37.4" y2="108.3"/>
    </g>
    <g id="LINE-265" data-name="LINE">
      <line class="cls-2" x1="310.3" y1="163" x2="310.3" y2="148.3"/>
    </g>
    <g id="LINE-266" data-name="LINE">
      <line class="cls-2" x1="269.3" y1="183.8" x2="285.1" y2="178.2"/>
    </g>
    <g id="LINE-267" data-name="LINE">
      <line class="cls-2" x1="337.1" y1="168.4" x2="337.1" y2="159.9"/>
    </g>
    <g id="LINE-268" data-name="LINE">
      <line class="cls-2" x1="6.5" y1="189.9" x2="6.5" y2="279.1"/>
    </g>
    <g id="LINE-269" data-name="LINE">
      <line class="cls-2" x1="112.1" y1="275.6" x2="112.1" y2="288.3"/>
    </g>
    <g id="LINE-270" data-name="LINE">
      <line class="cls-2" x1="110.8" y1="273.4" x2="110.8" y2="288.3"/>
    </g>
    <g id="LINE-271" data-name="LINE">
      <line class="cls-2" x1="87.2" y1="310" x2="111.7" y2="318.6"/>
    </g>
    <g id="LINE-272" data-name="LINE">
      <line class="cls-2" x1="3.4" y1="19.2" x2="3.4" y2="29.2"/>
    </g>
    <g id="LINE-273" data-name="LINE">
      <line class="cls-2" x1="3.4" y1="29.2" x2="22.4" y2="35.7"/>
    </g>
    <g id="LINE-274" data-name="LINE">
      <line class="cls-2" x1="22.4" y1="35.7" x2="26.9" y2="30.9"/>
    </g>
    <g id="LINE-275" data-name="LINE">
      <line class="cls-2" x1="307.5" y1="164.5" x2="310.3" y2="163"/>
    </g>
    <g id="LINE-276" data-name="LINE">
      <line class="cls-2" x1=".4" y1=".4" x2="528.9" y2="186.2"/>
    </g>
    <g id="LINE-277" data-name="LINE">
      <line class="cls-2" x1="22.4" y1="42.5" x2="26.9" y2="40.9"/>
    </g>
    <g id="LINE-278" data-name="LINE">
      <line class="cls-2" x1="368.7" y1="309.7" x2="375.4" y2="307.3"/>
    </g>
    <g id="LINE-279" data-name="LINE">
      <line class="cls-2" x1="66.4" y1="279.1" x2="66.4" y2="280.5"/>
    </g>
    <g id="LINE-280" data-name="LINE">
      <line class="cls-2" x1="66.4" y1="280.5" x2="76.9" y2="285.1"/>
    </g>
    <g id="LINE-281" data-name="LINE">
      <line class="cls-2" x1="76.9" y1="285.1" x2="89" y2="280.3"/>
    </g>
    <g id="LINE-282" data-name="LINE">
      <line class="cls-2" x1="89" y1="280.3" x2="89" y2="249.4"/>
    </g>
    <g id="LINE-283" data-name="LINE">
      <line class="cls-2" x1="340.9" y1="147.6" x2="346.9" y2="145.2"/>
    </g>
    <g id="LINE-284" data-name="LINE">
      <line class="cls-2" x1="346.9" y1="145.2" x2="346.9" y2="158.4"/>
    </g>
    <g id="LINE-285" data-name="LINE">
      <line class="cls-2" x1="346.9" y1="158.4" x2="392.3" y2="142.8"/>
    </g>
    <g id="LINE-286" data-name="LINE">
      <line class="cls-2" x1="392.3" y1="142.8" x2="392.3" y2="139.7"/>
    </g>
    <g id="LINE-287" data-name="LINE">
      <line class="cls-2" x1="307.5" y1="146.7" x2="307.5" y2="164.5"/>
    </g>
    <g id="LINE-288" data-name="LINE">
      <line class="cls-2" x1="22.4" y1="60.5" x2="22.4" y2="96.3"/>
    </g>
    <g id="LINE-289" data-name="LINE">
      <line class="cls-2" x1="78.1" y1="253.2" x2="89" y2="249.4"/>
    </g>
    <g id="LINE-290" data-name="LINE">
      <line class="cls-2" x1="347.8" y1="210" x2="369.8" y2="210"/>
    </g>
    <g id="LINE-291" data-name="LINE">
      <line class="cls-2" x1="369.8" y1="210" x2="374.5" y2="208"/>
    </g>
    <g id="LINE-292" data-name="LINE">
      <line class="cls-2" x1="374.5" y1="208" x2="374.5" y2="202.1"/>
    </g>
    <g id="LINE-293" data-name="LINE">
      <line class="cls-2" x1="374.5" y1="202.1" x2="376.1" y2="202.1"/>
    </g>
    <g id="LINE-294" data-name="LINE">
      <line class="cls-2" x1="376.1" y1="202.1" x2="376.1" y2="221.3"/>
    </g>
    <g id="LINE-295" data-name="LINE">
      <line class="cls-2" x1="376.1" y1="221.3" x2="417.3" y2="221.3"/>
    </g>
    <g id="LINE-296" data-name="LINE">
      <line class="cls-2" x1="417.3" y1="221.3" x2="417.3" y2="207.5"/>
    </g>
    <g id="LINE-297" data-name="LINE">
      <line class="cls-2" x1="417.3" y1="207.5" x2="446.1" y2="207.5"/>
    </g>
    <g id="LINE-298" data-name="LINE">
      <line class="cls-2" x1="110.8" y1="132.4" x2="126.4" y2="137.9"/>
    </g>
    <g id="LINE-299" data-name="LINE">
      <line class="cls-2" x1="146.8" y1="59.2" x2="267.8" y2="101.8"/>
    </g>
    <g id="LINE-300" data-name="LINE">
      <line class="cls-2" x1="132.6" y1="284.1" x2="132.6" y2="281.1"/>
    </g>
    <g id="LINE-301" data-name="LINE">
      <line class="cls-2" x1="72.3" y1="189.9" x2="72.3" y2="279.1"/>
    </g>
    <g id="LINE-302" data-name="LINE">
      <line class="cls-2" x1="72.3" y1="279.1" x2="66.4" y2="279.1"/>
    </g>
    <g id="LINE-303" data-name="LINE">
      <line class="cls-2" x1="87.4" y1="308.4" x2="110.8" y2="316.6"/>
    </g>
    <g id="LINE-304" data-name="LINE">
      <line class="cls-2" x1="6.5" y1="110.2" x2="6.5" y2="187.9"/>
    </g>
    <g id="LINE-305" data-name="LINE">
      <line class="cls-2" x1="57.1" y1="280" x2="7.8" y2="280"/>
    </g>
    <g id="LINE-306" data-name="LINE">
      <line class="cls-2" x1="111.7" y1="318.6" x2="112" y2="329.4"/>
    </g>
    <g id="LINE-307" data-name="LINE">
      <line class="cls-2" x1="112.1" y1="305.4" x2="110.8" y2="305.4"/>
    </g>
    <g id="LINE-308" data-name="LINE">
      <line class="cls-2" x1="6.5" y1="110.2" x2="32.9" y2="110.2"/>
    </g>
    <g id="LINE-309" data-name="LINE">
      <line class="cls-2" x1="32.9" y1="110.2" x2="32.9" y2="108.3"/>
    </g>
    <g id="LINE-310" data-name="LINE">
      <line class="cls-2" x1="337.1" y1="191.1" x2="337.1" y2="189.7"/>
    </g>
    <g id="LINE-311" data-name="LINE">
      <line class="cls-2" x1="337.1" y1="189.7" x2="335.2" y2="189.7"/>
    </g>
    <g id="LINE-312" data-name="LINE">
      <line class="cls-2" x1="335.2" y1="189.7" x2="335.2" y2="191.9"/>
    </g>
    <g id="LINE-313" data-name="LINE">
      <line class="cls-2" x1="358.4" y1="303.4" x2="358.9" y2="303.2"/>
    </g>
    <g id="LINE-314" data-name="LINE">
      <line class="cls-2" x1="57.8" y1="279.1" x2="6.5" y2="279.1"/>
    </g>
    <g id="LINE-315" data-name="LINE">
      <line class="cls-2" x1="88.9" y1="104.5" x2="88.9" y2="74.5"/>
    </g>
    <g id="LINE-316" data-name="LINE">
      <line class="cls-2" x1="67.6" y1="301.4" x2="67.6" y2="313.5"/>
    </g>
    <g id="LINE-317" data-name="LINE">
      <line class="cls-2" x1="394" y1="417.8" x2="394" y2="418.7"/>
    </g>
    <g id="LINE-318" data-name="LINE">
      <line class="cls-2" x1="6.5" y1="189.9" x2="12.8" y2="189.9"/>
    </g>
    <g id="LINE-319" data-name="LINE">
      <line class="cls-2" x1="50.4" y1="106.1" x2="50.4" y2="102.5"/>
    </g>
    <g id="LINE-320" data-name="LINE">
      <line class="cls-2" x1="50.4" y1="102.5" x2="63.6" y2="108.3"/>
    </g>
    <g id="LINE-321" data-name="LINE">
      <line class="cls-2" x1="197.4" y1="116.6" x2="134.5" y2="94.2"/>
    </g>
    <g id="LINE-322" data-name="LINE">
      <line class="cls-2" x1="267.8" y1="101.8" x2="267.8" y2="126.5"/>
    </g>
    <g id="LINE-323" data-name="LINE">
      <line class="cls-2" x1="267.8" y1="126.5" x2="268.8" y2="126.5"/>
    </g>
    <g id="LINE-324" data-name="LINE">
      <line class="cls-2" x1="268.8" y1="126.5" x2="268.8" y2="123.5"/>
    </g>
    <g id="LINE-325" data-name="LINE">
      <line class="cls-2" x1="268.8" y1="123.5" x2="287" y2="116.1"/>
    </g>
    <g id="LINE-326" data-name="LINE">
      <line class="cls-2" x1="287" y1="116.1" x2="309.7" y2="116.5"/>
    </g>
    <g id="LINE-327" data-name="LINE">
      <line class="cls-2" x1="456" y1="203.8" x2="446.1" y2="207.5"/>
    </g>
    <g id="LINE-328" data-name="LINE">
      <line class="cls-2" x1="337.1" y1="181" x2="337.1" y2="168.4"/>
    </g>
    <g id="LINE-329" data-name="LINE">
      <line class="cls-2" x1="67.6" y1="334.3" x2="80.6" y2="328.1"/>
    </g>
    <g id="LINE-330" data-name="LINE">
      <line class="cls-2" x1="80.6" y1="328.1" x2="80.6" y2="335.9"/>
    </g>
    <g id="LINE-331" data-name="LINE">
      <line class="cls-2" x1="80.6" y1="335.9" x2="88.8" y2="337.5"/>
    </g>
    <g id="LINE-332" data-name="LINE">
      <line class="cls-2" x1="501.5" y1="181" x2="501.5" y2="191.1"/>
    </g>
    <g id="LINE-333" data-name="LINE">
      <line class="cls-2" x1=".4" y1="372" x2="132.6" y2="325.5"/>
    </g>
    <g id="LINE-334" data-name="LINE">
      <line class="cls-2" x1="593.7" y1="418.8" x2="484.2" y2="380.3"/>
    </g>
    <g id="LINE-335" data-name="LINE">
      <line class="cls-2" x1="307.2" y1="327.5" x2="330.9" y2="319.1"/>
    </g>
    <g id="LINE-336" data-name="LINE">
      <line class="cls-2" x1="110.9" y1="241.7" x2="142.9" y2="252.9"/>
    </g>
    <g id="LINE-337" data-name="LINE">
      <line class="cls-2" x1="110.8" y1="273.4" x2="142.9" y2="284.7"/>
    </g>
    <g id="LINE-338" data-name="LINE">
      <line class="cls-2" x1="330.9" y1="305.4" x2="330.9" y2="322.9"/>
    </g>
    <g id="LINE-339" data-name="LINE">
      <line class="cls-2" x1="154" y1="381.7" x2="286.4" y2="335.2"/>
    </g>
    <g id="LINE-340" data-name="LINE">
      <line class="cls-2" x1="506.6" y1="418.8" x2="370.9" y2="418.7"/>
    </g>
    <g id="LINE-341" data-name="LINE">
      <line class="cls-2" x1="592.5" y1="209.5" x2="592.5" y2="418.8"/>
    </g>
    <g id="LINE-342" data-name="LINE">
      <line class="cls-2" x1="132.6" y1="246.8" x2="148.4" y2="252.7"/>
    </g>
    <g id="LINE-343" data-name="LINE">
      <line class="cls-2" x1="148.4" y1="252.7" x2="148.4" y2="289.9"/>
    </g>
    <g id="LINE-344" data-name="LINE">
      <line class="cls-2" x1="148.4" y1="289.9" x2="132.6" y2="284.1"/>
    </g>
    <g id="LINE-345" data-name="LINE">
      <line class="cls-2" x1="132.6" y1="140.1" x2="461.3" y2="255.7"/>
    </g>
    <g id="LINE-346" data-name="LINE">
      <line class="cls-2" x1="307.2" y1="331.3" x2="357.3" y2="313.7"/>
    </g>
    <g id="LINE-347" data-name="LINE">
      <line class="cls-2" x1="213.3" y1="361.3" x2="208.7" y2="348.5"/>
    </g>
    <g id="LINE-348" data-name="LINE">
      <line class="cls-2" x1="154" y1="381.7" x2="197.2" y2="397.4"/>
    </g>
    <g id="LINE-349" data-name="LINE">
      <line class="cls-2" x1="197.9" y1="348.3" x2="197.9" y2="352.4"/>
    </g>
    <g id="LINE-350" data-name="LINE">
      <line class="cls-2" x1="307.2" y1="201.5" x2="307.2" y2="331.3"/>
    </g>
    <g id="LINE-351" data-name="LINE">
      <line class="cls-2" x1=".4" y1=".4" x2=".4" y2="372.1"/>
    </g>
    <g id="LINE-352" data-name="LINE">
      <line class="cls-2" x1="375" y1="288.6" x2="461.3" y2="255.7"/>
    </g>
    <g id="LINE-353" data-name="LINE">
      <line class="cls-2" x1="132.6" y1="140.1" x2="132.6" y2="249.3"/>
    </g>
    <g id="LINE-354" data-name="LINE">
      <line class="cls-2" x1="132.6" y1="284.1" x2="132.6" y2="370.8"/>
    </g>
    <g id="LINE-355" data-name="LINE">
      <line class="cls-2" x1="51.1" y1="36.7" x2="61.6" y2="31.7"/>
    </g>
    <g id="LINE-356" data-name="LINE">
      <line class="cls-2" x1="61.6" y1="31.7" x2="77.5" y2="31.7"/>
    </g>
    <g id="LINE-357" data-name="LINE">
      <line class="cls-2" x1="77.5" y1="31.7" x2="87.2" y2="35.1"/>
    </g>
    <g id="LINE-358" data-name="LINE">
      <line class="cls-2" x1="87.2" y1="35.1" x2="87.2" y2="64.5"/>
    </g>
    <g id="LINE-359" data-name="LINE">
      <line class="cls-2" x1="87.2" y1="64.5" x2="88.9" y2="64.5"/>
    </g>
    <g id="LINE-360" data-name="LINE">
      <line class="cls-2" x1="88.9" y1="64.5" x2="88.9" y2="48.4"/>
    </g>
    <g id="LINE-361" data-name="LINE">
      <line class="cls-2" x1="88.9" y1="48.4" x2="123.9" y2="48.4"/>
    </g>
    <g id="LINE-362" data-name="LINE">
      <line class="cls-2" x1="123.9" y1="48.4" x2="123.9" y2="91.7"/>
    </g>
    <g id="LINE-363" data-name="LINE">
      <line class="cls-2" x1="123.9" y1="91.7" x2="104.6" y2="99.1"/>
    </g>
    <g id="LINE-364" data-name="LINE">
      <line class="cls-2" x1="104.6" y1="99.1" x2="104.6" y2="103"/>
    </g>
    <g id="LINE-365" data-name="LINE">
      <line class="cls-2" x1="104.6" y1="103" x2="120.6" y2="97.2"/>
    </g>
    <g id="LINE-366" data-name="LINE">
      <line class="cls-2" x1="120.6" y1="97.2" x2="134.4" y2="110"/>
    </g>
    <g id="LINE-367" data-name="LINE">
      <line class="cls-2" x1="134.4" y1="110" x2="138.7" y2="97.2"/>
    </g>
    <g id="LINE-368" data-name="LINE">
      <line class="cls-2" x1="138.7" y1="97.2" x2="203.9" y2="120.6"/>
    </g>
    <g id="LINE-369" data-name="LINE">
      <line class="cls-2" x1="203.9" y1="120.6" x2="191.2" y2="156.3"/>
    </g>
    <g id="LINE-370" data-name="LINE">
      <line class="cls-2" x1="110.8" y1="241.7" x2="126.4" y2="236.2"/>
    </g>
    <g id="LINE-371" data-name="LINE">
      <line class="cls-2" x1=".4" y1="417.8" x2="281.6" y2="318.9"/>
    </g>
    <g id="LINE-372" data-name="LINE">
      <line class="cls-2" x1="197.7" y1="352.4" x2="286.7" y2="321.1"/>
    </g>
    <g id="LINE-373" data-name="LINE">
      <line class="cls-2" x1="417.3" y1="198.3" x2="418.7" y2="198.3"/>
    </g>
    <g id="LINE-374" data-name="LINE">
      <line class="cls-2" x1="418.7" y1="198.3" x2="418.7" y2="175.1"/>
    </g>
    <g id="LINE-375" data-name="LINE">
      <line class="cls-2" x1="418.7" y1="175.1" x2="417.3" y2="175.1"/>
    </g>
    <g id="LINE-376" data-name="LINE">
      <line class="cls-2" x1="417.3" y1="175.1" x2="417.3" y2="198.3"/>
    </g>
    <g id="LINE-377" data-name="LINE">
      <line class="cls-2" x1="456" y1="178.5" x2="456" y2="166.6"/>
    </g>
    <rect class="cls-2" x="55.6" y="65.3" width="27.9" height="1.3"/>
  </g>
</svg>