<?xml version="1.0" encoding="utf-8"?>
<!-- Generator: Adobe Illustrator 28.0.0, SVG Export Plug-In . SVG Version: 6.00 Build 0)  -->
<svg version="1.1" xmlns="http://www.w3.org/2000/svg" xmlns:xlink="http://www.w3.org/1999/xlink" x="0px" y="0px"
	 viewBox="0 0 605.4 428.9" style="enable-background:new 0 0 605.4 428.9;" xml:space="preserve">
<style type="text/css">
	.st0{fill:#BCBCBC;}
	.st1{fill:#989898;}
	.st2{fill:none;}
	.st3{fill:none;stroke:#606060;stroke-width:0.7087;stroke-linecap:round;stroke-linejoin:round;stroke-miterlimit:10;}
</style>
<g id="Layer_3">
	<polygon class="st0" points="174.8,427.9 13.3,427.9 1.7,417.4 163.3,417.4 	"/>
	<polygon class="st0" points="134,339.7 13.3,382.2 1.7,371.7 134,325.2 	"/>
	<polygon class="st0" points="605.4,428.9 342.4,428.9 330.9,418.3 594,418.4 	"/>
	<polygon class="st0" points="541.8,196.3 418.5,239.8 397.8,232.5 530.3,185.9 	"/>
	<polygon class="st1" points="330.9,372.9 174.8,427.9 163.3,417.4 330.9,358.4 	"/>
	<polygon class="st1" points="605.4,220.7 605.4,428.9 594,418.4 594,209.2 	"/>
	<polygon class="st0" points="126.3,144.5 12.6,104.5 1.1,93 126.3,137 	"/>
</g>
<g id="ET-606">
	<g id="LINE_00000173142135847209752790000016029036621267057321_">
		<line class="st2" x1="94.1" y1="107.4" x2="113.6" y2="99.8"/>
	</g>
	<g id="LINE_00000062187324663035981880000009071852569176486583_">
		<line class="st2" x1="23.4" y1="95.8" x2="23.9" y2="42.2"/>
	</g>
	<g id="LINE_00000114060193805618583420000004026941161549820322_">
		<line class="st2" x1="23.9" y1="42.2" x2="57" y2="30.5"/>
	</g>
	<g id="LINE_00000033338656524143753260000013620290412562239877_">
		<line class="st2" x1="57" y1="30.5" x2="80.7" y2="30.5"/>
	</g>
	<g id="LINE_00000007403797839598242330000003637313317722852749_">
		<line class="st2" x1="80.7" y1="30.5" x2="113.6" y2="44.2"/>
	</g>
	<g id="LINE_00000160171095876408510290000012525896762269870243_">
		<line class="st2" x1="113.6" y1="44.2" x2="113.6" y2="99.8"/>
	</g>
	<g id="LINE_00000122720220859170357310000017132156526911461543_">
		<line class="st2" x1="94.1" y1="107.4" x2="88.3" y2="104.8"/>
	</g>
	<g id="LINE_00000094594476674152291150000017033032258029577377_">
		<line class="st2" x1="88.3" y1="104.8" x2="80.7" y2="107.4"/>
	</g>
	<g id="LINE_00000047764026295019007340000014826933668604495510_">
		<line class="st2" x1="80.7" y1="107.4" x2="58.9" y2="108.2"/>
	</g>
	<g id="LINE_00000173870200186351924890000001963174715724200626_">
		<line class="st2" x1="58.9" y1="108.2" x2="23.4" y2="95.8"/>
	</g>
</g>
<g id="ET-608">
	<g id="LINE_00000106845079336134451590000017582913712828462007_">
		<line class="st2" x1="113.6" y1="99.8" x2="134" y2="109.4"/>
	</g>
	<g id="LINE_00000055678702916674529000000004067709672345570188_">
		<line class="st2" x1="134" y1="109.4" x2="134" y2="127.1"/>
	</g>
	<g id="LINE_00000111170290848989005020000005289641834566887608_">
		<line class="st2" x1="134" y1="127.1" x2="123.1" y2="130.8"/>
	</g>
	<g id="LINE_00000022545531013519126100000011989222068197947558_">
		<line class="st2" x1="123.1" y1="130.8" x2="94" y2="120.6"/>
	</g>
	<g id="LINE_00000086665466627358264480000006722700099663143825_">
		<line class="st2" x1="113.6" y1="99.8" x2="94.1" y2="107.4"/>
	</g>
	<g id="LINE_00000015333585492563493010000006375117238569812653_">
		<line class="st2" x1="94" y1="120.6" x2="94.1" y2="107.4"/>
	</g>
</g>
<g id="ET-616">
	<g id="LINE_00000088814366927686293870000001513278954786719931_">
		<line class="st2" x1="134" y1="139.7" x2="134" y2="48"/>
	</g>
	<g id="LINE_00000085956328562742093330000018222456140704027780_">
		<line class="st2" x1="134" y1="48" x2="395" y2="139.7"/>
	</g>
	<g id="LINE_00000126310639113643261610000010838030819541148601_">
		<line class="st2" x1="395" y1="139.7" x2="264.9" y2="185.5"/>
	</g>
	<g id="LINE_00000029734002210710396180000015117664303393568158_">
		<line class="st2" x1="264.9" y1="185.5" x2="134" y2="139.7"/>
	</g>
</g>
<g id="ET-615-B">
	<g id="LINE_00000137841392506879501090000003454419457292608897_">
		<line class="st2" x1="338.6" y1="206" x2="338.6" y2="168"/>
	</g>
	<g id="LINE_00000114059594632314452850000011997607826627654055_">
		<line class="st2" x1="338.6" y1="168" x2="396.1" y2="145.5"/>
	</g>
	<g id="LINE_00000088104546525922033870000015516753730194537632_">
		<line class="st2" x1="396.1" y1="145.5" x2="396.1" y2="226"/>
	</g>
	<g id="LINE_00000079472435896590203210000010551454327961101445_">
		<line class="st2" x1="396.1" y1="226" x2="338.6" y2="206"/>
	</g>
</g>
<g id="ET-615-A">
	<g id="LINE">
		<line class="st2" x1="457.4" y1="168" x2="457.4" y2="203.4"/>
	</g>
	<g id="LINE_00000020398202474099132600000016856112254655737234_">
		<line class="st2" x1="457.4" y1="203.4" x2="397.4" y2="225.9"/>
	</g>
	<g id="LINE_00000148661222711203895950000005571006686582145692_">
		<line class="st2" x1="397.4" y1="145.5" x2="457.4" y2="168"/>
	</g>
	<g id="LINE_00000084500091136095726750000003770086170065717636_">
		<line class="st2" x1="397.4" y1="225.9" x2="397.4" y2="145.5"/>
	</g>
</g>
<g id="ETPLAN">
	<g id="LINE_00000119109164409775037360000015252686754688110989_">
		<path class="st3" d="M7.9,278"/>
		<path class="st3" d="M7.9,95.4"/>
	</g>
	<g id="LINE_00000065786008189835768290000000913026365780966550_">
		<line class="st3" x1="3.1" y1="65.6" x2="3.1" y2="77.9"/>
	</g>
	<g id="LINE_00000000212717138206355970000005156673432323478685_">
		<line class="st3" x1="3.1" y1="77.9" x2="6" y2="77.9"/>
	</g>
	<g id="LINE_00000057105659057388277390000013988923324891204495_">
		<line class="st3" x1="6" y1="77.9" x2="6" y2="91.5"/>
	</g>
	<g id="LINE_00000021084144205052555430000014793331457886603670_">
		<line class="st3" x1="6" y1="91.5" x2="22.1" y2="97.1"/>
	</g>
	<g id="LINE_00000019671269521619914370000016043093462799988874_">
		<line class="st3" x1="1.7" y1="280.2" x2="126.3" y2="236.4"/>
	</g>
	<g id="LINE_00000062153322995319721960000002998935091245517997_">
		<line class="st3" x1="69" y1="301.1" x2="69" y2="313.2"/>
	</g>
	<g id="LINE_00000037664480510358496180000017604683460169006014_">
		<line class="st3" x1="22.7" y1="42.6" x2="22.7" y2="51.7"/>
	</g>
	<g id="LINE_00000119839079769595673750000000294837145641340552_">
		<line class="st3" x1="22.7" y1="51.7" x2="23.9" y2="51.7"/>
	</g>
	<g id="LINE_00000165211411165437722810000013770226119422404533_">
		<line class="st3" x1="23.9" y1="51.7" x2="23.9" y2="42.2"/>
	</g>
	<g id="LINE_00000073693561980672429500000004885606529948893585_">
		<line class="st3" x1="80.2" y1="259.8" x2="89.8" y2="263.1"/>
	</g>
	<g id="LINE_00000078731771652338567890000001244780889014494368_">
		<line class="st3" x1="264.9" y1="185.5" x2="295.7" y2="174.7"/>
	</g>
	<g id="LINE_00000026156410738434416620000015592471539731618182_">
		<line class="st3" x1="57" y1="30.5" x2="80.7" y2="30.5"/>
	</g>
	<g id="LINE_00000155827688082288342020000008753310535698111161_">
		<line class="st3" x1="80.7" y1="30.5" x2="113.6" y2="44.2"/>
	</g>
	<g id="LINE_00000090266209591464759280000006585228315825252481_">
		<line class="st3" x1="113.6" y1="44.2" x2="113.6" y2="99.8"/>
	</g>
	<g id="LINE_00000077303371642129300460000011218693346119628162_">
		<line class="st3" x1="113.6" y1="99.8" x2="134" y2="109.4"/>
	</g>
	<g id="LINE_00000128454947036789601240000001494339730351338139_">
		<line class="st3" x1="23.4" y1="64.2" x2="23.4" y2="95.8"/>
	</g>
	<g id="LINE_00000121977826670183413670000000191098773089858971_">
		<line class="st3" x1="33.4" y1="285.7" x2="40" y2="268.3"/>
	</g>
	<g id="LINE_00000168797912536623874440000007754925455800615344_">
		<line class="st3" x1="40" y1="268.3" x2="74.8" y2="256.4"/>
	</g>
	<g id="LINE_00000080918232866545569100000014290679125241978262_">
		<line class="st3" x1="74.8" y1="256.4" x2="74.8" y2="260.9"/>
	</g>
	<g id="LINE_00000173154983374916085040000001953688873321901218_">
		<line class="st3" x1="74.8" y1="260.9" x2="80.2" y2="259.8"/>
	</g>
	<g id="LINE_00000118394445312205283270000006657317334421282944_">
		<line class="st3" x1="134" y1="48" x2="134" y2="109.4"/>
	</g>
	<g id="LINE_00000004539649456206985610000017753941142496049561_">
		<line class="st3" x1="69" y1="313.2" x2="78.6" y2="316.5"/>
	</g>
	<g id="LINE_00000171689167942608499150000015752828597328020379_">
		<line class="st3" x1="78.6" y1="316.5" x2="78.6" y2="311.5"/>
	</g>
	<g id="LINE_00000165913549172807947360000002387295026765807546_">
		<line class="st3" x1="78.6" y1="311.5" x2="91.6" y2="309"/>
	</g>
	<g id="LINE_00000091003581357332849280000000006284910188173722_">
		<line class="st3" x1="7.9" y1="279.6" x2="69" y2="301.1"/>
	</g>
	<g id="LINE_00000136383241562116685380000017123617414687614862_">
		<line class="st3" x1="163.3" y1="417.4" x2="330.9" y2="358.4"/>
	</g>
	<g id="LINE_00000170961189802360145850000011690401045526968478_">
		<line class="st3" x1="3.1" y1="232.6" x2="3.1" y2="232.6"/>
	</g>
	<g id="LINE_00000036229447623604924200000000151093203274501794_">
		<line class="st3" x1="22.1" y1="65.6" x2="22.1" y2="97.1"/>
	</g>
	<g id="LINE_00000008859104162526477590000001686834442034384000_">
		<line class="st3" x1="112.2" y1="271" x2="134" y2="278.7"/>
	</g>
	<g id="LINE_00000097496042893373756240000001484896308160830606_">
		<line class="st3" x1="89.8" y1="263.1" x2="134" y2="247.6"/>
	</g>
	<g id="LINE_00000150091790802135779090000015389129604319233921_">
		<line class="st3" x1="126.3" y1="137" x2="126.3" y2="236.4"/>
	</g>
	<g id="LINE_00000001637615943493249640000009084275609770688953_">
		<line class="st3" x1="91.6" y1="309" x2="113.2" y2="316.6"/>
	</g>
	<g id="LINE_00000039817344421434634000000010778530562689521542_">
		<line class="st3" x1="1.8" y1="280.2" x2="1.8" y2="371.7"/>
		<line class="st3" x1="1.8" y1="0" x2="1.8" y2="93.2"/>
	</g>
	<g id="LINE_00000165203344459932710660000009726578402168160135_">
		<line class="st3" x1="1.8" y1="371.7" x2="134" y2="325.2"/>
	</g>
	<g id="LINE_00000176726700127480175250000004695270642313414074_">
		<line class="st3" x1="94" y1="120.6" x2="94.1" y2="107.4"/>
	</g>
	<g id="LINE_00000126319619908555989590000015859821043080058549_">
		<line class="st3" x1="94.1" y1="107.4" x2="88.3" y2="104.8"/>
	</g>
	<g id="LINE_00000137854573699365140460000011074921044271095937_">
		<line class="st3" x1="88.3" y1="104.8" x2="80.7" y2="107.4"/>
	</g>
	<g id="LINE_00000142147647735274006780000004550212315930870445_">
		<line class="st3" x1="80.7" y1="107.4" x2="58.9" y2="108.2"/>
	</g>
	<g id="LINE_00000021797578738424166010000016554934174149866411_">
		<line class="st3" x1="69" y1="333.9" x2="82" y2="327.7"/>
	</g>
	<g id="LINE_00000142171240649538257940000013188517567548138163_">
		<line class="st3" x1="82" y1="327.7" x2="82" y2="335.6"/>
	</g>
	<g id="LINE_00000175285522107883860710000015411954539755420828_">
		<line class="st3" x1="82" y1="335.6" x2="90.3" y2="337.1"/>
	</g>
	<g id="LINE_00000027568694797621431580000011147284371746179992_">
		<line class="st3" x1="4.9" y1="18.9" x2="22.6" y2="11.3"/>
	</g>
	<g id="LINE_00000150798595192574338800000006486656592442970273_">
		<line class="st3" x1="22.6" y1="11.3" x2="42.8" y2="18.9"/>
	</g>
	<g id="LINE_00000054952404489518631640000005787675784365705105_">
		<line class="st3" x1="42.8" y1="18.9" x2="42.8" y2="29"/>
	</g>
	<g id="LINE_00000065060465025008503220000011805590949067461043_">
		<line class="st3" x1="42.8" y1="29" x2="40.3" y2="29"/>
	</g>
	<g id="LINE_00000176747514471240552930000002923368768619831945_">
		<line class="st3" x1="40.3" y1="29" x2="40.3" y2="36.4"/>
	</g>
	<g id="LINE_00000053513003779993179380000017225075879064986555_">
		<line class="st3" x1="28.4" y1="40.6" x2="28.4" y2="30.6"/>
	</g>
	<g id="LINE_00000153707821507572111650000003593204602794446511_">
		<line class="st3" x1="112.2" y1="271" x2="113.1" y2="313.7"/>
	</g>
	<g id="LINE_00000121244385018282234390000013358731269091861178_">
		<line class="st3" x1="134" y1="48" x2="395" y2="139.7"/>
	</g>
	<g id="LINE_00000046342029795631771930000005184166905945336969_">
		<line class="st3" x1="134" y1="127.1" x2="123.1" y2="130.8"/>
	</g>
	<g id="LINE_00000161618466113378414700000001029859093060208809_">
		<line class="st3" x1="7.9" y1="279.6" x2="7.9" y2="366.1"/>
	</g>
	<g id="LINE_00000080175266339559637700000016656020510651628464_">
		<line class="st3" x1="1.8" y1="417.4" x2="163.3" y2="417.4"/>
	</g>
	<g id="LINE_00000022540476352426134470000003112695072266278588_">
		<line class="st3" x1="309.5" y1="169.8" x2="395" y2="139.7"/>
	</g>
	<g id="LINE_00000147188938751065964570000003702656621889955991_">
		<line class="st3" x1="90.3" y1="337.1" x2="113.4" y2="329"/>
	</g>
	<g id="LINE_00000145778315390150382290000009602720144222987703_">
		<line class="st3" x1="113.2" y1="316.6" x2="113.4" y2="329"/>
	</g>
	<g id="LINE_00000116205049365912016820000008452861959323600053_">
		<line class="st3" x1="309.5" y1="169.8" x2="338.6" y2="180.7"/>
	</g>
	<g id="LINE_00000124872023147020834080000004037322627963575207_">
		<line class="st3" x1="338.6" y1="180.7" x2="338.6" y2="168"/>
	</g>
	<g id="LINE_00000163055445013784963320000016898386825018720641_">
		<line class="st3" x1="338.6" y1="168" x2="396.8" y2="145.3"/>
	</g>
	<g id="LINE_00000119832610331894425400000007280170573635142303_">
		<line class="st3" x1="396.8" y1="145.3" x2="457.4" y2="168"/>
	</g>
	<g id="LINE_00000058575853752725097880000002347362604471122837_">
		<line class="st3" x1="457.4" y1="168" x2="457.4" y2="178.1"/>
	</g>
	<g id="LINE_00000052085954691808460760000001477346303898836382_">
		<line class="st3" x1="457.4" y1="178.1" x2="465" y2="180.7"/>
	</g>
	<g id="LINE_00000116955355998483582360000001441374054627273892_">
		<line class="st3" x1="465" y1="180.7" x2="485.2" y2="173.1"/>
	</g>
	<g id="LINE_00000152984528715192897620000009425188773195341237_">
		<line class="st3" x1="485.2" y1="173.1" x2="502.9" y2="180.7"/>
	</g>
	<g id="LINE_00000041262481151504532770000015551399651596295838_">
		<line class="st3" x1="502.9" y1="180.7" x2="502.9" y2="190.8"/>
	</g>
	<g id="LINE_00000132774758720572643760000004029565681997318278_">
		<line class="st3" x1="502.9" y1="190.8" x2="485.2" y2="198.4"/>
	</g>
	<g id="LINE_00000160153314874121279880000015828801154691425458_">
		<line class="st3" x1="485.2" y1="198.4" x2="465" y2="190.8"/>
	</g>
	<g id="LINE_00000017515192406558061990000000803452922976326042_">
		<line class="st3" x1="465" y1="190.8" x2="457.4" y2="193.3"/>
	</g>
	<g id="LINE_00000142880542303944502040000004072055083889275323_">
		<line class="st3" x1="457.4" y1="193.3" x2="457.4" y2="203.4"/>
	</g>
	<g id="LINE_00000090998156364071257010000002967995526241735344_">
		<line class="st3" x1="457.4" y1="203.4" x2="396.8" y2="226.2"/>
	</g>
	<g id="LINE_00000059299405068168983030000005443488057992453295_">
		<line class="st3" x1="396.8" y1="226.2" x2="338.6" y2="206"/>
	</g>
	<g id="LINE_00000098190937664462764140000004561283556245660032_">
		<line class="st3" x1="338.6" y1="206" x2="338.6" y2="190.8"/>
	</g>
	<g id="LINE_00000169519461783567694420000001664482296622116004_">
		<line class="st3" x1="338.6" y1="190.8" x2="318.4" y2="198.4"/>
	</g>
	<g id="LINE_00000075847935974696992810000013412307699392349836_">
		<line class="st3" x1="318.4" y1="198.4" x2="308.3" y2="193.3"/>
	</g>
	<g id="LINE_00000174565001552761261590000006263666877015196814_">
		<line class="st3" x1="308.3" y1="193.3" x2="298.1" y2="193.3"/>
	</g>
	<g id="LINE_00000104687953240509307540000004209023854173766290_">
		<line class="st3" x1="298.1" y1="193.3" x2="295.7" y2="174.7"/>
	</g>
	<g id="LINE_00000138532062553607699980000014015335518531300753_">
		<line class="st3" x1="33.4" y1="285.7" x2="113.1" y2="313.7"/>
	</g>
	<g id="LINE_00000103956815455307839960000013606040351204891281_">
		<line class="st3" x1="23.4" y1="95.8" x2="58.9" y2="108.2"/>
	</g>
	<g id="LINE_00000011029003494912647320000013137683331246796477_">
		<line class="st3" x1="3.1" y1="65.6" x2="11.6" y2="65.6"/>
	</g>
	<g id="LINE_00000061434792436484338480000004807709035994081929_">
		<line class="st3" x1="11.6" y1="65.6" x2="11.6" y2="64.2"/>
	</g>
	<g id="LINE_00000026164189227113756790000010364056441563416230_">
		<line class="st3" x1="11.6" y1="64.2" x2="3.1" y2="64.2"/>
	</g>
	<g id="LINE_00000121960875557552165520000013396952562888463503_">
		<line class="st3" x1="23.4" y1="64.2" x2="18.8" y2="64.2"/>
	</g>
	<g id="LINE_00000120518790161701439330000009783594654107405492_">
		<line class="st3" x1="18.8" y1="64.2" x2="18.8" y2="65.6"/>
	</g>
	<g id="LINE_00000113338531473482748040000015913840700272021406_">
		<line class="st3" x1="18.8" y1="65.6" x2="22.1" y2="65.6"/>
	</g>
	<g id="LINE_00000119088509416813177760000008505381281420813241_">
		<line class="st3" x1="7.9" y1="366.1" x2="69" y2="344.6"/>
	</g>
	<g id="LINE_00000049190016940732818740000004515574698519711373_">
		<line class="st3" x1="94" y1="120.6" x2="123.1" y2="130.8"/>
	</g>
	<g id="LINE_00000111904719140610762550000015846728596551860156_">
		<line class="st3" x1="4.9" y1="18.9" x2="4.9" y2="28.9"/>
	</g>
	<g id="LINE_00000145762919474243024320000002716775434988404645_">
		<line class="st3" x1="4.9" y1="28.9" x2="23.8" y2="35.3"/>
	</g>
	<g id="LINE_00000070078451253224496180000003716453308560784062_">
		<line class="st3" x1="23.8" y1="35.3" x2="28.4" y2="30.6"/>
	</g>
	<g id="LINE_00000080885962735111027970000003446850358113662636_">
		<line class="st3" x1="1.8" y1="93.2" x2="126.3" y2="137"/>
	</g>
	<g id="LINE_00000170243289532951667860000001688238992312025531_">
		<line class="st3" x1="40.3" y1="36.4" x2="57" y2="30.5"/>
	</g>
	<g id="LINE_00000008862154733691131100000017641047947259381433_">
		<line class="st3" x1="69" y1="333.9" x2="69" y2="344.6"/>
	</g>
	<g id="LINE_00000089538121577968705800000018088485412675155338_">
		<line class="st3" x1="3.1" y1="49.5" x2="3.1" y2="64.2"/>
	</g>
	<g id="LINE_00000010993113901735711450000009590130507268993969_">
		<line class="st3" x1="3.1" y1="49.5" x2="22.7" y2="42.6"/>
	</g>
	<g id="LINE_00000183969269765066217710000007062206432077321613_">
		<line class="st3" x1="330.9" y1="358.4" x2="330.9" y2="418.3"/>
	</g>
	<g id="LINE_00000009574087356819008220000009147421694494523802_">
		<line class="st3" x1="397.8" y1="232.5" x2="530.3" y2="185.9"/>
	</g>
	<g id="LINE_00000140015881037233575910000000689652653270845849_">
		<line class="st3" x1="23.9" y1="42.2" x2="28.4" y2="40.6"/>
	</g>
	<g id="LINE_00000065791719450695921320000009250836768300470182_">
		<line class="st3" x1="1.8" y1="0" x2="530.3" y2="185.9"/>
	</g>
	<g id="LINE_00000029747543476612894710000010772976099225483651_">
		<line class="st3" x1="594" y1="418.4" x2="330.9" y2="418.3"/>
	</g>
	<g id="LINE_00000054261367141136144910000007651298155161529788_">
		<line class="st3" x1="134" y1="139.7" x2="462.7" y2="255.3"/>
	</g>
	<g id="LINE_00000059290930643445905860000017088334894580873365_">
		<line class="st3" x1="594" y1="209.2" x2="594" y2="418.4"/>
	</g>
	<g id="LINE_00000160908720120971251400000003481189138410883769_">
		<line class="st3" x1="134" y1="127.1" x2="134" y2="370.4"/>
	</g>
	<g id="LINE_00000065773441465799232330000003856847913422681006_">
		<line class="st3" x1="1.8" y1="417.4" x2="594" y2="209.2"/>
	</g>
	<g id="LINE_00000038391338987610513370000013442751847057371066_">
		<line class="st3" x1="396.1" y1="201" x2="397.4" y2="201"/>
	</g>
	<g id="LINE_00000032630832136015698040000015079099061152840871_">
		<line class="st3" x1="397.4" y1="201" x2="397.4" y2="170.5"/>
	</g>
	<g id="LINE_00000136400568999083363180000006536189664573474972_">
		<line class="st3" x1="397.4" y1="170.5" x2="396.1" y2="170.5"/>
	</g>
	<g id="LINE_00000049919274803759796250000006572882202881361552_">
		<line class="st3" x1="396.1" y1="170.5" x2="396.1" y2="201"/>
	</g>
</g>
</svg>
