<?xml version="1.0" encoding="UTF-8"?>
<svg id="Make2D_Visible_Curves" data-name="Make2D$Visible$Curves" xmlns="http://www.w3.org/2000/svg" viewBox="0 0 309.6 221.2">
  <defs>
    <style>
      .cls-1 {
        fill: none;
        stroke: #a52525;
        stroke-linecap: round;
        stroke-linejoin: round;
        stroke-width: .7px;
      }
    </style>
  </defs>
  <g id="LINE">
    <line class="cls-1" x1="3.8" y1="12.1" x2="3.8" y2="17.2"/>
  </g>
  <g id="LINE-2" data-name="LINE">
    <line class="cls-1" x1="3.8" y1="17.2" x2="13.6" y2="20.6"/>
  </g>
  <g id="LINE-3" data-name="LINE">
    <line class="cls-1" x1="13.6" y1="20.6" x2="16" y2="18.1"/>
  </g>
  <g id="LINE-4" data-name="LINE">
    <line class="cls-1" x1="16" y1="23.3" x2="16" y2="18.1"/>
  </g>
  <g id="LINE-5" data-name="LINE">
    <line class="cls-1" x1="172" y1="218.2" x2="205.3" y2="206.5"/>
  </g>
  <g id="LINE-6" data-name="LINE">
    <line class="cls-1" x1="205.3" y1="217.6" x2="205.3" y2="218.1"/>
  </g>
  <g id="LINE-7" data-name="LINE">
    <line class="cls-1" x1="70.4" y1="124.9" x2="91.4" y2="117.5"/>
  </g>
  <g id="LINE-8" data-name="LINE">
    <line class="cls-1" x1="150" y1="100.2" x2="150" y2="94.9"/>
  </g>
  <g id="LINE-9" data-name="LINE">
    <line class="cls-1" x1="48.4" y1="35.9" x2="48.4" y2="27.7"/>
  </g>
  <g id="LINE-10" data-name="LINE">
    <line class="cls-1" x1="36.6" y1="62.5" x2="48.1" y2="66.5"/>
  </g>
  <g id="LINE-11" data-name="LINE">
    <line class="cls-1" x1="251.7" y1="198.3" x2="251.7" y2="214"/>
  </g>
  <g id="LINE-12" data-name="LINE">
    <line class="cls-1" x1="205.3" y1="206.5" x2="205.3" y2="213.9"/>
  </g>
  <g id="LINE-13" data-name="LINE">
    <line class="cls-1" x1="2.9" y1="122.3" x2="2.9" y2="122.3"/>
  </g>
  <g id="LINE-14" data-name="LINE">
    <line class="cls-1" x1="93" y1="209.8" x2="93" y2="215"/>
  </g>
  <g id="LINE-15" data-name="LINE">
    <line class="cls-1" x1="2.3" y1="194" x2="34.8" y2="182.6"/>
  </g>
  <g id="LINE-16" data-name="LINE">
    <line class="cls-1" x1="2.3" y1="170.9" x2="2.3" y2="194"/>
  </g>
  <g id="LINE-17" data-name="LINE">
    <line class="cls-1" x1="13.6" y1="24.1" x2="16" y2="23.3"/>
  </g>
  <g id="LINE-18" data-name="LINE">
    <line class="cls-1" x1="70.4" y1="67.9" x2="70.4" y2="74.4"/>
  </g>
  <g id="LINE-19" data-name="LINE">
    <line class="cls-1" x1="47.7" y1="40.7" x2="47.7" y2="56.8"/>
  </g>
  <g id="LINE-20" data-name="LINE">
    <line class="cls-1" x1="33.9" y1="18.1" x2="42.9" y2="18.1"/>
  </g>
  <g id="LINE-21" data-name="LINE">
    <line class="cls-1" x1="42.9" y1="18.1" x2="47.7" y2="20"/>
  </g>
  <g id="LINE-22" data-name="LINE">
    <line class="cls-1" x1="12.9" y1="36.1" x2="12.9" y2="52.5"/>
  </g>
  <g id="LINE-23" data-name="LINE">
    <line class="cls-1" x1="59.2" y1="136.1" x2="68.9" y2="138.9"/>
  </g>
  <g id="LINE-24" data-name="LINE">
    <line class="cls-1" x1="70.4" y1="193.3" x2="82.4" y2="198"/>
  </g>
  <g id="LINE-25" data-name="LINE">
    <line class="cls-1" x1="2.3" y1="2.3" x2="2.3" y2="50.4"/>
  </g>
  <g id="LINE-26" data-name="LINE">
    <line class="cls-1" x1="13.6" y1="51.8" x2="18.9" y2="53.7"/>
  </g>
  <g id="LINE-27" data-name="LINE">
    <line class="cls-1" x1="47.7" y1="34.6" x2="47.7" y2="20"/>
  </g>
  <g id="LINE-28" data-name="LINE">
    <line class="cls-1" x1="35.9" y1="62.2" x2="35.9" y2="135"/>
  </g>
  <g id="LINE-29" data-name="LINE">
    <line class="cls-1" x1="2.3" y1="170.9" x2="34.8" y2="182.6"/>
  </g>
  <g id="LINE-30" data-name="LINE">
    <line class="cls-1" x1="124.9" y1="183.5" x2="122.2" y2="177.7"/>
  </g>
  <g id="LINE-31" data-name="LINE">
    <line class="cls-1" x1="149.1" y1="165.9" x2="159.4" y2="170"/>
  </g>
  <g id="LINE-32" data-name="LINE">
    <line class="cls-1" x1="48.2" y1="161.6" x2="59.7" y2="165.6"/>
  </g>
  <g id="LINE-33" data-name="LINE">
    <line class="cls-1" x1="40.2" y1="150" x2="39.3" y2="150"/>
  </g>
  <g id="LINE-34" data-name="LINE">
    <line class="cls-1" x1="21.6" y1="146.8" x2="39.3" y2="146.8"/>
  </g>
  <g id="LINE-35" data-name="LINE">
    <line class="cls-1" x1="48.2" y1="150" x2="48.2" y2="161.6"/>
  </g>
  <g id="LINE-36" data-name="LINE">
    <line class="cls-1" x1="196.5" y1="104.9" x2="197.4" y2="104.9"/>
  </g>
  <g id="LINE-37" data-name="LINE">
    <line class="cls-1" x1="197.4" y1="104.9" x2="197.4" y2="93.2"/>
  </g>
  <g id="LINE-38" data-name="LINE">
    <line class="cls-1" x1="197.4" y1="93.2" x2="196.5" y2="93.2"/>
  </g>
  <g id="LINE-39" data-name="LINE">
    <line class="cls-1" x1="196.5" y1="93.2" x2="196.5" y2="104.9"/>
  </g>
  <g id="LINE-40" data-name="LINE">
    <line class="cls-1" x1="173.6" y1="94.6" x2="176.8" y2="93.6"/>
  </g>
  <g id="LINE-41" data-name="LINE">
    <line class="cls-1" x1="104.4" y1="181.6" x2="104.4" y2="183.9"/>
  </g>
  <g id="LINE-42" data-name="LINE">
    <line class="cls-1" x1="106.1" y1="112.3" x2="142.4" y2="99.6"/>
  </g>
  <g id="LINE-43" data-name="LINE">
    <line class="cls-1" x1="104.4" y1="173.8" x2="138.7" y2="161.7"/>
  </g>
  <g id="LINE-44" data-name="LINE">
    <line class="cls-1" x1="104.4" y1="171.8" x2="104.4" y2="171.8"/>
  </g>
  <g id="LINE-45" data-name="LINE">
    <line class="cls-1" x1="122.2" y1="177.7" x2="104.4" y2="183.9"/>
  </g>
  <g id="LINE-46" data-name="LINE">
    <line class="cls-1" x1="106.1" y1="112.3" x2="106.1" y2="171.2"/>
  </g>
  <g id="LINE-47" data-name="LINE">
    <line class="cls-1" x1="91.4" y1="117.5" x2="91.4" y2="161.5"/>
  </g>
  <g id="LINE-48" data-name="LINE">
    <line class="cls-1" x1="70.4" y1="170.8" x2="93.3" y2="162.8"/>
  </g>
  <g id="LINE-49" data-name="LINE">
    <line class="cls-1" x1="193.4" y1="218.1" x2="205.3" y2="213.9"/>
  </g>
  <g id="LINE-50" data-name="LINE">
    <line class="cls-1" x1="263.3" y1="218.1" x2="251.7" y2="214"/>
  </g>
  <g id="LINE-51" data-name="LINE">
    <line class="cls-1" x1="3.8" y1="12.1" x2="13" y2="8.2"/>
  </g>
  <g id="LINE-52" data-name="LINE">
    <line class="cls-1" x1="13" y1="8.2" x2="23.4" y2="12.1"/>
  </g>
  <g id="LINE-53" data-name="LINE">
    <line class="cls-1" x1="23.4" y1="12.1" x2="23.4" y2="17.3"/>
  </g>
  <g id="LINE-54" data-name="LINE">
    <line class="cls-1" x1="23.4" y1="17.3" x2="22.1" y2="17.3"/>
  </g>
  <g id="LINE-55" data-name="LINE">
    <line class="cls-1" x1="22.1" y1="17.3" x2="22.1" y2="21.1"/>
  </g>
  <g id="LINE-56" data-name="LINE">
    <line class="cls-1" x1="2.9" y1="27.8" x2="13" y2="24.3"/>
  </g>
  <g id="LINE-57" data-name="LINE">
    <line class="cls-1" x1="59.5" y1="159.3" x2="59.7" y2="165.6"/>
  </g>
  <g id="LINE-58" data-name="LINE">
    <line class="cls-1" x1="68.9" y1="148.1" x2="68.9" y2="164"/>
  </g>
  <g id="LINE-59" data-name="LINE">
    <line class="cls-1" x1="241.1" y1="100.7" x2="237.2" y2="102"/>
  </g>
  <g id="LINE-60" data-name="LINE">
    <line class="cls-1" x1="260.7" y1="100.7" x2="251.5" y2="104.6"/>
  </g>
  <g id="LINE-61" data-name="LINE">
    <line class="cls-1" x1="61" y1="148.1" x2="61.1" y2="151.1"/>
  </g>
  <g id="LINE-62" data-name="LINE">
    <line class="cls-1" x1="59.2" y1="144.2" x2="59.4" y2="151.1"/>
  </g>
  <g id="LINE-63" data-name="LINE">
    <line class="cls-1" x1="206.1" y1="74" x2="274.8" y2="98.2"/>
  </g>
  <g id="LINE-64" data-name="LINE">
    <line class="cls-1" x1="2.3" y1="2.3" x2="70.4" y2="26.3"/>
  </g>
  <g id="LINE-65" data-name="LINE">
    <line class="cls-1" x1="40.2" y1="150" x2="40.2" y2="158.7"/>
  </g>
  <g id="LINE-66" data-name="LINE">
    <line class="cls-1" x1="40.2" y1="136.5" x2="40.2" y2="147.7"/>
  </g>
  <g id="LINE-67" data-name="LINE">
    <line class="cls-1" x1="39.3" y1="150" x2="39.3" y2="158.4"/>
  </g>
  <g id="LINE-68" data-name="LINE">
    <line class="cls-1" x1="48.2" y1="150" x2="42.3" y2="150"/>
  </g>
  <g id="LINE-69" data-name="LINE">
    <line class="cls-1" x1="42.3" y1="150" x2="42.3" y2="153.5"/>
  </g>
  <g id="LINE-70" data-name="LINE">
    <line class="cls-1" x1="47.3" y1="153.5" x2="47.3" y2="161.2"/>
  </g>
  <g id="LINE-71" data-name="LINE">
    <line class="cls-1" x1="20.7" y1="147.7" x2="40.2" y2="147.7"/>
  </g>
  <g id="LINE-72" data-name="LINE">
    <line class="cls-1" x1="68.8" y1="148.1" x2="61" y2="148.1"/>
  </g>
  <g id="LINE-73" data-name="LINE">
    <line class="cls-1" x1="70.4" y1="26.3" x2="70.4" y2="50.2"/>
  </g>
  <g id="LINE-74" data-name="LINE">
    <line class="cls-1" x1="47.3" y1="153.5" x2="42.3" y2="153.5"/>
  </g>
  <g id="LINE-75" data-name="LINE">
    <line class="cls-1" x1="2.3" y1="146.8" x2="35.9" y2="135"/>
  </g>
  <g id="LINE-76" data-name="LINE">
    <line class="cls-1" x1="13.7" y1="149.4" x2="39.3" y2="158.4"/>
  </g>
  <g id="LINE-77" data-name="LINE">
    <line class="cls-1" x1="13.7" y1="145.4" x2="20.7" y2="142.9"/>
  </g>
  <g id="LINE-78" data-name="LINE">
    <line class="cls-1" x1="2.9" y1="36.1" x2="7.3" y2="36.1"/>
  </g>
  <g id="LINE-79" data-name="LINE">
    <line class="cls-1" x1="7.3" y1="36.1" x2="7.3" y2="35.4"/>
  </g>
  <g id="LINE-80" data-name="LINE">
    <line class="cls-1" x1="7.3" y1="35.4" x2="2.9" y2="35.4"/>
  </g>
  <g id="LINE-81" data-name="LINE">
    <line class="cls-1" x1="61.2" y1="159.3" x2="61.3" y2="164"/>
  </g>
  <g id="LINE-82" data-name="LINE">
    <line class="cls-1" x1="93.3" y1="114.8" x2="93.3" y2="162.8"/>
  </g>
  <g id="LINE-83" data-name="LINE">
    <line class="cls-1" x1="2.3" y1="217.6" x2="71" y2="217.6"/>
  </g>
  <g id="LINE-84" data-name="LINE">
    <line class="cls-1" x1="104.4" y1="181.3" x2="104.4" y2="181.4"/>
  </g>
  <g id="LINE-85" data-name="LINE">
    <line class="cls-1" x1="2.9" y1="27.8" x2="2.9" y2="35.4"/>
  </g>
  <g id="LINE-86" data-name="LINE">
    <line class="cls-1" x1="22.1" y1="21.1" x2="27.8" y2="21.1"/>
  </g>
  <g id="LINE-87" data-name="LINE">
    <line class="cls-1" x1="27.8" y1="21.1" x2="27.8" y2="47.6"/>
  </g>
  <g id="LINE-88" data-name="LINE">
    <line class="cls-1" x1="27.8" y1="47.6" x2="28.5" y2="47.6"/>
  </g>
  <g id="LINE-89" data-name="LINE">
    <line class="cls-1" x1="28.5" y1="47.6" x2="28.5" y2="20.4"/>
  </g>
  <g id="LINE-90" data-name="LINE">
    <line class="cls-1" x1="28.5" y1="20.4" x2="33.9" y2="18.1"/>
  </g>
  <g id="LINE-91" data-name="LINE">
    <line class="cls-1" x1="13" y1="24.3" x2="13" y2="29"/>
  </g>
  <g id="LINE-92" data-name="LINE">
    <line class="cls-1" x1="13" y1="29" x2="13.6" y2="29"/>
  </g>
  <g id="LINE-93" data-name="LINE">
    <line class="cls-1" x1="13.6" y1="29" x2="13.6" y2="24.1"/>
  </g>
  <g id="LINE-94" data-name="LINE">
    <line class="cls-1" x1="2.3" y1="146.8" x2="69.9" y2="171"/>
  </g>
  <g id="LINE-95" data-name="LINE">
    <line class="cls-1" x1="69.9" y1="171" x2="69.9" y2="193.8"/>
  </g>
  <g id="LINE-96" data-name="LINE">
    <line class="cls-1" x1="93.1" y1="214.9" x2="172" y2="187.2"/>
  </g>
  <g id="LINE-97" data-name="LINE">
    <line class="cls-1" x1="70.4" y1="168.9" x2="91.4" y2="161.5"/>
  </g>
  <g id="LINE-98" data-name="LINE">
    <line class="cls-1" x1="59.9" y1="52.5" x2="59.9" y2="53.8"/>
  </g>
  <g id="LINE-99" data-name="LINE">
    <line class="cls-1" x1="59.9" y1="53.8" x2="70.4" y2="58.8"/>
  </g>
  <g id="LINE-100" data-name="LINE">
    <line class="cls-1" x1="2.9" y1="36.1" x2="2.9" y2="42.5"/>
  </g>
  <g id="LINE-101" data-name="LINE">
    <line class="cls-1" x1="2.9" y1="42.5" x2="4.4" y2="42.5"/>
  </g>
  <g id="LINE-102" data-name="LINE">
    <line class="cls-1" x1="4.4" y1="42.5" x2="4.4" y2="49.5"/>
  </g>
  <g id="LINE-103" data-name="LINE">
    <line class="cls-1" x1="4.4" y1="49.5" x2="12.9" y2="52.5"/>
  </g>
  <g id="LINE-104" data-name="LINE">
    <line class="cls-1" x1="217.8" y1="81.7" x2="217.9" y2="81.7"/>
  </g>
  <g id="LINE-105" data-name="LINE">
    <line class="cls-1" x1="197.5" y1="116.1" x2="197.3" y2="107.8"/>
  </g>
  <g id="LINE-106" data-name="LINE">
    <line class="cls-1" x1="197.4" y1="80.3" x2="214.1" y2="80.3"/>
  </g>
  <g id="LINE-107" data-name="LINE">
    <line class="cls-1" x1="217.8" y1="110.1" x2="217.8" y2="102.7"/>
  </g>
  <g id="LINE-108" data-name="LINE">
    <line class="cls-1" x1="216.9" y1="95.5" x2="216.9" y2="81.4"/>
  </g>
  <g id="LINE-109" data-name="LINE">
    <line class="cls-1" x1="235.1" y1="102.7" x2="235.1" y2="102.7"/>
  </g>
  <g id="LINE-110" data-name="LINE">
    <line class="cls-1" x1="71" y1="217.6" x2="93" y2="209.8"/>
  </g>
  <g id="LINE-111" data-name="LINE">
    <line class="cls-1" x1="172" y1="187.2" x2="172" y2="218.2"/>
  </g>
  <g id="LINE-112" data-name="LINE">
    <line class="cls-1" x1="48.1" y1="66.5" x2="48.1" y2="56.9"/>
  </g>
  <g id="LINE-113" data-name="LINE">
    <line class="cls-1" x1="48.1" y1="56.9" x2="49.2" y2="56.3"/>
  </g>
  <g id="LINE-114" data-name="LINE">
    <line class="cls-1" x1="49.2" y1="56.3" x2="50.3" y2="56.3"/>
  </g>
  <g id="LINE-115" data-name="LINE">
    <line class="cls-1" x1="50.3" y1="56.3" x2="50.3" y2="55.2"/>
  </g>
  <g id="LINE-116" data-name="LINE">
    <line class="cls-1" x1="50.3" y1="55.2" x2="48.4" y2="55.2"/>
  </g>
  <g id="LINE-117" data-name="LINE">
    <line class="cls-1" x1="48.4" y1="55.2" x2="48.4" y2="40.7"/>
  </g>
  <g id="LINE-118" data-name="LINE">
    <line class="cls-1" x1="159.4" y1="170" x2="173.4" y2="164.2"/>
  </g>
  <g id="LINE-119" data-name="LINE">
    <line class="cls-1" x1="173.4" y1="164.2" x2="173.3" y2="157.4"/>
  </g>
  <g id="LINE-120" data-name="LINE">
    <line class="cls-1" x1="42.3" y1="143" x2="42.3" y2="144.2"/>
  </g>
  <g id="LINE-121" data-name="LINE">
    <line class="cls-1" x1="61" y1="71.1" x2="70.4" y2="74.4"/>
  </g>
  <g id="LINE-122" data-name="LINE">
    <line class="cls-1" x1="183.6" y1="83.9" x2="193" y2="84.1"/>
  </g>
  <g id="LINE-123" data-name="LINE">
    <line class="cls-1" x1="106.1" y1="171.2" x2="138.7" y2="159.7"/>
  </g>
  <g id="LINE-124" data-name="LINE">
    <line class="cls-1" x1="13.6" y1="35.4" x2="13.6" y2="51.8"/>
  </g>
  <g id="LINE-125" data-name="LINE">
    <line class="cls-1" x1="13.6" y1="35.4" x2="11.2" y2="35.4"/>
  </g>
  <g id="LINE-126" data-name="LINE">
    <line class="cls-1" x1="11.2" y1="35.4" x2="11.2" y2="36.1"/>
  </g>
  <g id="LINE-127" data-name="LINE">
    <line class="cls-1" x1="11.2" y1="36.1" x2="12.9" y2="36.1"/>
  </g>
  <g id="LINE-128" data-name="LINE">
    <line class="cls-1" x1="36.6" y1="62.5" x2="36.6" y2="134.7"/>
  </g>
  <g id="LINE-129" data-name="LINE">
    <line class="cls-1" x1="216.9" y1="114.8" x2="205.9" y2="119"/>
  </g>
  <g id="LINE-130" data-name="LINE">
    <line class="cls-1" x1="216.9" y1="114.8" x2="216.9" y2="110.1"/>
  </g>
  <g id="LINE-131" data-name="LINE">
    <line class="cls-1" x1="216.9" y1="102.7" x2="217.8" y2="102.7"/>
  </g>
  <g id="LINE-132" data-name="LINE">
    <line class="cls-1" x1="237.2" y1="88.2" x2="237.2" y2="94.2"/>
  </g>
  <g id="LINE-133" data-name="LINE">
    <line class="cls-1" x1="216.9" y1="95.5" x2="217.8" y2="95.5"/>
  </g>
  <g id="LINE-134" data-name="LINE">
    <line class="cls-1" x1="196.5" y1="87.2" x2="196.5" y2="85.4"/>
  </g>
  <g id="LINE-135" data-name="LINE">
    <line class="cls-1" x1="47.7" y1="34.6" x2="32.1" y2="34.6"/>
  </g>
  <g id="LINE-136" data-name="LINE">
    <line class="cls-1" x1="32.1" y1="34.6" x2="32.1" y2="35.4"/>
  </g>
  <g id="LINE-137" data-name="LINE">
    <line class="cls-1" x1="32.1" y1="35.4" x2="47.7" y2="35.4"/>
  </g>
  <g id="LINE-138" data-name="LINE">
    <line class="cls-1" x1="47.7" y1="35.4" x2="47.7" y2="35.9"/>
  </g>
  <g id="LINE-139" data-name="LINE">
    <line class="cls-1" x1="216.9" y1="110.1" x2="216.9" y2="102.7"/>
  </g>
  <g id="LINE-140" data-name="LINE">
    <line class="cls-1" x1="2.3" y1="50.4" x2="35.9" y2="62.2"/>
  </g>
  <g id="LINE-141" data-name="LINE">
    <line class="cls-1" x1="82.4" y1="198" x2="124.9" y2="183.5"/>
  </g>
  <g id="LINE-142" data-name="LINE">
    <line class="cls-1" x1="2.3" y1="217.6" x2="69.9" y2="193.8"/>
  </g>
  <g id="LINE-143" data-name="LINE">
    <line class="cls-1" x1="55.8" y1="53.3" x2="55.8" y2="54"/>
  </g>
  <g id="LINE-144" data-name="LINE">
    <line class="cls-1" x1="47.7" y1="35.9" x2="48.4" y2="35.9"/>
  </g>
  <g id="LINE-145" data-name="LINE">
    <line class="cls-1" x1="237.2" y1="102" x2="237.2" y2="107.2"/>
  </g>
  <g id="LINE-146" data-name="LINE">
    <line class="cls-1" x1="70.4" y1="51.2" x2="170.7" y2="86.4"/>
  </g>
  <g id="LINE-147" data-name="LINE">
    <line class="cls-1" x1="61.1" y1="151.1" x2="59.4" y2="151.1"/>
  </g>
  <g id="LINE-148" data-name="LINE">
    <line class="cls-1" x1="175.9" y1="100.7" x2="163.6" y2="105.3"/>
  </g>
  <g id="LINE-149" data-name="LINE">
    <line class="cls-1" x1="55.8" y1="53.3" x2="67.9" y2="48.9"/>
  </g>
  <g id="LINE-150" data-name="LINE">
    <line class="cls-1" x1="55.8" y1="54" x2="59.9" y2="52.5"/>
  </g>
  <g id="LINE-151" data-name="LINE">
    <line class="cls-1" x1="67.9" y1="48.9" x2="67.9" y2="27.7"/>
  </g>
  <g id="LINE-152" data-name="LINE">
    <line class="cls-1" x1="48.2" y1="130.7" x2="48.2" y2="144.2"/>
  </g>
  <g id="LINE-153" data-name="LINE">
    <line class="cls-1" x1="59.2" y1="136.1" x2="59.2" y2="126.8"/>
  </g>
  <g id="LINE-154" data-name="LINE">
    <line class="cls-1" x1="70.4" y1="67.9" x2="61" y2="71.1"/>
  </g>
  <g id="LINE-155" data-name="LINE">
    <line class="cls-1" x1="47.7" y1="40.7" x2="48.4" y2="40.7"/>
  </g>
  <g id="LINE-156" data-name="LINE">
    <line class="cls-1" x1="67.9" y1="27.7" x2="48.4" y2="27.7"/>
  </g>
  <g id="LINE-157" data-name="LINE">
    <line class="cls-1" x1="47.7" y1="56.8" x2="46.9" y2="56.4"/>
  </g>
  <g id="LINE-158" data-name="LINE">
    <line class="cls-1" x1="46.9" y1="56.4" x2="42.9" y2="57.7"/>
  </g>
  <g id="LINE-159" data-name="LINE">
    <line class="cls-1" x1="42.9" y1="57.7" x2="34.2" y2="58.1"/>
  </g>
  <g id="LINE-160" data-name="LINE">
    <line class="cls-1" x1="70.4" y1="51.2" x2="70.4" y2="58.8"/>
  </g>
  <g id="LINE-161" data-name="LINE">
    <line class="cls-1" x1="47.3" y1="138.6" x2="47.3" y2="143"/>
  </g>
  <g id="LINE-162" data-name="LINE">
    <line class="cls-1" x1="237.2" y1="94.2" x2="241.1" y2="95.5"/>
  </g>
  <g id="LINE-163" data-name="LINE">
    <line class="cls-1" x1="68.9" y1="164" x2="61.3" y2="164"/>
  </g>
  <g id="LINE-164" data-name="LINE">
    <line class="cls-1" x1="175.9" y1="108.5" x2="175.9" y2="100.7"/>
  </g>
  <g id="LINE-165" data-name="LINE">
    <line class="cls-1" x1="42.3" y1="144.2" x2="48.2" y2="144.2"/>
  </g>
  <g id="LINE-166" data-name="LINE">
    <line class="cls-1" x1="241.1" y1="95.5" x2="251.5" y2="91.6"/>
  </g>
  <g id="LINE-167" data-name="LINE">
    <line class="cls-1" x1="68.9" y1="138.9" x2="68.9" y2="147"/>
  </g>
  <g id="LINE-168" data-name="LINE">
    <line class="cls-1" x1="47.3" y1="143" x2="42.3" y2="143"/>
  </g>
  <g id="LINE-169" data-name="LINE">
    <line class="cls-1" x1="251.5" y1="91.6" x2="260.7" y2="95.5"/>
  </g>
  <g id="LINE-170" data-name="LINE">
    <line class="cls-1" x1="260.7" y1="95.5" x2="260.7" y2="100.7"/>
  </g>
  <g id="LINE-171" data-name="LINE">
    <line class="cls-1" x1="251.5" y1="104.6" x2="241.1" y2="100.7"/>
  </g>
  <g id="LINE-172" data-name="LINE">
    <line class="cls-1" x1="70.4" y1="50.2" x2="172.2" y2="85.9"/>
  </g>
  <g id="LINE-173" data-name="LINE">
    <line class="cls-1" x1="61.2" y1="159.3" x2="59.5" y2="159.3"/>
  </g>
  <g id="LINE-174" data-name="LINE">
    <line class="cls-1" x1="40.2" y1="136.5" x2="47.3" y2="138.6"/>
  </g>
  <g id="LINE-175" data-name="LINE">
    <line class="cls-1" x1="13.7" y1="145.4" x2="13.7" y2="149.4"/>
  </g>
  <g id="LINE-176" data-name="LINE">
    <line class="cls-1" x1="20.7" y1="142.9" x2="20.7" y2="147.7"/>
  </g>
  <g id="LINE-177" data-name="LINE">
    <line class="cls-1" x1="40.2" y1="133.5" x2="40.2" y2="133.5"/>
  </g>
  <g id="LINE-178" data-name="LINE">
    <line class="cls-1" x1="21.6" y1="142.6" x2="21.6" y2="146.8"/>
  </g>
  <g id="LINE-179" data-name="LINE">
    <line class="cls-1" x1="204.6" y1="122.9" x2="274.8" y2="98.2"/>
  </g>
  <g id="LINE-180" data-name="LINE">
    <line class="cls-1" x1="40.2" y1="158.7" x2="47.3" y2="161.2"/>
  </g>
  <g id="LINE-181" data-name="LINE">
    <line class="cls-1" x1="193" y1="84.1" x2="196.5" y2="85.4"/>
  </g>
  <g id="LINE-182" data-name="LINE">
    <line class="cls-1" x1="160.9" y1="89.9" x2="173.6" y2="94.6"/>
  </g>
  <g id="LINE-183" data-name="LINE">
    <line class="cls-1" x1="160.9" y1="89.9" x2="170.7" y2="86.4"/>
  </g>
  <g id="LINE-184" data-name="LINE">
    <line class="cls-1" x1="176.8" y1="93.6" x2="176.8" y2="86.4"/>
  </g>
  <g id="LINE-185" data-name="LINE">
    <line class="cls-1" x1="172.2" y1="85.9" x2="206.1" y2="74"/>
  </g>
  <g id="LINE-186" data-name="LINE">
    <line class="cls-1" x1="237.2" y1="107.2" x2="229.5" y2="110.1"/>
  </g>
  <g id="LINE-187" data-name="LINE">
    <line class="cls-1" x1="182.9" y1="111" x2="190.8" y2="111.4"/>
  </g>
  <g id="LINE-188" data-name="LINE">
    <line class="cls-1" x1="190.8" y1="111.4" x2="197.3" y2="107.8"/>
  </g>
  <g id="LINE-189" data-name="LINE">
    <line class="cls-1" x1="18.9" y1="53.7" x2="23.7" y2="53.7"/>
  </g>
  <g id="LINE-190" data-name="LINE">
    <line class="cls-1" x1="23.7" y1="53.7" x2="28.3" y2="51.8"/>
  </g>
  <g id="LINE-191" data-name="LINE">
    <line class="cls-1" x1="28.3" y1="51.8" x2="28.3" y2="56"/>
  </g>
  <g id="LINE-192" data-name="LINE">
    <line class="cls-1" x1="28.3" y1="56" x2="34.2" y2="58.1"/>
  </g>
  <g id="LINE-193" data-name="LINE">
    <line class="cls-1" x1="176.8" y1="86.3" x2="183.6" y2="83.9"/>
  </g>
  <g id="LINE-194" data-name="LINE">
    <line class="cls-1" x1="104.4" y1="110.9" x2="150" y2="94.9"/>
  </g>
  <g id="LINE-195" data-name="LINE">
    <line class="cls-1" x1="150" y1="100.2" x2="163.6" y2="105.3"/>
  </g>
  <g id="LINE-196" data-name="LINE">
    <line class="cls-1" x1="196.5" y1="87.2" x2="197.4" y2="87.2"/>
  </g>
  <g id="LINE-197" data-name="LINE">
    <line class="cls-1" x1="217.8" y1="88.2" x2="237.2" y2="88.2"/>
  </g>
  <g id="LINE-198" data-name="LINE">
    <line class="cls-1" x1="197.4" y1="87.2" x2="197.4" y2="80.3"/>
  </g>
  <g id="LINE-199" data-name="LINE">
    <line class="cls-1" x1="308.2" y1="218.1" x2="251.7" y2="198.3"/>
  </g>
  <g id="LINE-200" data-name="LINE">
    <line class="cls-1" x1="263.3" y1="218.1" x2="193.4" y2="218.1"/>
  </g>
  <g id="LINE-201" data-name="LINE">
    <line class="cls-1" x1="216.9" y1="110.1" x2="229.5" y2="110.1"/>
  </g>
  <g id="LINE-202" data-name="LINE">
    <line class="cls-1" x1="70.4" y1="122.8" x2="70.4" y2="193.3"/>
  </g>
  <g id="LINE-203" data-name="LINE">
    <line class="cls-1" x1="173.3" y1="157.4" x2="307.6" y2="110.2"/>
  </g>
  <g id="LINE-204" data-name="LINE">
    <line class="cls-1" x1="104.4" y1="181.6" x2="149.1" y2="165.9"/>
  </g>
  <g id="LINE-205" data-name="LINE">
    <line class="cls-1" x1="214.1" y1="80.3" x2="216.9" y2="81.4"/>
  </g>
  <g id="LINE-206" data-name="LINE">
    <line class="cls-1" x1="138.7" y1="159.7" x2="138.7" y2="169.6"/>
  </g>
  <g id="LINE-207" data-name="LINE">
    <line class="cls-1" x1="104.4" y1="110.9" x2="104.4" y2="173.8"/>
  </g>
  <g id="LINE-208" data-name="LINE">
    <line class="cls-1" x1="59.2" y1="144.2" x2="68.8" y2="147"/>
  </g>
  <g id="LINE-209" data-name="LINE">
    <line class="cls-1" x1="36.6" y1="134.7" x2="48.2" y2="130.7"/>
  </g>
  <g id="LINE-210" data-name="LINE">
    <line class="cls-1" x1="59.2" y1="126.8" x2="93.3" y2="114.8"/>
  </g>
  <g id="LINE-211" data-name="LINE">
    <line class="cls-1" x1="307.6" y1="110.2" x2="307.6" y2="218.1"/>
  </g>
  <g id="LINE-212" data-name="LINE">
    <line class="cls-1" x1="217.8" y1="95.5" x2="217.8" y2="87.7"/>
  </g>
  <g id="LINE-213" data-name="LINE">
    <line class="cls-1" x1="21.6" y1="142.6" x2="39.4" y2="136.3"/>
  </g>
  <g id="LINE-214" data-name="LINE">
    <line class="cls-1" x1="39.3" y1="136.3" x2="39.3" y2="146.8"/>
  </g>
  <g id="LINE-215" data-name="LINE">
    <line class="cls-1" x1="205.9" y1="119" x2="175.9" y2="108.5"/>
  </g>
  <g id="LINE-216" data-name="LINE">
    <line class="cls-1" x1="142.4" y1="99.6" x2="237" y2="135"/>
  </g>
</svg>