<?xml version="1.0" encoding="UTF-8"?>
<svg id="Make2D_Visible_Curves" data-name="Make2D$Visible$Curves" xmlns="http://www.w3.org/2000/svg" viewBox="0 0 650.8 259.9">
  <defs>
    <style>
      .cls-1 {
        fill: none;
        stroke: #a52525;
        stroke-linecap: round;
        stroke-linejoin: round;
        stroke-width: .7px;
      }
    </style>
  </defs>
  <g id="LINE">
    <line class="cls-1" x1="369.1" y1="202.3" x2="398.4" y2="213.4"/>
  </g>
  <g id="LINE-2" data-name="LINE">
    <line class="cls-1" x1="373.7" y1="229.8" x2="373.7" y2="219.9"/>
  </g>
  <g id="LINE-3" data-name="LINE">
    <line class="cls-1" x1="373.7" y1="219.9" x2="365.9" y2="219.9"/>
  </g>
  <g id="LINE-4" data-name="LINE">
    <line class="cls-1" x1="365.9" y1="218.2" x2="365.9" y2="202.3"/>
  </g>
  <g id="LINE-5" data-name="LINE">
    <line class="cls-1" x1="580.8" y1="107.5" x2="580.8" y2="113.6"/>
  </g>
  <g id="LINE-6" data-name="LINE">
    <line class="cls-1" x1="580.8" y1="113.6" x2="584.5" y2="113.6"/>
  </g>
  <g id="LINE-7" data-name="LINE">
    <line class="cls-1" x1="584.5" y1="113.6" x2="590.4" y2="111.2"/>
  </g>
  <g id="LINE-8" data-name="LINE">
    <line class="cls-1" x1="590.4" y1="111.2" x2="596.2" y2="111.2"/>
  </g>
  <g id="LINE-9" data-name="LINE">
    <line class="cls-1" x1="596.2" y1="111.2" x2="602.8" y2="114.1"/>
  </g>
  <g id="LINE-10" data-name="LINE">
    <line class="cls-1" x1="602.8" y1="114.1" x2="602.8" y2="120.1"/>
  </g>
  <g id="LINE-11" data-name="LINE">
    <line class="cls-1" x1="602.8" y1="120.1" x2="597.1" y2="122.9"/>
  </g>
  <g id="LINE-12" data-name="LINE">
    <line class="cls-1" x1="597.1" y1="122.9" x2="591" y2="122.9"/>
  </g>
  <g id="LINE-13" data-name="LINE">
    <line class="cls-1" x1="349.3" y1="16.1" x2="343.7" y2="16.1"/>
  </g>
  <g id="LINE-14" data-name="LINE">
    <line class="cls-1" x1="343.7" y1="16.1" x2="343.7" y2="156.9"/>
  </g>
  <g id="LINE-15" data-name="LINE">
    <line class="cls-1" x1="223.2" y1="243.5" x2="252.4" y2="162.9"/>
  </g>
  <g id="LINE-16" data-name="LINE">
    <line class="cls-1" x1="31.6" y1="82.8" x2="25.8" y2="82.8"/>
  </g>
  <g id="LINE-17" data-name="LINE">
    <line class="cls-1" x1="23.8" y1="102.6" x2="23.8" y2="112.2"/>
  </g>
  <g id="LINE-18" data-name="LINE">
    <line class="cls-1" x1="50.3" y1="102.7" x2="50.3" y2="82.4"/>
  </g>
  <g id="LINE-19" data-name="LINE">
    <line class="cls-1" x1="56.9" y1="80.5" x2="56.9" y2="111.1"/>
  </g>
  <g id="LINE-20" data-name="LINE">
    <line class="cls-1" x1="381.6" y1="218.2" x2="381.6" y2="211.8"/>
  </g>
  <g id="LINE-21" data-name="LINE">
    <line class="cls-1" x1="649.1" y1="243" x2="346.9" y2="243"/>
  </g>
  <g id="LINE-22" data-name="LINE">
    <line class="cls-1" x1="416.2" y1="217.9" x2="448.9" y2="230.3"/>
  </g>
  <g id="LINE-23" data-name="LINE">
    <line class="cls-1" x1="381.6" y1="218.2" x2="378.2" y2="218.2"/>
  </g>
  <g id="LINE-24" data-name="LINE">
    <line class="cls-1" x1="365.9" y1="235.3" x2="365.9" y2="219.9"/>
  </g>
  <g id="LINE-25" data-name="LINE">
    <line class="cls-1" x1="373.7" y1="208.8" x2="378.2" y2="210.5"/>
  </g>
  <g id="LINE-26" data-name="LINE">
    <line class="cls-1" x1="346.9" y1="243" x2="346.9" y2="198.7"/>
  </g>
  <g id="LINE-27" data-name="LINE">
    <line class="cls-1" x1="51.6" y1="111.1" x2="51.6" y2="102.7"/>
  </g>
  <g id="LINE-28" data-name="LINE">
    <line class="cls-1" x1="115.8" y1="169.1" x2="101.9" y2="208.6"/>
  </g>
  <g id="LINE-29" data-name="LINE">
    <line class="cls-1" x1="66.5" y1="135.2" x2="102.7" y2="146.8"/>
  </g>
  <g id="LINE-30" data-name="LINE">
    <line class="cls-1" x1="109.5" y1="169.3" x2="95.6" y2="208.9"/>
  </g>
  <g id="LINE-31" data-name="LINE">
    <line class="cls-1" x1="404.6" y1="185.2" x2="412.8" y2="185.2"/>
  </g>
  <g id="LINE-32" data-name="LINE">
    <line class="cls-1" x1="412.8" y1="185.2" x2="412.8" y2="167.6"/>
  </g>
  <g id="LINE-33" data-name="LINE">
    <line class="cls-1" x1="412.8" y1="167.6" x2="404.6" y2="167.6"/>
  </g>
  <g id="LINE-34" data-name="LINE">
    <line class="cls-1" x1="404.6" y1="167.6" x2="404.6" y2="185.2"/>
  </g>
  <g id="LINE-35" data-name="LINE">
    <line class="cls-1" x1="50.3" y1="82.4" x2="44.9" y2="82.4"/>
  </g>
  <g id="LINE-36" data-name="LINE">
    <line class="cls-1" x1="44.9" y1="82.4" x2="44.9" y2="102.2"/>
  </g>
  <g id="LINE-37" data-name="LINE">
    <line class="cls-1" x1="437" y1="150.2" x2="482.1" y2="167.3"/>
  </g>
  <g id="LINE-38" data-name="LINE">
    <line class="cls-1" x1="448.9" y1="181.3" x2="475" y2="171.4"/>
  </g>
  <g id="LINE-39" data-name="LINE">
    <line class="cls-1" x1="437" y1="125.8" x2="437" y2="132.4"/>
  </g>
  <g id="LINE-40" data-name="LINE">
    <line class="cls-1" x1="441.5" y1="117.5" x2="448.1" y2="115"/>
  </g>
  <g id="LINE-41" data-name="LINE">
    <line class="cls-1" x1="448.1" y1="108.4" x2="448.1" y2="115"/>
  </g>
  <g id="LINE-42" data-name="LINE">
    <line class="cls-1" x1="187.1" y1="213.8" x2="181.6" y2="229.2"/>
  </g>
  <g id="LINE-43" data-name="LINE">
    <line class="cls-1" x1="157.2" y1="238.1" x2="168.3" y2="207"/>
  </g>
  <g id="LINE-44" data-name="LINE">
    <line class="cls-1" x1="349.1" y1="66.4" x2="412.6" y2="90.4"/>
  </g>
  <g id="LINE-45" data-name="LINE">
    <line class="cls-1" x1="414.7" y1="91.2" x2="414.7" y2="131.9"/>
  </g>
  <g id="LINE-46" data-name="LINE">
    <line class="cls-1" x1="414.7" y1="131.9" x2="448.1" y2="119.3"/>
  </g>
  <g id="LINE-47" data-name="LINE">
    <line class="cls-1" x1="375.3" y1="49.5" x2="393.4" y2="56.3"/>
  </g>
  <g id="LINE-48" data-name="LINE">
    <line class="cls-1" x1="393.4" y1="56.3" x2="401.9" y2="70"/>
  </g>
  <g id="LINE-49" data-name="LINE">
    <line class="cls-1" x1="394.3" y1="49.6" x2="392.9" y2="54.6"/>
  </g>
  <g id="LINE-50" data-name="LINE">
    <line class="cls-1" x1="649.1" y1="129.5" x2="649.1" y2="243"/>
  </g>
  <g id="LINE-51" data-name="LINE">
    <line class="cls-1" x1="360.1" y1="67.2" x2="384.9" y2="76.6"/>
  </g>
  <g id="LINE-52" data-name="LINE">
    <line class="cls-1" x1="360.1" y1="39.9" x2="360.1" y2="44.7"/>
  </g>
  <g id="LINE-53" data-name="LINE">
    <line class="cls-1" x1="469.6" y1="87.7" x2="493.3" y2="96.7"/>
  </g>
  <g id="LINE-54" data-name="LINE">
    <line class="cls-1" x1="458.9" y1="114.5" x2="466.3" y2="93.1"/>
  </g>
  <g id="LINE-55" data-name="LINE">
    <line class="cls-1" x1="349.3" y1="16.1" x2="649.1" y2="129.5"/>
  </g>
  <g id="LINE-56" data-name="LINE">
    <line class="cls-1" x1="395.7" y1="50.1" x2="394.2" y2="55.1"/>
  </g>
  <g id="LINE-57" data-name="LINE">
    <line class="cls-1" x1="394.3" y1="49.6" x2="395.7" y2="50.1"/>
  </g>
  <g id="LINE-58" data-name="LINE">
    <line class="cls-1" x1="362.3" y1="151.8" x2="412.6" y2="132.7"/>
  </g>
  <g id="LINE-59" data-name="LINE">
    <line class="cls-1" x1="414.7" y1="91.2" x2="448.1" y2="103.8"/>
  </g>
  <g id="LINE-60" data-name="LINE">
    <line class="cls-1" x1="349.1" y1="164.7" x2="403.4" y2="185.3"/>
  </g>
  <g id="LINE-61" data-name="LINE">
    <line class="cls-1" x1="412.6" y1="90.4" x2="412.6" y2="132.7"/>
  </g>
  <g id="LINE-62" data-name="LINE">
    <line class="cls-1" x1="383.3" y1="154.8" x2="393.4" y2="151"/>
  </g>
  <g id="LINE-63" data-name="LINE">
    <line class="cls-1" x1="232.1" y1="114.7" x2="343.7" y2="156.9"/>
  </g>
  <g id="LINE-64" data-name="LINE">
    <line class="cls-1" x1="390.3" y1="200.2" x2="390.3" y2="197.6"/>
  </g>
  <g id="LINE-65" data-name="LINE">
    <line class="cls-1" x1="259.4" y1="142.3" x2="391.5" y2="192.3"/>
  </g>
  <g id="LINE-66" data-name="LINE">
    <line class="cls-1" x1="349.1" y1="156.8" x2="350.8" y2="156.1"/>
  </g>
  <g id="LINE-67" data-name="LINE">
    <line class="cls-1" x1="403.4" y1="162.4" x2="403.4" y2="185.3"/>
  </g>
  <g id="LINE-68" data-name="LINE">
    <line class="cls-1" x1="354.8" y1="154.6" x2="357.8" y2="155.7"/>
  </g>
  <g id="LINE-69" data-name="LINE">
    <line class="cls-1" x1="453.7" y1="130.5" x2="468.7" y2="130.5"/>
  </g>
  <g id="LINE-70" data-name="LINE">
    <line class="cls-1" x1="519.3" y1="102.4" x2="565.9" y2="102.4"/>
  </g>
  <g id="LINE-71" data-name="LINE">
    <line class="cls-1" x1="565.9" y1="102.4" x2="565.9" y2="107.6"/>
  </g>
  <g id="LINE-72" data-name="LINE">
    <line class="cls-1" x1="101.9" y1="208.6" x2="113" y2="221.2"/>
  </g>
  <g id="LINE-73" data-name="LINE">
    <line class="cls-1" x1="482.1" y1="142.4" x2="492.6" y2="146.4"/>
  </g>
  <g id="LINE-74" data-name="LINE">
    <line class="cls-1" x1="358.3" y1="153.3" x2="361.3" y2="154.4"/>
  </g>
  <g id="LINE-75" data-name="LINE">
    <line class="cls-1" x1="496.2" y1="115" x2="494.7" y2="115"/>
  </g>
  <g id="LINE-76" data-name="LINE">
    <line class="cls-1" x1="57.4" y1="138.2" x2="108.8" y2="154.7"/>
  </g>
  <g id="LINE-77" data-name="LINE">
    <line class="cls-1" x1="115.8" y1="169.1" x2="115.4" y2="168"/>
  </g>
  <g id="LINE-78" data-name="LINE">
    <line class="cls-1" x1="115.4" y1="168" x2="114.9" y2="167"/>
  </g>
  <g id="LINE-79" data-name="LINE">
    <line class="cls-1" x1="114.9" y1="167" x2="114.6" y2="166"/>
  </g>
  <g id="LINE-80" data-name="LINE">
    <line class="cls-1" x1="114.6" y1="166" x2="114.2" y2="164.9"/>
  </g>
  <g id="LINE-81" data-name="LINE">
    <line class="cls-1" x1="114.2" y1="164.9" x2="113.9" y2="163.8"/>
  </g>
  <g id="LINE-82" data-name="LINE">
    <line class="cls-1" x1="113.9" y1="163.8" x2="113.6" y2="162.8"/>
  </g>
  <g id="LINE-83" data-name="LINE">
    <line class="cls-1" x1="113.6" y1="162.8" x2="113.6" y2="162.6"/>
  </g>
  <g id="LINE-84" data-name="LINE">
    <line class="cls-1" x1="113.6" y1="162.6" x2="113.6" y2="162.4"/>
  </g>
  <g id="LINE-85" data-name="LINE">
    <line class="cls-1" x1="113.6" y1="162.4" x2="113.6" y2="162.2"/>
  </g>
  <g id="LINE-86" data-name="LINE">
    <line class="cls-1" x1="113.6" y1="162.2" x2="113.6" y2="162"/>
  </g>
  <g id="LINE-87" data-name="LINE">
    <line class="cls-1" x1="113.6" y1="162" x2="113.6" y2="161.8"/>
  </g>
  <g id="LINE-88" data-name="LINE">
    <line class="cls-1" x1="113.6" y1="161.8" x2="113.6" y2="161.6"/>
  </g>
  <g id="LINE-89" data-name="LINE">
    <line class="cls-1" x1="113.6" y1="161.6" x2="113.6" y2="161.2"/>
  </g>
  <g id="LINE-90" data-name="LINE">
    <line class="cls-1" x1="113.6" y1="161.2" x2="113.7" y2="160.7"/>
  </g>
  <g id="LINE-91" data-name="LINE">
    <line class="cls-1" x1="113.7" y1="160.7" x2="113.7" y2="160.2"/>
  </g>
  <g id="LINE-92" data-name="LINE">
    <line class="cls-1" x1="113.7" y1="160.2" x2="113.8" y2="159.7"/>
  </g>
  <g id="LINE-93" data-name="LINE">
    <line class="cls-1" x1="113.8" y1="159.7" x2="113.9" y2="159.2"/>
  </g>
  <g id="LINE-94" data-name="LINE">
    <line class="cls-1" x1="113.9" y1="159.2" x2="114" y2="158.6"/>
  </g>
  <g id="LINE-95" data-name="LINE">
    <line class="cls-1" x1="114" y1="158.6" x2="114.1" y2="158"/>
  </g>
  <g id="LINE-96" data-name="LINE">
    <line class="cls-1" x1="114.1" y1="158" x2="114.4" y2="156.7"/>
  </g>
  <g id="LINE-97" data-name="LINE">
    <line class="cls-1" x1="114.4" y1="156.7" x2="114.8" y2="155.4"/>
  </g>
  <g id="LINE-98" data-name="LINE">
    <line class="cls-1" x1="114.8" y1="155.4" x2="115.3" y2="153.9"/>
  </g>
  <g id="LINE-99" data-name="LINE">
    <line class="cls-1" x1="115.3" y1="153.9" x2="117.5" y2="147"/>
  </g>
  <g id="LINE-100" data-name="LINE">
    <line class="cls-1" x1="373.7" y1="218.2" x2="365.9" y2="218.2"/>
  </g>
  <g id="LINE-101" data-name="LINE">
    <line class="cls-1" x1="383.2" y1="226.2" x2="383.2" y2="212.4"/>
  </g>
  <g id="LINE-102" data-name="LINE">
    <line class="cls-1" x1="383.2" y1="226.2" x2="381.6" y2="226.8"/>
  </g>
  <g id="LINE-103" data-name="LINE">
    <line class="cls-1" x1="378.2" y1="228.1" x2="378.2" y2="219.9"/>
  </g>
  <g id="LINE-104" data-name="LINE">
    <line class="cls-1" x1="51.4" y1="121.8" x2="56.9" y2="121.8"/>
  </g>
  <g id="LINE-105" data-name="LINE">
    <line class="cls-1" x1="224.7" y1="80.5" x2="56.9" y2="80.5"/>
  </g>
  <g id="LINE-106" data-name="LINE">
    <line class="cls-1" x1="370.2" y1="235.3" x2="365.9" y2="235.3"/>
  </g>
  <g id="LINE-107" data-name="LINE">
    <line class="cls-1" x1="416.2" y1="217.9" x2="370.2" y2="235.3"/>
  </g>
  <g id="LINE-108" data-name="LINE">
    <line class="cls-1" x1="483.6" y1="121.7" x2="493.1" y2="121.7"/>
  </g>
  <g id="LINE-109" data-name="LINE">
    <line class="cls-1" x1="493.1" y1="121.7" x2="493.1" y2="119"/>
  </g>
  <g id="LINE-110" data-name="LINE">
    <line class="cls-1" x1="493.1" y1="119" x2="496.2" y2="119"/>
  </g>
  <g id="LINE-111" data-name="LINE">
    <line class="cls-1" x1="404.6" y1="146.8" x2="414" y2="143.2"/>
  </g>
  <g id="LINE-112" data-name="LINE">
    <line class="cls-1" x1="391.5" y1="194.9" x2="391.5" y2="192.3"/>
  </g>
  <g id="LINE-113" data-name="LINE">
    <line class="cls-1" x1="349.1" y1="158.9" x2="349.1" y2="159"/>
  </g>
  <g id="LINE-114" data-name="LINE">
    <line class="cls-1" x1="584.5" y1="120.1" x2="580.8" y2="120.1"/>
  </g>
  <g id="LINE-115" data-name="LINE">
    <line class="cls-1" x1="580.8" y1="120.1" x2="580.8" y2="126.4"/>
  </g>
  <g id="LINE-116" data-name="LINE">
    <line class="cls-1" x1="580.8" y1="126.4" x2="577" y2="128.4"/>
  </g>
  <g id="LINE-117" data-name="LINE">
    <line class="cls-1" x1="577" y1="128.4" x2="572" y2="128.4"/>
  </g>
  <g id="LINE-118" data-name="LINE">
    <line class="cls-1" x1="572" y1="128.4" x2="565.9" y2="124.2"/>
  </g>
  <g id="LINE-119" data-name="LINE">
    <line class="cls-1" x1="482.1" y1="116.5" x2="493.3" y2="112.2"/>
  </g>
  <g id="LINE-120" data-name="LINE">
    <line class="cls-1" x1="390.9" y1="74.7" x2="414.7" y2="83.6"/>
  </g>
  <g id="LINE-121" data-name="LINE">
    <line class="cls-1" x1="349.1" y1="159" x2="353.8" y2="157.3"/>
  </g>
  <g id="LINE-122" data-name="LINE">
    <line class="cls-1" x1="51.6" y1="102.7" x2="50.3" y2="102.7"/>
  </g>
  <g id="LINE-123" data-name="LINE">
    <line class="cls-1" x1="44.9" y1="102.2" x2="31.6" y2="102.2"/>
  </g>
  <g id="LINE-124" data-name="LINE">
    <line class="cls-1" x1="31.6" y1="102.2" x2="31.6" y2="82.8"/>
  </g>
  <g id="LINE-125" data-name="LINE">
    <line class="cls-1" x1="25.8" y1="102.6" x2="23.8" y2="102.6"/>
  </g>
  <g id="LINE-126" data-name="LINE">
    <line class="cls-1" x1="259.4" y1="144.9" x2="259.4" y2="142.3"/>
  </g>
  <g id="LINE-127" data-name="LINE">
    <line class="cls-1" x1="167.7" y1="98.6" x2="224.7" y2="98.6"/>
  </g>
  <g id="LINE-128" data-name="LINE">
    <line class="cls-1" x1="252.4" y1="162.9" x2="346.9" y2="198.7"/>
  </g>
  <g id="LINE-129" data-name="LINE">
    <line class="cls-1" x1="248.6" y1="152.1" x2="398.4" y2="208.7"/>
  </g>
  <g id="LINE-130" data-name="LINE">
    <line class="cls-1" x1="34.3" y1="132.7" x2="34.3" y2="136.6"/>
  </g>
  <g id="LINE-131" data-name="LINE">
    <line class="cls-1" x1="34.3" y1="136.6" x2="42" y2="136.6"/>
  </g>
  <g id="LINE-132" data-name="LINE">
    <line class="cls-1" x1="23.8" y1="132.7" x2="34.3" y2="132.7"/>
  </g>
  <g id="LINE-133" data-name="LINE">
    <line class="cls-1" x1="23.8" y1="121.8" x2="23.8" y2="132.7"/>
  </g>
  <g id="LINE-134" data-name="LINE">
    <line class="cls-1" x1="42" y1="136.6" x2="42" y2="132.7"/>
  </g>
  <g id="LINE-135" data-name="LINE">
    <line class="cls-1" x1="56.9" y1="135.2" x2="66.5" y2="135.2"/>
  </g>
  <g id="LINE-136" data-name="LINE">
    <line class="cls-1" x1="109.5" y1="169.3" x2="109.1" y2="168.3"/>
  </g>
  <g id="LINE-137" data-name="LINE">
    <line class="cls-1" x1="109.1" y1="168.3" x2="108.7" y2="167.3"/>
  </g>
  <g id="LINE-138" data-name="LINE">
    <line class="cls-1" x1="108.7" y1="167.3" x2="108.3" y2="166.3"/>
  </g>
  <g id="LINE-139" data-name="LINE">
    <line class="cls-1" x1="108.3" y1="166.3" x2="107.9" y2="165.2"/>
  </g>
  <g id="LINE-140" data-name="LINE">
    <line class="cls-1" x1="107.9" y1="165.2" x2="107.6" y2="164.1"/>
  </g>
  <g id="LINE-141" data-name="LINE">
    <line class="cls-1" x1="107.6" y1="164.1" x2="107.3" y2="163.1"/>
  </g>
  <g id="LINE-142" data-name="LINE">
    <line class="cls-1" x1="107.3" y1="163.1" x2="107.3" y2="162.9"/>
  </g>
  <g id="LINE-143" data-name="LINE">
    <line class="cls-1" x1="107.3" y1="162.9" x2="107.3" y2="162.7"/>
  </g>
  <g id="LINE-144" data-name="LINE">
    <line class="cls-1" x1="107.3" y1="162.7" x2="107.3" y2="162.5"/>
  </g>
  <g id="LINE-145" data-name="LINE">
    <line class="cls-1" x1="107.3" y1="162.5" x2="107.3" y2="162.3"/>
  </g>
  <g id="LINE-146" data-name="LINE">
    <line class="cls-1" x1="107.3" y1="162.3" x2="107.3" y2="162.2"/>
  </g>
  <g id="LINE-147" data-name="LINE">
    <line class="cls-1" x1="107.3" y1="162.2" x2="107.3" y2="162"/>
  </g>
  <g id="LINE-148" data-name="LINE">
    <line class="cls-1" x1="107.3" y1="162" x2="107.3" y2="161.5"/>
  </g>
  <g id="LINE-149" data-name="LINE">
    <line class="cls-1" x1="107.3" y1="161.5" x2="107.4" y2="161.1"/>
  </g>
  <g id="LINE-150" data-name="LINE">
    <line class="cls-1" x1="107.4" y1="161.1" x2="107.4" y2="160.6"/>
  </g>
  <g id="LINE-151" data-name="LINE">
    <line class="cls-1" x1="107.4" y1="160.6" x2="107.5" y2="160.1"/>
  </g>
  <g id="LINE-152" data-name="LINE">
    <line class="cls-1" x1="107.5" y1="160.1" x2="107.6" y2="159.6"/>
  </g>
  <g id="LINE-153" data-name="LINE">
    <line class="cls-1" x1="107.6" y1="159.6" x2="107.7" y2="159.1"/>
  </g>
  <g id="LINE-154" data-name="LINE">
    <line class="cls-1" x1="107.7" y1="159.1" x2="107.8" y2="158.5"/>
  </g>
  <g id="LINE-155" data-name="LINE">
    <line class="cls-1" x1="107.8" y1="158.5" x2="108.1" y2="157.3"/>
  </g>
  <g id="LINE-156" data-name="LINE">
    <line class="cls-1" x1="108.1" y1="157.3" x2="108.4" y2="156.1"/>
  </g>
  <g id="LINE-157" data-name="LINE">
    <line class="cls-1" x1="108.4" y1="156.1" x2="108.8" y2="154.7"/>
  </g>
  <g id="LINE-158" data-name="LINE">
    <line class="cls-1" x1="144.5" y1="233.3" x2="157.2" y2="238.1"/>
  </g>
  <g id="LINE-159" data-name="LINE">
    <line class="cls-1" x1="448.9" y1="230.3" x2="448.9" y2="192.9"/>
  </g>
  <g id="LINE-160" data-name="LINE">
    <line class="cls-1" x1="181.6" y1="229.2" x2="223.2" y2="243.5"/>
  </g>
  <g id="LINE-161" data-name="LINE">
    <line class="cls-1" x1="187.1" y1="213.8" x2="168.3" y2="207"/>
  </g>
  <g id="LINE-162" data-name="LINE">
    <line class="cls-1" x1="448.9" y1="192.9" x2="475" y2="183.1"/>
  </g>
  <g id="LINE-163" data-name="LINE">
    <line class="cls-1" x1="398.9" y1="38.6" x2="397.1" y2="45.1"/>
  </g>
  <g id="LINE-164" data-name="LINE">
    <line class="cls-1" x1="455" y1="59.9" x2="449.6" y2="79"/>
  </g>
  <g id="LINE-165" data-name="LINE">
    <line class="cls-1" x1="404.6" y1="146.8" x2="414" y2="150.3"/>
  </g>
  <g id="LINE-166" data-name="LINE">
    <line class="cls-1" x1="414" y1="166.4" x2="414" y2="191.8"/>
  </g>
  <g id="LINE-167" data-name="LINE">
    <line class="cls-1" x1="492.6" y1="157.1" x2="501.2" y2="157.1"/>
  </g>
  <g id="LINE-168" data-name="LINE">
    <line class="cls-1" x1="453.7" y1="129" x2="453.7" y2="130.5"/>
  </g>
  <g id="LINE-169" data-name="LINE">
    <line class="cls-1" x1="362.3" y1="151.8" x2="365.3" y2="152.9"/>
  </g>
  <g id="LINE-170" data-name="LINE">
    <line class="cls-1" x1="354.8" y1="154.6" x2="358.3" y2="153.3"/>
  </g>
  <g id="LINE-171" data-name="LINE">
    <line class="cls-1" x1="492.6" y1="157.1" x2="492.6" y2="146.4"/>
  </g>
  <g id="LINE-172" data-name="LINE">
    <line class="cls-1" x1="384.9" y1="76.6" x2="390.9" y2="74.7"/>
  </g>
  <g id="LINE-173" data-name="LINE">
    <line class="cls-1" x1="258.1" y1="150.2" x2="390.3" y2="200.2"/>
  </g>
  <g id="LINE-174" data-name="LINE">
    <line class="cls-1" x1="393.4" y1="151" x2="393.4" y2="158.7"/>
  </g>
  <g id="LINE-175" data-name="LINE">
    <line class="cls-1" x1="414" y1="143.2" x2="414" y2="150.3"/>
  </g>
  <g id="LINE-176" data-name="LINE">
    <line class="cls-1" x1="350.8" y1="156.1" x2="353.8" y2="157.3"/>
  </g>
  <g id="LINE-177" data-name="LINE">
    <line class="cls-1" x1="42" y1="132.7" x2="51.4" y2="132.7"/>
  </g>
  <g id="LINE-178" data-name="LINE">
    <line class="cls-1" x1="51.4" y1="132.7" x2="51.4" y2="121.8"/>
  </g>
  <g id="LINE-179" data-name="LINE">
    <line class="cls-1" x1="137.7" y1="238.8" x2="144.5" y2="233.3"/>
  </g>
  <g id="LINE-180" data-name="LINE">
    <line class="cls-1" x1="187.4" y1="224.8" x2="195.7" y2="201.7"/>
  </g>
  <g id="LINE-181" data-name="LINE">
    <line class="cls-1" x1="154.5" y1="231.3" x2="144.1" y2="226.9"/>
  </g>
  <g id="LINE-182" data-name="LINE">
    <line class="cls-1" x1="258.1" y1="150.2" x2="258.1" y2="147.6"/>
  </g>
  <g id="LINE-183" data-name="LINE">
    <line class="cls-1" x1="103.9" y1="142.7" x2="117.5" y2="147"/>
  </g>
  <g id="LINE-184" data-name="LINE">
    <line class="cls-1" x1="186.1" y1="207.5" x2="165.7" y2="200.1"/>
  </g>
  <g id="LINE-185" data-name="LINE">
    <line class="cls-1" x1="259.4" y1="144.9" x2="391.5" y2="194.9"/>
  </g>
  <g id="LINE-186" data-name="LINE">
    <line class="cls-1" x1="102.7" y1="146.8" x2="103.9" y2="142.7"/>
  </g>
  <g id="LINE-187" data-name="LINE">
    <line class="cls-1" x1="224.7" y1="80.5" x2="224.7" y2="98.6"/>
  </g>
  <g id="LINE-188" data-name="LINE">
    <line class="cls-1" x1="165.7" y1="200.1" x2="154.5" y2="231.3"/>
  </g>
  <g id="LINE-189" data-name="LINE">
    <line class="cls-1" x1="6.2" y1="96.2" x2="6.2" y2="127.8"/>
  </g>
  <g id="LINE-190" data-name="LINE">
    <line class="cls-1" x1="6.2" y1="127.8" x2="18.2" y2="127.8"/>
  </g>
  <g id="LINE-191" data-name="LINE">
    <line class="cls-1" x1="18.2" y1="121.8" x2="23.8" y2="121.8"/>
  </g>
  <g id="LINE-192" data-name="LINE">
    <line class="cls-1" x1="18.2" y1="127.8" x2="18.2" y2="121.8"/>
  </g>
  <g id="LINE-193" data-name="LINE">
    <line class="cls-1" x1="23.8" y1="112.2" x2="18.2" y2="112.2"/>
  </g>
  <g id="LINE-194" data-name="LINE">
    <line class="cls-1" x1="18.2" y1="96.2" x2="6.2" y2="96.2"/>
  </g>
  <g id="LINE-195" data-name="LINE">
    <line class="cls-1" x1="18.2" y1="112.2" x2="18.2" y2="96.2"/>
  </g>
  <g id="LINE-196" data-name="LINE">
    <line class="cls-1" x1="25.8" y1="82.8" x2="25.8" y2="102.6"/>
  </g>
  <g id="LINE-197" data-name="LINE">
    <line class="cls-1" x1="383.3" y1="154.8" x2="393.4" y2="158.7"/>
  </g>
  <g id="LINE-198" data-name="LINE">
    <line class="cls-1" x1="403.4" y1="162.4" x2="414" y2="166.4"/>
  </g>
  <g id="LINE-199" data-name="LINE">
    <line class="cls-1" x1="357.8" y1="155.7" x2="361.3" y2="154.4"/>
  </g>
  <g id="LINE-200" data-name="LINE">
    <line class="cls-1" x1="393.4" y1="142.2" x2="393.4" y2="142.5"/>
  </g>
  <g id="LINE-201" data-name="LINE">
    <line class="cls-1" x1="482.1" y1="133.4" x2="483.6" y2="133.4"/>
  </g>
  <g id="LINE-202" data-name="LINE">
    <line class="cls-1" x1="442.1" y1="98.2" x2="448.1" y2="96.3"/>
  </g>
  <g id="LINE-203" data-name="LINE">
    <line class="cls-1" x1="496.2" y1="115" x2="496.2" y2="119"/>
  </g>
  <g id="LINE-204" data-name="LINE">
    <line class="cls-1" x1="453.7" y1="129" x2="458.9" y2="129"/>
  </g>
  <g id="LINE-205" data-name="LINE">
    <line class="cls-1" x1="437" y1="132.4" x2="448.1" y2="136.6"/>
  </g>
  <g id="LINE-206" data-name="LINE">
    <line class="cls-1" x1="476.7" y1="127.8" x2="482.1" y2="127.8"/>
  </g>
  <g id="LINE-207" data-name="LINE">
    <line class="cls-1" x1="468.7" y1="127.8" x2="468.7" y2="130.5"/>
  </g>
  <g id="LINE-208" data-name="LINE">
    <line class="cls-1" x1="441.5" y1="105.9" x2="441.5" y2="117.5"/>
  </g>
  <g id="LINE-209" data-name="LINE">
    <line class="cls-1" x1="378.2" y1="228.1" x2="373.7" y2="229.8"/>
  </g>
  <g id="LINE-210" data-name="LINE">
    <line class="cls-1" x1="381.6" y1="226.8" x2="381.6" y2="219.9"/>
  </g>
  <g id="LINE-211" data-name="LINE">
    <line class="cls-1" x1="373.7" y1="218.2" x2="373.7" y2="208.8"/>
  </g>
  <g id="LINE-212" data-name="LINE">
    <line class="cls-1" x1="369.1" y1="202.3" x2="365.9" y2="202.3"/>
  </g>
  <g id="LINE-213" data-name="LINE">
    <line class="cls-1" x1="232.1" y1="114.7" x2="232.1" y2="66.3"/>
  </g>
  <g id="LINE-214" data-name="LINE">
    <line class="cls-1" x1="232.1" y1="66.3" x2="1.6" y2="66.3"/>
  </g>
  <g id="LINE-215" data-name="LINE">
    <line class="cls-1" x1="1.6" y1="66.3" x2="1.6" y2="138.2"/>
  </g>
  <g id="LINE-216" data-name="LINE">
    <line class="cls-1" x1="1.6" y1="138.2" x2="57.4" y2="138.2"/>
  </g>
  <g id="LINE-217" data-name="LINE">
    <line class="cls-1" x1="135.5" y1="232.2" x2="144.1" y2="226.9"/>
  </g>
  <g id="LINE-218" data-name="LINE">
    <line class="cls-1" x1="56.9" y1="111.1" x2="51.6" y2="111.1"/>
  </g>
  <g id="LINE-219" data-name="LINE">
    <line class="cls-1" x1="56.9" y1="121.8" x2="56.9" y2="135.2"/>
  </g>
  <g id="LINE-220" data-name="LINE">
    <line class="cls-1" x1="377.2" y1="37.6" x2="375.8" y2="42.6"/>
  </g>
  <g id="LINE-221" data-name="LINE">
    <line class="cls-1" x1="375.7" y1="48.1" x2="375.3" y2="49.5"/>
  </g>
  <g id="LINE-222" data-name="LINE">
    <line class="cls-1" x1="351.8" y1="33.5" x2="360.1" y2="36.6"/>
  </g>
  <g id="LINE-223" data-name="LINE">
    <line class="cls-1" x1="380.4" y1="31.6" x2="377.1" y2="43.1"/>
  </g>
  <g id="LINE-224" data-name="LINE">
    <line class="cls-1" x1="360.1" y1="36.6" x2="360.1" y2="38.3"/>
  </g>
  <g id="LINE-225" data-name="LINE">
    <line class="cls-1" x1="421.8" y1="60" x2="417.7" y2="74.4"/>
  </g>
  <g id="LINE-226" data-name="LINE">
    <line class="cls-1" x1="423.7" y1="48" x2="421.9" y2="54.5"/>
  </g>
  <g id="LINE-227" data-name="LINE">
    <line class="cls-1" x1="395.8" y1="44.6" x2="397.1" y2="45.1"/>
  </g>
  <g id="LINE-228" data-name="LINE">
    <line class="cls-1" x1="349.1" y1="63" x2="358.7" y2="66.7"/>
  </g>
  <g id="LINE-229" data-name="LINE">
    <line class="cls-1" x1="375.8" y1="42.6" x2="377.1" y2="43.1"/>
  </g>
  <g id="LINE-230" data-name="LINE">
    <line class="cls-1" x1="470.2" y1="86.1" x2="473.6" y2="76.2"/>
  </g>
  <g id="LINE-231" data-name="LINE">
    <line class="cls-1" x1="414.7" y1="87.9" x2="442.1" y2="98.2"/>
  </g>
  <g id="LINE-232" data-name="LINE">
    <line class="cls-1" x1="414.7" y1="83.6" x2="414.7" y2="87.9"/>
  </g>
  <g id="LINE-233" data-name="LINE">
    <line class="cls-1" x1="358.7" y1="39.2" x2="358.7" y2="44.7"/>
  </g>
  <g id="LINE-234" data-name="LINE">
    <line class="cls-1" x1="349.1" y1="42.3" x2="349.1" y2="63"/>
  </g>
  <g id="LINE-235" data-name="LINE">
    <line class="cls-1" x1="503.5" y1="108.4" x2="519.3" y2="102.4"/>
  </g>
  <g id="LINE-236" data-name="LINE">
    <line class="cls-1" x1="472.3" y1="75.7" x2="473.6" y2="76.2"/>
  </g>
  <g id="LINE-237" data-name="LINE">
    <line class="cls-1" x1="351.8" y1="23.3" x2="357.8" y2="21.4"/>
  </g>
  <g id="LINE-238" data-name="LINE">
    <line class="cls-1" x1="401.9" y1="70" x2="454.7" y2="89.9"/>
  </g>
  <g id="LINE-239" data-name="LINE">
    <line class="cls-1" x1="454.7" y1="89.9" x2="466.3" y2="93.1"/>
  </g>
  <g id="LINE-240" data-name="LINE">
    <line class="cls-1" x1="565.9" y1="124.2" x2="565.9" y2="132"/>
  </g>
  <g id="LINE-241" data-name="LINE">
    <line class="cls-1" x1="351.8" y1="23.3" x2="351.8" y2="33.5"/>
  </g>
  <g id="LINE-242" data-name="LINE">
    <line class="cls-1" x1="358.7" y1="48.5" x2="360.1" y2="48.5"/>
  </g>
  <g id="LINE-243" data-name="LINE">
    <line class="cls-1" x1="458.9" y1="114.5" x2="458.9" y2="129"/>
  </g>
  <g id="LINE-244" data-name="LINE">
    <line class="cls-1" x1="476.7" y1="130.5" x2="482.1" y2="130.5"/>
  </g>
  <g id="LINE-245" data-name="LINE">
    <line class="cls-1" x1="357.8" y1="21.4" x2="365.5" y2="26"/>
  </g>
  <g id="LINE-246" data-name="LINE">
    <line class="cls-1" x1="365.5" y1="26" x2="369.5" y2="26"/>
  </g>
  <g id="LINE-247" data-name="LINE">
    <line class="cls-1" x1="369.5" y1="26" x2="369.7" y2="34.7"/>
  </g>
  <g id="LINE-248" data-name="LINE">
    <line class="cls-1" x1="362" y1="37.3" x2="361.9" y2="38.9"/>
  </g>
  <g id="LINE-249" data-name="LINE">
    <line class="cls-1" x1="493.3" y1="74.3" x2="493.3" y2="94.9"/>
  </g>
  <g id="LINE-250" data-name="LINE">
    <line class="cls-1" x1="565.9" y1="107.6" x2="572" y2="105.3"/>
  </g>
  <g id="LINE-251" data-name="LINE">
    <line class="cls-1" x1="460.4" y1="127.8" x2="468.7" y2="127.8"/>
  </g>
  <g id="LINE-252" data-name="LINE">
    <line class="cls-1" x1="476.7" y1="127.8" x2="476.7" y2="130.5"/>
  </g>
  <g id="LINE-253" data-name="LINE">
    <line class="cls-1" x1="449.6" y1="79" x2="450.9" y2="79.5"/>
  </g>
  <g id="LINE-254" data-name="LINE">
    <line class="cls-1" x1="417.7" y1="74.4" x2="455.2" y2="88.6"/>
  </g>
  <g id="LINE-255" data-name="LINE">
    <line class="cls-1" x1="455.2" y1="88.6" x2="466.7" y2="91.8"/>
  </g>
  <g id="LINE-256" data-name="LINE">
    <line class="cls-1" x1="349.1" y1="42.3" x2="358.7" y2="39.2"/>
  </g>
  <g id="LINE-257" data-name="LINE">
    <line class="cls-1" x1="360.1" y1="48.5" x2="360.1" y2="67.2"/>
  </g>
  <g id="LINE-258" data-name="LINE">
    <line class="cls-1" x1="425" y1="48.5" x2="423.2" y2="55"/>
  </g>
  <g id="LINE-259" data-name="LINE">
    <line class="cls-1" x1="397.6" y1="38.1" x2="395.8" y2="44.6"/>
  </g>
  <g id="LINE-260" data-name="LINE">
    <line class="cls-1" x1="369.7" y1="34.7" x2="377.2" y2="37.6"/>
  </g>
  <g id="LINE-261" data-name="LINE">
    <line class="cls-1" x1="360.1" y1="39.9" x2="361.9" y2="38.9"/>
  </g>
  <g id="LINE-262" data-name="LINE">
    <line class="cls-1" x1="448.1" y1="119.3" x2="448.1" y2="136.6"/>
  </g>
  <g id="LINE-263" data-name="LINE">
    <line class="cls-1" x1="482.1" y1="130.5" x2="482.1" y2="133.4"/>
  </g>
  <g id="LINE-264" data-name="LINE">
    <line class="cls-1" x1="493.3" y1="96.7" x2="493.3" y2="112.2"/>
  </g>
  <g id="LINE-265" data-name="LINE">
    <line class="cls-1" x1="572" y1="105.3" x2="574.9" y2="105.3"/>
  </g>
  <g id="LINE-266" data-name="LINE">
    <line class="cls-1" x1="503.5" y1="108.4" x2="519.3" y2="114.4"/>
  </g>
  <g id="LINE-267" data-name="LINE">
    <line class="cls-1" x1="483.6" y1="121.7" x2="483.6" y2="133.4"/>
  </g>
  <g id="LINE-268" data-name="LINE">
    <line class="cls-1" x1="519.3" y1="132" x2="519.3" y2="150.3"/>
  </g>
  <g id="LINE-269" data-name="LINE">
    <line class="cls-1" x1="378.2" y1="218.2" x2="378.2" y2="210.5"/>
  </g>
  <g id="LINE-270" data-name="LINE">
    <line class="cls-1" x1="381.6" y1="211.8" x2="383.2" y2="212.4"/>
  </g>
  <g id="LINE-271" data-name="LINE">
    <line class="cls-1" x1="398.4" y1="213.4" x2="398.4" y2="208.7"/>
  </g>
  <g id="LINE-272" data-name="LINE">
    <line class="cls-1" x1="381.6" y1="219.9" x2="378.2" y2="219.9"/>
  </g>
  <g id="LINE-273" data-name="LINE">
    <line class="cls-1" x1="494.7" y1="84.6" x2="494.7" y2="115"/>
  </g>
  <g id="LINE-274" data-name="LINE">
    <line class="cls-1" x1="248.6" y1="152.1" x2="218.7" y2="235.6"/>
  </g>
  <g id="LINE-275" data-name="LINE">
    <line class="cls-1" x1="187.4" y1="224.8" x2="218.7" y2="235.6"/>
  </g>
  <g id="LINE-276" data-name="LINE">
    <line class="cls-1" x1="565.9" y1="132" x2="519.3" y2="132"/>
  </g>
  <g id="LINE-277" data-name="LINE">
    <line class="cls-1" x1="95.6" y1="208.9" x2="109.9" y2="225.1"/>
  </g>
  <g id="LINE-278" data-name="LINE">
    <line class="cls-1" x1="188.6" y1="199.1" x2="186.1" y2="207.5"/>
  </g>
  <g id="LINE-279" data-name="LINE">
    <line class="cls-1" x1="195.7" y1="201.7" x2="188.6" y2="199.1"/>
  </g>
  <g id="LINE-280" data-name="LINE">
    <line class="cls-1" x1="109.9" y1="225.1" x2="137.7" y2="238.8"/>
  </g>
  <g id="LINE-281" data-name="LINE">
    <line class="cls-1" x1="437" y1="148.1" x2="482.1" y2="165.1"/>
  </g>
  <g id="LINE-282" data-name="LINE">
    <line class="cls-1" x1="441.5" y1="105.9" x2="448.1" y2="108.4"/>
  </g>
  <g id="LINE-283" data-name="LINE">
    <line class="cls-1" x1="448.1" y1="96.3" x2="448.1" y2="103.8"/>
  </g>
  <g id="LINE-284" data-name="LINE">
    <line class="cls-1" x1="475" y1="183.1" x2="475" y2="171.4"/>
  </g>
  <g id="LINE-285" data-name="LINE">
    <line class="cls-1" x1="501.2" y1="157.1" x2="519.3" y2="150.3"/>
  </g>
  <g id="LINE-286" data-name="LINE">
    <line class="cls-1" x1="519.3" y1="84.6" x2="494.7" y2="84.6"/>
  </g>
  <g id="LINE-287" data-name="LINE">
    <line class="cls-1" x1="113" y1="221.2" x2="135.5" y2="232.2"/>
  </g>
  <g id="LINE-288" data-name="LINE">
    <line class="cls-1" x1="591" y1="122.9" x2="584.5" y2="120.1"/>
  </g>
  <g id="LINE-289" data-name="LINE">
    <line class="cls-1" x1="358.7" y1="44.7" x2="360.1" y2="44.7"/>
  </g>
  <g id="LINE-290" data-name="LINE">
    <line class="cls-1" x1="360.1" y1="38.3" x2="362" y2="37.3"/>
  </g>
  <g id="LINE-291" data-name="LINE">
    <line class="cls-1" x1="580.8" y1="107.5" x2="574.9" y2="105.3"/>
  </g>
  <g id="LINE-292" data-name="LINE">
    <line class="cls-1" x1="358.7" y1="48.5" x2="358.7" y2="66.7"/>
  </g>
  <g id="LINE-293" data-name="LINE">
    <line class="cls-1" x1="456.3" y1="60.4" x2="450.9" y2="79.5"/>
  </g>
  <g id="LINE-294" data-name="LINE">
    <line class="cls-1" x1="466.7" y1="91.8" x2="472.3" y2="75.7"/>
  </g>
  <g id="LINE-295" data-name="LINE">
    <line class="cls-1" x1="470.2" y1="86.1" x2="493.3" y2="94.9"/>
  </g>
  <g id="LINE-296" data-name="LINE">
    <line class="cls-1" x1="398.5" y1="61.8" x2="417.7" y2="69.1"/>
  </g>
  <g id="LINE-297" data-name="LINE">
    <line class="cls-1" x1="420.4" y1="59.5" x2="421.8" y2="60"/>
  </g>
  <g id="LINE-298" data-name="LINE">
    <line class="cls-1" x1="421.9" y1="54.5" x2="423.2" y2="55"/>
  </g>
  <g id="LINE-299" data-name="LINE">
    <line class="cls-1" x1="460.4" y1="114.5" x2="460.4" y2="127.8"/>
  </g>
  <g id="LINE-300" data-name="LINE">
    <line class="cls-1" x1="420.4" y1="59.5" x2="417.7" y2="69.1"/>
  </g>
  <g id="LINE-301" data-name="LINE">
    <line class="cls-1" x1="258" y1="147.6" x2="390.3" y2="197.6"/>
  </g>
  <g id="LINE-302" data-name="LINE">
    <line class="cls-1" x1="482.1" y1="142.4" x2="482.1" y2="167.3"/>
  </g>
  <g id="LINE-303" data-name="LINE">
    <line class="cls-1" x1="375.7" y1="48.1" x2="394.4" y2="55.1"/>
  </g>
  <g id="LINE-304" data-name="LINE">
    <line class="cls-1" x1="394.4" y1="55.1" x2="398.5" y2="61.8"/>
  </g>
  <g id="LINE-305" data-name="LINE">
    <line class="cls-1" x1="168" y1="98.7" x2="414" y2="191.8"/>
  </g>
  <g id="LINE-306" data-name="LINE">
    <line class="cls-1" x1="448.8" y1="179.9" x2="482.1" y2="167.3"/>
  </g>
  <g id="LINE-307" data-name="LINE">
    <line class="cls-1" x1="448.9" y1="181.3" x2="448.9" y2="179.6"/>
  </g>
  <g id="LINE-308" data-name="LINE">
    <line class="cls-1" x1="349.1" y1="66.4" x2="349.1" y2="158.9"/>
  </g>
  <g id="LINE-309" data-name="LINE">
    <line class="cls-1" x1="349.1" y1="159" x2="349.1" y2="167.2"/>
  </g>
  <g id="LINE-310" data-name="LINE">
    <line class="cls-1" x1="482.1" y1="116.5" x2="482.1" y2="129"/>
  </g>
  <g id="LINE-311" data-name="LINE">
    <line class="cls-1" x1="519.3" y1="84.6" x2="519.3" y2="114.4"/>
  </g>
  <g id="LINE-312" data-name="LINE">
    <line class="cls-1" x1="460.2" y1="114.9" x2="469.6" y2="87.7"/>
  </g>
  <g id="LINE-313" data-name="LINE">
    <line class="cls-1" x1="365.3" y1="152.9" x2="437" y2="125.8"/>
  </g>
  <g id="LINE-314" data-name="LINE">
    <line class="cls-1" x1="380.4" y1="31.6" x2="493.3" y2="74.3"/>
  </g>
</svg>