<?xml version="1.0" encoding="UTF-8"?>
<svg id="Make2D_Visible_Curves" data-name="Make2D$Visible$Curves" xmlns="http://www.w3.org/2000/svg" viewBox="0 0 307.9 227.5">
  <defs>
    <style>
      .cls-1 {
        fill: none;
        stroke: #a52525;
        stroke-linecap: round;
        stroke-linejoin: round;
        stroke-width: .7px;
      }
    </style>
  </defs>
  <g id="LINE">
    <line class="cls-1" x1="58.4" y1="166.1" x2="58.5" y2="171.7"/>
  </g>
  <g id="LINE-2" data-name="LINE">
    <line class="cls-1" x1="4.2" y1="99.7" x2="4.2" y2="145.7"/>
  </g>
  <g id="LINE-3" data-name="LINE">
    <line class="cls-1" x1="58.6" y1="159.3" x2="58" y2="159.3"/>
  </g>
  <g id="LINE-4" data-name="LINE">
    <line class="cls-1" x1="58.6" y1="143.9" x2="68.3" y2="147.3"/>
  </g>
  <g id="LINE-5" data-name="LINE">
    <line class="cls-1" x1="58" y1="150.5" x2="58.6" y2="150.5"/>
  </g>
  <g id="LINE-6" data-name="LINE">
    <line class="cls-1" x1="58.6" y1="143.9" x2="58.6" y2="150.5"/>
  </g>
  <g id="LINE-7" data-name="LINE">
    <line class="cls-1" x1="45.9" y1="160.9" x2="58" y2="165.1"/>
  </g>
  <g id="LINE-8" data-name="LINE">
    <line class="cls-1" x1="58" y1="142.8" x2="58" y2="150.5"/>
  </g>
  <g id="LINE-9" data-name="LINE">
    <line class="cls-1" x1="69.2" y1="148.3" x2="69.2" y2="146.8"/>
  </g>
  <g id="LINE-10" data-name="LINE">
    <line class="cls-1" x1="45.8" y1="161.6" x2="58.4" y2="166.1"/>
  </g>
  <g id="LINE-11" data-name="LINE">
    <line class="cls-1" x1="38.1" y1="99.7" x2="38.1" y2="145.7"/>
  </g>
  <g id="LINE-12" data-name="LINE">
    <line class="cls-1" x1="38.1" y1="145.7" x2="35.1" y2="145.7"/>
  </g>
  <g id="LINE-13" data-name="LINE">
    <line class="cls-1" x1="4.2" y1="58.6" x2="4.2" y2="98.7"/>
  </g>
  <g id="LINE-14" data-name="LINE">
    <line class="cls-1" x1="17.1" y1="98.7" x2="17.1" y2="99.7"/>
  </g>
  <g id="LINE-15" data-name="LINE">
    <line class="cls-1" x1="4.2" y1="99.7" x2="7.4" y2="99.7"/>
  </g>
  <g id="LINE-16" data-name="LINE">
    <line class="cls-1" x1="45.8" y1="56" x2="41.7" y2="57.4"/>
  </g>
  <g id="LINE-17" data-name="LINE">
    <line class="cls-1" x1="41.1" y1="64.2" x2="46" y2="65.9"/>
  </g>
  <g id="LINE-18" data-name="LINE">
    <line class="cls-1" x1="46" y1="57.9" x2="46" y2="65.9"/>
  </g>
  <g id="LINE-19" data-name="LINE">
    <line class="cls-1" x1="26.8" y1="56.5" x2="26.8" y2="54.6"/>
  </g>
  <g id="LINE-20" data-name="LINE">
    <line class="cls-1" x1="26.8" y1="54.6" x2="33.6" y2="57.7"/>
  </g>
  <g id="LINE-21" data-name="LINE">
    <line class="cls-1" x1="66.4" y1="73.1" x2="68.7" y2="73.9"/>
  </g>
  <g id="LINE-22" data-name="LINE">
    <line class="cls-1" x1="1" y1="2" x2="273.5" y2="97.8"/>
  </g>
  <g id="LINE-23" data-name="LINE">
    <line class="cls-1" x1="12.4" y1="23.7" x2="14.7" y2="22.9"/>
  </g>
  <g id="LINE-24" data-name="LINE">
    <line class="cls-1" x1="11.4" y1="35.8" x2="11.4" y2="52.1"/>
  </g>
  <g id="LINE-25" data-name="LINE">
    <line class="cls-1" x1="4.2" y1="58.6" x2="17.8" y2="58.6"/>
  </g>
  <g id="LINE-26" data-name="LINE">
    <line class="cls-1" x1="17.8" y1="58.6" x2="17.8" y2="57.7"/>
  </g>
  <g id="LINE-27" data-name="LINE">
    <line class="cls-1" x1="138.9" y1="54.3" x2="138.9" y2="67.1"/>
  </g>
  <g id="LINE-28" data-name="LINE">
    <line class="cls-1" x1="138.9" y1="67.1" x2="139.4" y2="67.1"/>
  </g>
  <g id="LINE-29" data-name="LINE">
    <line class="cls-1" x1="139.4" y1="67.1" x2="139.4" y2="65.5"/>
  </g>
  <g id="LINE-30" data-name="LINE">
    <line class="cls-1" x1="139.4" y1="65.5" x2="148.8" y2="61.7"/>
  </g>
  <g id="LINE-31" data-name="LINE">
    <line class="cls-1" x1="148.8" y1="61.7" x2="160.5" y2="61.9"/>
  </g>
  <g id="LINE-32" data-name="LINE">
    <line class="cls-1" x1="174.7" y1="100.4" x2="174.7" y2="99.6"/>
  </g>
  <g id="LINE-33" data-name="LINE">
    <line class="cls-1" x1="174.7" y1="99.6" x2="173.6" y2="99.6"/>
  </g>
  <g id="LINE-34" data-name="LINE">
    <line class="cls-1" x1="173.6" y1="99.6" x2="173.6" y2="100.8"/>
  </g>
  <g id="LINE-35" data-name="LINE">
    <line class="cls-1" x1="250.3" y1="104.3" x2="239.8" y2="100.4"/>
  </g>
  <g id="LINE-36" data-name="LINE">
    <line class="cls-1" x1="168.9" y1="64.8" x2="168.9" y2="74.5"/>
  </g>
  <g id="LINE-37" data-name="LINE">
    <line class="cls-1" x1="35.1" y1="145.7" x2="35.1" y2="146.5"/>
  </g>
  <g id="LINE-38" data-name="LINE">
    <line class="cls-1" x1="35.1" y1="146.5" x2="40.5" y2="148.8"/>
  </g>
  <g id="LINE-39" data-name="LINE">
    <line class="cls-1" x1="40.5" y1="148.8" x2="46.7" y2="146.4"/>
  </g>
  <g id="LINE-40" data-name="LINE">
    <line class="cls-1" x1="46.7" y1="146.4" x2="46.7" y2="130.4"/>
  </g>
  <g id="LINE-41" data-name="LINE">
    <line class="cls-1" x1="30.6" y1="145.7" x2="4.2" y2="145.7"/>
  </g>
  <g id="LINE-42" data-name="LINE">
    <line class="cls-1" x1="176.6" y1="77.9" x2="179.7" y2="76.7"/>
  </g>
  <g id="LINE-43" data-name="LINE">
    <line class="cls-1" x1="179.7" y1="76.7" x2="179.7" y2="83.5"/>
  </g>
  <g id="LINE-44" data-name="LINE">
    <line class="cls-1" x1="179.7" y1="83.5" x2="203.1" y2="75.4"/>
  </g>
  <g id="LINE-45" data-name="LINE">
    <line class="cls-1" x1="203.1" y1="75.4" x2="203.1" y2="73.8"/>
  </g>
  <g id="LINE-46" data-name="LINE">
    <line class="cls-1" x1="77.4" y1="133.2" x2="77.4" y2="133.3"/>
  </g>
  <g id="LINE-47" data-name="LINE">
    <line class="cls-1" x1="46.6" y1="55.7" x2="46.6" y2="40.2"/>
  </g>
  <g id="LINE-48" data-name="LINE">
    <line class="cls-1" x1="35.7" y1="157.3" x2="36.9" y2="157.8"/>
  </g>
  <g id="LINE-49" data-name="LINE">
    <line class="cls-1" x1="36.9" y1="157.8" x2="38" y2="157.8"/>
  </g>
  <g id="LINE-50" data-name="LINE">
    <line class="cls-1" x1="139.4" y1="74.8" x2="148.4" y2="77.8"/>
  </g>
  <g id="LINE-51" data-name="LINE">
    <line class="cls-1" x1="148.4" y1="77.8" x2="148.4" y2="93.5"/>
  </g>
  <g id="LINE-52" data-name="LINE">
    <line class="cls-1" x1="148.4" y1="93.5" x2="148.4" y2="99.6"/>
  </g>
  <g id="LINE-53" data-name="LINE">
    <line class="cls-1" x1="45.8" y1="56" x2="45.8" y2="40.2"/>
  </g>
  <g id="LINE-54" data-name="LINE">
    <line class="cls-1" x1="20.8" y1="20.8" x2="26.3" y2="20.8"/>
  </g>
  <g id="LINE-55" data-name="LINE">
    <line class="cls-1" x1="35.7" y1="157.3" x2="35.7" y2="163.5"/>
  </g>
  <g id="LINE-56" data-name="LINE">
    <line class="cls-1" x1="170.7" y1="217.8" x2="204" y2="206.1"/>
  </g>
  <g id="LINE-57" data-name="LINE">
    <line class="cls-1" x1="2.6" y1="11.7" x2="2.6" y2="16.9"/>
  </g>
  <g id="LINE-58" data-name="LINE">
    <line class="cls-1" x1="2.6" y1="16.9" x2="12.3" y2="20.2"/>
  </g>
  <g id="LINE-59" data-name="LINE">
    <line class="cls-1" x1="12.3" y1="20.2" x2="14.7" y2="17.8"/>
  </g>
  <g id="LINE-60" data-name="LINE">
    <line class="cls-1" x1="159.4" y1="86.6" x2="160.8" y2="85.9"/>
  </g>
  <g id="LINE-61" data-name="LINE">
    <line class="cls-1" x1="160.8" y1="78.3" x2="170.6" y2="75.2"/>
  </g>
  <g id="LINE-62" data-name="LINE">
    <line class="cls-1" x1="168.9" y1="74.5" x2="159.4" y2="77.5"/>
  </g>
  <g id="LINE-63" data-name="LINE">
    <line class="cls-1" x1="2.6" y1="11.7" x2="11.7" y2="7.8"/>
  </g>
  <g id="LINE-64" data-name="LINE">
    <line class="cls-1" x1="11.7" y1="7.8" x2="22.1" y2="11.7"/>
  </g>
  <g id="LINE-65" data-name="LINE">
    <line class="cls-1" x1="22.1" y1="11.7" x2="22.1" y2="16.9"/>
  </g>
  <g id="LINE-66" data-name="LINE">
    <line class="cls-1" x1="22.1" y1="16.9" x2="20.8" y2="16.9"/>
  </g>
  <g id="LINE-67" data-name="LINE">
    <line class="cls-1" x1="20.8" y1="16.9" x2="20.8" y2="20.8"/>
  </g>
  <g id="LINE-68" data-name="LINE">
    <line class="cls-1" x1="204" y1="217.2" x2="204" y2="217.7"/>
  </g>
  <g id="LINE-69" data-name="LINE">
    <line class="cls-1" x1="1.7" y1="35.8" x2="6.1" y2="35.8"/>
  </g>
  <g id="LINE-70" data-name="LINE">
    <line class="cls-1" x1="6.1" y1="35.8" x2="6.1" y2="35.1"/>
  </g>
  <g id="LINE-71" data-name="LINE">
    <line class="cls-1" x1="204" y1="206.1" x2="204" y2="213.5"/>
  </g>
  <g id="LINE-72" data-name="LINE">
    <line class="cls-1" x1="1.7" y1="27.5" x2="1.7" y2="35.1"/>
  </g>
  <g id="LINE-73" data-name="LINE">
    <line class="cls-1" x1="235.9" y1="101.7" x2="235.9" y2="106.9"/>
  </g>
  <g id="LINE-74" data-name="LINE">
    <line class="cls-1" x1="174.7" y1="95.2" x2="174.7" y2="88.6"/>
  </g>
  <g id="LINE-75" data-name="LINE">
    <line class="cls-1" x1="170.6" y1="75.2" x2="170.6" y2="73.9"/>
  </g>
  <g id="LINE-76" data-name="LINE">
    <line class="cls-1" x1="191" y1="157.6" x2="193.9" y2="156.5"/>
  </g>
  <g id="LINE-77" data-name="LINE">
    <line class="cls-1" x1="170.7" y1="182.3" x2="194.4" y2="173.9"/>
  </g>
  <g id="LINE-78" data-name="LINE">
    <line class="cls-1" x1="194.4" y1="160.3" x2="194.4" y2="173.9"/>
  </g>
  <g id="LINE-79" data-name="LINE">
    <line class="cls-1" x1="91.7" y1="209.5" x2="91.7" y2="214.6"/>
  </g>
  <g id="LINE-80" data-name="LINE">
    <line class="cls-1" x1="190.9" y1="161.5" x2="194.4" y2="160.3"/>
  </g>
  <g id="LINE-81" data-name="LINE">
    <line class="cls-1" x1="190.9" y1="161.1" x2="190.9" y2="161.5"/>
  </g>
  <g id="LINE-82" data-name="LINE">
    <line class="cls-1" x1="190.7" y1="156.5" x2="191" y2="156.4"/>
  </g>
  <g id="LINE-83" data-name="LINE">
    <line class="cls-1" x1="183.1" y1="160.3" x2="185.6" y2="159.5"/>
  </g>
  <g id="LINE-84" data-name="LINE">
    <line class="cls-1" x1="185.6" y1="158.3" x2="185.9" y2="158.2"/>
  </g>
  <g id="LINE-85" data-name="LINE">
    <line class="cls-1" x1="106.3" y1="84.8" x2="106.3" y2="51.7"/>
  </g>
  <g id="LINE-86" data-name="LINE">
    <line class="cls-1" x1="146" y1="101.1" x2="146" y2="166.2"/>
  </g>
  <g id="LINE-87" data-name="LINE">
    <line class="cls-1" x1="102.6" y1="62" x2="70.2" y2="50.4"/>
  </g>
  <g id="LINE-88" data-name="LINE">
    <line class="cls-1" x1="30.6" y1="172.8" x2="30.6" y2="180.9"/>
  </g>
  <g id="LINE-89" data-name="LINE">
    <line class="cls-1" x1="20.1" y1="65.3" x2="21.3" y2="65.3"/>
  </g>
  <g id="LINE-90" data-name="LINE">
    <line class="cls-1" x1="66.4" y1="123.5" x2="68.7" y2="122.7"/>
  </g>
  <g id="LINE-91" data-name="LINE">
    <line class="cls-1" x1="239.8" y1="100.4" x2="235.9" y2="101.7"/>
  </g>
  <g id="LINE-92" data-name="LINE">
    <line class="cls-1" x1="38" y1="157.8" x2="38" y2="156"/>
  </g>
  <g id="LINE-93" data-name="LINE">
    <line class="cls-1" x1="38" y1="156" x2="41.1" y2="154.8"/>
  </g>
  <g id="LINE-94" data-name="LINE">
    <line class="cls-1" x1="41.1" y1="154.8" x2="45.9" y2="157.2"/>
  </g>
  <g id="LINE-95" data-name="LINE">
    <line class="cls-1" x1="45.9" y1="157.2" x2="45.9" y2="160.9"/>
  </g>
  <g id="LINE-96" data-name="LINE">
    <line class="cls-1" x1="38.1" y1="77.5" x2="41.1" y2="76.2"/>
  </g>
  <g id="LINE-97" data-name="LINE">
    <line class="cls-1" x1="174.7" y1="108.2" x2="174.7" y2="100.4"/>
  </g>
  <g id="LINE-98" data-name="LINE">
    <line class="cls-1" x1="138.9" y1="72.8" x2="139.4" y2="72.8"/>
  </g>
  <g id="LINE-99" data-name="LINE">
    <line class="cls-1" x1="22.6" y1="57.7" x2="22.6" y2="55.1"/>
  </g>
  <g id="LINE-100" data-name="LINE">
    <line class="cls-1" x1="48.8" y1="57" x2="46" y2="57.9"/>
  </g>
  <g id="LINE-101" data-name="LINE">
    <line class="cls-1" x1="45.8" y1="40.2" x2="46.6" y2="40.2"/>
  </g>
  <g id="LINE-102" data-name="LINE">
    <line class="cls-1" x1="48.8" y1="57" x2="48.8" y2="55"/>
  </g>
  <g id="LINE-103" data-name="LINE">
    <line class="cls-1" x1="46.6" y1="35.1" x2="46.6" y2="35.1"/>
  </g>
  <g id="LINE-104" data-name="LINE">
    <line class="cls-1" x1="38.1" y1="85" x2="41.1" y2="86.3"/>
  </g>
  <g id="LINE-105" data-name="LINE">
    <line class="cls-1" x1="20.1" y1="70.4" x2="21.3" y2="70.4"/>
  </g>
  <g id="LINE-106" data-name="LINE">
    <line class="cls-1" x1="35.7" y1="174.2" x2="42.4" y2="171"/>
  </g>
  <g id="LINE-107" data-name="LINE">
    <line class="cls-1" x1="42.4" y1="171" x2="42.4" y2="175"/>
  </g>
  <g id="LINE-108" data-name="LINE">
    <line class="cls-1" x1="42.4" y1="175" x2="46.6" y2="175.8"/>
  </g>
  <g id="LINE-109" data-name="LINE">
    <line class="cls-1" x1="159.4" y1="77.5" x2="159.4" y2="86.6"/>
  </g>
  <g id="LINE-110" data-name="LINE">
    <line class="cls-1" x1="6.5" y1="190" x2="30.2" y2="181.6"/>
  </g>
  <g id="LINE-111" data-name="LINE">
    <line class="cls-1" x1="30.6" y1="180.9" x2="35.7" y2="180.9"/>
  </g>
  <g id="LINE-112" data-name="LINE">
    <line class="cls-1" x1="169.4" y1="64.5" x2="172.2" y2="63"/>
  </g>
  <g id="LINE-113" data-name="LINE">
    <line class="cls-1" x1="235.9" y1="106.9" x2="230.8" y2="108.8"/>
  </g>
  <g id="LINE-114" data-name="LINE">
    <line class="cls-1" x1="6.5" y1="148.5" x2="10.4" y2="149.9"/>
  </g>
  <g id="LINE-115" data-name="LINE">
    <line class="cls-1" x1="6.5" y1="148.5" x2="6.5" y2="190"/>
  </g>
  <g id="LINE-116" data-name="LINE">
    <line class="cls-1" x1="173.6" y1="100.8" x2="163" y2="104.8"/>
  </g>
  <g id="LINE-117" data-name="LINE">
    <line class="cls-1" x1="58" y1="159.3" x2="58" y2="165.1"/>
  </g>
  <g id="LINE-118" data-name="LINE">
    <line class="cls-1" x1="36.7" y1="62.6" x2="38.1" y2="63.1"/>
  </g>
  <g id="LINE-119" data-name="LINE">
    <line class="cls-1" x1="12.4" y1="33" x2="12.4" y2="51.5"/>
  </g>
  <g id="LINE-120" data-name="LINE">
    <line class="cls-1" x1="66.4" y1="73.1" x2="66.4" y2="123.5"/>
  </g>
  <g id="LINE-121" data-name="LINE">
    <line class="cls-1" x1="57.9" y1="70.1" x2="66" y2="72.9"/>
  </g>
  <g id="LINE-122" data-name="LINE">
    <line class="cls-1" x1="27.2" y1="20.8" x2="27.2" y2="47.2"/>
  </g>
  <g id="LINE-123" data-name="LINE">
    <line class="cls-1" x1="27.2" y1="47.2" x2="26.3" y2="47.2"/>
  </g>
  <g id="LINE-124" data-name="LINE">
    <line class="cls-1" x1="26.3" y1="47.2" x2="26.3" y2="20.8"/>
  </g>
  <g id="LINE-125" data-name="LINE">
    <line class="cls-1" x1="76.5" y1="32.4" x2="138.9" y2="54.3"/>
  </g>
  <g id="LINE-126" data-name="LINE">
    <line class="cls-1" x1="41.1" y1="64.2" x2="41.1" y2="76.2"/>
  </g>
  <g id="LINE-127" data-name="LINE">
    <line class="cls-1" x1="41.1" y1="86.3" x2="41.1" y2="132.4"/>
  </g>
  <g id="LINE-128" data-name="LINE">
    <line class="cls-1" x1="48.8" y1="55" x2="46.6" y2="55.7"/>
  </g>
  <g id="LINE-129" data-name="LINE">
    <line class="cls-1" x1="20.1" y1="57.7" x2="20.1" y2="65.3"/>
  </g>
  <g id="LINE-130" data-name="LINE">
    <line class="cls-1" x1="13.6" y1="51.9" x2="26.8" y2="51.9"/>
  </g>
  <g id="LINE-131" data-name="LINE">
    <line class="cls-1" x1="26.8" y1="51.9" x2="26.8" y2="52.5"/>
  </g>
  <g id="LINE-132" data-name="LINE">
    <line class="cls-1" x1="26.8" y1="52.5" x2="13.9" y2="52.5"/>
  </g>
  <g id="LINE-133" data-name="LINE">
    <line class="cls-1" x1="7.4" y1="98.7" x2="7.4" y2="99.7"/>
  </g>
  <g id="LINE-134" data-name="LINE">
    <line class="cls-1" x1="21.3" y1="98.7" x2="38.1" y2="98.7"/>
  </g>
  <g id="LINE-135" data-name="LINE">
    <line class="cls-1" x1="4.2" y1="51.2" x2="13.9" y2="54.6"/>
  </g>
  <g id="LINE-136" data-name="LINE">
    <line class="cls-1" x1="41.7" y1="57.4" x2="33.6" y2="57.7"/>
  </g>
  <g id="LINE-137" data-name="LINE">
    <line class="cls-1" x1="41.1" y1="132.4" x2="46.7" y2="130.4"/>
  </g>
  <g id="LINE-138" data-name="LINE">
    <line class="cls-1" x1="21.3" y1="62.6" x2="36.7" y2="62.6"/>
  </g>
  <g id="LINE-139" data-name="LINE">
    <line class="cls-1" x1="170.6" y1="73.9" x2="169.4" y2="73.9"/>
  </g>
  <g id="LINE-140" data-name="LINE">
    <line class="cls-1" x1="169.4" y1="73.9" x2="169.4" y2="64.5"/>
  </g>
  <g id="LINE-141" data-name="LINE">
    <line class="cls-1" x1="22.6" y1="55.1" x2="26.8" y2="56.5"/>
  </g>
  <g id="LINE-142" data-name="LINE">
    <line class="cls-1" x1="11.8" y1="33" x2="11.8" y2="35.1"/>
  </g>
  <g id="LINE-143" data-name="LINE">
    <line class="cls-1" x1="21.3" y1="70.4" x2="21.3" y2="98.7"/>
  </g>
  <g id="LINE-144" data-name="LINE">
    <line class="cls-1" x1="21.3" y1="62.6" x2="21.3" y2="65.3"/>
  </g>
  <g id="LINE-145" data-name="LINE">
    <line class="cls-1" x1="180.1" y1="110.1" x2="191.5" y2="110.1"/>
  </g>
  <g id="LINE-146" data-name="LINE">
    <line class="cls-1" x1="191.5" y1="110.1" x2="193.9" y2="109"/>
  </g>
  <g id="LINE-147" data-name="LINE">
    <line class="cls-1" x1="193.9" y1="109" x2="193.9" y2="106.1"/>
  </g>
  <g id="LINE-148" data-name="LINE">
    <line class="cls-1" x1="193.9" y1="106.1" x2="194.8" y2="106.1"/>
  </g>
  <g id="LINE-149" data-name="LINE">
    <line class="cls-1" x1="194.8" y1="106.1" x2="194.8" y2="115.9"/>
  </g>
  <g id="LINE-150" data-name="LINE">
    <line class="cls-1" x1="194.8" y1="115.9" x2="216" y2="115.9"/>
  </g>
  <g id="LINE-151" data-name="LINE">
    <line class="cls-1" x1="216" y1="115.9" x2="216" y2="108.8"/>
  </g>
  <g id="LINE-152" data-name="LINE">
    <line class="cls-1" x1="216" y1="108.8" x2="230.8" y2="108.8"/>
  </g>
  <g id="LINE-153" data-name="LINE">
    <line class="cls-1" x1="102.4" y1="62.6" x2="102.3" y2="62.7"/>
  </g>
  <g id="LINE-154" data-name="LINE">
    <line class="cls-1" x1="170.7" y1="187.2" x2="170.7" y2="217.8"/>
  </g>
  <g id="LINE-155" data-name="LINE">
    <line class="cls-1" x1="170.7" y1="186.8" x2="170.7" y2="182.3"/>
  </g>
  <g id="LINE-156" data-name="LINE">
    <line class="cls-1" x1="30.2" y1="146.2" x2="30.2" y2="148.4"/>
  </g>
  <g id="LINE-157" data-name="LINE">
    <line class="cls-1" x1="30.2" y1="148.4" x2="28.6" y2="148.4"/>
  </g>
  <g id="LINE-158" data-name="LINE">
    <line class="cls-1" x1="28.6" y1="148.4" x2="28.6" y2="156.9"/>
  </g>
  <g id="LINE-159" data-name="LINE">
    <line class="cls-1" x1="28.6" y1="156.9" x2="30.2" y2="157.5"/>
  </g>
  <g id="LINE-160" data-name="LINE">
    <line class="cls-1" x1="30.2" y1="157.5" x2="30.2" y2="166.6"/>
  </g>
  <g id="LINE-161" data-name="LINE">
    <line class="cls-1" x1="38.1" y1="85" x2="38.1" y2="98.7"/>
  </g>
  <g id="LINE-162" data-name="LINE">
    <line class="cls-1" x1="17.1" y1="99.7" x2="38.1" y2="99.7"/>
  </g>
  <g id="LINE-163" data-name="LINE">
    <line class="cls-1" x1="172.2" y1="63" x2="203.1" y2="73.8"/>
  </g>
  <g id="LINE-164" data-name="LINE">
    <line class="cls-1" x1="236.6" y1="94.1" x2="239.8" y2="95.2"/>
  </g>
  <g id="LINE-165" data-name="LINE">
    <line class="cls-1" x1="148.4" y1="99.6" x2="163" y2="104.8"/>
  </g>
  <g id="LINE-166" data-name="LINE">
    <line class="cls-1" x1="35.7" y1="174.2" x2="35.7" y2="180.9"/>
  </g>
  <g id="LINE-167" data-name="LINE">
    <line class="cls-1" x1="147.6" y1="176.7" x2="161.9" y2="181.5"/>
  </g>
  <g id="LINE-168" data-name="LINE">
    <line class="cls-1" x1="91.7" y1="214.6" x2="170.7" y2="186.8"/>
  </g>
  <g id="LINE-169" data-name="LINE">
    <line class="cls-1" x1="170.6" y1="73.9" x2="170.6" y2="73.9"/>
  </g>
  <g id="LINE-170" data-name="LINE">
    <line class="cls-1" x1="171.4" y1="93.9" x2="173.8" y2="93.3"/>
  </g>
  <g id="LINE-171" data-name="LINE">
    <line class="cls-1" x1="173.8" y1="93.3" x2="173.8" y2="94.8"/>
  </g>
  <g id="LINE-172" data-name="LINE">
    <line class="cls-1" x1="190.7" y1="156.5" x2="190.7" y2="158.1"/>
  </g>
  <g id="LINE-173" data-name="LINE">
    <line class="cls-1" x1="182.8" y1="160.9" x2="185.9" y2="159.8"/>
  </g>
  <g id="LINE-174" data-name="LINE">
    <line class="cls-1" x1="191" y1="156.4" x2="191" y2="157.6"/>
  </g>
  <g id="LINE-175" data-name="LINE">
    <line class="cls-1" x1="185" y1="163.2" x2="185" y2="163.6"/>
  </g>
  <g id="LINE-176" data-name="LINE">
    <line class="cls-1" x1="22.6" y1="57.7" x2="20.1" y2="57.7"/>
  </g>
  <g id="LINE-177" data-name="LINE">
    <line class="cls-1" x1="45.8" y1="35.1" x2="45.8" y2="35.1"/>
  </g>
  <g id="LINE-178" data-name="LINE">
    <line class="cls-1" x1="250.5" y1="197.9" x2="250.5" y2="213.7"/>
  </g>
  <g id="LINE-179" data-name="LINE">
    <line class="cls-1" x1="1.7" y1="35.1" x2="6.1" y2="35.1"/>
  </g>
  <g id="LINE-180" data-name="LINE">
    <line class="cls-1" x1="1" y1="217.2" x2="69.7" y2="217.2"/>
  </g>
  <g id="LINE-181" data-name="LINE">
    <line class="cls-1" x1="74.5" y1="148.6" x2="74.5" y2="132.2"/>
  </g>
  <g id="LINE-182" data-name="LINE">
    <line class="cls-1" x1="1.7" y1="27.5" x2="11.8" y2="23.9"/>
  </g>
  <g id="LINE-183" data-name="LINE">
    <line class="cls-1" x1="14.7" y1="22.9" x2="14.7" y2="17.8"/>
  </g>
  <g id="LINE-184" data-name="LINE">
    <line class="cls-1" x1="262" y1="217.8" x2="250.5" y2="213.7"/>
  </g>
  <g id="LINE-185" data-name="LINE">
    <line class="cls-1" x1="192.1" y1="217.7" x2="204" y2="213.5"/>
  </g>
  <g id="LINE-186" data-name="LINE">
    <line class="cls-1" x1="17.8" y1="57.7" x2="4.2" y2="57.7"/>
  </g>
  <g id="LINE-187" data-name="LINE">
    <line class="cls-1" x1="7.4" y1="98.7" x2="4.2" y2="98.7"/>
  </g>
  <g id="LINE-188" data-name="LINE">
    <line class="cls-1" x1="4.2" y1="51.2" x2="4.2" y2="57.7"/>
  </g>
  <g id="LINE-189" data-name="LINE">
    <line class="cls-1" x1="20.1" y1="70.4" x2="20.1" y2="98.7"/>
  </g>
  <g id="LINE-190" data-name="LINE">
    <line class="cls-1" x1="20.1" y1="98.7" x2="17.1" y2="98.7"/>
  </g>
  <g id="LINE-191" data-name="LINE">
    <line class="cls-1" x1="4.9" y1="146.2" x2="10.4" y2="148.2"/>
  </g>
  <g id="LINE-192" data-name="LINE">
    <line class="cls-1" x1="10.4" y1="148.2" x2="10.4" y2="149.9"/>
  </g>
  <g id="LINE-193" data-name="LINE">
    <line class="cls-1" x1="30.2" y1="172.8" x2="30.6" y2="172.8"/>
  </g>
  <g id="LINE-194" data-name="LINE">
    <line class="cls-1" x1="30.2" y1="166.6" x2="30.6" y2="166.6"/>
  </g>
  <g id="LINE-195" data-name="LINE">
    <line class="cls-1" x1="171.5" y1="159.3" x2="182.8" y2="155"/>
  </g>
  <g id="LINE-196" data-name="LINE">
    <line class="cls-1" x1="46.6" y1="175.8" x2="58.5" y2="171.7"/>
  </g>
  <g id="LINE-197" data-name="LINE">
    <line class="cls-1" x1="1.6" y1="122" x2="1.7" y2="122"/>
  </g>
  <g id="LINE-198" data-name="LINE">
    <line class="cls-1" x1="176.6" y1="77.9" x2="176.6" y2="78.9"/>
  </g>
  <g id="LINE-199" data-name="LINE">
    <line class="cls-1" x1="176.6" y1="78.9" x2="178.8" y2="77.9"/>
  </g>
  <g id="LINE-200" data-name="LINE">
    <line class="cls-1" x1="178.8" y1="77.9" x2="178.8" y2="85.7"/>
  </g>
  <g id="LINE-201" data-name="LINE">
    <line class="cls-1" x1="178.8" y1="85.7" x2="177.6" y2="85.7"/>
  </g>
  <g id="LINE-202" data-name="LINE">
    <line class="cls-1" x1="177.6" y1="85.7" x2="177.6" y2="86.5"/>
  </g>
  <g id="LINE-203" data-name="LINE">
    <line class="cls-1" x1="177.6" y1="86.5" x2="192" y2="86.5"/>
  </g>
  <g id="LINE-204" data-name="LINE">
    <line class="cls-1" x1="192" y1="86.5" x2="194.1" y2="87.6"/>
  </g>
  <g id="LINE-205" data-name="LINE">
    <line class="cls-1" x1="194.1" y1="87.6" x2="194.1" y2="90.4"/>
  </g>
  <g id="LINE-206" data-name="LINE">
    <line class="cls-1" x1="194.1" y1="90.4" x2="194.7" y2="90.4"/>
  </g>
  <g id="LINE-207" data-name="LINE">
    <line class="cls-1" x1="194.7" y1="90.4" x2="194.7" y2="80.2"/>
  </g>
  <g id="LINE-208" data-name="LINE">
    <line class="cls-1" x1="194.7" y1="80.2" x2="215.6" y2="80.2"/>
  </g>
  <g id="LINE-209" data-name="LINE">
    <line class="cls-1" x1="215.6" y1="80.2" x2="215.6" y2="87.7"/>
  </g>
  <g id="LINE-210" data-name="LINE">
    <line class="cls-1" x1="215.6" y1="87.7" x2="236.6" y2="87.7"/>
  </g>
  <g id="LINE-211" data-name="LINE">
    <line class="cls-1" x1="236.6" y1="87.7" x2="236.6" y2="94.1"/>
  </g>
  <g id="LINE-212" data-name="LINE">
    <line class="cls-1" x1="1.7" y1="35.8" x2="1.7" y2="42.2"/>
  </g>
  <g id="LINE-213" data-name="LINE">
    <line class="cls-1" x1="1.7" y1="42.2" x2="3.2" y2="42.2"/>
  </g>
  <g id="LINE-214" data-name="LINE">
    <line class="cls-1" x1="3.2" y1="42.2" x2="3.2" y2="49.2"/>
  </g>
  <g id="LINE-215" data-name="LINE">
    <line class="cls-1" x1="3.2" y1="49.2" x2="11.4" y2="52.1"/>
  </g>
  <g id="LINE-216" data-name="LINE">
    <line class="cls-1" x1="11.8" y1="23.9" x2="11.8" y2="28.7"/>
  </g>
  <g id="LINE-217" data-name="LINE">
    <line class="cls-1" x1="11.8" y1="28.7" x2="12.4" y2="28.7"/>
  </g>
  <g id="LINE-218" data-name="LINE">
    <line class="cls-1" x1="12.4" y1="28.7" x2="12.4" y2="23.7"/>
  </g>
  <g id="LINE-219" data-name="LINE">
    <line class="cls-1" x1="250.3" y1="91.3" x2="259.4" y2="95.2"/>
  </g>
  <g id="LINE-220" data-name="LINE">
    <line class="cls-1" x1="239.8" y1="95.2" x2="250.3" y2="91.3"/>
  </g>
  <g id="LINE-221" data-name="LINE">
    <line class="cls-1" x1="259.4" y1="95.2" x2="259.4" y2="100.4"/>
  </g>
  <g id="LINE-222" data-name="LINE">
    <line class="cls-1" x1="259.4" y1="100.4" x2="250.3" y2="104.3"/>
  </g>
  <g id="LINE-223" data-name="LINE">
    <line class="cls-1" x1="68.7" y1="73.9" x2="68.7" y2="122.7"/>
  </g>
  <g id="LINE-224" data-name="LINE">
    <line class="cls-1" x1="69.2" y1="66.1" x2="69.2" y2="71.8"/>
  </g>
  <g id="LINE-225" data-name="LINE">
    <line class="cls-1" x1="66" y1="72.9" x2="66" y2="123.6"/>
  </g>
  <g id="LINE-226" data-name="LINE">
    <line class="cls-1" x1="13.9" y1="54.6" x2="13.9" y2="52.5"/>
  </g>
  <g id="LINE-227" data-name="LINE">
    <line class="cls-1" x1="9.7" y1="35.1" x2="11.8" y2="35.1"/>
  </g>
  <g id="LINE-228" data-name="LINE">
    <line class="cls-1" x1="11.8" y1="33" x2="12.4" y2="33"/>
  </g>
  <g id="LINE-229" data-name="LINE">
    <line class="cls-1" x1="38.1" y1="63.1" x2="38.1" y2="77.5"/>
  </g>
  <g id="LINE-230" data-name="LINE">
    <line class="cls-1" x1="57.9" y1="70.1" x2="69.2" y2="66.1"/>
  </g>
  <g id="LINE-231" data-name="LINE">
    <line class="cls-1" x1="30.6" y1="145.7" x2="30.6" y2="148.7"/>
  </g>
  <g id="LINE-232" data-name="LINE">
    <line class="cls-1" x1="30.6" y1="148.7" x2="29" y2="148.7"/>
  </g>
  <g id="LINE-233" data-name="LINE">
    <line class="cls-1" x1="29" y1="148.7" x2="29" y2="156.6"/>
  </g>
  <g id="LINE-234" data-name="LINE">
    <line class="cls-1" x1="29" y1="156.6" x2="30.6" y2="157.3"/>
  </g>
  <g id="LINE-235" data-name="LINE">
    <line class="cls-1" x1="30.6" y1="157.3" x2="30.6" y2="166.5"/>
  </g>
  <g id="LINE-236" data-name="LINE">
    <line class="cls-1" x1="30.6" y1="166.5" x2="30.6" y2="166.6"/>
  </g>
  <g id="LINE-237" data-name="LINE">
    <line class="cls-1" x1="171.5" y1="167.9" x2="185" y2="163.2"/>
  </g>
  <g id="LINE-238" data-name="LINE">
    <line class="cls-1" x1="35.7" y1="163.5" x2="40.6" y2="165.2"/>
  </g>
  <g id="LINE-239" data-name="LINE">
    <line class="cls-1" x1="40.6" y1="165.2" x2="40.6" y2="162.6"/>
  </g>
  <g id="LINE-240" data-name="LINE">
    <line class="cls-1" x1="40.6" y1="162.6" x2="45.8" y2="161.6"/>
  </g>
  <g id="LINE-241" data-name="LINE">
    <line class="cls-1" x1="160.8" y1="85.9" x2="160.8" y2="78.3"/>
  </g>
  <g id="LINE-242" data-name="LINE">
    <line class="cls-1" x1="1" y1="193.6" x2="69.2" y2="169.7"/>
  </g>
  <g id="LINE-243" data-name="LINE">
    <line class="cls-1" x1="70.2" y1="50.4" x2="76.5" y2="32.4"/>
  </g>
  <g id="LINE-244" data-name="LINE">
    <line class="cls-1" x1="160.5" y1="61.9" x2="168.9" y2="64.8"/>
  </g>
  <g id="LINE-245" data-name="LINE">
    <line class="cls-1" x1="58.6" y1="159.3" x2="58.6" y2="163.7"/>
  </g>
  <g id="LINE-246" data-name="LINE">
    <line class="cls-1" x1="58.6" y1="163.7" x2="68.3" y2="163.7"/>
  </g>
  <g id="LINE-247" data-name="LINE">
    <line class="cls-1" x1="68.3" y1="163.7" x2="68.3" y2="147.3"/>
  </g>
  <g id="LINE-248" data-name="LINE">
    <line class="cls-1" x1="30.2" y1="172.8" x2="30.2" y2="181.6"/>
  </g>
  <g id="LINE-249" data-name="LINE">
    <line class="cls-1" x1="185.6" y1="158.3" x2="185.6" y2="159.5"/>
  </g>
  <g id="LINE-250" data-name="LINE">
    <line class="cls-1" x1="148.5" y1="174.6" x2="162.8" y2="179.4"/>
  </g>
  <g id="LINE-251" data-name="LINE">
    <line class="cls-1" x1="106.3" y1="51.7" x2="102.6" y2="62"/>
  </g>
  <g id="LINE-252" data-name="LINE">
    <line class="cls-1" x1="159.7" y1="89.5" x2="174.7" y2="84.3"/>
  </g>
  <g id="LINE-253" data-name="LINE">
    <line class="cls-1" x1="159.7" y1="89.5" x2="171.4" y2="93.9"/>
  </g>
  <g id="LINE-254" data-name="LINE">
    <line class="cls-1" x1="174.7" y1="88.6" x2="174.7" y2="84.3"/>
  </g>
  <g id="LINE-255" data-name="LINE">
    <line class="cls-1" x1="139.4" y1="72.8" x2="139.4" y2="74.8"/>
  </g>
  <g id="LINE-256" data-name="LINE">
    <line class="cls-1" x1="138.9" y1="75.3" x2="147.8" y2="78.3"/>
  </g>
  <g id="LINE-257" data-name="LINE">
    <line class="cls-1" x1="147.8" y1="78.3" x2="147.8" y2="93.7"/>
  </g>
  <g id="LINE-258" data-name="LINE">
    <line class="cls-1" x1="139.7" y1="96.6" x2="147.8" y2="93.7"/>
  </g>
  <g id="LINE-259" data-name="LINE">
    <line class="cls-1" x1="205.2" y1="121.9" x2="273.5" y2="97.8"/>
  </g>
  <g id="LINE-260" data-name="LINE">
    <line class="cls-1" x1="190.5" y1="78.7" x2="200.3" y2="75.3"/>
  </g>
  <g id="LINE-261" data-name="LINE">
    <line class="cls-1" x1="183.1" y1="154.9" x2="183.1" y2="160.3"/>
  </g>
  <g id="LINE-262" data-name="LINE">
    <line class="cls-1" x1="190.7" y1="158.1" x2="194.2" y2="156.9"/>
  </g>
  <g id="LINE-263" data-name="LINE">
    <line class="cls-1" x1="194.2" y1="150.6" x2="194.2" y2="156.9"/>
  </g>
  <g id="LINE-264" data-name="LINE">
    <line class="cls-1" x1="238.7" y1="133.6" x2="306.3" y2="109.9"/>
  </g>
  <g id="LINE-265" data-name="LINE">
    <line class="cls-1" x1="183.1" y1="154.9" x2="193.9" y2="150.7"/>
  </g>
  <g id="LINE-266" data-name="LINE">
    <line class="cls-1" x1="182.8" y1="155" x2="182.8" y2="160.9"/>
  </g>
  <g id="LINE-267" data-name="LINE">
    <line class="cls-1" x1="193.9" y1="150.7" x2="193.9" y2="156.5"/>
  </g>
  <g id="LINE-268" data-name="LINE">
    <line class="cls-1" x1="205.7" y1="146.2" x2="205.7" y2="155.9"/>
  </g>
  <g id="LINE-269" data-name="LINE">
    <line class="cls-1" x1="91.7" y1="209.5" x2="101.1" y2="206.2"/>
  </g>
  <g id="LINE-270" data-name="LINE">
    <line class="cls-1" x1="82.7" y1="199.6" x2="147.6" y2="176.7"/>
  </g>
  <g id="LINE-271" data-name="LINE">
    <line class="cls-1" x1="91.3" y1="215.2" x2="170.7" y2="187.2"/>
  </g>
  <g id="LINE-272" data-name="LINE">
    <line class="cls-1" x1="30.2" y1="146.2" x2="4.9" y2="146.2"/>
  </g>
  <g id="LINE-273" data-name="LINE">
    <line class="cls-1" x1="148.7" y1="102" x2="148.7" y2="167.4"/>
  </g>
  <g id="LINE-274" data-name="LINE">
    <line class="cls-1" x1="161.9" y1="106.6" x2="161.9" y2="169.8"/>
  </g>
  <g id="LINE-275" data-name="LINE">
    <line class="cls-1" x1="190.9" y1="161.1" x2="205.7" y2="155.9"/>
  </g>
  <g id="LINE-276" data-name="LINE">
    <line class="cls-1" x1="106.3" y1="84.8" x2="139.7" y2="96.6"/>
  </g>
  <g id="LINE-277" data-name="LINE">
    <line class="cls-1" x1="69.2" y1="71.8" x2="99.4" y2="82.4"/>
  </g>
  <g id="LINE-278" data-name="LINE">
    <line class="cls-1" x1="91.3" y1="209.6" x2="91.3" y2="215.2"/>
  </g>
  <g id="LINE-279" data-name="LINE">
    <line class="cls-1" x1="69.7" y1="217.2" x2="91.3" y2="209.6"/>
  </g>
  <g id="LINE-280" data-name="LINE">
    <line class="cls-1" x1="180.1" y1="110.1" x2="174.7" y2="108.2"/>
  </g>
  <g id="LINE-281" data-name="LINE">
    <line class="cls-1" x1="138.9" y1="72.8" x2="138.9" y2="75.3"/>
  </g>
  <g id="LINE-282" data-name="LINE">
    <line class="cls-1" x1="173.8" y1="94.8" x2="174.7" y2="95.2"/>
  </g>
  <g id="LINE-283" data-name="LINE">
    <line class="cls-1" x1="185.9" y1="158.2" x2="185.9" y2="159.8"/>
  </g>
  <g id="LINE-284" data-name="LINE">
    <line class="cls-1" x1="162.8" y1="179.4" x2="161.9" y2="181.5"/>
  </g>
  <g id="LINE-285" data-name="LINE">
    <line class="cls-1" x1="9.7" y1="35.1" x2="9.7" y2="35.8"/>
  </g>
  <g id="LINE-286" data-name="LINE">
    <line class="cls-1" x1="9.7" y1="35.8" x2="11.4" y2="35.8"/>
  </g>
  <g id="LINE-287" data-name="LINE">
    <line class="cls-1" x1="69.2" y1="148.3" x2="69.2" y2="193"/>
  </g>
  <g id="LINE-288" data-name="LINE">
    <line class="cls-1" x1="69.2" y1="74" x2="238.7" y2="133.6"/>
  </g>
  <g id="LINE-289" data-name="LINE">
    <line class="cls-1" x1="58" y1="142.8" x2="74.5" y2="148.6"/>
  </g>
  <g id="LINE-290" data-name="LINE">
    <line class="cls-1" x1="58" y1="126.4" x2="74.5" y2="132.2"/>
  </g>
  <g id="LINE-291" data-name="LINE">
    <line class="cls-1" x1="69.2" y1="129.1" x2="77.4" y2="132.1"/>
  </g>
  <g id="LINE-292" data-name="LINE">
    <line class="cls-1" x1="77.4" y1="132.1" x2="77.4" y2="151.3"/>
  </g>
  <g id="LINE-293" data-name="LINE">
    <line class="cls-1" x1="77.4" y1="151.3" x2="69.2" y2="148.3"/>
  </g>
  <g id="LINE-294" data-name="LINE">
    <line class="cls-1" x1="159.2" y1="172.6" x2="185" y2="163.6"/>
  </g>
  <g id="LINE-295" data-name="LINE">
    <line class="cls-1" x1="110.8" y1="188.1" x2="108.4" y2="181.5"/>
  </g>
  <g id="LINE-296" data-name="LINE">
    <line class="cls-1" x1="80.2" y1="198.7" x2="102.5" y2="206.7"/>
  </g>
  <g id="LINE-297" data-name="LINE">
    <line class="cls-1" x1="12.2" y1="51.4" x2="13.6" y2="51.9"/>
  </g>
  <g id="LINE-298" data-name="LINE">
    <line class="cls-1" x1="69.2" y1="74" x2="69.2" y2="130.4"/>
  </g>
  <g id="LINE-299" data-name="LINE">
    <line class="cls-1" x1="58" y1="126.5" x2="66" y2="123.6"/>
  </g>
  <g id="LINE-300" data-name="LINE">
    <line class="cls-1" x1="307" y1="217.8" x2="250.5" y2="197.9"/>
  </g>
  <g id="LINE-301" data-name="LINE">
    <line class="cls-1" x1="1" y1="2" x2="1" y2="193.7"/>
  </g>
  <g id="LINE-302" data-name="LINE">
    <line class="cls-1" x1="194.2" y1="150.6" x2="238.7" y2="133.6"/>
  </g>
  <g id="LINE-303" data-name="LINE">
    <line class="cls-1" x1="307" y1="109.9" x2="307" y2="217.8"/>
  </g>
  <g id="LINE-304" data-name="LINE">
    <line class="cls-1" x1="262" y1="217.8" x2="192.1" y2="217.7"/>
  </g>
  <g id="LINE-305" data-name="LINE">
    <line class="cls-1" x1="27.2" y1="20.8" x2="32.6" y2="18.2"/>
  </g>
  <g id="LINE-306" data-name="LINE">
    <line class="cls-1" x1="32.6" y1="18.2" x2="40.8" y2="18.2"/>
  </g>
  <g id="LINE-307" data-name="LINE">
    <line class="cls-1" x1="40.8" y1="18.2" x2="45.8" y2="19.9"/>
  </g>
  <g id="LINE-308" data-name="LINE">
    <line class="cls-1" x1="45.8" y1="19.9" x2="45.8" y2="35.1"/>
  </g>
  <g id="LINE-309" data-name="LINE">
    <line class="cls-1" x1="45.8" y1="35.1" x2="46.6" y2="35.1"/>
  </g>
  <g id="LINE-310" data-name="LINE">
    <line class="cls-1" x1="46.6" y1="35.1" x2="46.6" y2="26.8"/>
  </g>
  <g id="LINE-311" data-name="LINE">
    <line class="cls-1" x1="46.6" y1="26.8" x2="64.7" y2="26.8"/>
  </g>
  <g id="LINE-312" data-name="LINE">
    <line class="cls-1" x1="64.7" y1="26.8" x2="64.7" y2="49.1"/>
  </g>
  <g id="LINE-313" data-name="LINE">
    <line class="cls-1" x1="64.7" y1="49.1" x2="54.8" y2="52.9"/>
  </g>
  <g id="LINE-314" data-name="LINE">
    <line class="cls-1" x1="54.8" y1="52.9" x2="54.8" y2="54.9"/>
  </g>
  <g id="LINE-315" data-name="LINE">
    <line class="cls-1" x1="54.8" y1="54.9" x2="63" y2="51.9"/>
  </g>
  <g id="LINE-316" data-name="LINE">
    <line class="cls-1" x1="63" y1="51.9" x2="70.1" y2="58.5"/>
  </g>
  <g id="LINE-317" data-name="LINE">
    <line class="cls-1" x1="70.1" y1="58.5" x2="72.4" y2="51.9"/>
  </g>
  <g id="LINE-318" data-name="LINE">
    <line class="cls-1" x1="72.4" y1="51.9" x2="106" y2="64"/>
  </g>
  <g id="LINE-319" data-name="LINE">
    <line class="cls-1" x1="106" y1="64" x2="99.4" y2="82.4"/>
  </g>
  <g id="LINE-320" data-name="LINE">
    <line class="cls-1" x1="171.5" y1="159.3" x2="171.5" y2="168.3"/>
  </g>
  <g id="LINE-321" data-name="LINE">
    <line class="cls-1" x1="80.2" y1="198.7" x2="148.5" y2="174.6"/>
  </g>
  <g id="LINE-322" data-name="LINE">
    <line class="cls-1" x1="102.8" y1="183.5" x2="148.7" y2="167.4"/>
  </g>
  <g id="LINE-323" data-name="LINE">
    <line class="cls-1" x1="159.2" y1="170.7" x2="171.5" y2="166.4"/>
  </g>
  <g id="LINE-324" data-name="LINE">
    <line class="cls-1" x1="159.2" y1="105.7" x2="159.2" y2="172.6"/>
  </g>
  <g id="LINE-325" data-name="LINE">
    <line class="cls-1" x1="1" y1="217.2" x2="146" y2="166.2"/>
  </g>
  <g id="LINE-326" data-name="LINE">
    <line class="cls-1" x1="102.8" y1="181.4" x2="102.8" y2="183.5"/>
  </g>
</svg>