<svg xmlns="http://www.w3.org/2000/svg" width="14" height="41" viewBox="0 0 14 41" fill="none">
<path d="M8.70037 7.83783V0.5H5.29963V7.83783C5.03119 10.1346 3.90813 14.656 2.34665 17.6812C0.91481 20.4553 0.91481 21.8333 0.91481 27.3456V38.5313C0.914839 39.1875 1.20125 40.5 2.34665 40.5H11.6533C12.7988 40.5 13.0852 39.1875 13.0852 38.5313V27.3456C13.0852 21.8333 13.0852 20.4553 11.6533 17.6812C9.93523 15.3188 8.96881 10.1346 8.70037 7.83783Z" stroke="#3D3D3D" stroke-width="0.25"/>
<path d="M8.07106 8V0.93396H5.91481V8.11541C5.69487 10.3633 4.77942 13.911 3.41196 17.0757C2.0445 20.2403 1.6713 19.5166 1.6713 27.2075V38.1548V38.1549C1.67133 38.7971 1.67136 39.6273 2.41537 39.6273H10.7875C11.726 39.6273 12.4148 38.797 12.4148 38.1548V27.2075C12.4148 21.8127 12.4148 19.8421 10.7875 17.5096C9.37981 15.1975 8.291 10.2478 8.07106 8Z" stroke="#3D3D3D" stroke-width="0.25"/>
</svg>