<svg width="12" height="34" viewBox="0 0 12 34" fill="none" xmlns="http://www.w3.org/2000/svg">
<path d="M7.40807 2.94425C7.42713 2.85567 7.47035 2.77112 7.47416 2.68657C7.48178 2.4611 7.48178 2.2316 7.47797 2.00612C7.47797 1.96586 7.47797 1.9256 7.45892 1.88936C7.39032 1.74844 7.37508 1.59947 7.39032 1.4505C7.40176 1.2975 7.33316 1.19281 7.24552 1.09216C7.19598 1.03579 7.135 1.00761 7.0626 1.00358C6.86063 0.995526 6.3382 1.00358 5.93045 1.00358C5.51889 1.00358 5.04388 0.995526 4.84191 1.00358C4.76951 1.00358 4.70853 1.03579 4.65899 1.09216C4.57135 1.19281 4.49894 1.2975 4.51419 1.4505C4.52562 1.59947 4.51419 1.75247 4.44559 1.88936C4.43035 1.92157 4.42654 1.96586 4.42654 2.00612C4.42654 2.2316 4.42273 2.4611 4.43035 2.68657C4.43035 2.77515 4.50434 2.8597 4.5234 2.94425M7.40807 2.94425H4.5234M7.40807 2.94425C7.40807 3.11725 7.40757 3.29151 7.40676 3.46696C7.40579 3.67678 7.40438 3.88831 7.40285 4.10144C7.40307 4.10772 7.40318 4.11402 7.40318 4.12034V6.96262C7.46575 10.8328 7.91406 15.0462 10.4095 19.0829C10.9138 19.8987 10.9309 20.4921 10.9314 21.7571L10.9315 21.7618V31.2861C10.9315 31.3452 10.9224 31.4045 10.8984 31.4586C10.3342 32.7316 7.45957 33.0175 6.06439 32.9992C2.31775 32.9992 1.14515 31.9693 1.00839 31.4163C1.00167 31.3892 1 31.3614 1 31.3334V21.7618L1.00002 21.7574C1.00059 20.4922 1.01761 19.8988 1.52199 19.0829C4.0174 15.0462 4.46571 10.8329 4.52828 6.96265V4.12034C4.52828 4.11401 4.5284 4.10771 4.52862 4.10143C4.52709 3.8883 4.52568 3.67677 4.52471 3.46696C4.5239 3.29151 4.5234 3.11725 4.5234 2.94425M4.4279 1.96755H7.47734M4.51339 1.37951H7.38981M5.05092 6.9711L5.05099 6.96688L5.051 4.12002L5.0514 4.10885L5.05131 4.09768C5.04979 3.88543 5.04839 3.67521 5.04742 3.46696H6.88405C6.88308 3.67522 6.88167 3.88544 6.88015 4.09769L6.88007 4.10885L6.88047 4.12034V6.96685L6.88054 6.97107C6.94362 10.8726 7.39489 15.2005 9.96487 19.3577C10.3837 20.0352 10.4082 20.4908 10.4087 21.7574L10.4087 21.7594L10.4088 21.7618V31.2719C10.326 31.4387 10.1503 31.614 9.84778 31.7818C9.53394 31.9558 9.12821 32.0965 8.6725 32.2045C7.76148 32.4204 6.73876 32.4853 6.07123 32.4765L6.06781 32.4765H6.06439C4.23311 32.4765 3.07826 32.224 2.38488 31.9331C1.73644 31.6611 1.55825 31.3885 1.52271 31.3093L1.52271 21.7617L1.52273 21.7597L1.52273 21.7576C1.5233 20.4909 1.54777 20.0352 1.9666 19.3577C4.53657 15.2005 4.98785 10.8726 5.05092 6.9711Z" stroke="#3D3D3D" stroke-width="0.25"/>
</svg>
