<svg xmlns="http://www.w3.org/2000/svg" width="434" height="514" viewBox="0 0 434 514" fill="none">
<path d="M431.333 1L432.162 1.55983L433.216 0H431.333V1ZM2 1V0H0.0320958L1.19226 1.58955L2 1ZM231.342 297.01L230.513 296.45L230.342 296.704V297.01H231.342ZM231.342 494.988H230.342V495.405L230.639 495.699L231.342 494.988ZM314.529 502.208H315.529V501.208H314.529V502.208ZM314.529 513V514H315.529V513H314.529ZM136.04 513H135.04V514H136.04V513ZM136.04 502.208V501.208H135.04V502.208H136.04ZM217.946 495.478L218.598 496.237L218.946 495.938V495.478H217.946ZM217.946 296.868H218.946V296.542L218.754 296.278L217.946 296.868ZM48.4144 23.5007V22.5007H46.447L47.6066 24.0901L48.4144 23.5007ZM386.284 23.5007L387.115 24.0574L388.158 22.5007H386.284V23.5007ZM224.516 264.874L223.708 265.464L224.551 266.618L225.347 265.431L224.516 264.874ZM431.333 0H2V2H431.333V0ZM232.17 297.57L432.162 1.55983L430.505 0.440172L230.513 296.45L232.17 297.57ZM232.342 494.988V297.01H230.342V494.988H232.342ZM267.083 501.208C258.338 501.208 251.315 501.206 245.565 500.317C239.845 499.434 235.495 497.689 232.045 494.277L230.639 495.699C234.489 499.507 239.292 501.372 245.259 502.294C251.196 503.211 258.393 503.208 267.083 503.208V501.208ZM314.529 501.208H267.083V503.208H314.529V501.208ZM315.529 513V502.208H313.529V513H315.529ZM136.04 514H314.529V512H136.04V514ZM135.04 502.208V513H137.04V502.208H135.04ZM183.486 501.208H136.04V503.208H183.486V501.208ZM217.295 494.719C213.909 497.626 209.636 499.259 204.094 500.157C198.535 501.058 191.783 501.208 183.486 501.208V503.208C191.771 503.208 198.675 503.061 204.414 502.131C210.169 501.199 214.835 499.466 218.598 496.237L217.295 494.719ZM216.946 296.868V495.478H218.946V296.868H216.946ZM1.19226 1.58955L217.139 297.457L218.754 296.278L2.80774 0.410455L1.19226 1.58955ZM48.4144 24.5007H386.284V22.5007H48.4144V24.5007ZM225.324 264.285L49.2223 22.9113L47.6066 24.0901L223.708 265.464L225.324 264.285ZM385.453 22.9439L223.685 264.317L225.347 265.431L387.115 24.0574L385.453 22.9439Z" fill="#3D3D3D"/>
</svg>
