<svg width="35" height="42" viewBox="0 0 35 42" fill="none" xmlns="http://www.w3.org/2000/svg">
<path d="M34.5802 1L34.6838 1.07003L34.8157 0.875H34.5802V1ZM1 1V0.875H0.753845L0.899073 1.07375L1 1ZM18.9379 24.1258L18.8344 24.0558L18.8129 24.0875V24.1258H18.9379ZM18.9379 39.5928H18.8129V39.645L18.8501 39.6817L18.9379 39.5928ZM25.4444 40.1569H25.5694V40.0319H25.4444V40.1569ZM25.4444 41V41.125H25.5694V41H25.4444ZM11.4839 41H11.3589V41.125H11.4839V41ZM11.4839 40.1569V40.0319H11.3589V40.1569H11.4839ZM17.8902 39.6311L17.9716 39.726L18.0152 39.6886V39.6311H17.8902ZM17.8902 24.1147H18.0152V24.0739L17.9911 24.0409L17.8902 24.1147ZM4.6303 2.75786V2.63286H4.3842L4.52936 2.83159L4.6303 2.75786ZM31.0567 2.75786L31.1605 2.82751L31.2911 2.63286H31.0567V2.75786ZM18.4041 21.6152L18.3031 21.6889L18.4084 21.833L18.5079 21.6848L18.4041 21.6152ZM34.5802 0.875H1V1.125H34.5802V0.875ZM19.0415 24.1958L34.6838 1.07003L34.4767 0.929966L18.8344 24.0558L19.0415 24.1958ZM19.0629 39.5928V24.1258H18.8129V39.5928H19.0629ZM21.7334 40.0319C21.0482 40.0319 20.503 40.0316 20.0575 39.9628C19.616 39.8947 19.2862 39.7612 19.0258 39.5039L18.8501 39.6817C19.1606 39.9885 19.5468 40.137 20.0194 40.2099C20.488 40.2822 21.055 40.2819 21.7334 40.2819V40.0319ZM25.4444 40.0319H21.7334V40.2819H25.4444V40.0319ZM25.5694 41V40.1569H25.3194V41H25.5694ZM11.4839 41.125H25.4444V40.875H11.4839V41.125ZM11.3589 40.1569V41H11.6089V40.1569H11.3589ZM15.1949 40.0319H11.4839V40.2819H15.1949V40.0319ZM17.8089 39.5362C17.5528 39.7558 17.2278 39.881 16.7993 39.9504C16.3687 40.0201 15.8442 40.0319 15.1949 40.0319V40.2819C15.8426 40.2819 16.3862 40.2705 16.8392 40.1972C17.2943 40.1235 17.6685 39.9858 17.9716 39.726L17.8089 39.5362ZM17.7652 24.1147V39.6311H18.0152V24.1147H17.7652ZM0.899073 1.07375L17.7893 24.1884L17.9911 24.0409L1.10093 0.926252L0.899073 1.07375ZM4.6303 2.88286H31.0567V2.63286H4.6303V2.88286ZM18.505 21.5414L4.73124 2.68413L4.52936 2.83159L18.3031 21.6889L18.505 21.5414ZM30.9529 2.68822L18.3003 21.5455L18.5079 21.6848L31.1605 2.82751L30.9529 2.68822Z" fill="#3D3D3D"/>
</svg>
