<svg width="256" height="302" viewBox="0 0 256 302" fill="none" xmlns="http://www.w3.org/2000/svg">
<path d="M253.563 1L254.391 1.55983L255.445 0H253.563V1ZM2 1V0H0.0320958L1.19226 1.58955L2 1ZM136.38 174.444L135.551 173.884L135.38 174.137V174.444H136.38ZM136.38 290.446H135.38V290.863L135.677 291.157L136.38 290.446ZM185.122 294.677H186.122V293.677H185.122V294.677ZM185.122 301V302H186.122V301H185.122ZM80.5391 301H79.5391V302H80.5391V301ZM80.5391 294.677V293.677H79.5391V294.677H80.5391ZM128.531 290.733L129.182 291.492L129.531 291.193V290.733H128.531ZM128.531 174.36H129.531V174.034L129.339 173.771L128.531 174.36ZM29.1959 14.184V13.184H27.2285L28.3881 14.7734L29.1959 14.184ZM227.166 14.184L227.997 14.7407L229.04 13.184H227.166V14.184ZM132.381 155.614L131.573 156.203L132.415 157.358L133.211 156.17L132.381 155.614ZM253.563 0H2V2H253.563V0ZM137.209 175.003L254.391 1.55983L252.734 0.440172L135.551 173.884L137.209 175.003ZM137.38 290.446V174.444H135.38V290.446H137.38ZM157.322 293.677C152.187 293.677 148.108 293.674 144.777 293.16C141.477 292.65 139.021 291.652 137.083 289.735L135.677 291.157C138.016 293.471 140.923 294.588 144.472 295.136C147.988 295.679 152.242 295.677 157.322 295.677V293.677ZM185.122 293.677H157.322V295.677H185.122V293.677ZM186.122 301V294.677H184.122V301H186.122ZM80.5391 302H185.122V300H80.5391V302ZM79.5391 294.677V301H81.5391V294.677H79.5391ZM108.339 293.677H80.5391V295.677H108.339V293.677ZM127.88 289.974C125.973 291.611 123.551 292.547 120.348 293.066C117.128 293.588 113.204 293.677 108.339 293.677V295.677C113.191 295.677 117.268 295.591 120.668 295.04C124.084 294.487 126.9 293.451 129.182 291.492L127.88 289.974ZM127.531 174.36V290.733H129.531V174.36H127.531ZM1.19226 1.58955L127.723 174.95L129.339 173.771L2.80774 0.410455L1.19226 1.58955ZM29.1959 15.184H227.166V13.184H29.1959V15.184ZM133.188 155.024L30.0038 13.5946L28.3881 14.7734L131.573 156.203L133.188 155.024ZM226.336 13.6273L131.55 155.057L133.211 156.17L227.997 14.7407L226.336 13.6273Z" fill="#3D3D3D"/>
</svg>
