<svg width="14" height="42" viewBox="0 0 14 42" fill="none" xmlns="http://www.w3.org/2000/svg">
<path d="M8.78556 8.33783V1H5.38482V8.33783C5.11638 10.6346 3.99332 15.156 2.43184 18.1812C1 20.9553 1 22.3333 1 27.8456V39.0313C1.00003 39.6875 1.28644 41 2.43184 41H11.7385C12.8839 41 13.1704 39.6875 13.1704 39.0313V27.8456C13.1704 22.3333 13.1704 20.9553 11.7385 18.1812C10.0204 15.8188 9.054 10.6346 8.78556 8.33783Z" stroke="#3D3D3D" stroke-width="0.25"/>
<path d="M8.15626 8.5V1.43396H6.00001V8.61541C5.78007 10.8633 4.86462 14.411 3.49716 17.5757C2.12969 20.7403 1.7565 20.0166 1.7565 27.7075V38.6548V38.6549C1.75652 39.2971 1.75655 40.1273 2.50057 40.1273H10.8727C11.8112 40.1273 12.5 39.297 12.5 38.6548V27.7075C12.5 22.3127 12.5 20.3421 10.8727 18.0096C9.46501 15.6975 8.3762 10.7478 8.15626 8.5Z" stroke="#3D3D3D" stroke-width="0.25"/>
</svg>
