<svg width="11" height="40" viewBox="0 0 11 40" fill="none" xmlns="http://www.w3.org/2000/svg">
<path fill-rule="evenodd" clip-rule="evenodd" d="M1.45441 1.76212H1.57941H8.73016H8.85516V1.88712V14.3519C8.85516 16.1146 8.63205 17.961 8.06541 19.3716C7.49921 20.781 6.57265 21.7902 5.15479 21.7902C4.43978 21.7902 3.8536 21.4575 3.38075 20.933C2.90999 20.4109 2.54699 19.6944 2.26966 18.9095C1.71484 17.3392 1.49118 15.4604 1.45447 14.2093L1.45436 14.2056H1.45441V1.88712V1.76212ZM1.70441 2.01212V14.2038C1.74083 15.4392 1.96232 17.2892 2.50538 18.8262C2.77713 19.5954 3.12647 20.2776 3.56643 20.7656C4.00429 21.2513 4.52721 21.5402 5.15479 21.5402C6.42211 21.5402 7.28324 20.648 7.83343 19.2784C8.38318 17.9098 8.60516 16.0995 8.60516 14.3519V2.01212H1.70441ZM0.0197071 0.0200195H0.144707H10.1646H10.2896V0.14502V13.1596C10.2896 15.5583 9.99423 18.0634 9.25146 20.009C8.52535 21.911 7.35639 23.3121 5.58743 23.5087V38.0664C5.69386 38.1426 5.89159 38.2411 6.16565 38.3491C6.47558 38.4712 6.86741 38.5995 7.2975 38.7163C8.15941 38.9502 9.16333 39.1348 9.96006 39.1348H10.0851V39.2598V39.8549V39.9799H9.96006H5.25686H5.05237H0.349163H0.224163V39.8549V39.2598V39.1348H0.349163C1.14639 39.1348 2.15084 38.95 3.01288 38.7158C3.44303 38.599 3.83482 38.4706 4.14455 38.3484C4.41846 38.2404 4.61579 38.1419 4.72171 38.0659V23.5018C3.85097 23.377 3.13242 22.8784 2.54528 22.1605C1.93422 21.4133 1.45974 20.4223 1.0955 19.3449C0.366912 17.1899 0.0696907 14.6598 0.0197609 12.9583L0.0196533 12.9547H0.0197071V0.14502V0.0200195ZM0.269707 0.27002V12.9528C0.319337 14.6386 0.614399 17.1414 1.33233 19.2649C1.69147 20.3272 2.15401 21.2872 2.73881 22.0022C3.32255 22.716 4.02232 23.1792 4.85976 23.2671L4.97171 23.2788V23.3914V38.1262V38.1825L4.92961 38.2198C4.80321 38.3318 4.55027 38.4572 4.23629 38.581C3.91626 38.7072 3.51546 38.8384 3.07841 38.9571C2.24941 39.1823 1.27948 39.3657 0.474163 39.3834V39.7299H5.05237H5.25686H9.83506V39.3834C9.03025 39.3657 8.06086 39.1825 7.23201 38.9575C6.79503 38.8389 6.39421 38.7079 6.074 38.5817C5.75977 38.4579 5.50662 38.3326 5.37975 38.2207L5.33743 38.1834V38.1269V23.3952V23.2798L5.4524 23.2706C7.14208 23.1346 8.28933 21.8283 9.0179 19.9198C9.74542 18.0141 10.0396 15.5432 10.0396 13.1596V0.27002H0.269707Z" fill="#3D3D3D"/>
</svg>
